<?xml version="1.0" encoding="utf-8" standalone="no"?>
<!DOCTYPE svg PUBLIC "-//W3C//DTD SVG 1.1//EN"
  "http://www.w3.org/Graphics/SVG/1.1/DTD/svg11.dtd">
<svg xmlns:xlink="http://www.w3.org/1999/xlink" width="416.769219pt" height="323.986375pt" viewBox="0 0 416.769219 323.986375" xmlns="http://www.w3.org/2000/svg" version="1.1">
 <metadata>
  <rdf:RDF xmlns:dc="http://purl.org/dc/elements/1.1/" xmlns:cc="http://creativecommons.org/ns#" xmlns:rdf="http://www.w3.org/1999/02/22-rdf-syntax-ns#">
   <cc:Work>
    <dc:type rdf:resource="http://purl.org/dc/dcmitype/StillImage"/>
    <dc:date>2023-10-03T23:03:16.399807</dc:date>
    <dc:format>image/svg+xml</dc:format>
    <dc:creator>
     <cc:Agent>
      <dc:title>Matplotlib v3.7.3, https://matplotlib.org/</dc:title>
     </cc:Agent>
    </dc:creator>
   </cc:Work>
  </rdf:RDF>
 </metadata>
 <defs>
  <style type="text/css">*{stroke-linejoin: round; stroke-linecap: butt}</style>
 </defs>
 <g id="figure_1">
  <g id="patch_1">
   <path d="M 0 323.986375 
L 416.769219 323.986375 
L 416.769219 0 
L 0 0 
z
" style="fill: #ffffff"/>
  </g>
  <g id="axes_1">
   <g id="patch_2">
    <path d="M 43.592188 288.430125 
L 400.712188 288.430125 
L 400.712188 22.318125 
L 43.592188 22.318125 
z
" style="fill: #ffffff"/>
   </g>
   <g id="matplotlib.axis_1">
    <g id="xtick_1">
     <g id="line2d_1">
      <defs>
       <path id="ma5e3dd21dd" d="M 0 0 
L 0 -7 
" style="stroke: #000000; stroke-width: 2"/>
      </defs>
      <g>
       <use xlink:href="#ma5e3dd21dd" x="60.597902" y="288.430125" style="stroke: #000000; stroke-width: 2"/>
      </g>
     </g>
     <g id="line2d_2">
      <defs>
       <path id="m60cdf03134" d="M 0 0 
L 0 7 
" style="stroke: #000000; stroke-width: 2"/>
      </defs>
      <g>
       <use xlink:href="#m60cdf03134" x="60.597902" y="22.318125" style="stroke: #000000; stroke-width: 2"/>
      </g>
     </g>
     <g id="text_1">
      <text style="font: 700 10px 'DejaVu Sans', 'Bitstream Vera Sans', 'Computer Modern Sans Serif', 'Lucida Grande', 'Verdana', 'Geneva', 'Lucid', 'Arial', 'Helvetica', 'Avant Garde', sans-serif; text-anchor: middle" x="60.597902" y="301.028562" transform="rotate(-0 60.597902 301.028562)">0.0</text>
     </g>
    </g>
    <g id="xtick_2">
     <g id="line2d_3">
      <g>
       <use xlink:href="#ma5e3dd21dd" x="128.620759" y="288.430125" style="stroke: #000000; stroke-width: 2"/>
      </g>
     </g>
     <g id="line2d_4">
      <g>
       <use xlink:href="#m60cdf03134" x="128.620759" y="22.318125" style="stroke: #000000; stroke-width: 2"/>
      </g>
     </g>
     <g id="text_2">
      <text style="font: 700 10px 'DejaVu Sans', 'Bitstream Vera Sans', 'Computer Modern Sans Serif', 'Lucida Grande', 'Verdana', 'Geneva', 'Lucid', 'Arial', 'Helvetica', 'Avant Garde', sans-serif; text-anchor: middle" x="128.620759" y="301.028562" transform="rotate(-0 128.620759 301.028562)">0.2</text>
     </g>
    </g>
    <g id="xtick_3">
     <g id="line2d_5">
      <g>
       <use xlink:href="#ma5e3dd21dd" x="196.643616" y="288.430125" style="stroke: #000000; stroke-width: 2"/>
      </g>
     </g>
     <g id="line2d_6">
      <g>
       <use xlink:href="#m60cdf03134" x="196.643616" y="22.318125" style="stroke: #000000; stroke-width: 2"/>
      </g>
     </g>
     <g id="text_3">
      <text style="font: 700 10px 'DejaVu Sans', 'Bitstream Vera Sans', 'Computer Modern Sans Serif', 'Lucida Grande', 'Verdana', 'Geneva', 'Lucid', 'Arial', 'Helvetica', 'Avant Garde', sans-serif; text-anchor: middle" x="196.643616" y="301.028562" transform="rotate(-0 196.643616 301.028562)">0.4</text>
     </g>
    </g>
    <g id="xtick_4">
     <g id="line2d_7">
      <g>
       <use xlink:href="#ma5e3dd21dd" x="264.666473" y="288.430125" style="stroke: #000000; stroke-width: 2"/>
      </g>
     </g>
     <g id="line2d_8">
      <g>
       <use xlink:href="#m60cdf03134" x="264.666473" y="22.318125" style="stroke: #000000; stroke-width: 2"/>
      </g>
     </g>
     <g id="text_4">
      <text style="font: 700 10px 'DejaVu Sans', 'Bitstream Vera Sans', 'Computer Modern Sans Serif', 'Lucida Grande', 'Verdana', 'Geneva', 'Lucid', 'Arial', 'Helvetica', 'Avant Garde', sans-serif; text-anchor: middle" x="264.666473" y="301.028562" transform="rotate(-0 264.666473 301.028562)">0.6</text>
     </g>
    </g>
    <g id="xtick_5">
     <g id="line2d_9">
      <g>
       <use xlink:href="#ma5e3dd21dd" x="332.68933" y="288.430125" style="stroke: #000000; stroke-width: 2"/>
      </g>
     </g>
     <g id="line2d_10">
      <g>
       <use xlink:href="#m60cdf03134" x="332.68933" y="22.318125" style="stroke: #000000; stroke-width: 2"/>
      </g>
     </g>
     <g id="text_5">
      <text style="font: 700 10px 'DejaVu Sans', 'Bitstream Vera Sans', 'Computer Modern Sans Serif', 'Lucida Grande', 'Verdana', 'Geneva', 'Lucid', 'Arial', 'Helvetica', 'Avant Garde', sans-serif; text-anchor: middle" x="332.68933" y="301.028562" transform="rotate(-0 332.68933 301.028562)">0.8</text>
     </g>
    </g>
    <g id="xtick_6">
     <g id="line2d_11">
      <g>
       <use xlink:href="#ma5e3dd21dd" x="400.712188" y="288.430125" style="stroke: #000000; stroke-width: 2"/>
      </g>
     </g>
     <g id="line2d_12">
      <g>
       <use xlink:href="#m60cdf03134" x="400.712188" y="22.318125" style="stroke: #000000; stroke-width: 2"/>
      </g>
     </g>
     <g id="text_6">
      <text style="font: 700 10px 'DejaVu Sans', 'Bitstream Vera Sans', 'Computer Modern Sans Serif', 'Lucida Grande', 'Verdana', 'Geneva', 'Lucid', 'Arial', 'Helvetica', 'Avant Garde', sans-serif; text-anchor: middle" x="400.712188" y="301.028562" transform="rotate(-0 400.712188 301.028562)">1.0</text>
     </g>
    </g>
    <g id="text_7">
     <text style="font: 700 10px 'DejaVu Sans', 'Bitstream Vera Sans', 'Computer Modern Sans Serif', 'Lucida Grande', 'Verdana', 'Geneva', 'Lucid', 'Arial', 'Helvetica', 'Avant Garde', sans-serif; text-anchor: middle" x="222.152188" y="314.706687" transform="rotate(-0 222.152188 314.706687)">false positive rate</text>
    </g>
   </g>
   <g id="matplotlib.axis_2">
    <g id="ytick_1">
     <g id="line2d_13">
      <defs>
       <path id="mb3844eb113" d="M 0 0 
L 7 0 
" style="stroke: #000000; stroke-width: 2"/>
      </defs>
      <g>
       <use xlink:href="#mb3844eb113" x="43.592188" y="288.430125" style="stroke: #000000; stroke-width: 2"/>
      </g>
     </g>
     <g id="line2d_14">
      <defs>
       <path id="m6cfe9085bf" d="M 0 0 
L -7 0 
" style="stroke: #000000; stroke-width: 2"/>
      </defs>
      <g>
       <use xlink:href="#m6cfe9085bf" x="400.712188" y="288.430125" style="stroke: #000000; stroke-width: 2"/>
      </g>
     </g>
     <g id="text_8">
      <text style="font: 700 10px 'DejaVu Sans', 'Bitstream Vera Sans', 'Computer Modern Sans Serif', 'Lucida Grande', 'Verdana', 'Geneva', 'Lucid', 'Arial', 'Helvetica', 'Avant Garde', sans-serif; text-anchor: end" x="38.592188" y="292.229344" transform="rotate(-0 38.592188 292.229344)">0.0</text>
     </g>
    </g>
    <g id="ytick_2">
     <g id="line2d_15">
      <g>
       <use xlink:href="#mb3844eb113" x="43.592188" y="237.742125" style="stroke: #000000; stroke-width: 2"/>
      </g>
     </g>
     <g id="line2d_16">
      <g>
       <use xlink:href="#m6cfe9085bf" x="400.712188" y="237.742125" style="stroke: #000000; stroke-width: 2"/>
      </g>
     </g>
     <g id="text_9">
      <text style="font: 700 10px 'DejaVu Sans', 'Bitstream Vera Sans', 'Computer Modern Sans Serif', 'Lucida Grande', 'Verdana', 'Geneva', 'Lucid', 'Arial', 'Helvetica', 'Avant Garde', sans-serif; text-anchor: end" x="38.592188" y="241.541344" transform="rotate(-0 38.592188 241.541344)">0.2</text>
     </g>
    </g>
    <g id="ytick_3">
     <g id="line2d_17">
      <g>
       <use xlink:href="#mb3844eb113" x="43.592188" y="187.054125" style="stroke: #000000; stroke-width: 2"/>
      </g>
     </g>
     <g id="line2d_18">
      <g>
       <use xlink:href="#m6cfe9085bf" x="400.712188" y="187.054125" style="stroke: #000000; stroke-width: 2"/>
      </g>
     </g>
     <g id="text_10">
      <text style="font: 700 10px 'DejaVu Sans', 'Bitstream Vera Sans', 'Computer Modern Sans Serif', 'Lucida Grande', 'Verdana', 'Geneva', 'Lucid', 'Arial', 'Helvetica', 'Avant Garde', sans-serif; text-anchor: end" x="38.592188" y="190.853344" transform="rotate(-0 38.592188 190.853344)">0.4</text>
     </g>
    </g>
    <g id="ytick_4">
     <g id="line2d_19">
      <g>
       <use xlink:href="#mb3844eb113" x="43.592188" y="136.366125" style="stroke: #000000; stroke-width: 2"/>
      </g>
     </g>
     <g id="line2d_20">
      <g>
       <use xlink:href="#m6cfe9085bf" x="400.712188" y="136.366125" style="stroke: #000000; stroke-width: 2"/>
      </g>
     </g>
     <g id="text_11">
      <text style="font: 700 10px 'DejaVu Sans', 'Bitstream Vera Sans', 'Computer Modern Sans Serif', 'Lucida Grande', 'Verdana', 'Geneva', 'Lucid', 'Arial', 'Helvetica', 'Avant Garde', sans-serif; text-anchor: end" x="38.592188" y="140.165344" transform="rotate(-0 38.592188 140.165344)">0.6</text>
     </g>
    </g>
    <g id="ytick_5">
     <g id="line2d_21">
      <g>
       <use xlink:href="#mb3844eb113" x="43.592188" y="85.678125" style="stroke: #000000; stroke-width: 2"/>
      </g>
     </g>
     <g id="line2d_22">
      <g>
       <use xlink:href="#m6cfe9085bf" x="400.712188" y="85.678125" style="stroke: #000000; stroke-width: 2"/>
      </g>
     </g>
     <g id="text_12">
      <text style="font: 700 10px 'DejaVu Sans', 'Bitstream Vera Sans', 'Computer Modern Sans Serif', 'Lucida Grande', 'Verdana', 'Geneva', 'Lucid', 'Arial', 'Helvetica', 'Avant Garde', sans-serif; text-anchor: end" x="38.592188" y="89.477344" transform="rotate(-0 38.592188 89.477344)">0.8</text>
     </g>
    </g>
    <g id="ytick_6">
     <g id="line2d_23">
      <g>
       <use xlink:href="#mb3844eb113" x="43.592188" y="34.990125" style="stroke: #000000; stroke-width: 2"/>
      </g>
     </g>
     <g id="line2d_24">
      <g>
       <use xlink:href="#m6cfe9085bf" x="400.712188" y="34.990125" style="stroke: #000000; stroke-width: 2"/>
      </g>
     </g>
     <g id="text_13">
      <text style="font: 700 10px 'DejaVu Sans', 'Bitstream Vera Sans', 'Computer Modern Sans Serif', 'Lucida Grande', 'Verdana', 'Geneva', 'Lucid', 'Arial', 'Helvetica', 'Avant Garde', sans-serif; text-anchor: end" x="38.592188" y="38.789344" transform="rotate(-0 38.592188 38.789344)">1.0</text>
     </g>
    </g>
    <g id="text_14">
     <text style="font: 700 10px 'DejaVu Sans', 'Bitstream Vera Sans', 'Computer Modern Sans Serif', 'Lucida Grande', 'Verdana', 'Geneva', 'Lucid', 'Arial', 'Helvetica', 'Avant Garde', sans-serif; text-anchor: middle" x="14.798438" y="155.374125" transform="rotate(-90 14.798438 155.374125)">true positive rate</text>
    </g>
   </g>
   <g id="line2d_25">
    <path d="M 60.597902 288.430125 
L 60.597902 192.994125 
L 60.863616 192.994125 
L 60.863616 130.822125 
L 61.12933 130.822125 
L 61.12933 125.674125 
L 61.395045 125.674125 
L 61.395045 111.814125 
L 61.660759 111.814125 
L 61.660759 110.626125 
L 61.926473 110.626125 
L 61.926473 108.646125 
L 62.192188 108.646125 
L 62.192188 98.350125 
L 62.457902 98.350125 
L 62.457902 97.954125 
L 62.723616 97.954125 
L 62.723616 88.846125 
L 63.255045 88.846125 
L 63.255045 87.658125 
L 63.520759 87.658125 
L 63.520759 87.262125 
L 63.786473 87.262125 
L 63.786473 85.282125 
L 64.317902 85.282125 
L 64.317902 82.114125 
L 64.583616 82.114125 
L 64.583616 81.322125 
L 64.84933 81.322125 
L 64.84933 75.778125 
L 65.646473 75.778125 
L 65.646473 75.382125 
L 65.912188 75.382125 
L 65.912188 73.402125 
L 66.177902 73.402125 
L 66.177902 73.006125 
L 66.443616 73.006125 
L 66.443616 69.838125 
L 66.70933 69.838125 
L 66.70933 67.858125 
L 66.975045 67.858125 
L 66.975045 66.670125 
L 67.240759 66.670125 
L 67.240759 66.274125 
L 67.506473 66.274125 
L 67.506473 64.690125 
L 67.772188 64.690125 
L 67.772188 63.898125 
L 68.303616 63.898125 
L 68.303616 63.106125 
L 68.56933 63.106125 
L 68.56933 61.522125 
L 68.835045 61.522125 
L 68.835045 60.730125 
L 69.100759 60.730125 
L 69.100759 58.750125 
L 69.632188 58.750125 
L 69.632188 58.354125 
L 70.163616 58.354125 
L 70.163616 57.958125 
L 70.42933 57.958125 
L 70.42933 57.562125 
L 70.960759 57.562125 
L 70.960759 57.166125 
L 71.492188 57.166125 
L 71.492188 56.770125 
L 71.757902 56.770125 
L 71.757902 55.186125 
L 72.28933 55.186125 
L 72.28933 54.394125 
L 73.086473 54.394125 
L 73.086473 53.602125 
L 73.352187 53.602125 
L 73.352187 51.622125 
L 74.946473 51.622125 
L 74.946473 51.226125 
L 77.072188 51.226125 
L 77.072188 50.434125 
L 78.400759 50.434125 
L 78.400759 49.642125 
L 79.197902 49.642125 
L 79.197902 48.850125 
L 80.526473 48.850125 
L 80.526473 48.058125 
L 80.792188 48.058125 
L 80.792188 47.266125 
L 81.323616 47.266125 
L 81.323616 46.474125 
L 81.58933 46.474125 
L 81.58933 46.078125 
L 81.855045 46.078125 
L 81.855045 45.682125 
L 82.120759 45.682125 
L 82.120759 44.098125 
L 82.386473 44.098125 
L 82.386473 43.702125 
L 82.917902 43.702125 
L 82.917902 43.306125 
L 86.372187 43.306125 
L 86.372187 42.514125 
L 86.903616 42.514125 
L 86.903616 42.118125 
L 88.763616 42.118125 
L 88.763616 41.722125 
L 89.560759 41.722125 
L 89.560759 41.326125 
L 90.88933 41.326125 
L 90.88933 40.930125 
L 93.546473 40.930125 
L 93.546473 40.138125 
L 94.343616 40.138125 
L 94.343616 39.742125 
L 95.937902 39.742125 
L 95.937902 39.346125 
L 96.735045 39.346125 
L 96.735045 38.950125 
L 98.595045 38.950125 
L 98.595045 38.554125 
L 100.720759 38.554125 
L 100.720759 38.158125 
L 102.04933 38.158125 
L 102.04933 37.762125 
L 104.972188 37.762125 
L 104.972188 37.366125 
L 116.663616 37.366125 
L 116.663616 36.574125 
L 124.900759 36.574125 
L 124.900759 36.178125 
L 133.66933 36.178125 
L 133.66933 35.782125 
L 155.723616 35.782125 
L 155.723616 35.386125 
L 190.266473 35.386125 
L 190.266473 34.990125 
L 400.712187 34.990125 
L 400.712187 34.990125 
" clip-path="url(#p9fc856a8a9)" style="fill: none; stroke: #ff0000; stroke-width: 2; stroke-linecap: square"/>
   </g>
   <g id="line2d_26">
    <path d="M 60.597902 288.430125 
L 60.597902 223.486125 
L 60.863616 223.486125 
L 60.863616 138.742125 
L 61.12933 138.742125 
L 61.12933 132.010125 
L 61.395045 132.010125 
L 61.395045 118.546125 
L 61.926473 118.546125 
L 61.926473 105.874125 
L 62.192188 105.874125 
L 62.192188 101.518125 
L 62.457902 101.518125 
L 62.457902 96.766125 
L 62.723616 96.766125 
L 62.723616 95.182125 
L 62.98933 95.182125 
L 62.98933 91.222125 
L 63.255045 91.222125 
L 63.255045 89.242125 
L 63.520759 89.242125 
L 63.520759 87.658125 
L 63.786473 87.658125 
L 63.786473 87.262125 
L 64.052188 87.262125 
L 64.052188 85.282125 
L 64.317902 85.282125 
L 64.317902 83.698125 
L 64.583616 83.698125 
L 64.583616 81.718125 
L 64.84933 81.718125 
L 64.84933 80.530125 
L 65.115045 80.530125 
L 65.115045 79.738125 
L 65.380759 79.738125 
L 65.380759 79.342125 
L 65.646473 79.342125 
L 65.646473 77.758125 
L 65.912188 77.758125 
L 65.912188 76.174125 
L 66.177902 76.174125 
L 66.177902 75.778125 
L 66.443616 75.778125 
L 66.443616 75.382125 
L 66.975045 75.382125 
L 66.975045 74.590125 
L 67.240759 74.590125 
L 67.240759 73.402125 
L 68.037902 73.402125 
L 68.037902 67.066125 
L 69.100759 67.066125 
L 69.100759 66.670125 
L 69.366473 66.670125 
L 69.366473 66.274125 
L 69.632188 66.274125 
L 69.632188 65.878125 
L 70.42933 65.878125 
L 70.42933 65.086125 
L 70.695045 65.086125 
L 70.695045 64.690125 
L 70.960759 64.690125 
L 70.960759 63.502125 
L 71.226473 63.502125 
L 71.226473 63.106125 
L 71.492188 63.106125 
L 71.492188 62.710125 
L 72.023616 62.710125 
L 72.023616 61.522125 
L 72.555045 61.522125 
L 72.555045 60.730125 
L 72.820759 60.730125 
L 72.820759 60.334125 
L 73.086473 60.334125 
L 73.086473 59.542125 
L 73.352187 59.542125 
L 73.352187 58.750125 
L 73.617902 58.750125 
L 73.617902 57.166125 
L 73.883616 57.166125 
L 73.883616 56.770125 
L 74.14933 56.770125 
L 74.14933 56.374125 
L 74.680759 56.374125 
L 74.680759 55.978125 
L 74.946473 55.978125 
L 74.946473 54.790125 
L 75.212187 54.790125 
L 75.212187 53.998125 
L 76.275045 53.998125 
L 76.275045 53.602125 
L 76.540759 53.602125 
L 76.540759 53.206125 
L 76.806473 53.206125 
L 76.806473 52.414125 
L 77.072188 52.414125 
L 77.072188 51.622125 
L 78.932187 51.622125 
L 78.932187 50.434125 
L 80.260759 50.434125 
L 80.260759 49.642125 
L 80.526473 49.642125 
L 80.526473 48.850125 
L 80.792188 48.850125 
L 80.792188 48.058125 
L 82.917902 48.058125 
L 82.917902 47.662125 
L 83.183616 47.662125 
L 83.183616 47.266125 
L 85.043616 47.266125 
L 85.043616 46.870125 
L 85.575045 46.870125 
L 85.575045 46.474125 
L 85.840759 46.474125 
L 85.840759 46.078125 
L 86.637902 46.078125 
L 86.637902 45.682125 
L 87.700759 45.682125 
L 87.700759 45.286125 
L 87.966473 45.286125 
L 87.966473 44.890125 
L 88.763616 44.890125 
L 88.763616 44.494125 
L 89.826473 44.494125 
L 89.826473 44.098125 
L 91.155045 44.098125 
L 91.155045 43.702125 
L 93.015045 43.702125 
L 93.015045 43.306125 
L 93.280759 43.306125 
L 93.280759 42.910125 
L 95.937902 42.910125 
L 95.937902 42.514125 
L 97.797902 42.514125 
L 97.797902 41.722125 
L 98.32933 41.722125 
L 98.32933 41.326125 
L 102.315045 41.326125 
L 102.315045 40.930125 
L 103.112188 40.930125 
L 103.112188 40.534125 
L 106.300759 40.534125 
L 106.300759 40.138125 
L 108.957902 40.138125 
L 108.957902 39.742125 
L 110.552188 39.742125 
L 110.552188 39.346125 
L 111.615045 39.346125 
L 111.615045 38.950125 
L 114.006473 38.950125 
L 114.006473 38.554125 
L 118.78933 38.554125 
L 118.78933 38.158125 
L 119.055045 38.158125 
L 119.055045 37.762125 
L 128.620759 37.762125 
L 128.620759 37.366125 
L 133.935045 37.366125 
L 133.935045 36.970125 
L 135.263616 36.970125 
L 135.263616 36.574125 
L 136.060759 36.574125 
L 136.060759 36.178125 
L 155.192188 36.178125 
L 155.192188 35.782125 
L 160.506473 35.782125 
L 160.506473 35.386125 
L 254.835045 35.386125 
L 254.835045 34.990125 
L 400.712187 34.990125 
L 400.712187 34.990125 
" clip-path="url(#p9fc856a8a9)" style="fill: none; stroke: #0000ff; stroke-width: 2; stroke-linecap: square"/>
   </g>
   <g id="line2d_27">
    <path d="M 60.597902 288.430125 
L 60.597902 288.034125 
L 60.597902 284.470125 
L 60.597902 283.678125 
L 60.597902 283.282125 
L 60.597902 282.490125 
L 60.597902 278.530125 
L 60.597902 277.738125 
L 60.597902 268.630125 
L 60.597902 267.838125 
L 60.597902 258.334125 
L 60.597902 257.542125 
L 60.597902 253.582125 
L 60.597902 252.790125 
L 60.597902 243.682125 
L 60.597902 242.890125 
L 60.597902 226.258125 
L 60.597902 225.070125 
L 60.597902 199.726125 
L 60.597902 198.934125 
L 60.597902 188.242125 
L 60.597902 187.450125 
L 60.597902 161.710125 
L 60.597902 160.918125 
L 60.597902 106.666125 
L 60.863616 106.666125 
L 60.863616 76.966125 
L 61.12933 76.966125 
L 61.12933 56.770125 
L 61.395045 56.770125 
L 61.395045 53.602125 
L 61.660759 53.602125 
L 61.660759 52.018125 
L 61.926473 52.018125 
L 61.926473 51.622125 
L 62.192188 51.622125 
L 62.192188 48.454125 
L 62.457902 48.454125 
L 62.457902 46.474125 
L 62.723616 46.474125 
L 62.723616 44.890125 
L 62.98933 44.890125 
L 62.98933 44.494125 
L 63.520759 44.494125 
L 63.520759 40.930125 
L 65.115045 40.930125 
L 65.115045 39.346125 
L 65.380759 39.346125 
L 65.380759 38.158125 
L 66.177902 38.158125 
L 66.177902 37.762125 
L 67.240759 37.762125 
L 67.240759 36.970125 
L 68.835045 36.970125 
L 68.835045 36.178125 
L 69.100759 36.178125 
L 69.100759 35.782125 
L 75.212187 35.782125 
L 75.212187 35.386125 
L 132.340759 35.386125 
L 132.340759 34.990125 
L 400.712187 34.990125 
" clip-path="url(#p9fc856a8a9)" style="fill: none; stroke: #008000; stroke-width: 2; stroke-linecap: square"/>
   </g>
   <g id="line2d_28">
    <path d="M 60.597902 288.430125 
L 400.712187 34.990125 
" clip-path="url(#p9fc856a8a9)" style="fill: none; stroke-dasharray: 7.4,3.2; stroke-dashoffset: 0; stroke: #000000; stroke-width: 2"/>
   </g>
   <g id="patch_3">
    <path d="M 43.592188 288.430125 
L 43.592188 22.318125 
" style="fill: none; stroke: #000000; stroke-width: 2; stroke-linejoin: miter; stroke-linecap: square"/>
   </g>
   <g id="patch_4">
    <path d="M 400.712188 288.430125 
L 400.712188 22.318125 
" style="fill: none; stroke: #000000; stroke-width: 2; stroke-linejoin: miter; stroke-linecap: square"/>
   </g>
   <g id="patch_5">
    <path d="M 43.592188 288.430125 
L 400.712187 288.430125 
" style="fill: none; stroke: #000000; stroke-width: 2; stroke-linejoin: miter; stroke-linecap: square"/>
   </g>
   <g id="patch_6">
    <path d="M 43.592188 22.318125 
L 400.712187 22.318125 
" style="fill: none; stroke: #000000; stroke-width: 2; stroke-linejoin: miter; stroke-linecap: square"/>
   </g>
   <g id="text_15">
    <text style="font: 700 12px 'DejaVu Sans', 'Bitstream Vera Sans', 'Computer Modern Sans Serif', 'Lucida Grande', 'Verdana', 'Geneva', 'Lucid', 'Arial', 'Helvetica', 'Avant Garde', sans-serif; text-anchor: middle" x="222.152188" y="16.318125" transform="rotate(-0 222.152188 16.318125)">Multi-class classification ROC for charge features</text>
   </g>
   <g id="legend_1">
    <g id="patch_7">
     <path d="M 134.954375 283.430125 
L 393.712188 283.430125 
Q 395.712188 283.430125 395.712188 281.430125 
L 395.712188 238.39575 
Q 395.712188 236.39575 393.712188 236.39575 
L 134.954375 236.39575 
Q 132.954375 236.39575 132.954375 238.39575 
L 132.954375 281.430125 
Q 132.954375 283.430125 134.954375 283.430125 
z
" style="fill: #ffffff; opacity: 0.8; stroke: #cccccc; stroke-linejoin: miter"/>
    </g>
    <g id="line2d_29">
     <path d="M 136.954375 244.494187 
L 146.954375 244.494187 
L 156.954375 244.494187 
" style="fill: none; stroke: #ff0000; stroke-width: 2; stroke-linecap: square"/>
    </g>
    <g id="text_16">
     <text style="font: 700 10px 'DejaVu Sans', 'Bitstream Vera Sans', 'Computer Modern Sans Serif', 'Lucida Grande', 'Verdana', 'Geneva', 'Lucid', 'Arial', 'Helvetica', 'Avant Garde', sans-serif; text-anchor: start" x="164.954375" y="247.994187" transform="rotate(-0 164.954375 247.994187)">ROC curve (area = 0.99) for class mc6</text>
    </g>
    <g id="line2d_30">
     <path d="M 136.954375 259.172312 
L 146.954375 259.172312 
L 156.954375 259.172312 
" style="fill: none; stroke: #0000ff; stroke-width: 2; stroke-linecap: square"/>
    </g>
    <g id="text_17">
     <text style="font: 700 10px 'DejaVu Sans', 'Bitstream Vera Sans', 'Computer Modern Sans Serif', 'Lucida Grande', 'Verdana', 'Geneva', 'Lucid', 'Arial', 'Helvetica', 'Avant Garde', sans-serif; text-anchor: start" x="164.954375" y="262.672312" transform="rotate(-0 164.954375 262.672312)">ROC curve (area = 0.99) for class mc6s</text>
    </g>
    <g id="line2d_31">
     <path d="M 136.954375 273.850437 
L 146.954375 273.850437 
L 156.954375 273.850437 
" style="fill: none; stroke: #008000; stroke-width: 2; stroke-linecap: square"/>
    </g>
    <g id="text_18">
     <text style="font: 700 10px 'DejaVu Sans', 'Bitstream Vera Sans', 'Computer Modern Sans Serif', 'Lucida Grande', 'Verdana', 'Geneva', 'Lucid', 'Arial', 'Helvetica', 'Avant Garde', sans-serif; text-anchor: start" x="164.954375" y="277.350437" transform="rotate(-0 164.954375 277.350437)">ROC curve (area = 1.00) for class mc6sa</text>
    </g>
   </g>
  </g>
 </g>
 <defs>
  <clipPath id="p9fc856a8a9">
   <rect x="43.592188" y="22.318125" width="357.12" height="266.112"/>
  </clipPath>
 </defs>
</svg>
