<?xml version="1.0" encoding="utf-8" standalone="no"?>
<!DOCTYPE svg PUBLIC "-//W3C//DTD SVG 1.1//EN"
  "http://www.w3.org/Graphics/SVG/1.1/DTD/svg11.dtd">
<svg xmlns:xlink="http://www.w3.org/1999/xlink" width="416.769219pt" height="323.986375pt" viewBox="0 0 416.769219 323.986375" xmlns="http://www.w3.org/2000/svg" version="1.1">
 <metadata>
  <rdf:RDF xmlns:dc="http://purl.org/dc/elements/1.1/" xmlns:cc="http://creativecommons.org/ns#" xmlns:rdf="http://www.w3.org/1999/02/22-rdf-syntax-ns#">
   <cc:Work>
    <dc:type rdf:resource="http://purl.org/dc/dcmitype/StillImage"/>
    <dc:date>2023-10-03T23:03:15.814945</dc:date>
    <dc:format>image/svg+xml</dc:format>
    <dc:creator>
     <cc:Agent>
      <dc:title>Matplotlib v3.7.3, https://matplotlib.org/</dc:title>
     </cc:Agent>
    </dc:creator>
   </cc:Work>
  </rdf:RDF>
 </metadata>
 <defs>
  <style type="text/css">*{stroke-linejoin: round; stroke-linecap: butt}</style>
 </defs>
 <g id="figure_1">
  <g id="patch_1">
   <path d="M 0 323.986375 
L 416.769219 323.986375 
L 416.769219 0 
L 0 0 
z
" style="fill: #ffffff"/>
  </g>
  <g id="axes_1">
   <g id="patch_2">
    <path d="M 43.592188 288.430125 
L 400.712188 288.430125 
L 400.712188 22.318125 
L 43.592188 22.318125 
z
" style="fill: #ffffff"/>
   </g>
   <g id="matplotlib.axis_1">
    <g id="xtick_1">
     <g id="line2d_1">
      <defs>
       <path id="ma854f49e88" d="M 0 0 
L 0 -7 
" style="stroke: #000000; stroke-width: 2"/>
      </defs>
      <g>
       <use xlink:href="#ma854f49e88" x="60.597902" y="288.430125" style="stroke: #000000; stroke-width: 2"/>
      </g>
     </g>
     <g id="line2d_2">
      <defs>
       <path id="mc345be70c3" d="M 0 0 
L 0 7 
" style="stroke: #000000; stroke-width: 2"/>
      </defs>
      <g>
       <use xlink:href="#mc345be70c3" x="60.597902" y="22.318125" style="stroke: #000000; stroke-width: 2"/>
      </g>
     </g>
     <g id="text_1">
      <text style="font: 700 10px 'DejaVu Sans', 'Bitstream Vera Sans', 'Computer Modern Sans Serif', 'Lucida Grande', 'Verdana', 'Geneva', 'Lucid', 'Arial', 'Helvetica', 'Avant Garde', sans-serif; text-anchor: middle" x="60.597902" y="301.028562" transform="rotate(-0 60.597902 301.028562)">0.0</text>
     </g>
    </g>
    <g id="xtick_2">
     <g id="line2d_3">
      <g>
       <use xlink:href="#ma854f49e88" x="128.620759" y="288.430125" style="stroke: #000000; stroke-width: 2"/>
      </g>
     </g>
     <g id="line2d_4">
      <g>
       <use xlink:href="#mc345be70c3" x="128.620759" y="22.318125" style="stroke: #000000; stroke-width: 2"/>
      </g>
     </g>
     <g id="text_2">
      <text style="font: 700 10px 'DejaVu Sans', 'Bitstream Vera Sans', 'Computer Modern Sans Serif', 'Lucida Grande', 'Verdana', 'Geneva', 'Lucid', 'Arial', 'Helvetica', 'Avant Garde', sans-serif; text-anchor: middle" x="128.620759" y="301.028562" transform="rotate(-0 128.620759 301.028562)">0.2</text>
     </g>
    </g>
    <g id="xtick_3">
     <g id="line2d_5">
      <g>
       <use xlink:href="#ma854f49e88" x="196.643616" y="288.430125" style="stroke: #000000; stroke-width: 2"/>
      </g>
     </g>
     <g id="line2d_6">
      <g>
       <use xlink:href="#mc345be70c3" x="196.643616" y="22.318125" style="stroke: #000000; stroke-width: 2"/>
      </g>
     </g>
     <g id="text_3">
      <text style="font: 700 10px 'DejaVu Sans', 'Bitstream Vera Sans', 'Computer Modern Sans Serif', 'Lucida Grande', 'Verdana', 'Geneva', 'Lucid', 'Arial', 'Helvetica', 'Avant Garde', sans-serif; text-anchor: middle" x="196.643616" y="301.028562" transform="rotate(-0 196.643616 301.028562)">0.4</text>
     </g>
    </g>
    <g id="xtick_4">
     <g id="line2d_7">
      <g>
       <use xlink:href="#ma854f49e88" x="264.666473" y="288.430125" style="stroke: #000000; stroke-width: 2"/>
      </g>
     </g>
     <g id="line2d_8">
      <g>
       <use xlink:href="#mc345be70c3" x="264.666473" y="22.318125" style="stroke: #000000; stroke-width: 2"/>
      </g>
     </g>
     <g id="text_4">
      <text style="font: 700 10px 'DejaVu Sans', 'Bitstream Vera Sans', 'Computer Modern Sans Serif', 'Lucida Grande', 'Verdana', 'Geneva', 'Lucid', 'Arial', 'Helvetica', 'Avant Garde', sans-serif; text-anchor: middle" x="264.666473" y="301.028562" transform="rotate(-0 264.666473 301.028562)">0.6</text>
     </g>
    </g>
    <g id="xtick_5">
     <g id="line2d_9">
      <g>
       <use xlink:href="#ma854f49e88" x="332.68933" y="288.430125" style="stroke: #000000; stroke-width: 2"/>
      </g>
     </g>
     <g id="line2d_10">
      <g>
       <use xlink:href="#mc345be70c3" x="332.68933" y="22.318125" style="stroke: #000000; stroke-width: 2"/>
      </g>
     </g>
     <g id="text_5">
      <text style="font: 700 10px 'DejaVu Sans', 'Bitstream Vera Sans', 'Computer Modern Sans Serif', 'Lucida Grande', 'Verdana', 'Geneva', 'Lucid', 'Arial', 'Helvetica', 'Avant Garde', sans-serif; text-anchor: middle" x="332.68933" y="301.028562" transform="rotate(-0 332.68933 301.028562)">0.8</text>
     </g>
    </g>
    <g id="xtick_6">
     <g id="line2d_11">
      <g>
       <use xlink:href="#ma854f49e88" x="400.712188" y="288.430125" style="stroke: #000000; stroke-width: 2"/>
      </g>
     </g>
     <g id="line2d_12">
      <g>
       <use xlink:href="#mc345be70c3" x="400.712188" y="22.318125" style="stroke: #000000; stroke-width: 2"/>
      </g>
     </g>
     <g id="text_6">
      <text style="font: 700 10px 'DejaVu Sans', 'Bitstream Vera Sans', 'Computer Modern Sans Serif', 'Lucida Grande', 'Verdana', 'Geneva', 'Lucid', 'Arial', 'Helvetica', 'Avant Garde', sans-serif; text-anchor: middle" x="400.712188" y="301.028562" transform="rotate(-0 400.712188 301.028562)">1.0</text>
     </g>
    </g>
    <g id="text_7">
     <text style="font: 700 10px 'DejaVu Sans', 'Bitstream Vera Sans', 'Computer Modern Sans Serif', 'Lucida Grande', 'Verdana', 'Geneva', 'Lucid', 'Arial', 'Helvetica', 'Avant Garde', sans-serif; text-anchor: middle" x="222.152188" y="314.706687" transform="rotate(-0 222.152188 314.706687)">false positive rate</text>
    </g>
   </g>
   <g id="matplotlib.axis_2">
    <g id="ytick_1">
     <g id="line2d_13">
      <defs>
       <path id="m2f937fe04d" d="M 0 0 
L 7 0 
" style="stroke: #000000; stroke-width: 2"/>
      </defs>
      <g>
       <use xlink:href="#m2f937fe04d" x="43.592188" y="288.430125" style="stroke: #000000; stroke-width: 2"/>
      </g>
     </g>
     <g id="line2d_14">
      <defs>
       <path id="m43e74e5549" d="M 0 0 
L -7 0 
" style="stroke: #000000; stroke-width: 2"/>
      </defs>
      <g>
       <use xlink:href="#m43e74e5549" x="400.712188" y="288.430125" style="stroke: #000000; stroke-width: 2"/>
      </g>
     </g>
     <g id="text_8">
      <text style="font: 700 10px 'DejaVu Sans', 'Bitstream Vera Sans', 'Computer Modern Sans Serif', 'Lucida Grande', 'Verdana', 'Geneva', 'Lucid', 'Arial', 'Helvetica', 'Avant Garde', sans-serif; text-anchor: end" x="38.592188" y="292.229344" transform="rotate(-0 38.592188 292.229344)">0.0</text>
     </g>
    </g>
    <g id="ytick_2">
     <g id="line2d_15">
      <g>
       <use xlink:href="#m2f937fe04d" x="43.592188" y="237.742125" style="stroke: #000000; stroke-width: 2"/>
      </g>
     </g>
     <g id="line2d_16">
      <g>
       <use xlink:href="#m43e74e5549" x="400.712188" y="237.742125" style="stroke: #000000; stroke-width: 2"/>
      </g>
     </g>
     <g id="text_9">
      <text style="font: 700 10px 'DejaVu Sans', 'Bitstream Vera Sans', 'Computer Modern Sans Serif', 'Lucida Grande', 'Verdana', 'Geneva', 'Lucid', 'Arial', 'Helvetica', 'Avant Garde', sans-serif; text-anchor: end" x="38.592188" y="241.541344" transform="rotate(-0 38.592188 241.541344)">0.2</text>
     </g>
    </g>
    <g id="ytick_3">
     <g id="line2d_17">
      <g>
       <use xlink:href="#m2f937fe04d" x="43.592188" y="187.054125" style="stroke: #000000; stroke-width: 2"/>
      </g>
     </g>
     <g id="line2d_18">
      <g>
       <use xlink:href="#m43e74e5549" x="400.712188" y="187.054125" style="stroke: #000000; stroke-width: 2"/>
      </g>
     </g>
     <g id="text_10">
      <text style="font: 700 10px 'DejaVu Sans', 'Bitstream Vera Sans', 'Computer Modern Sans Serif', 'Lucida Grande', 'Verdana', 'Geneva', 'Lucid', 'Arial', 'Helvetica', 'Avant Garde', sans-serif; text-anchor: end" x="38.592188" y="190.853344" transform="rotate(-0 38.592188 190.853344)">0.4</text>
     </g>
    </g>
    <g id="ytick_4">
     <g id="line2d_19">
      <g>
       <use xlink:href="#m2f937fe04d" x="43.592188" y="136.366125" style="stroke: #000000; stroke-width: 2"/>
      </g>
     </g>
     <g id="line2d_20">
      <g>
       <use xlink:href="#m43e74e5549" x="400.712188" y="136.366125" style="stroke: #000000; stroke-width: 2"/>
      </g>
     </g>
     <g id="text_11">
      <text style="font: 700 10px 'DejaVu Sans', 'Bitstream Vera Sans', 'Computer Modern Sans Serif', 'Lucida Grande', 'Verdana', 'Geneva', 'Lucid', 'Arial', 'Helvetica', 'Avant Garde', sans-serif; text-anchor: end" x="38.592188" y="140.165344" transform="rotate(-0 38.592188 140.165344)">0.6</text>
     </g>
    </g>
    <g id="ytick_5">
     <g id="line2d_21">
      <g>
       <use xlink:href="#m2f937fe04d" x="43.592188" y="85.678125" style="stroke: #000000; stroke-width: 2"/>
      </g>
     </g>
     <g id="line2d_22">
      <g>
       <use xlink:href="#m43e74e5549" x="400.712188" y="85.678125" style="stroke: #000000; stroke-width: 2"/>
      </g>
     </g>
     <g id="text_12">
      <text style="font: 700 10px 'DejaVu Sans', 'Bitstream Vera Sans', 'Computer Modern Sans Serif', 'Lucida Grande', 'Verdana', 'Geneva', 'Lucid', 'Arial', 'Helvetica', 'Avant Garde', sans-serif; text-anchor: end" x="38.592188" y="89.477344" transform="rotate(-0 38.592188 89.477344)">0.8</text>
     </g>
    </g>
    <g id="ytick_6">
     <g id="line2d_23">
      <g>
       <use xlink:href="#m2f937fe04d" x="43.592188" y="34.990125" style="stroke: #000000; stroke-width: 2"/>
      </g>
     </g>
     <g id="line2d_24">
      <g>
       <use xlink:href="#m43e74e5549" x="400.712188" y="34.990125" style="stroke: #000000; stroke-width: 2"/>
      </g>
     </g>
     <g id="text_13">
      <text style="font: 700 10px 'DejaVu Sans', 'Bitstream Vera Sans', 'Computer Modern Sans Serif', 'Lucida Grande', 'Verdana', 'Geneva', 'Lucid', 'Arial', 'Helvetica', 'Avant Garde', sans-serif; text-anchor: end" x="38.592188" y="38.789344" transform="rotate(-0 38.592188 38.789344)">1.0</text>
     </g>
    </g>
    <g id="text_14">
     <text style="font: 700 10px 'DejaVu Sans', 'Bitstream Vera Sans', 'Computer Modern Sans Serif', 'Lucida Grande', 'Verdana', 'Geneva', 'Lucid', 'Arial', 'Helvetica', 'Avant Garde', sans-serif; text-anchor: middle" x="14.798438" y="155.374125" transform="rotate(-90 14.798438 155.374125)">true positive rate</text>
    </g>
   </g>
   <g id="line2d_25">
    <path d="M 60.597902 288.430125 
L 98.860759 288.430125 
L 98.860759 288.034125 
L 102.04933 288.034125 
L 102.04933 287.638125 
L 106.300759 287.638125 
L 106.300759 287.242125 
L 107.097902 287.242125 
L 107.097902 286.450125 
L 107.895045 286.450125 
L 107.895045 286.054125 
L 108.160759 286.054125 
L 108.160759 285.658125 
L 108.426473 285.658125 
L 108.426473 285.262125 
L 110.020759 285.262125 
L 110.020759 284.470125 
L 110.286473 284.074125 
L 111.083616 284.074125 
L 111.083616 283.282125 
L 111.34933 283.282125 
L 111.34933 282.490125 
L 111.615045 282.490125 
L 111.615045 282.094125 
L 112.677902 282.094125 
L 112.677902 281.698125 
L 112.943616 281.698125 
L 112.943616 281.302125 
L 115.866473 281.302125 
L 115.866473 280.906125 
L 116.132188 280.906125 
L 116.132188 280.510125 
L 117.195045 280.510125 
L 117.195045 280.114125 
L 118.257902 280.114125 
L 118.257902 279.718125 
L 121.446473 279.718125 
L 121.446473 279.322125 
L 123.040759 279.322125 
L 123.040759 278.926125 
L 134.200759 278.926125 
L 134.200759 278.530125 
L 138.983616 278.530125 
L 138.983616 278.134125 
L 140.312187 278.134125 
L 140.312187 277.738125 
L 145.095045 277.738125 
L 145.095045 277.342125 
L 149.080759 277.342125 
L 149.080759 276.946125 
L 149.346473 276.946125 
L 149.346473 276.550125 
L 150.40933 276.550125 
L 150.40933 276.154125 
L 151.737902 276.154125 
L 151.737902 275.758125 
L 152.26933 275.758125 
L 152.26933 275.362125 
L 152.535045 275.362125 
L 152.535045 274.966125 
L 153.332188 274.966125 
L 153.332188 274.570125 
L 153.597902 274.570125 
L 153.597902 274.174125 
L 154.395045 274.174125 
L 154.395045 273.382125 
L 155.723616 273.382125 
L 155.723616 272.986125 
L 155.98933 272.986125 
L 155.98933 272.590125 
L 157.052188 272.590125 
L 157.052188 272.194125 
L 157.583616 272.194125 
L 157.583616 271.798125 
L 158.380759 271.798125 
L 158.380759 271.402125 
L 158.646473 271.402125 
L 158.646473 270.610125 
L 159.70933 270.610125 
L 159.70933 270.214125 
L 162.100759 270.214125 
L 162.100759 268.234125 
L 162.632187 268.234125 
L 162.632187 267.442125 
L 163.695045 267.442125 
L 163.695045 266.650125 
L 164.492188 266.650125 
L 164.492188 266.254125 
L 165.820759 266.254125 
L 165.820759 265.462125 
L 166.352187 265.462125 
L 166.352187 265.066125 
L 166.617902 265.066125 
L 166.617902 263.086125 
L 167.14933 263.086125 
L 167.14933 262.690125 
L 167.415045 262.690125 
L 167.415045 261.106125 
L 167.946473 261.106125 
L 167.946473 260.710125 
L 168.477902 260.710125 
L 168.477902 260.314125 
L 168.743616 260.314125 
L 168.743616 259.918125 
L 169.00933 259.918125 
L 169.00933 259.522125 
L 169.275045 259.522125 
L 169.275045 259.126125 
L 169.540759 259.126125 
L 169.540759 258.334125 
L 170.072188 258.334125 
L 170.072188 256.354125 
L 170.337902 256.354125 
L 170.337902 255.166125 
L 170.603616 255.166125 
L 170.603616 252.394125 
L 171.135045 252.394125 
L 171.135045 251.998125 
L 171.666473 251.998125 
L 171.666473 251.206125 
L 172.197902 251.206125 
L 172.197902 250.414125 
L 172.463616 250.414125 
L 172.463616 250.018125 
L 172.72933 250.018125 
L 172.72933 248.434125 
L 172.995045 248.434125 
L 172.995045 248.038125 
L 173.260759 248.038125 
L 173.260759 247.642125 
L 174.323616 247.642125 
L 174.323616 246.850125 
L 174.58933 246.850125 
L 174.58933 246.454125 
L 174.855045 246.454125 
L 174.855045 243.682125 
L 175.120759 243.682125 
L 175.120759 242.890125 
L 175.386473 242.890125 
L 175.386473 242.098125 
L 175.652187 242.098125 
L 175.652187 240.118125 
L 175.917902 240.118125 
L 175.917902 238.930125 
L 176.183616 238.930125 
L 176.183616 237.742125 
L 176.44933 237.742125 
L 176.44933 236.554125 
L 176.715045 236.554125 
L 176.715045 235.366125 
L 177.246473 235.366125 
L 177.246473 234.574125 
L 177.512188 234.574125 
L 177.512188 233.386125 
L 178.043616 233.386125 
L 178.043616 232.594125 
L 178.30933 232.594125 
L 178.30933 231.010125 
L 178.575045 231.010125 
L 178.575045 227.446125 
L 178.840759 227.446125 
L 178.840759 227.050125 
L 179.106473 227.050125 
L 179.106473 226.654125 
L 179.372187 226.654125 
L 179.372187 221.506125 
L 179.903616 221.506125 
L 179.903616 220.318125 
L 180.16933 220.318125 
L 180.16933 218.338125 
L 180.435045 218.338125 
L 180.435045 217.150125 
L 180.700759 217.150125 
L 180.700759 216.754125 
L 180.966473 216.754125 
L 180.966473 214.378125 
L 181.232188 214.378125 
L 181.232188 212.398125 
L 181.497902 212.398125 
L 181.497902 210.418125 
L 181.763616 210.418125 
L 181.763616 209.230125 
L 182.02933 209.230125 
L 182.02933 208.834125 
L 182.295045 208.834125 
L 182.295045 208.438125 
L 182.560759 208.438125 
L 182.560759 206.854125 
L 182.826473 206.854125 
L 182.826473 206.458125 
L 183.092187 206.458125 
L 183.092187 205.270125 
L 183.88933 205.270125 
L 183.88933 202.894125 
L 184.155045 202.894125 
L 184.155045 202.102125 
L 184.420759 202.102125 
L 184.420759 201.310125 
L 184.686473 201.310125 
L 184.686473 200.518125 
L 185.217902 200.518125 
L 185.217902 199.330125 
L 185.483616 199.330125 
L 185.483616 198.934125 
L 185.74933 198.934125 
L 185.74933 198.538125 
L 186.015045 198.538125 
L 186.015045 197.746125 
L 186.546473 197.746125 
L 186.546473 197.350125 
L 187.077902 197.350125 
L 187.077902 196.558125 
L 188.140759 196.558125 
L 188.140759 195.766125 
L 188.672188 195.766125 
L 188.672188 195.370125 
L 188.937902 195.370125 
L 188.937902 193.390125 
L 189.203616 193.390125 
L 189.203616 192.994125 
L 189.46933 192.994125 
L 189.46933 191.410125 
L 189.735045 191.410125 
L 189.735045 191.014125 
L 190.000759 191.014125 
L 190.000759 189.826125 
L 190.797902 189.826125 
L 190.797902 188.242125 
L 191.063616 188.242125 
L 191.063616 187.450125 
L 191.32933 187.450125 
L 191.32933 184.282125 
L 191.595045 184.282125 
L 191.595045 183.094125 
L 192.657902 183.094125 
L 192.657902 182.698125 
L 193.18933 182.698125 
L 193.18933 181.906125 
L 193.720759 181.906125 
L 193.720759 180.718125 
L 193.986473 180.718125 
L 193.986473 180.322125 
L 194.252187 180.322125 
L 194.252187 179.926125 
L 194.517902 179.926125 
L 194.517902 179.530125 
L 195.04933 179.530125 
L 195.04933 177.946125 
L 195.315045 177.946125 
L 195.315045 175.966125 
L 195.846473 175.966125 
L 195.846473 175.570125 
L 196.112188 175.570125 
L 196.112188 174.382125 
L 196.377902 174.382125 
L 196.377902 172.006125 
L 196.90933 172.006125 
L 196.90933 171.214125 
L 197.175045 171.214125 
L 197.175045 170.818125 
L 197.440759 170.818125 
L 197.440759 170.422125 
L 197.706473 170.422125 
L 197.706473 170.026125 
L 197.972188 170.026125 
L 197.972188 168.442125 
L 198.237902 168.442125 
L 198.237902 166.066125 
L 198.76933 166.066125 
L 198.76933 164.086125 
L 199.035045 164.086125 
L 199.035045 163.690125 
L 199.300759 163.690125 
L 199.300759 162.106125 
L 199.566473 162.106125 
L 199.566473 160.126125 
L 199.832188 160.126125 
L 199.832188 158.542125 
L 200.097902 158.542125 
L 200.097902 158.146125 
L 200.363616 158.146125 
L 200.363616 157.354125 
L 200.62933 157.354125 
L 200.62933 156.958125 
L 201.160759 156.958125 
L 201.160759 156.562125 
L 201.426473 156.562125 
L 201.426473 155.770125 
L 201.957902 155.770125 
L 201.957902 155.374125 
L 202.223616 155.374125 
L 202.223616 154.978125 
L 202.48933 154.978125 
L 202.48933 153.790125 
L 203.817902 153.790125 
L 203.817902 153.394125 
L 204.083616 153.394125 
L 204.083616 152.998125 
L 205.146473 152.998125 
L 205.146473 152.602125 
L 205.412188 152.602125 
L 205.412188 149.434125 
L 205.677902 149.434125 
L 205.677902 149.038125 
L 205.943616 149.038125 
L 205.943616 148.246125 
L 206.20933 148.246125 
L 206.20933 147.454125 
L 206.740759 147.454125 
L 206.740759 145.870125 
L 207.006473 145.870125 
L 207.006473 144.682125 
L 207.272188 144.682125 
L 207.272188 143.098125 
L 207.537902 143.098125 
L 207.537902 142.306125 
L 208.06933 142.306125 
L 208.06933 141.514125 
L 208.335045 141.514125 
L 208.335045 139.930125 
L 208.600759 139.930125 
L 208.600759 139.534125 
L 208.866473 139.534125 
L 208.866473 139.138125 
L 209.132188 139.138125 
L 209.132188 138.346125 
L 209.397902 138.346125 
L 209.397902 137.950125 
L 209.92933 137.950125 
L 209.92933 136.762125 
L 210.195045 136.762125 
L 210.195045 136.366125 
L 210.460759 136.366125 
L 210.460759 133.990125 
L 211.257902 133.990125 
L 211.257902 133.594125 
L 211.78933 133.594125 
L 211.78933 133.198125 
L 212.055045 133.198125 
L 212.055045 132.802125 
L 212.320759 132.802125 
L 212.320759 130.030125 
L 212.586473 130.030125 
L 212.586473 129.634125 
L 212.852187 129.634125 
L 212.852187 128.050125 
L 213.117902 128.050125 
L 213.117902 127.258125 
L 213.915045 127.258125 
L 213.915045 125.278125 
L 214.180759 125.278125 
L 214.180759 124.090125 
L 215.243616 124.090125 
L 215.243616 121.714125 
L 215.775045 121.714125 
L 215.775045 120.922125 
L 216.040759 120.922125 
L 216.040759 119.734125 
L 217.36933 119.734125 
L 217.36933 117.754125 
L 217.635045 117.754125 
L 217.635045 116.566125 
L 217.900759 116.566125 
L 217.900759 116.170125 
L 218.166473 116.170125 
L 218.166473 114.982125 
L 218.697902 114.982125 
L 218.697902 114.190125 
L 218.963616 114.190125 
L 218.963616 113.794125 
L 219.22933 113.794125 
L 219.22933 113.398125 
L 219.495045 113.398125 
L 219.495045 112.210125 
L 219.760759 112.210125 
L 219.760759 111.814125 
L 220.557902 111.814125 
L 220.557902 109.042125 
L 220.823616 109.042125 
L 220.823616 108.250125 
L 221.620759 108.250125 
L 221.620759 107.854125 
L 222.417902 107.854125 
L 222.417902 106.666125 
L 224.012188 106.666125 
L 224.012188 105.082125 
L 224.277902 105.082125 
L 224.277902 103.498125 
L 224.80933 103.498125 
L 224.80933 103.102125 
L 225.075045 103.102125 
L 225.075045 102.310125 
L 225.872188 102.310125 
L 225.872188 101.914125 
L 226.66933 101.914125 
L 226.66933 101.518125 
L 226.935045 101.518125 
L 226.935045 101.122125 
L 227.200759 101.122125 
L 227.200759 100.330125 
L 227.466473 100.330125 
L 227.466473 99.538125 
L 229.060759 99.538125 
L 229.060759 98.350125 
L 229.326473 98.350125 
L 229.326473 97.954125 
L 230.123616 97.954125 
L 230.123616 97.558125 
L 231.452188 97.558125 
L 231.452188 97.162125 
L 231.983616 97.162125 
L 231.983616 96.766125 
L 232.515045 96.766125 
L 232.515045 96.370125 
L 232.780759 96.370125 
L 232.780759 95.578125 
L 233.312187 95.578125 
L 233.312187 95.182125 
L 233.843616 95.182125 
L 233.843616 94.786125 
L 234.10933 94.786125 
L 234.10933 93.994125 
L 234.906473 93.994125 
L 234.906473 93.598125 
L 235.172188 93.598125 
L 235.172188 92.806125 
L 235.437902 92.806125 
L 235.437902 92.410125 
L 235.703616 92.410125 
L 235.703616 91.618125 
L 236.500759 91.618125 
L 236.500759 90.826125 
L 237.032188 90.826125 
L 237.032188 90.430125 
L 237.297902 90.430125 
L 237.297902 90.034125 
L 237.563616 90.034125 
L 237.563616 88.450125 
L 237.82933 88.450125 
L 237.82933 88.054125 
L 238.892187 88.054125 
L 238.892187 87.658125 
L 239.68933 87.658125 
L 239.68933 87.262125 
L 239.955045 87.262125 
L 239.955045 86.866125 
L 240.752187 86.866125 
L 240.752187 86.470125 
L 241.54933 86.470125 
L 241.54933 86.074125 
L 242.080759 86.074125 
L 242.080759 85.678125 
L 242.346473 85.678125 
L 242.346473 85.282125 
L 243.40933 85.282125 
L 243.40933 84.490125 
L 244.206473 84.490125 
L 244.206473 83.698125 
L 245.800759 83.698125 
L 245.800759 82.510125 
L 246.597902 82.510125 
L 246.597902 82.114125 
L 246.863616 82.114125 
L 246.863616 81.718125 
L 247.660759 81.718125 
L 247.660759 81.322125 
L 248.192187 81.322125 
L 248.192187 80.926125 
L 250.317902 80.926125 
L 250.317902 80.530125 
L 252.443616 80.530125 
L 252.443616 80.134125 
L 252.70933 80.134125 
L 252.70933 79.342125 
L 254.037902 79.342125 
L 254.037902 78.946125 
L 256.163616 78.946125 
L 256.163616 78.154125 
L 256.960759 78.154125 
L 256.960759 77.758125 
L 257.226473 77.758125 
L 257.226473 76.966125 
L 257.757902 76.966125 
L 257.757902 76.570125 
L 259.086473 76.570125 
L 259.086473 76.174125 
L 259.617902 76.174125 
L 259.617902 75.778125 
L 259.883616 75.778125 
L 259.883616 75.382125 
L 260.680759 75.382125 
L 260.680759 74.986125 
L 261.212187 74.986125 
L 261.212187 74.590125 
L 264.135045 74.590125 
L 264.135045 74.194125 
L 266.792187 74.194125 
L 266.792187 73.402125 
L 273.16933 73.402125 
L 273.16933 73.006125 
L 273.966473 73.006125 
L 273.966473 72.610125 
L 274.232188 72.610125 
L 274.232188 71.026125 
L 274.497902 71.026125 
L 274.497902 70.630125 
L 274.763616 70.630125 
L 274.763616 70.234125 
L 275.02933 70.234125 
L 275.02933 69.838125 
L 275.560759 69.838125 
L 275.560759 69.046125 
L 276.092187 69.046125 
L 276.092187 68.650125 
L 278.74933 68.650125 
L 278.74933 68.254125 
L 279.015045 68.254125 
L 279.015045 67.858125 
L 279.546473 67.858125 
L 279.546473 67.462125 
L 279.812187 67.462125 
L 279.812187 67.066125 
L 280.343616 67.066125 
L 280.343616 66.670125 
L 280.875045 66.670125 
L 280.875045 66.274125 
L 281.937902 66.274125 
L 281.937902 65.878125 
L 282.203616 65.878125 
L 282.203616 65.482125 
L 283.532188 65.482125 
L 283.532188 65.086125 
L 283.797902 65.086125 
L 283.797902 64.690125 
L 285.126473 64.690125 
L 285.126473 64.294125 
L 286.720759 64.294125 
L 286.720759 63.898125 
L 287.252187 63.898125 
L 287.252187 63.106125 
L 287.517902 63.106125 
L 287.517902 62.710125 
L 287.783616 62.710125 
L 287.783616 62.314125 
L 288.04933 62.314125 
L 288.04933 61.522125 
L 288.580759 61.522125 
L 288.580759 59.938125 
L 289.643616 59.938125 
L 289.643616 59.542125 
L 289.90933 59.542125 
L 289.90933 59.146125 
L 290.440759 59.146125 
L 290.440759 58.750125 
L 290.706473 58.750125 
L 290.706473 57.958125 
L 290.972188 57.958125 
L 290.972188 57.562125 
L 291.503616 57.562125 
L 291.503616 57.166125 
L 292.035045 57.166125 
L 292.035045 55.582125 
L 292.832188 55.582125 
L 292.832188 54.394125 
L 296.817902 54.394125 
L 296.817902 53.998125 
L 297.34933 53.998125 
L 297.34933 53.206125 
L 297.880759 53.206125 
L 297.880759 52.810125 
L 298.677902 52.810125 
L 298.677902 51.622125 
L 298.943616 51.622125 
L 298.943616 51.226125 
L 299.475045 51.226125 
L 299.475045 50.830125 
L 301.06933 50.830125 
L 301.06933 50.434125 
L 301.335045 50.434125 
L 301.335045 50.038125 
L 302.132187 50.038125 
L 302.132187 49.246125 
L 302.397902 49.246125 
L 302.397902 48.850125 
L 305.055045 48.850125 
L 305.055045 48.454125 
L 306.117902 48.454125 
L 306.117902 47.662125 
L 306.383616 47.662125 
L 306.383616 46.474125 
L 307.180759 46.474125 
L 307.180759 46.078125 
L 308.243616 46.078125 
L 308.243616 44.494125 
L 310.900759 44.494125 
L 310.900759 44.098125 
L 312.760759 44.098125 
L 312.760759 43.702125 
L 314.08933 43.702125 
L 314.08933 43.306125 
L 315.152187 43.306125 
L 315.152187 42.910125 
L 316.480759 42.910125 
L 316.480759 42.118125 
L 318.872187 42.118125 
L 318.872187 41.722125 
L 319.403616 41.722125 
L 319.403616 41.326125 
L 323.38933 41.326125 
L 323.38933 40.930125 
L 324.717902 40.930125 
L 324.717902 40.534125 
L 325.24933 40.534125 
L 325.24933 40.138125 
L 330.297902 40.138125 
L 330.297902 39.742125 
L 332.423616 39.742125 
L 332.423616 39.346125 
L 340.12933 39.346125 
L 340.12933 38.950125 
L 342.255045 38.950125 
L 342.255045 38.554125 
L 343.583616 38.554125 
L 343.583616 38.158125 
L 345.177902 38.158125 
L 345.177902 37.762125 
L 345.70933 37.762125 
L 345.70933 37.366125 
L 348.897902 37.366125 
L 348.897902 36.970125 
L 349.695045 36.970125 
L 349.695045 36.574125 
L 352.086473 36.574125 
L 352.086473 36.178125 
L 352.352187 36.178125 
L 352.352187 35.782125 
L 353.946473 35.782125 
L 353.946473 35.386125 
L 355.540759 35.386125 
L 355.540759 34.990125 
L 400.712187 34.990125 
L 400.712187 34.990125 
" clip-path="url(#pbd0d0fa90e)" style="fill: none; stroke: #ff0000; stroke-width: 2; stroke-linecap: square"/>
   </g>
   <g id="line2d_26">
    <path d="M 60.597902 288.430125 
L 60.597902 274.570125 
L 60.863616 274.174125 
L 60.863616 273.382125 
L 61.12933 273.382125 
L 61.395045 272.986125 
L 61.660759 272.986125 
L 61.660759 271.798125 
L 62.192188 271.798125 
L 62.192188 271.402125 
L 62.723616 271.402125 
L 62.723616 270.610125 
L 62.98933 270.610125 
L 62.98933 269.818125 
L 63.255045 269.818125 
L 63.255045 269.422125 
L 63.520759 269.026125 
L 63.520759 265.462125 
L 63.786473 265.462125 
L 63.786473 262.294125 
L 64.052188 262.294125 
L 64.052188 258.334125 
L 64.317902 258.334125 
L 64.317902 257.938125 
L 64.583616 257.938125 
L 64.583616 255.166125 
L 64.84933 255.166125 
L 64.84933 253.582125 
L 65.115045 253.582125 
L 65.115045 253.186125 
L 65.380759 253.186125 
L 65.380759 249.622125 
L 65.646473 249.622125 
L 65.646473 248.830125 
L 65.912188 248.830125 
L 65.912188 246.850125 
L 66.177902 246.850125 
L 66.177902 246.058125 
L 66.443616 246.058125 
L 66.443616 245.266125 
L 66.70933 245.266125 
L 66.70933 244.870125 
L 66.975045 244.870125 
L 66.975045 244.078125 
L 67.506473 244.078125 
L 67.506473 242.890125 
L 68.037902 242.890125 
L 68.037902 241.702125 
L 68.303616 241.702125 
L 68.303616 240.118125 
L 68.835045 240.118125 
L 68.835045 236.950125 
L 69.100759 236.950125 
L 69.100759 235.762125 
L 69.632188 235.762125 
L 69.632188 233.782125 
L 69.897902 233.782125 
L 69.897902 232.990125 
L 70.42933 232.990125 
L 70.42933 231.802125 
L 71.757902 231.802125 
L 71.757902 229.030125 
L 72.023616 229.030125 
L 72.28933 228.634125 
L 72.28933 228.238125 
L 72.555045 228.238125 
L 72.555045 227.842125 
L 72.820759 227.842125 
L 72.820759 226.258125 
L 73.883616 226.258125 
L 73.883616 225.862125 
L 74.946473 225.862125 
L 74.946473 224.278125 
L 76.00933 224.278125 
L 76.00933 223.882125 
L 76.275045 223.882125 
L 76.275045 223.486125 
L 76.540759 223.486125 
L 76.540759 223.090125 
L 76.806473 223.090125 
L 76.806473 222.298125 
L 77.072188 222.298125 
L 77.072188 221.902125 
L 77.337902 221.902125 
L 77.337902 221.506125 
L 77.86933 221.506125 
L 77.86933 220.714125 
L 78.135045 220.714125 
L 78.135045 219.526125 
L 78.400759 219.526125 
L 78.400759 219.130125 
L 79.72933 219.130125 
L 79.72933 218.734125 
L 79.995045 218.734125 
L 79.995045 218.338125 
L 81.323616 218.338125 
L 81.323616 216.754125 
L 81.58933 216.754125 
L 81.58933 215.962125 
L 82.120759 215.962125 
L 82.120759 215.566125 
L 83.980759 215.566125 
L 83.980759 215.170125 
L 85.043616 215.170125 
L 85.043616 214.774125 
L 85.575045 214.774125 
L 85.575045 214.378125 
L 85.840759 214.378125 
L 85.840759 213.982125 
L 86.106473 213.982125 
L 86.106473 213.586125 
L 86.372187 213.586125 
L 86.372187 212.794125 
L 86.637902 212.794125 
L 86.637902 212.398125 
L 86.903616 212.398125 
L 86.903616 210.814125 
L 87.700759 210.814125 
L 87.700759 210.022125 
L 87.966473 210.022125 
L 87.966473 208.834125 
L 88.497902 208.834125 
L 88.497902 208.042125 
L 88.763616 208.042125 
L 88.763616 207.250125 
L 89.02933 207.250125 
L 89.02933 206.854125 
L 89.295045 206.854125 
L 89.295045 206.458125 
L 89.560759 206.458125 
L 89.560759 205.666125 
L 89.826473 205.666125 
L 89.826473 205.270125 
L 90.357902 205.270125 
L 90.357902 204.874125 
L 90.623616 204.874125 
L 90.623616 204.478125 
L 90.88933 204.478125 
L 90.88933 204.082125 
L 91.155045 204.082125 
L 91.155045 203.686125 
L 91.420759 203.686125 
L 91.420759 202.498125 
L 92.217902 202.498125 
L 92.217902 202.102125 
L 93.812188 202.102125 
L 93.812188 200.914125 
L 94.343616 200.914125 
L 94.343616 200.122125 
L 94.60933 200.122125 
L 94.60933 196.954125 
L 95.937902 196.954125 
L 95.937902 196.162125 
L 96.46933 196.162125 
L 96.46933 194.974125 
L 97.000759 194.974125 
L 97.000759 194.182125 
L 98.32933 194.182125 
L 98.32933 193.786125 
L 99.392188 193.786125 
L 99.392188 191.806125 
L 100.455045 191.806125 
L 100.455045 191.014125 
L 101.783616 191.014125 
L 101.783616 190.618125 
L 102.04933 190.618125 
L 102.04933 190.222125 
L 102.580759 190.222125 
L 102.580759 189.826125 
L 102.846473 189.826125 
L 102.846473 189.430125 
L 103.112188 189.430125 
L 103.112188 189.034125 
L 103.90933 189.034125 
L 103.90933 188.638125 
L 104.175045 188.638125 
L 104.175045 188.242125 
L 104.440759 188.242125 
L 104.440759 187.846125 
L 105.237902 187.846125 
L 105.237902 187.450125 
L 105.503616 187.450125 
L 105.503616 187.054125 
L 106.300759 187.054125 
L 106.300759 186.658125 
L 106.566473 186.658125 
L 106.566473 186.262125 
L 106.832188 186.262125 
L 106.832188 185.470125 
L 107.097902 185.470125 
L 107.097902 185.074125 
L 107.363616 185.074125 
L 107.363616 184.678125 
L 107.62933 184.678125 
L 107.62933 184.282125 
L 107.895045 184.282125 
L 107.895045 183.886125 
L 108.160759 183.886125 
L 108.160759 183.490125 
L 108.426473 183.490125 
L 108.426473 183.094125 
L 108.692188 183.094125 
L 108.692188 182.698125 
L 108.957902 182.698125 
L 108.957902 182.302125 
L 109.223616 182.302125 
L 109.223616 181.906125 
L 110.286473 181.906125 
L 110.286473 181.510125 
L 110.817902 181.510125 
L 110.817902 181.114125 
L 111.615045 181.114125 
L 111.615045 180.718125 
L 112.412188 180.718125 
L 112.412188 179.926125 
L 112.943616 179.926125 
L 112.943616 179.134125 
L 113.740759 179.134125 
L 113.740759 178.738125 
L 114.006473 178.738125 
L 114.006473 178.342125 
L 114.537902 178.342125 
L 114.537902 177.946125 
L 115.866473 177.946125 
L 115.866473 177.154125 
L 116.132188 177.154125 
L 116.132188 176.362125 
L 117.195045 176.362125 
L 117.195045 175.174125 
L 118.523616 175.174125 
L 118.523616 173.194125 
L 119.055045 173.194125 
L 119.055045 172.402125 
L 119.320759 172.402125 
L 119.320759 172.006125 
L 119.586473 172.006125 
L 119.586473 171.610125 
L 119.852188 171.610125 
L 119.852188 169.630125 
L 121.446473 169.630125 
L 121.446473 169.234125 
L 121.712187 169.234125 
L 121.712187 168.838125 
L 122.50933 168.838125 
L 122.50933 168.442125 
L 123.572187 168.442125 
L 123.572187 167.254125 
L 124.900759 167.254125 
L 124.900759 166.858125 
L 125.432187 166.858125 
L 125.432187 166.462125 
L 125.697902 166.462125 
L 125.697902 166.066125 
L 127.026473 166.066125 
L 127.026473 165.670125 
L 127.292188 165.670125 
L 127.292188 165.274125 
L 127.823616 165.274125 
L 127.823616 164.878125 
L 129.152187 164.878125 
L 129.152187 164.482125 
L 130.746473 164.482125 
L 130.746473 164.086125 
L 131.012188 164.086125 
L 131.012188 162.898125 
L 134.997902 162.898125 
L 134.997902 161.710125 
L 136.326473 161.710125 
L 136.326473 160.918125 
L 136.592187 160.918125 
L 136.592187 160.522125 
L 137.38933 160.522125 
L 137.38933 160.126125 
L 137.655045 160.126125 
L 137.655045 159.334125 
L 138.452188 159.334125 
L 138.452188 158.938125 
L 138.983616 158.938125 
L 138.983616 157.750125 
L 139.24933 157.750125 
L 139.24933 156.166125 
L 139.780759 156.166125 
L 139.780759 155.770125 
L 140.843616 155.770125 
L 140.843616 155.374125 
L 141.640759 155.374125 
L 141.640759 154.582125 
L 141.906473 154.582125 
L 141.906473 154.186125 
L 143.235045 154.186125 
L 143.235045 153.790125 
L 144.563616 153.790125 
L 144.563616 153.394125 
L 145.095045 153.394125 
L 145.095045 152.998125 
L 145.360759 152.998125 
L 145.360759 152.602125 
L 145.626473 152.602125 
L 145.626473 152.206125 
L 145.892188 152.206125 
L 145.892188 151.810125 
L 147.752187 151.810125 
L 147.752187 151.018125 
L 150.40933 151.018125 
L 150.40933 150.622125 
L 152.535045 150.622125 
L 152.535045 150.226125 
L 154.12933 150.226125 
L 154.12933 149.830125 
L 154.395045 149.830125 
L 154.395045 149.434125 
L 154.660759 149.434125 
L 154.660759 149.038125 
L 158.380759 149.038125 
L 158.380759 148.642125 
L 158.912188 148.642125 
L 158.912188 148.246125 
L 159.70933 148.246125 
L 159.70933 147.850125 
L 160.240759 147.850125 
L 160.240759 147.454125 
L 161.037902 147.454125 
L 161.037902 147.058125 
L 161.835045 147.058125 
L 161.835045 146.662125 
L 162.100759 146.662125 
L 162.100759 146.266125 
L 162.632187 146.266125 
L 162.632187 145.870125 
L 163.163616 145.870125 
L 163.163616 145.474125 
L 165.555045 145.474125 
L 165.555045 144.286125 
L 166.352187 144.286125 
L 166.352187 143.890125 
L 167.415045 143.890125 
L 167.415045 143.494125 
L 167.680759 143.494125 
L 167.680759 143.098125 
L 167.946473 143.098125 
L 167.946473 142.306125 
L 169.275045 142.306125 
L 169.275045 141.910125 
L 169.806473 141.910125 
L 169.806473 141.514125 
L 171.932187 141.514125 
L 171.932187 140.722125 
L 173.260759 140.722125 
L 173.260759 140.326125 
L 173.792188 140.326125 
L 173.792188 139.930125 
L 174.057902 139.930125 
L 174.057902 139.534125 
L 177.512188 139.534125 
L 177.512188 139.138125 
L 177.777902 139.138125 
L 177.777902 138.742125 
L 183.623616 138.742125 
L 183.623616 137.950125 
L 190.532187 137.950125 
L 190.532187 137.158125 
L 196.643616 137.158125 
L 196.643616 136.762125 
L 204.880759 136.762125 
L 204.880759 136.366125 
L 218.166473 136.366125 
L 218.166473 135.970125 
L 222.94933 135.970125 
L 222.94933 135.574125 
L 224.543616 135.574125 
L 224.543616 135.178125 
L 231.452188 135.178125 
L 231.452188 134.782125 
L 233.577902 134.782125 
L 233.577902 133.990125 
L 243.143616 133.990125 
L 243.143616 133.594125 
L 247.395045 133.594125 
L 247.395045 133.198125 
L 247.660759 133.198125 
L 247.660759 132.802125 
L 252.177902 132.802125 
L 252.177902 132.406125 
L 254.56933 132.406125 
L 254.56933 132.010125 
L 262.540759 132.010125 
L 262.540759 131.614125 
L 263.072187 131.614125 
L 263.072187 131.218125 
L 266.792187 131.218125 
L 266.792187 130.822125 
L 268.386473 130.822125 
L 268.386473 130.426125 
L 269.183616 130.426125 
L 269.183616 130.030125 
L 397.78933 130.030125 
L 397.78933 129.238125 
L 398.320759 129.238125 
L 398.320759 128.842125 
L 398.852187 128.842125 
L 398.852187 128.446125 
L 399.383616 128.446125 
L 399.383616 127.258125 
L 399.915045 127.258125 
L 399.915045 126.862125 
L 400.712187 126.862125 
L 400.712187 34.990125 
L 400.712187 34.990125 
" clip-path="url(#pbd0d0fa90e)" style="fill: none; stroke: #0000ff; stroke-width: 2; stroke-linecap: square"/>
   </g>
   <g id="line2d_27">
    <path d="M 60.597902 288.430125 
L 60.597902 284.470125 
L 60.863616 284.470125 
L 60.863616 283.678125 
L 61.12933 283.678125 
L 61.12933 279.718125 
L 61.395045 279.718125 
L 61.395045 277.342125 
L 61.660759 277.342125 
L 61.660759 276.154125 
L 61.926473 276.154125 
L 61.926473 275.362125 
L 62.192188 275.362125 
L 62.192188 274.966125 
L 62.457902 274.966125 
L 62.457902 272.986125 
L 62.723616 272.986125 
L 62.723616 272.590125 
L 62.98933 272.590125 
L 62.98933 269.818125 
L 63.255045 269.818125 
L 63.255045 267.838125 
L 63.520759 267.838125 
L 63.520759 267.046125 
L 63.786473 267.046125 
L 63.786473 265.858125 
L 64.052188 265.858125 
L 64.052188 265.462125 
L 64.317902 265.462125 
L 64.317902 264.274125 
L 64.583616 264.274125 
L 64.583616 262.690125 
L 65.380759 262.690125 
L 65.380759 261.106125 
L 65.646473 261.106125 
L 65.646473 260.314125 
L 66.177902 260.314125 
L 66.177902 259.918125 
L 66.443616 259.918125 
L 66.443616 259.522125 
L 66.975045 259.522125 
L 66.975045 259.126125 
L 67.240759 259.126125 
L 67.240759 258.334125 
L 67.506473 258.334125 
L 67.506473 257.938125 
L 68.037902 257.938125 
L 68.037902 257.146125 
L 68.303616 257.146125 
L 68.303616 255.562125 
L 68.835045 255.562125 
L 68.835045 253.978125 
L 69.100759 253.978125 
L 69.100759 252.790125 
L 69.897902 252.790125 
L 69.897902 251.602125 
L 70.695045 251.602125 
L 70.695045 250.414125 
L 71.226473 250.414125 
L 71.226473 248.038125 
L 72.023616 248.038125 
L 72.023616 246.454125 
L 72.28933 246.454125 
L 72.28933 245.266125 
L 73.617902 245.266125 
L 73.617902 240.910125 
L 73.883616 240.910125 
L 74.14933 240.514125 
L 74.14933 239.722125 
L 74.680759 239.722125 
L 74.680759 238.930125 
L 74.946473 238.930125 
L 74.946473 238.138125 
L 75.212187 238.138125 
L 75.212187 237.742125 
L 75.477902 237.742125 
L 75.477902 236.158125 
L 75.743616 236.158125 
L 75.743616 233.386125 
L 76.00933 233.386125 
L 76.00933 226.258125 
L 76.275045 226.258125 
L 76.275045 225.466125 
L 76.540759 225.466125 
L 76.540759 224.674125 
L 77.072188 224.674125 
L 77.072188 219.130125 
L 77.337902 219.130125 
L 77.337902 217.546125 
L 77.603616 217.546125 
L 77.603616 210.814125 
L 77.86933 210.814125 
L 77.86933 207.646125 
L 78.135045 207.646125 
L 78.135045 207.250125 
L 78.400759 207.250125 
L 78.400759 198.142125 
L 78.666473 198.142125 
L 78.666473 197.350125 
L 79.197902 197.350125 
L 79.197902 195.766125 
L 79.72933 195.766125 
L 79.72933 195.370125 
L 79.995045 195.370125 
L 79.995045 194.578125 
L 80.260759 194.578125 
L 80.260759 189.034125 
L 80.526473 189.034125 
L 80.526473 185.074125 
L 80.792188 185.074125 
L 80.792188 184.678125 
L 81.057902 184.678125 
L 81.057902 179.926125 
L 81.58933 179.926125 
L 81.58933 177.154125 
L 82.120759 177.154125 
L 82.120759 176.362125 
L 82.386473 176.362125 
L 82.386473 174.778125 
L 82.652188 174.778125 
L 82.652188 173.986125 
L 82.917902 173.986125 
L 82.917902 173.590125 
L 83.183616 173.590125 
L 83.183616 171.610125 
L 83.715045 171.610125 
L 83.715045 170.818125 
L 84.777902 170.818125 
L 84.777902 169.630125 
L 85.043616 169.630125 
L 85.043616 169.234125 
L 85.575045 169.234125 
L 85.575045 168.442125 
L 85.840759 168.442125 
L 85.840759 167.254125 
L 86.903616 167.254125 
L 86.903616 166.066125 
L 87.16933 166.066125 
L 87.16933 165.670125 
L 87.966473 165.670125 
L 87.966473 165.274125 
L 88.232188 165.274125 
L 88.232188 164.878125 
L 90.357902 164.878125 
L 90.357902 164.482125 
L 91.420759 164.482125 
L 91.420759 164.086125 
L 92.217902 164.086125 
L 92.217902 162.898125 
L 92.74933 162.898125 
L 92.74933 162.502125 
L 93.280759 162.502125 
L 93.280759 162.106125 
L 93.812188 162.106125 
L 93.812188 161.314125 
L 94.077902 161.314125 
L 94.077902 160.918125 
L 94.60933 160.918125 
L 94.60933 160.522125 
L 95.140759 160.522125 
L 95.140759 160.126125 
L 95.937902 160.126125 
L 95.937902 159.730125 
L 96.203616 159.730125 
L 96.203616 159.334125 
L 96.46933 159.334125 
L 96.46933 158.938125 
L 97.532188 158.938125 
L 97.532188 158.542125 
L 97.797902 158.542125 
L 97.797902 157.354125 
L 98.860759 157.354125 
L 98.860759 155.770125 
L 102.315045 155.770125 
L 102.315045 154.978125 
L 102.580759 154.978125 
L 102.580759 154.186125 
L 105.237902 154.186125 
L 105.237902 152.998125 
L 106.300759 152.998125 
L 106.300759 152.602125 
L 107.363616 152.602125 
L 107.363616 152.206125 
L 107.895045 152.206125 
L 107.895045 151.414125 
L 108.957902 151.414125 
L 108.957902 150.622125 
L 110.817902 150.622125 
L 110.817902 150.226125 
L 111.34933 150.226125 
L 111.34933 149.830125 
L 113.20933 149.830125 
L 113.20933 149.434125 
L 113.740759 149.434125 
L 113.740759 149.038125 
L 114.006473 149.038125 
L 114.006473 148.246125 
L 114.803616 148.246125 
L 114.803616 147.850125 
L 115.600759 147.850125 
L 115.600759 147.454125 
L 115.866473 147.454125 
L 115.866473 146.662125 
L 116.397902 146.662125 
L 116.397902 145.870125 
L 116.92933 145.870125 
L 116.92933 145.474125 
L 117.726473 145.474125 
L 117.726473 144.682125 
L 117.992188 144.682125 
L 117.992188 144.286125 
L 118.257902 144.286125 
L 118.257902 143.890125 
L 118.523616 143.890125 
L 118.523616 143.494125 
L 120.64933 143.494125 
L 120.64933 142.702125 
L 122.775045 142.702125 
L 122.775045 142.306125 
L 123.040759 142.306125 
L 123.040759 141.910125 
L 123.572187 141.910125 
L 123.572187 141.514125 
L 124.635045 141.514125 
L 124.635045 140.722125 
L 125.166473 140.722125 
L 125.166473 139.930125 
L 125.432187 139.930125 
L 125.432187 139.534125 
L 125.697902 139.534125 
L 125.697902 138.742125 
L 125.963616 138.742125 
L 125.963616 138.346125 
L 128.355045 138.346125 
L 128.355045 137.950125 
L 128.886473 137.950125 
L 128.886473 137.158125 
L 130.746473 137.158125 
L 130.746473 136.762125 
L 133.403616 136.762125 
L 133.403616 136.366125 
L 134.200759 136.366125 
L 134.200759 135.970125 
L 135.263616 135.970125 
L 135.263616 135.574125 
L 140.843616 135.574125 
L 140.843616 135.178125 
L 142.96933 135.178125 
L 142.96933 134.782125 
L 143.235045 134.782125 
L 143.235045 134.386125 
L 143.766473 134.386125 
L 143.766473 133.990125 
L 145.360759 133.990125 
L 145.360759 133.594125 
L 146.157902 133.594125 
L 146.157902 132.802125 
L 147.486473 132.802125 
L 147.486473 132.406125 
L 148.54933 132.406125 
L 148.54933 132.010125 
L 150.143616 132.010125 
L 150.143616 131.218125 
L 150.940759 131.218125 
L 150.940759 130.426125 
L 151.737902 130.426125 
L 151.737902 130.030125 
L 152.003616 130.030125 
L 152.003616 128.446125 
L 152.800759 128.446125 
L 152.800759 127.654125 
L 153.863616 127.654125 
L 153.863616 127.258125 
L 154.12933 127.258125 
L 154.12933 126.862125 
L 154.395045 126.862125 
L 154.395045 126.070125 
L 154.660759 126.070125 
L 154.660759 125.278125 
L 154.926473 125.278125 
L 154.926473 124.486125 
L 156.255045 124.486125 
L 156.255045 124.090125 
L 157.052188 124.090125 
L 157.052188 123.694125 
L 157.84933 123.694125 
L 157.84933 122.110125 
L 158.115045 122.110125 
L 158.115045 121.714125 
L 158.380759 121.714125 
L 158.380759 120.922125 
L 158.646473 120.922125 
L 158.646473 120.526125 
L 158.912188 120.526125 
L 158.912188 119.734125 
L 159.177902 119.734125 
L 159.177902 118.942125 
L 159.975045 118.942125 
L 159.975045 118.546125 
L 160.772188 118.546125 
L 160.772188 118.150125 
L 161.037902 118.150125 
L 161.037902 117.358125 
L 161.835045 117.358125 
L 161.835045 116.566125 
L 162.100759 116.566125 
L 162.100759 116.170125 
L 162.366473 116.170125 
L 162.366473 114.586125 
L 162.632187 114.586125 
L 162.632187 113.002125 
L 163.163616 113.002125 
L 163.163616 112.606125 
L 163.42933 112.606125 
L 163.42933 112.210125 
L 163.960759 112.210125 
L 163.960759 111.418125 
L 164.226473 111.418125 
L 164.226473 110.626125 
L 165.555045 110.626125 
L 165.555045 110.230125 
L 166.086473 110.230125 
L 166.086473 109.042125 
L 166.883616 109.042125 
L 166.883616 108.646125 
L 167.415045 108.646125 
L 167.415045 108.250125 
L 167.946473 108.250125 
L 167.946473 107.854125 
L 170.072188 107.854125 
L 170.072188 106.666125 
L 170.337902 106.666125 
L 170.337902 106.270125 
L 170.86933 106.270125 
L 170.86933 105.874125 
L 171.135045 105.874125 
L 171.135045 105.478125 
L 171.400759 105.478125 
L 171.400759 104.290125 
L 172.72933 104.290125 
L 172.72933 102.310125 
L 173.526473 102.310125 
L 173.526473 101.914125 
L 174.057902 101.914125 
L 174.057902 101.518125 
L 174.855045 101.518125 
L 174.855045 101.122125 
L 176.44933 101.122125 
L 176.44933 100.726125 
L 177.512188 100.726125 
L 177.512188 100.330125 
L 178.043616 100.330125 
L 178.043616 99.934125 
L 178.30933 99.934125 
L 178.30933 99.538125 
L 179.372187 99.538125 
L 179.372187 98.746125 
L 179.637902 98.746125 
L 179.637902 98.350125 
L 180.16933 98.350125 
L 180.16933 97.558125 
L 181.763616 97.558125 
L 181.763616 96.766125 
L 182.560759 96.766125 
L 182.560759 95.182125 
L 184.155045 95.182125 
L 184.155045 94.786125 
L 185.217902 94.786125 
L 185.217902 94.390125 
L 185.483616 94.390125 
L 185.483616 93.994125 
L 186.015045 93.994125 
L 186.015045 93.202125 
L 186.546473 93.202125 
L 186.546473 92.410125 
L 186.812187 92.410125 
L 186.812187 92.014125 
L 187.077902 92.014125 
L 187.077902 91.618125 
L 188.672188 91.618125 
L 188.672188 91.222125 
L 189.203616 91.222125 
L 189.203616 90.430125 
L 189.46933 90.430125 
L 189.46933 90.034125 
L 190.266473 90.034125 
L 190.266473 89.638125 
L 191.063616 89.638125 
L 191.063616 88.450125 
L 191.860759 88.450125 
L 191.860759 88.054125 
L 192.126473 88.054125 
L 192.126473 87.262125 
L 192.923616 87.262125 
L 192.923616 86.074125 
L 193.18933 86.074125 
L 193.18933 85.282125 
L 193.455045 85.282125 
L 193.455045 84.094125 
L 193.720759 84.094125 
L 193.720759 82.906125 
L 193.986473 82.906125 
L 193.986473 80.926125 
L 195.315045 80.926125 
L 195.315045 78.946125 
L 195.580759 78.946125 
L 195.580759 78.550125 
L 196.112188 78.550125 
L 196.112188 78.154125 
L 197.972188 78.154125 
L 197.972188 77.362125 
L 198.237902 77.362125 
L 198.237902 75.778125 
L 198.503616 75.778125 
L 198.503616 75.382125 
L 199.566473 75.382125 
L 199.566473 74.194125 
L 199.832188 74.194125 
L 199.832188 73.798125 
L 200.097902 73.798125 
L 200.097902 73.402125 
L 200.363616 73.402125 
L 200.363616 73.006125 
L 200.62933 73.006125 
L 200.62933 72.610125 
L 200.895045 72.610125 
L 200.895045 71.818125 
L 202.48933 71.818125 
L 202.48933 71.422125 
L 202.755045 71.422125 
L 202.755045 71.026125 
L 203.286473 71.026125 
L 203.286473 70.234125 
L 203.552188 70.234125 
L 203.552188 69.838125 
L 203.817902 69.838125 
L 203.817902 69.046125 
L 204.083616 69.046125 
L 204.083616 68.650125 
L 205.146473 68.650125 
L 205.146473 67.858125 
L 205.677902 67.858125 
L 205.677902 67.066125 
L 205.943616 67.066125 
L 205.943616 66.670125 
L 206.475045 66.670125 
L 206.475045 66.274125 
L 206.740759 66.274125 
L 206.740759 65.086125 
L 207.006473 65.086125 
L 207.006473 63.502125 
L 208.06933 63.502125 
L 208.06933 62.710125 
L 208.335045 62.710125 
L 208.335045 62.314125 
L 208.866473 62.314125 
L 208.866473 61.918125 
L 209.132188 61.918125 
L 209.132188 61.522125 
L 209.663616 61.522125 
L 209.663616 60.730125 
L 209.92933 60.730125 
L 209.92933 60.334125 
L 210.195045 60.334125 
L 210.195045 59.542125 
L 210.460759 59.542125 
L 210.460759 58.354125 
L 214.180759 58.354125 
L 214.180759 57.166125 
L 214.446473 57.166125 
L 214.446473 56.374125 
L 214.712187 56.374125 
L 214.712187 55.582125 
L 214.977902 55.582125 
L 214.977902 55.186125 
L 215.243616 55.186125 
L 215.243616 54.790125 
L 215.775045 54.790125 
L 215.775045 54.394125 
L 216.837902 54.394125 
L 216.837902 53.998125 
L 217.36933 53.998125 
L 217.36933 53.602125 
L 217.635045 53.602125 
L 217.635045 53.206125 
L 218.166473 53.206125 
L 218.166473 52.810125 
L 218.963616 52.810125 
L 218.963616 52.018125 
L 222.152187 52.018125 
L 222.152187 51.622125 
L 223.746473 51.622125 
L 223.746473 51.226125 
L 227.997902 51.226125 
L 227.997902 50.830125 
L 229.060759 50.830125 
L 229.060759 50.434125 
L 231.186473 50.434125 
L 231.186473 50.038125 
L 231.717902 50.038125 
L 231.717902 49.642125 
L 232.515045 49.642125 
L 232.515045 49.246125 
L 233.312187 49.246125 
L 233.312187 48.850125 
L 236.766473 48.850125 
L 236.766473 48.454125 
L 237.297902 48.454125 
L 237.297902 48.058125 
L 237.563616 48.058125 
L 237.563616 47.662125 
L 241.54933 47.662125 
L 241.54933 47.266125 
L 241.815045 47.266125 
L 241.815045 46.474125 
L 243.40933 46.474125 
L 243.40933 45.682125 
L 245.535045 45.682125 
L 245.535045 45.286125 
L 245.800759 45.286125 
L 245.800759 44.890125 
L 248.723616 44.890125 
L 248.723616 44.494125 
L 253.240759 44.494125 
L 253.240759 44.098125 
L 256.42933 44.098125 
L 256.42933 43.306125 
L 257.226473 43.306125 
L 257.226473 42.910125 
L 262.540759 42.910125 
L 262.540759 42.514125 
L 263.337902 42.514125 
L 263.337902 42.118125 
L 264.932187 42.118125 
L 264.932187 41.722125 
L 266.792187 41.722125 
L 266.792187 41.326125 
L 268.652187 41.326125 
L 268.652187 40.930125 
L 273.700759 40.930125 
L 273.700759 40.534125 
L 275.295045 40.534125 
L 275.295045 40.138125 
L 279.015045 40.138125 
L 279.015045 39.742125 
L 280.875045 39.742125 
L 280.875045 39.346125 
L 283.000759 39.346125 
L 283.000759 38.950125 
L 284.595045 38.950125 
L 284.595045 38.554125 
L 286.455045 38.554125 
L 286.455045 38.158125 
L 287.252187 38.158125 
L 287.252187 37.762125 
L 289.112188 37.762125 
L 289.112188 36.970125 
L 289.377902 36.970125 
L 289.377902 36.574125 
L 290.706473 36.574125 
L 290.706473 35.782125 
L 293.62933 35.782125 
L 293.62933 35.386125 
L 304.78933 35.386125 
L 304.78933 34.990125 
L 400.712187 34.990125 
L 400.712187 34.990125 
" clip-path="url(#pbd0d0fa90e)" style="fill: none; stroke: #008000; stroke-width: 2; stroke-linecap: square"/>
   </g>
   <g id="line2d_28">
    <path d="M 60.597902 288.430125 
L 400.712187 34.990125 
" clip-path="url(#pbd0d0fa90e)" style="fill: none; stroke-dasharray: 7.4,3.2; stroke-dashoffset: 0; stroke: #000000; stroke-width: 2"/>
   </g>
   <g id="patch_3">
    <path d="M 43.592188 288.430125 
L 43.592188 22.318125 
" style="fill: none; stroke: #000000; stroke-width: 2; stroke-linejoin: miter; stroke-linecap: square"/>
   </g>
   <g id="patch_4">
    <path d="M 400.712188 288.430125 
L 400.712188 22.318125 
" style="fill: none; stroke: #000000; stroke-width: 2; stroke-linejoin: miter; stroke-linecap: square"/>
   </g>
   <g id="patch_5">
    <path d="M 43.592188 288.430125 
L 400.712187 288.430125 
" style="fill: none; stroke: #000000; stroke-width: 2; stroke-linejoin: miter; stroke-linecap: square"/>
   </g>
   <g id="patch_6">
    <path d="M 43.592188 22.318125 
L 400.712187 22.318125 
" style="fill: none; stroke: #000000; stroke-width: 2; stroke-linejoin: miter; stroke-linecap: square"/>
   </g>
   <g id="text_15">
    <text style="font: 700 12px 'DejaVu Sans', 'Bitstream Vera Sans', 'Computer Modern Sans Serif', 'Lucida Grande', 'Verdana', 'Geneva', 'Lucid', 'Arial', 'Helvetica', 'Avant Garde', sans-serif; text-anchor: middle" x="222.152188" y="16.318125" transform="rotate(-0 222.152188 16.318125)">Multi-class classification ROC for dist features</text>
   </g>
   <g id="legend_1">
    <g id="patch_7">
     <path d="M 134.954375 283.430125 
L 393.712188 283.430125 
Q 395.712188 283.430125 395.712188 281.430125 
L 395.712188 238.39575 
Q 395.712188 236.39575 393.712188 236.39575 
L 134.954375 236.39575 
Q 132.954375 236.39575 132.954375 238.39575 
L 132.954375 281.430125 
Q 132.954375 283.430125 134.954375 283.430125 
z
" style="fill: #ffffff; opacity: 0.8; stroke: #cccccc; stroke-linejoin: miter"/>
    </g>
    <g id="line2d_29">
     <path d="M 136.954375 244.494187 
L 146.954375 244.494187 
L 156.954375 244.494187 
" style="fill: none; stroke: #ff0000; stroke-width: 2; stroke-linecap: square"/>
    </g>
    <g id="text_16">
     <text style="font: 700 10px 'DejaVu Sans', 'Bitstream Vera Sans', 'Computer Modern Sans Serif', 'Lucida Grande', 'Verdana', 'Geneva', 'Lucid', 'Arial', 'Helvetica', 'Avant Garde', sans-serif; text-anchor: start" x="164.954375" y="247.994187" transform="rotate(-0 164.954375 247.994187)">ROC curve (area = 0.56) for class mc6</text>
    </g>
    <g id="line2d_30">
     <path d="M 136.954375 259.172312 
L 146.954375 259.172312 
L 156.954375 259.172312 
" style="fill: none; stroke: #0000ff; stroke-width: 2; stroke-linecap: square"/>
    </g>
    <g id="text_17">
     <text style="font: 700 10px 'DejaVu Sans', 'Bitstream Vera Sans', 'Computer Modern Sans Serif', 'Lucida Grande', 'Verdana', 'Geneva', 'Lucid', 'Arial', 'Helvetica', 'Avant Garde', sans-serif; text-anchor: start" x="164.954375" y="262.672312" transform="rotate(-0 164.954375 262.672312)">ROC curve (area = 0.55) for class mc6s</text>
    </g>
    <g id="line2d_31">
     <path d="M 136.954375 273.850437 
L 146.954375 273.850437 
L 156.954375 273.850437 
" style="fill: none; stroke: #008000; stroke-width: 2; stroke-linecap: square"/>
    </g>
    <g id="text_18">
     <text style="font: 700 10px 'DejaVu Sans', 'Bitstream Vera Sans', 'Computer Modern Sans Serif', 'Lucida Grande', 'Verdana', 'Geneva', 'Lucid', 'Arial', 'Helvetica', 'Avant Garde', sans-serif; text-anchor: start" x="164.954375" y="277.350437" transform="rotate(-0 164.954375 277.350437)">ROC curve (area = 0.81) for class mc6sa</text>
    </g>
   </g>
  </g>
 </g>
 <defs>
  <clipPath id="pbd0d0fa90e">
   <rect x="43.592188" y="22.318125" width="357.12" height="266.112"/>
  </clipPath>
 </defs>
</svg>
