<?xml version="1.0" encoding="utf-8" standalone="no"?>
<!DOCTYPE svg PUBLIC "-//W3C//DTD SVG 1.1//EN"
  "http://www.w3.org/Graphics/SVG/1.1/DTD/svg11.dtd">
<svg xmlns:xlink="http://www.w3.org/1999/xlink" width="416.769219pt" height="323.986375pt" viewBox="0 0 416.769219 323.986375" xmlns="http://www.w3.org/2000/svg" version="1.1">
 <metadata>
  <rdf:RDF xmlns:dc="http://purl.org/dc/elements/1.1/" xmlns:cc="http://creativecommons.org/ns#" xmlns:rdf="http://www.w3.org/1999/02/22-rdf-syntax-ns#">
   <cc:Work>
    <dc:type rdf:resource="http://purl.org/dc/dcmitype/StillImage"/>
    <dc:date>2023-10-11T19:45:12.097989</dc:date>
    <dc:format>image/svg+xml</dc:format>
    <dc:creator>
     <cc:Agent>
      <dc:title>Matplotlib v3.7.3, https://matplotlib.org/</dc:title>
     </cc:Agent>
    </dc:creator>
   </cc:Work>
  </rdf:RDF>
 </metadata>
 <defs>
  <style type="text/css">*{stroke-linejoin: round; stroke-linecap: butt}</style>
 </defs>
 <g id="figure_1">
  <g id="patch_1">
   <path d="M 0 323.986375 
L 416.769219 323.986375 
L 416.769219 0 
L 0 0 
z
" style="fill: #ffffff"/>
  </g>
  <g id="axes_1">
   <g id="patch_2">
    <path d="M 43.592188 288.430125 
L 400.712188 288.430125 
L 400.712188 22.318125 
L 43.592188 22.318125 
z
" style="fill: #ffffff"/>
   </g>
   <g id="matplotlib.axis_1">
    <g id="xtick_1">
     <g id="line2d_1">
      <defs>
       <path id="m003eda688b" d="M 0 0 
L 0 -7 
" style="stroke: #000000; stroke-width: 2"/>
      </defs>
      <g>
       <use xlink:href="#m003eda688b" x="60.597902" y="288.430125" style="stroke: #000000; stroke-width: 2"/>
      </g>
     </g>
     <g id="line2d_2">
      <defs>
       <path id="m13c8b44270" d="M 0 0 
L 0 7 
" style="stroke: #000000; stroke-width: 2"/>
      </defs>
      <g>
       <use xlink:href="#m13c8b44270" x="60.597902" y="22.318125" style="stroke: #000000; stroke-width: 2"/>
      </g>
     </g>
     <g id="text_1">
      <text style="font: 700 10px 'DejaVu Sans', 'Bitstream Vera Sans', 'Computer Modern Sans Serif', 'Lucida Grande', 'Verdana', 'Geneva', 'Lucid', 'Arial', 'Helvetica', 'Avant Garde', sans-serif; text-anchor: middle" x="60.597902" y="301.028562" transform="rotate(-0 60.597902 301.028562)">0.0</text>
     </g>
    </g>
    <g id="xtick_2">
     <g id="line2d_3">
      <g>
       <use xlink:href="#m003eda688b" x="128.620759" y="288.430125" style="stroke: #000000; stroke-width: 2"/>
      </g>
     </g>
     <g id="line2d_4">
      <g>
       <use xlink:href="#m13c8b44270" x="128.620759" y="22.318125" style="stroke: #000000; stroke-width: 2"/>
      </g>
     </g>
     <g id="text_2">
      <text style="font: 700 10px 'DejaVu Sans', 'Bitstream Vera Sans', 'Computer Modern Sans Serif', 'Lucida Grande', 'Verdana', 'Geneva', 'Lucid', 'Arial', 'Helvetica', 'Avant Garde', sans-serif; text-anchor: middle" x="128.620759" y="301.028562" transform="rotate(-0 128.620759 301.028562)">0.2</text>
     </g>
    </g>
    <g id="xtick_3">
     <g id="line2d_5">
      <g>
       <use xlink:href="#m003eda688b" x="196.643616" y="288.430125" style="stroke: #000000; stroke-width: 2"/>
      </g>
     </g>
     <g id="line2d_6">
      <g>
       <use xlink:href="#m13c8b44270" x="196.643616" y="22.318125" style="stroke: #000000; stroke-width: 2"/>
      </g>
     </g>
     <g id="text_3">
      <text style="font: 700 10px 'DejaVu Sans', 'Bitstream Vera Sans', 'Computer Modern Sans Serif', 'Lucida Grande', 'Verdana', 'Geneva', 'Lucid', 'Arial', 'Helvetica', 'Avant Garde', sans-serif; text-anchor: middle" x="196.643616" y="301.028562" transform="rotate(-0 196.643616 301.028562)">0.4</text>
     </g>
    </g>
    <g id="xtick_4">
     <g id="line2d_7">
      <g>
       <use xlink:href="#m003eda688b" x="264.666473" y="288.430125" style="stroke: #000000; stroke-width: 2"/>
      </g>
     </g>
     <g id="line2d_8">
      <g>
       <use xlink:href="#m13c8b44270" x="264.666473" y="22.318125" style="stroke: #000000; stroke-width: 2"/>
      </g>
     </g>
     <g id="text_4">
      <text style="font: 700 10px 'DejaVu Sans', 'Bitstream Vera Sans', 'Computer Modern Sans Serif', 'Lucida Grande', 'Verdana', 'Geneva', 'Lucid', 'Arial', 'Helvetica', 'Avant Garde', sans-serif; text-anchor: middle" x="264.666473" y="301.028562" transform="rotate(-0 264.666473 301.028562)">0.6</text>
     </g>
    </g>
    <g id="xtick_5">
     <g id="line2d_9">
      <g>
       <use xlink:href="#m003eda688b" x="332.68933" y="288.430125" style="stroke: #000000; stroke-width: 2"/>
      </g>
     </g>
     <g id="line2d_10">
      <g>
       <use xlink:href="#m13c8b44270" x="332.68933" y="22.318125" style="stroke: #000000; stroke-width: 2"/>
      </g>
     </g>
     <g id="text_5">
      <text style="font: 700 10px 'DejaVu Sans', 'Bitstream Vera Sans', 'Computer Modern Sans Serif', 'Lucida Grande', 'Verdana', 'Geneva', 'Lucid', 'Arial', 'Helvetica', 'Avant Garde', sans-serif; text-anchor: middle" x="332.68933" y="301.028562" transform="rotate(-0 332.68933 301.028562)">0.8</text>
     </g>
    </g>
    <g id="xtick_6">
     <g id="line2d_11">
      <g>
       <use xlink:href="#m003eda688b" x="400.712188" y="288.430125" style="stroke: #000000; stroke-width: 2"/>
      </g>
     </g>
     <g id="line2d_12">
      <g>
       <use xlink:href="#m13c8b44270" x="400.712188" y="22.318125" style="stroke: #000000; stroke-width: 2"/>
      </g>
     </g>
     <g id="text_6">
      <text style="font: 700 10px 'DejaVu Sans', 'Bitstream Vera Sans', 'Computer Modern Sans Serif', 'Lucida Grande', 'Verdana', 'Geneva', 'Lucid', 'Arial', 'Helvetica', 'Avant Garde', sans-serif; text-anchor: middle" x="400.712188" y="301.028562" transform="rotate(-0 400.712188 301.028562)">1.0</text>
     </g>
    </g>
    <g id="text_7">
     <text style="font: 700 10px 'DejaVu Sans', 'Bitstream Vera Sans', 'Computer Modern Sans Serif', 'Lucida Grande', 'Verdana', 'Geneva', 'Lucid', 'Arial', 'Helvetica', 'Avant Garde', sans-serif; text-anchor: middle" x="222.152188" y="314.706687" transform="rotate(-0 222.152188 314.706687)">false positive rate</text>
    </g>
   </g>
   <g id="matplotlib.axis_2">
    <g id="ytick_1">
     <g id="line2d_13">
      <defs>
       <path id="m6b70ed04f1" d="M 0 0 
L 7 0 
" style="stroke: #000000; stroke-width: 2"/>
      </defs>
      <g>
       <use xlink:href="#m6b70ed04f1" x="43.592188" y="288.430125" style="stroke: #000000; stroke-width: 2"/>
      </g>
     </g>
     <g id="line2d_14">
      <defs>
       <path id="m973c4c1d86" d="M 0 0 
L -7 0 
" style="stroke: #000000; stroke-width: 2"/>
      </defs>
      <g>
       <use xlink:href="#m973c4c1d86" x="400.712188" y="288.430125" style="stroke: #000000; stroke-width: 2"/>
      </g>
     </g>
     <g id="text_8">
      <text style="font: 700 10px 'DejaVu Sans', 'Bitstream Vera Sans', 'Computer Modern Sans Serif', 'Lucida Grande', 'Verdana', 'Geneva', 'Lucid', 'Arial', 'Helvetica', 'Avant Garde', sans-serif; text-anchor: end" x="38.592188" y="292.229344" transform="rotate(-0 38.592188 292.229344)">0.0</text>
     </g>
    </g>
    <g id="ytick_2">
     <g id="line2d_15">
      <g>
       <use xlink:href="#m6b70ed04f1" x="43.592188" y="237.742125" style="stroke: #000000; stroke-width: 2"/>
      </g>
     </g>
     <g id="line2d_16">
      <g>
       <use xlink:href="#m973c4c1d86" x="400.712188" y="237.742125" style="stroke: #000000; stroke-width: 2"/>
      </g>
     </g>
     <g id="text_9">
      <text style="font: 700 10px 'DejaVu Sans', 'Bitstream Vera Sans', 'Computer Modern Sans Serif', 'Lucida Grande', 'Verdana', 'Geneva', 'Lucid', 'Arial', 'Helvetica', 'Avant Garde', sans-serif; text-anchor: end" x="38.592188" y="241.541344" transform="rotate(-0 38.592188 241.541344)">0.2</text>
     </g>
    </g>
    <g id="ytick_3">
     <g id="line2d_17">
      <g>
       <use xlink:href="#m6b70ed04f1" x="43.592188" y="187.054125" style="stroke: #000000; stroke-width: 2"/>
      </g>
     </g>
     <g id="line2d_18">
      <g>
       <use xlink:href="#m973c4c1d86" x="400.712188" y="187.054125" style="stroke: #000000; stroke-width: 2"/>
      </g>
     </g>
     <g id="text_10">
      <text style="font: 700 10px 'DejaVu Sans', 'Bitstream Vera Sans', 'Computer Modern Sans Serif', 'Lucida Grande', 'Verdana', 'Geneva', 'Lucid', 'Arial', 'Helvetica', 'Avant Garde', sans-serif; text-anchor: end" x="38.592188" y="190.853344" transform="rotate(-0 38.592188 190.853344)">0.4</text>
     </g>
    </g>
    <g id="ytick_4">
     <g id="line2d_19">
      <g>
       <use xlink:href="#m6b70ed04f1" x="43.592188" y="136.366125" style="stroke: #000000; stroke-width: 2"/>
      </g>
     </g>
     <g id="line2d_20">
      <g>
       <use xlink:href="#m973c4c1d86" x="400.712188" y="136.366125" style="stroke: #000000; stroke-width: 2"/>
      </g>
     </g>
     <g id="text_11">
      <text style="font: 700 10px 'DejaVu Sans', 'Bitstream Vera Sans', 'Computer Modern Sans Serif', 'Lucida Grande', 'Verdana', 'Geneva', 'Lucid', 'Arial', 'Helvetica', 'Avant Garde', sans-serif; text-anchor: end" x="38.592188" y="140.165344" transform="rotate(-0 38.592188 140.165344)">0.6</text>
     </g>
    </g>
    <g id="ytick_5">
     <g id="line2d_21">
      <g>
       <use xlink:href="#m6b70ed04f1" x="43.592188" y="85.678125" style="stroke: #000000; stroke-width: 2"/>
      </g>
     </g>
     <g id="line2d_22">
      <g>
       <use xlink:href="#m973c4c1d86" x="400.712188" y="85.678125" style="stroke: #000000; stroke-width: 2"/>
      </g>
     </g>
     <g id="text_12">
      <text style="font: 700 10px 'DejaVu Sans', 'Bitstream Vera Sans', 'Computer Modern Sans Serif', 'Lucida Grande', 'Verdana', 'Geneva', 'Lucid', 'Arial', 'Helvetica', 'Avant Garde', sans-serif; text-anchor: end" x="38.592188" y="89.477344" transform="rotate(-0 38.592188 89.477344)">0.8</text>
     </g>
    </g>
    <g id="ytick_6">
     <g id="line2d_23">
      <g>
       <use xlink:href="#m6b70ed04f1" x="43.592188" y="34.990125" style="stroke: #000000; stroke-width: 2"/>
      </g>
     </g>
     <g id="line2d_24">
      <g>
       <use xlink:href="#m973c4c1d86" x="400.712188" y="34.990125" style="stroke: #000000; stroke-width: 2"/>
      </g>
     </g>
     <g id="text_13">
      <text style="font: 700 10px 'DejaVu Sans', 'Bitstream Vera Sans', 'Computer Modern Sans Serif', 'Lucida Grande', 'Verdana', 'Geneva', 'Lucid', 'Arial', 'Helvetica', 'Avant Garde', sans-serif; text-anchor: end" x="38.592188" y="38.789344" transform="rotate(-0 38.592188 38.789344)">1.0</text>
     </g>
    </g>
    <g id="text_14">
     <text style="font: 700 10px 'DejaVu Sans', 'Bitstream Vera Sans', 'Computer Modern Sans Serif', 'Lucida Grande', 'Verdana', 'Geneva', 'Lucid', 'Arial', 'Helvetica', 'Avant Garde', sans-serif; text-anchor: middle" x="14.798438" y="155.374125" transform="rotate(-90 14.798438 155.374125)">true positive rate</text>
    </g>
   </g>
   <g id="line2d_25">
    <path d="M 60.597902 288.430125 
L 60.597902 259.522125 
L 60.863616 259.522125 
L 60.863616 225.862125 
L 61.12933 225.862125 
L 61.12933 224.674125 
L 61.395045 224.674125 
L 61.395045 222.694125 
L 61.926473 222.694125 
L 61.926473 199.330125 
L 62.192188 199.330125 
L 62.192188 196.558125 
L 62.457902 196.558125 
L 62.457902 195.766125 
L 62.723616 195.766125 
L 62.723616 195.370125 
L 62.98933 195.370125 
L 62.98933 193.786125 
L 63.255045 193.786125 
L 63.255045 185.470125 
L 63.786473 185.470125 
L 63.786473 185.074125 
L 64.052188 185.074125 
L 64.052188 184.282125 
L 64.317902 184.282125 
L 64.317902 183.886125 
L 64.84933 183.886125 
L 64.84933 183.094125 
L 65.115045 183.094125 
L 65.115045 179.926125 
L 65.380759 179.926125 
L 65.380759 173.194125 
L 65.646473 173.194125 
L 65.646473 172.006125 
L 65.912188 172.006125 
L 65.912188 171.610125 
L 66.177902 171.610125 
L 66.177902 171.214125 
L 66.443616 171.214125 
L 66.443616 170.422125 
L 66.975045 170.422125 
L 66.975045 170.026125 
L 67.240759 170.026125 
L 67.240759 168.046125 
L 67.506473 168.046125 
L 67.506473 164.482125 
L 67.772188 164.482125 
L 67.772188 163.690125 
L 68.037902 163.690125 
L 68.037902 162.898125 
L 68.303616 162.898125 
L 68.303616 162.502125 
L 68.56933 162.502125 
L 68.56933 162.106125 
L 68.835045 162.106125 
L 68.835045 161.710125 
L 69.100759 161.710125 
L 69.100759 160.522125 
L 69.897902 160.522125 
L 69.897902 159.730125 
L 70.163616 159.730125 
L 70.163616 158.542125 
L 70.42933 158.542125 
L 70.42933 156.166125 
L 70.695045 156.166125 
L 70.695045 154.978125 
L 70.960759 154.978125 
L 70.960759 152.998125 
L 71.226473 152.998125 
L 71.226473 151.414125 
L 71.757902 151.414125 
L 71.757902 151.018125 
L 72.28933 151.018125 
L 72.28933 150.622125 
L 72.555045 150.622125 
L 72.555045 149.830125 
L 72.820759 149.830125 
L 72.820759 148.642125 
L 73.086473 148.642125 
L 73.086473 147.058125 
L 73.352187 147.058125 
L 73.352187 145.474125 
L 73.883616 145.474125 
L 73.883616 144.286125 
L 74.14933 144.286125 
L 74.14933 141.514125 
L 75.212187 141.514125 
L 75.212187 139.930125 
L 75.743616 139.930125 
L 75.743616 136.762125 
L 76.540759 136.762125 
L 76.540759 132.802125 
L 76.806473 132.802125 
L 76.806473 132.010125 
L 77.072188 132.010125 
L 77.072188 130.822125 
L 77.337902 130.822125 
L 77.337902 129.634125 
L 77.86933 129.634125 
L 77.86933 128.842125 
L 78.135045 128.842125 
L 78.135045 128.446125 
L 78.400759 128.446125 
L 78.400759 128.050125 
L 78.666473 128.050125 
L 78.666473 126.466125 
L 78.932187 126.466125 
L 78.932187 125.674125 
L 79.197902 125.674125 
L 79.197902 122.902125 
L 79.463616 122.902125 
L 79.463616 122.506125 
L 79.72933 122.506125 
L 79.72933 121.318125 
L 80.526473 121.318125 
L 80.526473 120.922125 
L 80.792188 120.922125 
L 80.792188 120.130125 
L 81.323616 120.130125 
L 81.323616 119.338125 
L 82.386473 119.338125 
L 82.386473 118.942125 
L 82.917902 118.942125 
L 82.917902 118.546125 
L 83.183616 118.546125 
L 83.183616 117.754125 
L 83.980759 117.754125 
L 83.980759 117.358125 
L 85.30933 117.358125 
L 85.30933 116.170125 
L 85.575045 116.170125 
L 85.575045 114.586125 
L 85.840759 114.586125 
L 85.840759 114.190125 
L 86.637902 114.190125 
L 86.637902 113.002125 
L 86.903616 113.002125 
L 86.903616 112.606125 
L 87.16933 112.606125 
L 87.16933 111.418125 
L 87.700759 111.418125 
L 87.700759 111.022125 
L 87.966473 111.022125 
L 87.966473 109.834125 
L 88.232188 109.834125 
L 88.232188 109.438125 
L 88.763616 109.438125 
L 88.763616 108.646125 
L 89.295045 108.646125 
L 89.295045 108.250125 
L 89.560759 108.250125 
L 89.560759 107.854125 
L 90.88933 107.854125 
L 90.88933 107.062125 
L 91.155045 107.062125 
L 91.155045 106.270125 
L 91.420759 106.270125 
L 91.420759 105.874125 
L 91.952188 105.874125 
L 91.952188 103.894125 
L 92.217902 103.894125 
L 92.217902 103.102125 
L 92.483616 103.102125 
L 92.483616 102.706125 
L 92.74933 102.706125 
L 92.74933 102.310125 
L 93.015045 102.310125 
L 93.015045 101.518125 
L 93.280759 101.518125 
L 93.280759 101.122125 
L 93.812188 101.122125 
L 93.812188 100.726125 
L 94.343616 100.726125 
L 94.343616 99.934125 
L 94.875045 99.934125 
L 94.875045 99.538125 
L 95.140759 99.538125 
L 95.140759 99.142125 
L 95.406473 99.142125 
L 95.406473 98.350125 
L 95.937902 98.350125 
L 95.937902 97.954125 
L 96.46933 97.954125 
L 96.46933 97.558125 
L 96.735045 97.558125 
L 96.735045 96.370125 
L 98.32933 96.370125 
L 98.32933 95.182125 
L 98.860759 95.182125 
L 98.860759 93.598125 
L 99.126473 93.598125 
L 99.126473 93.202125 
L 99.392188 93.202125 
L 99.392188 92.410125 
L 100.18933 92.410125 
L 100.18933 92.014125 
L 100.455045 92.014125 
L 100.455045 91.618125 
L 100.986473 91.618125 
L 100.986473 91.222125 
L 101.252188 91.222125 
L 101.252188 90.430125 
L 102.04933 90.430125 
L 102.04933 90.034125 
L 102.315045 90.034125 
L 102.315045 89.638125 
L 102.580759 89.638125 
L 102.580759 88.846125 
L 102.846473 88.846125 
L 102.846473 88.450125 
L 103.112188 88.450125 
L 103.112188 87.658125 
L 103.377902 87.658125 
L 103.377902 86.866125 
L 103.643616 86.866125 
L 103.643616 86.470125 
L 103.90933 86.470125 
L 103.90933 86.074125 
L 104.440759 86.074125 
L 104.440759 84.886125 
L 104.706473 84.886125 
L 104.706473 84.490125 
L 106.832188 84.490125 
L 106.832188 84.094125 
L 107.895045 84.094125 
L 107.895045 83.302125 
L 108.160759 83.302125 
L 108.160759 82.510125 
L 108.957902 82.510125 
L 108.957902 82.114125 
L 109.755045 82.114125 
L 109.755045 80.926125 
L 110.020759 80.926125 
L 110.020759 80.530125 
L 110.552188 80.530125 
L 110.552188 80.134125 
L 110.817902 80.134125 
L 110.817902 79.738125 
L 111.083616 79.738125 
L 111.083616 79.342125 
L 111.34933 79.342125 
L 111.34933 78.946125 
L 112.146473 78.946125 
L 112.146473 78.550125 
L 112.412188 78.550125 
L 112.412188 78.154125 
L 112.943616 78.154125 
L 112.943616 77.362125 
L 114.006473 77.362125 
L 114.006473 76.966125 
L 114.537902 76.966125 
L 114.537902 76.570125 
L 114.803616 76.570125 
L 114.803616 76.174125 
L 115.335045 76.174125 
L 115.335045 75.778125 
L 115.866473 75.778125 
L 115.866473 74.194125 
L 116.132188 74.194125 
L 116.132188 73.402125 
L 116.663616 73.402125 
L 116.663616 73.006125 
L 117.992188 73.006125 
L 117.992188 72.214125 
L 118.257902 72.214125 
L 118.257902 71.818125 
L 119.055045 71.818125 
L 119.055045 71.422125 
L 119.320759 71.422125 
L 119.320759 71.026125 
L 122.50933 71.026125 
L 122.50933 70.630125 
L 123.572187 70.630125 
L 123.572187 70.234125 
L 123.837902 70.234125 
L 123.837902 69.838125 
L 124.635045 69.838125 
L 124.635045 69.442125 
L 124.900759 69.442125 
L 124.900759 69.046125 
L 125.432187 69.046125 
L 125.432187 68.650125 
L 127.557902 68.650125 
L 127.557902 68.254125 
L 128.886473 68.254125 
L 128.886473 67.858125 
L 129.417902 67.858125 
L 129.417902 67.462125 
L 132.872187 67.462125 
L 132.872187 66.670125 
L 133.137902 66.670125 
L 133.137902 66.274125 
L 133.403616 66.274125 
L 133.403616 65.878125 
L 134.997902 65.878125 
L 134.997902 64.690125 
L 135.52933 64.690125 
L 135.52933 64.294125 
L 136.060759 64.294125 
L 136.060759 63.502125 
L 137.655045 63.502125 
L 137.655045 63.106125 
L 143.766473 63.106125 
L 143.766473 62.710125 
L 145.095045 62.710125 
L 145.095045 62.314125 
L 145.360759 62.314125 
L 145.360759 61.918125 
L 148.017902 61.918125 
L 148.017902 61.522125 
L 148.283616 61.522125 
L 148.283616 61.126125 
L 149.612188 61.126125 
L 149.612188 60.730125 
L 151.206473 60.730125 
L 151.206473 59.938125 
L 151.737902 59.938125 
L 151.737902 59.542125 
L 153.066473 59.542125 
L 153.066473 59.146125 
L 153.863616 59.146125 
L 153.863616 58.750125 
L 155.192188 58.750125 
L 155.192188 58.354125 
L 155.723616 58.354125 
L 155.723616 57.958125 
L 157.84933 57.958125 
L 157.84933 57.562125 
L 159.70933 57.562125 
L 159.70933 56.770125 
L 159.975045 56.770125 
L 159.975045 56.374125 
L 160.506473 56.374125 
L 160.506473 55.978125 
L 162.366473 55.978125 
L 162.366473 55.582125 
L 167.14933 55.582125 
L 167.14933 54.790125 
L 168.477902 54.790125 
L 168.477902 54.394125 
L 168.743616 54.394125 
L 168.743616 53.998125 
L 169.540759 53.998125 
L 169.540759 53.602125 
L 170.337902 53.602125 
L 170.337902 53.206125 
L 170.86933 53.206125 
L 170.86933 52.810125 
L 171.666473 52.810125 
L 171.666473 52.414125 
L 172.995045 52.414125 
L 172.995045 52.018125 
L 179.903616 52.018125 
L 179.903616 51.622125 
L 180.16933 51.622125 
L 180.16933 51.226125 
L 181.497902 51.226125 
L 181.497902 50.830125 
L 182.295045 50.830125 
L 182.295045 50.434125 
L 183.357902 50.434125 
L 183.357902 50.038125 
L 190.266473 50.038125 
L 190.266473 49.642125 
L 191.32933 49.642125 
L 191.32933 49.246125 
L 193.455045 49.246125 
L 193.455045 48.850125 
L 195.315045 48.850125 
L 195.315045 48.454125 
L 199.566473 48.454125 
L 199.566473 48.058125 
L 201.426473 48.058125 
L 201.426473 47.662125 
L 203.286473 47.662125 
L 203.286473 47.266125 
L 209.132188 47.266125 
L 209.132188 46.870125 
L 209.663616 46.870125 
L 209.663616 46.078125 
L 213.117902 46.078125 
L 213.117902 45.682125 
L 215.243616 45.682125 
L 215.243616 44.890125 
L 216.572188 44.890125 
L 216.572188 44.494125 
L 218.166473 44.494125 
L 218.166473 44.098125 
L 222.417902 44.098125 
L 222.417902 43.702125 
L 230.123616 43.702125 
L 230.123616 43.306125 
L 231.717902 43.306125 
L 231.717902 42.910125 
L 240.752187 42.910125 
L 240.752187 42.514125 
L 242.346473 42.514125 
L 242.346473 42.118125 
L 247.395045 42.118125 
L 247.395045 41.722125 
L 249.786473 41.722125 
L 249.786473 41.326125 
L 251.912188 41.326125 
L 251.912188 40.930125 
L 253.240759 40.930125 
L 253.240759 40.534125 
L 256.695045 40.534125 
L 256.695045 40.138125 
L 256.960759 40.138125 
L 256.960759 39.742125 
L 262.540759 39.742125 
L 262.540759 39.346125 
L 262.806473 39.346125 
L 262.806473 38.950125 
L 266.526473 38.950125 
L 266.526473 38.554125 
L 272.106473 38.554125 
L 272.106473 38.158125 
L 273.16933 38.158125 
L 273.16933 37.762125 
L 278.217902 37.762125 
L 278.217902 37.366125 
L 297.615045 37.366125 
L 297.615045 36.970125 
L 300.803616 36.970125 
L 300.803616 36.574125 
L 303.992188 36.574125 
L 303.992188 36.178125 
L 315.417902 36.178125 
L 315.417902 35.782125 
L 343.317902 35.782125 
L 343.317902 35.386125 
L 352.617902 35.386125 
L 352.617902 34.990125 
L 400.712187 34.990125 
L 400.712187 34.990125 
" clip-path="url(#p569917528a)" style="fill: none; stroke: #ff0000; stroke-width: 2; stroke-linecap: square"/>
   </g>
   <g id="line2d_26">
    <path d="M 60.597902 288.430125 
L 60.597902 271.798125 
L 60.863616 271.798125 
L 60.863616 256.354125 
L 61.12933 256.354125 
L 61.12933 245.266125 
L 61.395045 245.266125 
L 61.395045 221.506125 
L 61.660759 221.506125 
L 61.660759 214.774125 
L 61.926473 214.774125 
L 61.926473 212.002125 
L 62.192188 212.002125 
L 62.192188 207.250125 
L 62.457902 207.250125 
L 62.457902 206.854125 
L 62.98933 206.854125 
L 62.98933 204.874125 
L 63.255045 204.874125 
L 63.255045 204.478125 
L 63.520759 204.478125 
L 63.520759 193.786125 
L 63.786473 193.786125 
L 63.786473 189.430125 
L 64.317902 189.430125 
L 64.317902 189.034125 
L 64.583616 189.034125 
L 64.583616 183.490125 
L 65.115045 183.490125 
L 65.115045 180.718125 
L 65.912188 180.718125 
L 65.912188 179.134125 
L 66.443616 179.134125 
L 66.443616 176.758125 
L 66.70933 176.758125 
L 66.70933 170.818125 
L 66.975045 170.818125 
L 66.975045 167.650125 
L 67.240759 167.650125 
L 67.240759 165.274125 
L 67.506473 165.274125 
L 67.506473 162.502125 
L 67.772188 162.502125 
L 67.772188 160.918125 
L 68.037902 160.918125 
L 68.037902 157.750125 
L 68.56933 157.750125 
L 68.56933 153.394125 
L 68.835045 153.394125 
L 68.835045 152.998125 
L 69.100759 152.998125 
L 69.100759 152.602125 
L 69.366473 152.602125 
L 69.366473 151.414125 
L 69.632188 151.414125 
L 69.632188 149.038125 
L 69.897902 149.038125 
L 69.897902 148.246125 
L 70.163616 148.246125 
L 70.163616 147.850125 
L 70.42933 147.850125 
L 70.42933 147.454125 
L 70.695045 147.454125 
L 70.695045 146.266125 
L 70.960759 146.266125 
L 70.960759 144.682125 
L 71.226473 144.682125 
L 71.226473 143.890125 
L 71.492188 143.890125 
L 71.492188 143.494125 
L 71.757902 143.494125 
L 71.757902 141.514125 
L 72.28933 141.514125 
L 72.28933 140.722125 
L 72.555045 140.722125 
L 72.555045 139.138125 
L 72.820759 139.138125 
L 72.820759 135.574125 
L 73.086473 135.574125 
L 73.086473 135.178125 
L 73.883616 135.178125 
L 73.883616 133.594125 
L 74.680759 133.594125 
L 74.680759 132.802125 
L 74.946473 132.802125 
L 74.946473 131.218125 
L 75.212187 131.218125 
L 75.212187 130.030125 
L 75.477902 130.030125 
L 75.477902 128.842125 
L 75.743616 128.842125 
L 75.743616 128.050125 
L 76.00933 128.050125 
L 76.00933 126.862125 
L 76.275045 126.862125 
L 76.275045 123.298125 
L 77.337902 123.298125 
L 77.337902 121.714125 
L 78.135045 121.714125 
L 78.135045 121.318125 
L 78.666473 121.318125 
L 78.666473 120.922125 
L 78.932187 120.922125 
L 78.932187 119.338125 
L 79.463616 119.338125 
L 79.463616 118.546125 
L 79.72933 118.546125 
L 79.72933 118.150125 
L 79.995045 118.150125 
L 79.995045 116.566125 
L 80.260759 116.566125 
L 80.260759 115.774125 
L 80.526473 115.774125 
L 80.526473 113.794125 
L 80.792188 113.794125 
L 80.792188 113.398125 
L 81.057902 113.398125 
L 81.057902 112.210125 
L 81.855045 112.210125 
L 81.855045 110.626125 
L 82.120759 110.626125 
L 82.120759 110.230125 
L 82.386473 110.230125 
L 82.386473 109.834125 
L 82.652188 109.834125 
L 82.652188 108.250125 
L 83.183616 108.250125 
L 83.183616 107.062125 
L 83.44933 107.062125 
L 83.44933 105.082125 
L 84.246473 105.082125 
L 84.246473 104.686125 
L 84.512188 104.686125 
L 84.512188 104.290125 
L 84.777902 104.290125 
L 84.777902 102.706125 
L 85.575045 102.706125 
L 85.575045 99.934125 
L 85.840759 99.934125 
L 85.840759 99.538125 
L 86.637902 99.538125 
L 86.637902 98.746125 
L 87.16933 98.746125 
L 87.16933 98.350125 
L 87.435045 98.350125 
L 87.435045 97.954125 
L 87.700759 97.954125 
L 87.700759 97.558125 
L 88.232188 97.558125 
L 88.232188 97.162125 
L 88.763616 97.162125 
L 88.763616 95.974125 
L 89.02933 95.974125 
L 89.02933 95.182125 
L 90.092188 95.182125 
L 90.092188 93.202125 
L 90.357902 93.202125 
L 90.357902 92.806125 
L 90.88933 92.806125 
L 90.88933 92.410125 
L 91.420759 92.410125 
L 91.420759 91.222125 
L 91.686473 91.222125 
L 91.686473 90.430125 
L 92.217902 90.430125 
L 92.217902 90.034125 
L 92.74933 90.034125 
L 92.74933 88.846125 
L 93.546473 88.846125 
L 93.546473 88.450125 
L 93.812188 88.450125 
L 93.812188 88.054125 
L 94.077902 88.054125 
L 94.077902 87.262125 
L 94.343616 87.262125 
L 94.343616 86.866125 
L 94.60933 86.866125 
L 94.60933 86.470125 
L 94.875045 86.470125 
L 94.875045 86.074125 
L 95.140759 86.074125 
L 95.140759 85.678125 
L 95.672188 85.678125 
L 95.672188 85.282125 
L 95.937902 85.282125 
L 95.937902 84.490125 
L 96.46933 84.490125 
L 96.46933 83.302125 
L 96.735045 83.302125 
L 96.735045 82.510125 
L 97.000759 82.510125 
L 97.000759 81.718125 
L 97.266473 81.718125 
L 97.266473 81.322125 
L 98.32933 81.322125 
L 98.32933 80.530125 
L 99.126473 80.530125 
L 99.126473 79.738125 
L 99.657902 79.738125 
L 99.657902 79.342125 
L 99.923616 79.342125 
L 99.923616 78.946125 
L 100.720759 78.946125 
L 100.720759 78.550125 
L 101.252188 78.550125 
L 101.252188 78.154125 
L 101.517902 78.154125 
L 101.517902 77.758125 
L 101.783616 77.758125 
L 101.783616 77.362125 
L 102.04933 77.362125 
L 102.04933 76.570125 
L 102.315045 76.570125 
L 102.315045 76.174125 
L 103.643616 76.174125 
L 103.643616 75.778125 
L 104.175045 75.778125 
L 104.175045 74.590125 
L 104.440759 74.590125 
L 104.440759 73.798125 
L 107.363616 73.798125 
L 107.363616 73.402125 
L 107.895045 73.402125 
L 107.895045 72.610125 
L 108.426473 72.610125 
L 108.426473 72.214125 
L 109.755045 72.214125 
L 109.755045 71.818125 
L 111.34933 71.818125 
L 111.34933 71.422125 
L 111.615045 71.422125 
L 111.615045 71.026125 
L 112.146473 71.026125 
L 112.146473 68.650125 
L 112.412188 68.650125 
L 112.412188 68.254125 
L 112.943616 68.254125 
L 112.943616 67.462125 
L 113.20933 67.462125 
L 113.20933 67.066125 
L 113.740759 67.066125 
L 113.740759 66.274125 
L 114.006473 66.274125 
L 114.006473 65.878125 
L 114.537902 65.878125 
L 114.537902 65.482125 
L 116.132188 65.482125 
L 116.132188 65.086125 
L 117.726473 65.086125 
L 117.726473 64.690125 
L 117.992188 64.690125 
L 117.992188 64.294125 
L 118.523616 64.294125 
L 118.523616 63.106125 
L 118.78933 63.106125 
L 118.78933 62.710125 
L 119.320759 62.710125 
L 119.320759 61.918125 
L 119.586473 61.918125 
L 119.586473 61.522125 
L 119.852188 61.522125 
L 119.852188 61.126125 
L 120.915045 61.126125 
L 120.915045 60.334125 
L 121.180759 60.334125 
L 121.180759 59.542125 
L 122.50933 59.542125 
L 122.50933 59.146125 
L 123.306473 59.146125 
L 123.306473 58.750125 
L 123.572187 58.750125 
L 123.572187 58.354125 
L 124.36933 58.354125 
L 124.36933 57.958125 
L 128.355045 57.958125 
L 128.355045 57.562125 
L 128.620759 57.562125 
L 128.620759 56.770125 
L 129.152187 56.770125 
L 129.152187 55.978125 
L 130.215045 55.978125 
L 130.215045 55.582125 
L 131.80933 55.582125 
L 131.80933 55.186125 
L 132.075045 55.186125 
L 132.075045 54.790125 
L 132.340759 54.790125 
L 132.340759 54.394125 
L 134.466473 54.394125 
L 134.466473 53.998125 
L 135.263616 53.998125 
L 135.263616 53.602125 
L 137.123616 53.602125 
L 137.123616 53.206125 
L 139.515045 53.206125 
L 139.515045 52.810125 
L 140.046473 52.810125 
L 140.046473 52.414125 
L 144.297902 52.414125 
L 144.297902 52.018125 
L 145.626473 52.018125 
L 145.626473 51.622125 
L 149.612188 51.622125 
L 149.612188 51.226125 
L 152.800759 51.226125 
L 152.800759 50.434125 
L 154.395045 50.434125 
L 154.395045 50.038125 
L 157.84933 50.038125 
L 157.84933 49.642125 
L 162.366473 49.642125 
L 162.366473 49.246125 
L 166.086473 49.246125 
L 166.086473 48.850125 
L 166.617902 48.850125 
L 166.617902 48.454125 
L 170.072188 48.454125 
L 170.072188 47.662125 
L 172.995045 47.662125 
L 172.995045 47.266125 
L 173.792188 47.266125 
L 173.792188 46.870125 
L 177.512188 46.870125 
L 177.512188 46.474125 
L 178.30933 46.474125 
L 178.30933 46.078125 
L 178.575045 46.078125 
L 178.575045 45.682125 
L 183.357902 45.682125 
L 183.357902 45.286125 
L 188.406473 45.286125 
L 188.406473 44.890125 
L 190.000759 44.890125 
L 190.000759 44.494125 
L 191.595045 44.494125 
L 191.595045 44.098125 
L 192.923616 44.098125 
L 192.923616 43.702125 
L 194.783616 43.702125 
L 194.783616 43.306125 
L 195.580759 43.306125 
L 195.580759 42.514125 
L 196.112188 42.514125 
L 196.112188 42.118125 
L 207.006473 42.118125 
L 207.006473 41.722125 
L 222.417902 41.722125 
L 222.417902 41.326125 
L 222.94933 41.326125 
L 222.94933 40.930125 
L 223.215045 40.930125 
L 223.215045 40.534125 
L 224.80933 40.534125 
L 224.80933 40.138125 
L 232.780759 40.138125 
L 232.780759 39.742125 
L 235.96933 39.742125 
L 235.96933 39.346125 
L 242.080759 39.346125 
L 242.080759 38.950125 
L 243.675045 38.950125 
L 243.675045 38.554125 
L 248.98933 38.554125 
L 248.98933 38.158125 
L 253.506473 38.158125 
L 253.506473 37.762125 
L 262.00933 37.762125 
L 262.00933 37.366125 
L 271.575045 37.366125 
L 271.575045 36.970125 
L 275.560759 36.970125 
L 275.560759 36.574125 
L 279.812187 36.574125 
L 279.812187 36.178125 
L 301.866473 36.178125 
L 301.866473 35.782125 
L 315.417902 35.782125 
L 315.417902 35.386125 
L 356.86933 35.386125 
L 356.86933 34.990125 
L 400.712187 34.990125 
L 400.712187 34.990125 
" clip-path="url(#p569917528a)" style="fill: none; stroke: #0000ff; stroke-width: 2; stroke-linecap: square"/>
   </g>
   <g id="line2d_27">
    <path d="M 60.597902 288.430125 
L 60.597902 235.762125 
L 60.863616 235.762125 
L 60.863616 221.110125 
L 61.12933 221.110125 
L 61.12933 214.378125 
L 61.395045 214.378125 
L 61.395045 211.606125 
L 61.660759 211.606125 
L 61.660759 210.418125 
L 61.926473 210.418125 
L 61.926473 206.854125 
L 62.192188 206.854125 
L 62.192188 202.894125 
L 62.457902 202.894125 
L 62.457902 195.766125 
L 62.723616 195.766125 
L 62.723616 194.182125 
L 62.98933 194.182125 
L 62.98933 189.430125 
L 63.255045 189.430125 
L 63.255045 179.926125 
L 63.520759 179.926125 
L 63.520759 179.530125 
L 63.786473 179.530125 
L 63.786473 170.818125 
L 64.052188 170.818125 
L 64.052188 165.670125 
L 64.317902 165.670125 
L 64.317902 162.502125 
L 64.583616 162.502125 
L 64.583616 159.730125 
L 64.84933 159.730125 
L 64.84933 156.166125 
L 65.115045 156.166125 
L 65.115045 155.374125 
L 65.380759 155.374125 
L 65.380759 152.998125 
L 65.646473 152.998125 
L 65.646473 152.206125 
L 66.177902 152.206125 
L 66.177902 151.810125 
L 66.443616 151.810125 
L 66.443616 147.454125 
L 66.70933 147.454125 
L 66.70933 143.890125 
L 66.975045 143.890125 
L 66.975045 142.702125 
L 67.240759 142.702125 
L 67.240759 142.306125 
L 67.506473 142.306125 
L 67.506473 140.722125 
L 67.772188 140.722125 
L 67.772188 138.346125 
L 68.037902 138.346125 
L 68.037902 132.802125 
L 68.303616 132.802125 
L 68.303616 131.218125 
L 68.56933 131.218125 
L 68.56933 128.842125 
L 68.835045 128.842125 
L 68.835045 127.654125 
L 69.100759 127.654125 
L 69.100759 126.466125 
L 69.366473 126.466125 
L 69.366473 122.110125 
L 69.632188 122.110125 
L 69.632188 120.526125 
L 70.42933 120.526125 
L 70.42933 117.358125 
L 71.226473 117.358125 
L 71.226473 116.170125 
L 71.757902 116.170125 
L 71.757902 115.774125 
L 72.023616 115.774125 
L 72.023616 114.190125 
L 72.28933 114.190125 
L 72.28933 112.606125 
L 73.086473 112.606125 
L 73.086473 112.210125 
L 73.352187 112.210125 
L 73.352187 111.814125 
L 73.883616 111.814125 
L 73.883616 110.230125 
L 74.14933 110.230125 
L 74.14933 107.854125 
L 74.415045 107.854125 
L 74.415045 105.874125 
L 74.680759 105.874125 
L 74.680759 105.478125 
L 74.946473 105.478125 
L 74.946473 102.310125 
L 75.212187 102.310125 
L 75.212187 100.330125 
L 75.743616 100.330125 
L 75.743616 99.142125 
L 76.00933 99.142125 
L 76.00933 97.162125 
L 76.275045 97.162125 
L 76.275045 96.766125 
L 76.540759 96.766125 
L 76.540759 96.370125 
L 77.072188 96.370125 
L 77.072188 95.182125 
L 77.86933 95.182125 
L 77.86933 93.598125 
L 78.135045 93.598125 
L 78.135045 92.014125 
L 78.666473 92.014125 
L 78.666473 91.618125 
L 78.932187 91.618125 
L 78.932187 91.222125 
L 79.197902 91.222125 
L 79.197902 89.638125 
L 79.72933 89.638125 
L 79.72933 88.846125 
L 79.995045 88.846125 
L 79.995045 88.450125 
L 80.792188 88.450125 
L 80.792188 87.262125 
L 81.057902 87.262125 
L 81.057902 86.866125 
L 81.323616 86.866125 
L 81.323616 86.470125 
L 82.386473 86.470125 
L 82.386473 85.678125 
L 83.183616 85.678125 
L 83.183616 84.886125 
L 85.043616 84.886125 
L 85.043616 84.094125 
L 85.575045 84.094125 
L 85.575045 83.698125 
L 86.106473 83.698125 
L 86.106473 83.302125 
L 86.372187 83.302125 
L 86.372187 82.906125 
L 86.637902 82.906125 
L 86.637902 82.510125 
L 86.903616 82.510125 
L 86.903616 82.114125 
L 87.16933 82.114125 
L 87.16933 81.718125 
L 87.435045 81.718125 
L 87.435045 81.322125 
L 88.232188 81.322125 
L 88.232188 79.738125 
L 88.497902 79.738125 
L 88.497902 79.342125 
L 88.763616 79.342125 
L 88.763616 76.174125 
L 89.826473 76.174125 
L 89.826473 75.778125 
L 90.092188 75.778125 
L 90.092188 75.382125 
L 90.623616 75.382125 
L 90.623616 74.986125 
L 90.88933 74.986125 
L 90.88933 72.214125 
L 91.420759 72.214125 
L 91.420759 71.422125 
L 92.483616 71.422125 
L 92.483616 70.630125 
L 92.74933 70.630125 
L 92.74933 70.234125 
L 93.812188 70.234125 
L 93.812188 69.838125 
L 94.077902 69.838125 
L 94.077902 69.046125 
L 94.343616 69.046125 
L 94.343616 68.650125 
L 94.60933 68.650125 
L 94.60933 68.254125 
L 95.140759 68.254125 
L 95.140759 65.086125 
L 95.406473 65.086125 
L 95.406473 64.294125 
L 95.937902 64.294125 
L 95.937902 63.898125 
L 96.46933 63.898125 
L 96.46933 62.710125 
L 97.266473 62.710125 
L 97.266473 62.314125 
L 97.532188 62.314125 
L 97.532188 61.918125 
L 97.797902 61.918125 
L 97.797902 61.522125 
L 98.063616 61.522125 
L 98.063616 61.126125 
L 98.32933 61.126125 
L 98.32933 60.730125 
L 98.860759 60.730125 
L 98.860759 60.334125 
L 99.126473 60.334125 
L 99.126473 59.542125 
L 100.720759 59.542125 
L 100.720759 59.146125 
L 100.986473 59.146125 
L 100.986473 57.958125 
L 101.517902 57.958125 
L 101.517902 57.562125 
L 101.783616 57.562125 
L 101.783616 57.166125 
L 106.566473 57.166125 
L 106.566473 56.770125 
L 106.832188 56.770125 
L 106.832188 56.374125 
L 107.363616 56.374125 
L 107.363616 55.978125 
L 107.62933 55.978125 
L 107.62933 55.582125 
L 109.223616 55.582125 
L 109.223616 55.186125 
L 110.020759 55.186125 
L 110.020759 54.790125 
L 110.286473 54.790125 
L 110.286473 54.394125 
L 110.552188 54.394125 
L 110.552188 53.998125 
L 111.083616 53.998125 
L 111.083616 53.602125 
L 111.34933 53.602125 
L 111.34933 53.206125 
L 111.615045 53.206125 
L 111.615045 52.810125 
L 112.412188 52.810125 
L 112.412188 52.414125 
L 113.740759 52.414125 
L 113.740759 52.018125 
L 114.272188 52.018125 
L 114.272188 51.622125 
L 114.537902 51.622125 
L 114.537902 51.226125 
L 116.663616 51.226125 
L 116.663616 50.830125 
L 117.195045 50.830125 
L 117.195045 50.434125 
L 118.78933 50.434125 
L 118.78933 50.038125 
L 120.915045 50.038125 
L 120.915045 49.246125 
L 121.446473 49.246125 
L 121.446473 48.850125 
L 125.432187 48.850125 
L 125.432187 48.454125 
L 127.026473 48.454125 
L 127.026473 48.058125 
L 130.746473 48.058125 
L 130.746473 47.662125 
L 134.466473 47.662125 
L 134.466473 46.870125 
L 136.592187 46.870125 
L 136.592187 46.078125 
L 136.857902 46.078125 
L 136.857902 45.682125 
L 137.920759 45.682125 
L 137.920759 45.286125 
L 140.046473 45.286125 
L 140.046473 44.890125 
L 140.312187 44.890125 
L 140.312187 44.098125 
L 141.375045 44.098125 
L 141.375045 43.702125 
L 144.563616 43.702125 
L 144.563616 43.306125 
L 151.206473 43.306125 
L 151.206473 42.910125 
L 151.737902 42.910125 
L 151.737902 42.514125 
L 154.12933 42.514125 
L 154.12933 42.118125 
L 164.757902 42.118125 
L 164.757902 41.722125 
L 172.72933 41.722125 
L 172.72933 41.326125 
L 180.700759 41.326125 
L 180.700759 40.930125 
L 182.02933 40.930125 
L 182.02933 40.534125 
L 183.88933 40.534125 
L 183.88933 40.138125 
L 189.203616 40.138125 
L 189.203616 39.742125 
L 193.18933 39.742125 
L 193.18933 39.346125 
L 210.195045 39.346125 
L 210.195045 38.950125 
L 213.383616 38.950125 
L 213.383616 38.554125 
L 213.64933 38.554125 
L 213.64933 38.158125 
L 213.915045 38.158125 
L 213.915045 37.762125 
L 215.50933 37.762125 
L 215.50933 37.366125 
L 222.417902 37.366125 
L 222.417902 36.970125 
L 225.340759 36.970125 
L 225.340759 36.574125 
L 231.452188 36.574125 
L 231.452188 36.178125 
L 249.520759 36.178125 
L 249.520759 35.782125 
L 328.172188 35.782125 
L 328.172188 35.386125 
L 340.395045 35.386125 
L 340.395045 34.990125 
L 400.712187 34.990125 
L 400.712187 34.990125 
" clip-path="url(#p569917528a)" style="fill: none; stroke: #008000; stroke-width: 2; stroke-linecap: square"/>
   </g>
   <g id="line2d_28">
    <path d="M 60.597902 288.430125 
L 400.712187 34.990125 
" clip-path="url(#p569917528a)" style="fill: none; stroke-dasharray: 7.4,3.2; stroke-dashoffset: 0; stroke: #000000; stroke-width: 2"/>
   </g>
   <g id="patch_3">
    <path d="M 43.592188 288.430125 
L 43.592188 22.318125 
" style="fill: none; stroke: #000000; stroke-width: 2; stroke-linejoin: miter; stroke-linecap: square"/>
   </g>
   <g id="patch_4">
    <path d="M 400.712188 288.430125 
L 400.712188 22.318125 
" style="fill: none; stroke: #000000; stroke-width: 2; stroke-linejoin: miter; stroke-linecap: square"/>
   </g>
   <g id="patch_5">
    <path d="M 43.592188 288.430125 
L 400.712187 288.430125 
" style="fill: none; stroke: #000000; stroke-width: 2; stroke-linejoin: miter; stroke-linecap: square"/>
   </g>
   <g id="patch_6">
    <path d="M 43.592188 22.318125 
L 400.712187 22.318125 
" style="fill: none; stroke: #000000; stroke-width: 2; stroke-linejoin: miter; stroke-linecap: square"/>
   </g>
   <g id="text_15">
    <text style="font: 700 12px 'DejaVu Sans', 'Bitstream Vera Sans', 'Computer Modern Sans Serif', 'Lucida Grande', 'Verdana', 'Geneva', 'Lucid', 'Arial', 'Helvetica', 'Avant Garde', sans-serif; text-anchor: middle" x="222.152188" y="16.318125" transform="rotate(-0 222.152188 16.318125)">Multi-class classification ROC for charge features</text>
   </g>
   <g id="legend_1">
    <g id="patch_7">
     <path d="M 134.954375 283.430125 
L 393.712188 283.430125 
Q 395.712188 283.430125 395.712188 281.430125 
L 395.712188 238.39575 
Q 395.712188 236.39575 393.712188 236.39575 
L 134.954375 236.39575 
Q 132.954375 236.39575 132.954375 238.39575 
L 132.954375 281.430125 
Q 132.954375 283.430125 134.954375 283.430125 
z
" style="fill: #ffffff; opacity: 0.8; stroke: #cccccc; stroke-linejoin: miter"/>
    </g>
    <g id="line2d_29">
     <path d="M 136.954375 244.494187 
L 146.954375 244.494187 
L 156.954375 244.494187 
" style="fill: none; stroke: #ff0000; stroke-width: 2; stroke-linecap: square"/>
    </g>
    <g id="text_16">
     <text style="font: 700 10px 'DejaVu Sans', 'Bitstream Vera Sans', 'Computer Modern Sans Serif', 'Lucida Grande', 'Verdana', 'Geneva', 'Lucid', 'Arial', 'Helvetica', 'Avant Garde', sans-serif; text-anchor: start" x="164.954375" y="247.994187" transform="rotate(-0 164.954375 247.994187)">ROC curve (area = 0.91) for class mc6</text>
    </g>
    <g id="line2d_30">
     <path d="M 136.954375 259.172312 
L 146.954375 259.172312 
L 156.954375 259.172312 
" style="fill: none; stroke: #0000ff; stroke-width: 2; stroke-linecap: square"/>
    </g>
    <g id="text_17">
     <text style="font: 700 10px 'DejaVu Sans', 'Bitstream Vera Sans', 'Computer Modern Sans Serif', 'Lucida Grande', 'Verdana', 'Geneva', 'Lucid', 'Arial', 'Helvetica', 'Avant Garde', sans-serif; text-anchor: start" x="164.954375" y="262.672312" transform="rotate(-0 164.954375 262.672312)">ROC curve (area = 0.93) for class mc6s</text>
    </g>
    <g id="line2d_31">
     <path d="M 136.954375 273.850437 
L 146.954375 273.850437 
L 156.954375 273.850437 
" style="fill: none; stroke: #008000; stroke-width: 2; stroke-linecap: square"/>
    </g>
    <g id="text_18">
     <text style="font: 700 10px 'DejaVu Sans', 'Bitstream Vera Sans', 'Computer Modern Sans Serif', 'Lucida Grande', 'Verdana', 'Geneva', 'Lucid', 'Arial', 'Helvetica', 'Avant Garde', sans-serif; text-anchor: start" x="164.954375" y="277.350437" transform="rotate(-0 164.954375 277.350437)">ROC curve (area = 0.95) for class mc6sa</text>
    </g>
   </g>
  </g>
 </g>
 <defs>
  <clipPath id="p569917528a">
   <rect x="43.592188" y="22.318125" width="357.12" height="266.112"/>
  </clipPath>
 </defs>
</svg>
