<?xml version="1.0" encoding="utf-8" standalone="no"?>
<!DOCTYPE svg PUBLIC "-//W3C//DTD SVG 1.1//EN"
  "http://www.w3.org/Graphics/SVG/1.1/DTD/svg11.dtd">
<svg xmlns:xlink="http://www.w3.org/1999/xlink" width="416.769219pt" height="323.986375pt" viewBox="0 0 416.769219 323.986375" xmlns="http://www.w3.org/2000/svg" version="1.1">
 <metadata>
  <rdf:RDF xmlns:dc="http://purl.org/dc/elements/1.1/" xmlns:cc="http://creativecommons.org/ns#" xmlns:rdf="http://www.w3.org/1999/02/22-rdf-syntax-ns#">
   <cc:Work>
    <dc:type rdf:resource="http://purl.org/dc/dcmitype/StillImage"/>
    <dc:date>2023-10-03T16:11:57.145711</dc:date>
    <dc:format>image/svg+xml</dc:format>
    <dc:creator>
     <cc:Agent>
      <dc:title>Matplotlib v3.7.3, https://matplotlib.org/</dc:title>
     </cc:Agent>
    </dc:creator>
   </cc:Work>
  </rdf:RDF>
 </metadata>
 <defs>
  <style type="text/css">*{stroke-linejoin: round; stroke-linecap: butt}</style>
 </defs>
 <g id="figure_1">
  <g id="patch_1">
   <path d="M 0 323.986375 
L 416.769219 323.986375 
L 416.769219 0 
L 0 0 
z
" style="fill: #ffffff"/>
  </g>
  <g id="axes_1">
   <g id="patch_2">
    <path d="M 43.592188 288.430125 
L 400.712188 288.430125 
L 400.712188 22.318125 
L 43.592188 22.318125 
z
" style="fill: #ffffff"/>
   </g>
   <g id="matplotlib.axis_1">
    <g id="xtick_1">
     <g id="line2d_1">
      <defs>
       <path id="m603b83202d" d="M 0 0 
L 0 -7 
" style="stroke: #000000; stroke-width: 2"/>
      </defs>
      <g>
       <use xlink:href="#m603b83202d" x="60.597902" y="288.430125" style="stroke: #000000; stroke-width: 2"/>
      </g>
     </g>
     <g id="line2d_2">
      <defs>
       <path id="m8359328381" d="M 0 0 
L 0 7 
" style="stroke: #000000; stroke-width: 2"/>
      </defs>
      <g>
       <use xlink:href="#m8359328381" x="60.597902" y="22.318125" style="stroke: #000000; stroke-width: 2"/>
      </g>
     </g>
     <g id="text_1">
      <text style="font: 700 10px 'DejaVu Sans', 'Bitstream Vera Sans', 'Computer Modern Sans Serif', 'Lucida Grande', 'Verdana', 'Geneva', 'Lucid', 'Arial', 'Helvetica', 'Avant Garde', sans-serif; text-anchor: middle" x="60.597902" y="301.028562" transform="rotate(-0 60.597902 301.028562)">0.0</text>
     </g>
    </g>
    <g id="xtick_2">
     <g id="line2d_3">
      <g>
       <use xlink:href="#m603b83202d" x="128.620759" y="288.430125" style="stroke: #000000; stroke-width: 2"/>
      </g>
     </g>
     <g id="line2d_4">
      <g>
       <use xlink:href="#m8359328381" x="128.620759" y="22.318125" style="stroke: #000000; stroke-width: 2"/>
      </g>
     </g>
     <g id="text_2">
      <text style="font: 700 10px 'DejaVu Sans', 'Bitstream Vera Sans', 'Computer Modern Sans Serif', 'Lucida Grande', 'Verdana', 'Geneva', 'Lucid', 'Arial', 'Helvetica', 'Avant Garde', sans-serif; text-anchor: middle" x="128.620759" y="301.028562" transform="rotate(-0 128.620759 301.028562)">0.2</text>
     </g>
    </g>
    <g id="xtick_3">
     <g id="line2d_5">
      <g>
       <use xlink:href="#m603b83202d" x="196.643616" y="288.430125" style="stroke: #000000; stroke-width: 2"/>
      </g>
     </g>
     <g id="line2d_6">
      <g>
       <use xlink:href="#m8359328381" x="196.643616" y="22.318125" style="stroke: #000000; stroke-width: 2"/>
      </g>
     </g>
     <g id="text_3">
      <text style="font: 700 10px 'DejaVu Sans', 'Bitstream Vera Sans', 'Computer Modern Sans Serif', 'Lucida Grande', 'Verdana', 'Geneva', 'Lucid', 'Arial', 'Helvetica', 'Avant Garde', sans-serif; text-anchor: middle" x="196.643616" y="301.028562" transform="rotate(-0 196.643616 301.028562)">0.4</text>
     </g>
    </g>
    <g id="xtick_4">
     <g id="line2d_7">
      <g>
       <use xlink:href="#m603b83202d" x="264.666473" y="288.430125" style="stroke: #000000; stroke-width: 2"/>
      </g>
     </g>
     <g id="line2d_8">
      <g>
       <use xlink:href="#m8359328381" x="264.666473" y="22.318125" style="stroke: #000000; stroke-width: 2"/>
      </g>
     </g>
     <g id="text_4">
      <text style="font: 700 10px 'DejaVu Sans', 'Bitstream Vera Sans', 'Computer Modern Sans Serif', 'Lucida Grande', 'Verdana', 'Geneva', 'Lucid', 'Arial', 'Helvetica', 'Avant Garde', sans-serif; text-anchor: middle" x="264.666473" y="301.028562" transform="rotate(-0 264.666473 301.028562)">0.6</text>
     </g>
    </g>
    <g id="xtick_5">
     <g id="line2d_9">
      <g>
       <use xlink:href="#m603b83202d" x="332.68933" y="288.430125" style="stroke: #000000; stroke-width: 2"/>
      </g>
     </g>
     <g id="line2d_10">
      <g>
       <use xlink:href="#m8359328381" x="332.68933" y="22.318125" style="stroke: #000000; stroke-width: 2"/>
      </g>
     </g>
     <g id="text_5">
      <text style="font: 700 10px 'DejaVu Sans', 'Bitstream Vera Sans', 'Computer Modern Sans Serif', 'Lucida Grande', 'Verdana', 'Geneva', 'Lucid', 'Arial', 'Helvetica', 'Avant Garde', sans-serif; text-anchor: middle" x="332.68933" y="301.028562" transform="rotate(-0 332.68933 301.028562)">0.8</text>
     </g>
    </g>
    <g id="xtick_6">
     <g id="line2d_11">
      <g>
       <use xlink:href="#m603b83202d" x="400.712188" y="288.430125" style="stroke: #000000; stroke-width: 2"/>
      </g>
     </g>
     <g id="line2d_12">
      <g>
       <use xlink:href="#m8359328381" x="400.712188" y="22.318125" style="stroke: #000000; stroke-width: 2"/>
      </g>
     </g>
     <g id="text_6">
      <text style="font: 700 10px 'DejaVu Sans', 'Bitstream Vera Sans', 'Computer Modern Sans Serif', 'Lucida Grande', 'Verdana', 'Geneva', 'Lucid', 'Arial', 'Helvetica', 'Avant Garde', sans-serif; text-anchor: middle" x="400.712188" y="301.028562" transform="rotate(-0 400.712188 301.028562)">1.0</text>
     </g>
    </g>
    <g id="text_7">
     <text style="font: 700 10px 'DejaVu Sans', 'Bitstream Vera Sans', 'Computer Modern Sans Serif', 'Lucida Grande', 'Verdana', 'Geneva', 'Lucid', 'Arial', 'Helvetica', 'Avant Garde', sans-serif; text-anchor: middle" x="222.152188" y="314.706687" transform="rotate(-0 222.152188 314.706687)">false positive rate</text>
    </g>
   </g>
   <g id="matplotlib.axis_2">
    <g id="ytick_1">
     <g id="line2d_13">
      <defs>
       <path id="m7c9fc1fb1e" d="M 0 0 
L 7 0 
" style="stroke: #000000; stroke-width: 2"/>
      </defs>
      <g>
       <use xlink:href="#m7c9fc1fb1e" x="43.592188" y="288.430125" style="stroke: #000000; stroke-width: 2"/>
      </g>
     </g>
     <g id="line2d_14">
      <defs>
       <path id="m7fa6eda272" d="M 0 0 
L -7 0 
" style="stroke: #000000; stroke-width: 2"/>
      </defs>
      <g>
       <use xlink:href="#m7fa6eda272" x="400.712188" y="288.430125" style="stroke: #000000; stroke-width: 2"/>
      </g>
     </g>
     <g id="text_8">
      <text style="font: 700 10px 'DejaVu Sans', 'Bitstream Vera Sans', 'Computer Modern Sans Serif', 'Lucida Grande', 'Verdana', 'Geneva', 'Lucid', 'Arial', 'Helvetica', 'Avant Garde', sans-serif; text-anchor: end" x="38.592188" y="292.229344" transform="rotate(-0 38.592188 292.229344)">0.0</text>
     </g>
    </g>
    <g id="ytick_2">
     <g id="line2d_15">
      <g>
       <use xlink:href="#m7c9fc1fb1e" x="43.592188" y="237.742125" style="stroke: #000000; stroke-width: 2"/>
      </g>
     </g>
     <g id="line2d_16">
      <g>
       <use xlink:href="#m7fa6eda272" x="400.712188" y="237.742125" style="stroke: #000000; stroke-width: 2"/>
      </g>
     </g>
     <g id="text_9">
      <text style="font: 700 10px 'DejaVu Sans', 'Bitstream Vera Sans', 'Computer Modern Sans Serif', 'Lucida Grande', 'Verdana', 'Geneva', 'Lucid', 'Arial', 'Helvetica', 'Avant Garde', sans-serif; text-anchor: end" x="38.592188" y="241.541344" transform="rotate(-0 38.592188 241.541344)">0.2</text>
     </g>
    </g>
    <g id="ytick_3">
     <g id="line2d_17">
      <g>
       <use xlink:href="#m7c9fc1fb1e" x="43.592188" y="187.054125" style="stroke: #000000; stroke-width: 2"/>
      </g>
     </g>
     <g id="line2d_18">
      <g>
       <use xlink:href="#m7fa6eda272" x="400.712188" y="187.054125" style="stroke: #000000; stroke-width: 2"/>
      </g>
     </g>
     <g id="text_10">
      <text style="font: 700 10px 'DejaVu Sans', 'Bitstream Vera Sans', 'Computer Modern Sans Serif', 'Lucida Grande', 'Verdana', 'Geneva', 'Lucid', 'Arial', 'Helvetica', 'Avant Garde', sans-serif; text-anchor: end" x="38.592188" y="190.853344" transform="rotate(-0 38.592188 190.853344)">0.4</text>
     </g>
    </g>
    <g id="ytick_4">
     <g id="line2d_19">
      <g>
       <use xlink:href="#m7c9fc1fb1e" x="43.592188" y="136.366125" style="stroke: #000000; stroke-width: 2"/>
      </g>
     </g>
     <g id="line2d_20">
      <g>
       <use xlink:href="#m7fa6eda272" x="400.712188" y="136.366125" style="stroke: #000000; stroke-width: 2"/>
      </g>
     </g>
     <g id="text_11">
      <text style="font: 700 10px 'DejaVu Sans', 'Bitstream Vera Sans', 'Computer Modern Sans Serif', 'Lucida Grande', 'Verdana', 'Geneva', 'Lucid', 'Arial', 'Helvetica', 'Avant Garde', sans-serif; text-anchor: end" x="38.592188" y="140.165344" transform="rotate(-0 38.592188 140.165344)">0.6</text>
     </g>
    </g>
    <g id="ytick_5">
     <g id="line2d_21">
      <g>
       <use xlink:href="#m7c9fc1fb1e" x="43.592188" y="85.678125" style="stroke: #000000; stroke-width: 2"/>
      </g>
     </g>
     <g id="line2d_22">
      <g>
       <use xlink:href="#m7fa6eda272" x="400.712188" y="85.678125" style="stroke: #000000; stroke-width: 2"/>
      </g>
     </g>
     <g id="text_12">
      <text style="font: 700 10px 'DejaVu Sans', 'Bitstream Vera Sans', 'Computer Modern Sans Serif', 'Lucida Grande', 'Verdana', 'Geneva', 'Lucid', 'Arial', 'Helvetica', 'Avant Garde', sans-serif; text-anchor: end" x="38.592188" y="89.477344" transform="rotate(-0 38.592188 89.477344)">0.8</text>
     </g>
    </g>
    <g id="ytick_6">
     <g id="line2d_23">
      <g>
       <use xlink:href="#m7c9fc1fb1e" x="43.592188" y="34.990125" style="stroke: #000000; stroke-width: 2"/>
      </g>
     </g>
     <g id="line2d_24">
      <g>
       <use xlink:href="#m7fa6eda272" x="400.712188" y="34.990125" style="stroke: #000000; stroke-width: 2"/>
      </g>
     </g>
     <g id="text_13">
      <text style="font: 700 10px 'DejaVu Sans', 'Bitstream Vera Sans', 'Computer Modern Sans Serif', 'Lucida Grande', 'Verdana', 'Geneva', 'Lucid', 'Arial', 'Helvetica', 'Avant Garde', sans-serif; text-anchor: end" x="38.592188" y="38.789344" transform="rotate(-0 38.592188 38.789344)">1.0</text>
     </g>
    </g>
    <g id="text_14">
     <text style="font: 700 10px 'DejaVu Sans', 'Bitstream Vera Sans', 'Computer Modern Sans Serif', 'Lucida Grande', 'Verdana', 'Geneva', 'Lucid', 'Arial', 'Helvetica', 'Avant Garde', sans-serif; text-anchor: middle" x="14.798438" y="155.374125" transform="rotate(-90 14.798438 155.374125)">true positive rate</text>
    </g>
   </g>
   <g id="line2d_25">
    <path d="M 60.597902 288.430125 
L 60.597902 202.498125 
L 60.863616 202.498125 
L 60.863616 178.342125 
L 61.12933 178.342125 
L 61.12933 113.398125 
L 61.395045 113.398125 
L 61.395045 111.418125 
L 61.660759 111.418125 
L 61.660759 107.458125 
L 61.926473 107.458125 
L 61.926473 100.330125 
L 62.192188 100.330125 
L 62.192188 99.538125 
L 62.457902 99.538125 
L 62.457902 89.242125 
L 62.723616 89.242125 
L 62.723616 88.450125 
L 62.98933 88.450125 
L 62.98933 66.274125 
L 63.255045 66.274125 
L 63.255045 59.146125 
L 63.520759 59.146125 
L 63.520759 56.770125 
L 63.786473 56.770125 
L 63.786473 55.186125 
L 64.052188 55.186125 
L 64.052188 50.830125 
L 64.583616 50.830125 
L 64.583616 50.434125 
L 64.84933 50.434125 
L 64.84933 49.642125 
L 65.646473 49.642125 
L 65.646473 49.246125 
L 66.177902 49.246125 
L 66.177902 48.850125 
L 67.506473 48.850125 
L 67.506473 48.454125 
L 68.56933 48.454125 
L 68.56933 47.662125 
L 68.835045 47.662125 
L 68.835045 47.266125 
L 69.100759 47.266125 
L 69.100759 46.870125 
L 70.42933 46.870125 
L 70.42933 46.474125 
L 72.28933 46.474125 
L 72.28933 46.078125 
L 74.680759 46.078125 
L 74.680759 45.682125 
L 75.743616 45.682125 
L 75.743616 45.286125 
L 76.540759 45.286125 
L 76.540759 44.890125 
L 80.792188 44.890125 
L 80.792188 44.494125 
L 82.652188 44.494125 
L 82.652188 44.098125 
L 82.917902 44.098125 
L 82.917902 43.702125 
L 87.966473 43.702125 
L 87.966473 43.306125 
L 89.295045 43.306125 
L 89.295045 42.910125 
L 91.686473 42.910125 
L 91.686473 42.514125 
L 94.343616 42.514125 
L 94.343616 42.118125 
L 96.46933 42.118125 
L 96.46933 41.722125 
L 102.846473 41.722125 
L 102.846473 41.326125 
L 105.237902 41.326125 
L 105.237902 40.930125 
L 106.300759 40.930125 
L 106.300759 40.534125 
L 109.755045 40.534125 
L 109.755045 40.138125 
L 110.286473 40.138125 
L 110.286473 39.742125 
L 117.195045 39.742125 
L 117.195045 39.346125 
L 117.726473 39.346125 
L 117.726473 38.950125 
L 126.495045 38.950125 
L 126.495045 38.554125 
L 128.620759 38.554125 
L 128.620759 38.158125 
L 128.886473 38.158125 
L 128.886473 37.762125 
L 132.340759 37.762125 
L 132.340759 37.366125 
L 133.935045 37.366125 
L 133.935045 36.970125 
L 140.843616 36.970125 
L 140.843616 36.574125 
L 152.800759 36.574125 
L 152.800759 35.782125 
L 167.14933 35.782125 
L 167.14933 35.386125 
L 200.363616 35.386125 
L 200.363616 34.990125 
L 400.712187 34.990125 
L 400.712187 34.990125 
" clip-path="url(#p82efe54551)" style="fill: none; stroke: #ff0000; stroke-width: 2; stroke-linecap: square"/>
   </g>
   <g id="line2d_26">
    <path d="M 60.597902 288.430125 
L 60.597902 196.954125 
L 60.863616 196.954125 
L 60.863616 168.046125 
L 61.12933 168.046125 
L 61.12933 158.146125 
L 61.395045 158.146125 
L 61.395045 146.662125 
L 61.660759 146.662125 
L 61.660759 142.702125 
L 61.926473 142.702125 
L 61.926473 133.990125 
L 62.192188 133.990125 
L 62.192188 132.010125 
L 62.457902 132.010125 
L 62.457902 128.842125 
L 62.723616 128.842125 
L 62.723616 128.050125 
L 62.98933 128.050125 
L 62.98933 120.922125 
L 63.255045 120.922125 
L 63.255045 119.338125 
L 63.520759 119.338125 
L 63.520759 114.586125 
L 63.786473 114.586125 
L 63.786473 113.398125 
L 64.052188 113.398125 
L 64.052188 113.002125 
L 64.317902 113.002125 
L 64.317902 108.646125 
L 64.583616 108.646125 
L 64.583616 103.894125 
L 64.84933 103.894125 
L 64.84933 99.538125 
L 65.115045 99.538125 
L 65.115045 98.746125 
L 65.380759 98.746125 
L 65.380759 92.014125 
L 65.646473 92.014125 
L 65.646473 86.470125 
L 65.912188 86.470125 
L 65.912188 85.282125 
L 66.177902 85.282125 
L 66.177902 84.886125 
L 66.443616 84.886125 
L 66.443616 84.490125 
L 66.70933 84.490125 
L 66.70933 80.926125 
L 66.975045 80.926125 
L 66.975045 80.134125 
L 67.240759 80.134125 
L 67.240759 79.342125 
L 68.037902 79.342125 
L 68.037902 78.946125 
L 68.303616 78.946125 
L 68.303616 75.778125 
L 68.56933 75.778125 
L 68.56933 74.194125 
L 68.835045 74.194125 
L 68.835045 73.798125 
L 69.366473 73.798125 
L 69.366473 73.006125 
L 69.632188 73.006125 
L 69.632188 71.818125 
L 69.897902 71.818125 
L 69.897902 67.066125 
L 70.163616 67.066125 
L 70.163616 65.482125 
L 70.42933 65.482125 
L 70.42933 64.690125 
L 70.960759 64.690125 
L 70.960759 63.502125 
L 71.226473 63.502125 
L 71.226473 62.314125 
L 71.757902 62.314125 
L 71.757902 61.918125 
L 72.28933 61.918125 
L 72.28933 60.730125 
L 72.555045 60.730125 
L 72.555045 59.542125 
L 72.820759 59.542125 
L 72.820759 59.146125 
L 73.086473 59.146125 
L 73.086473 57.562125 
L 73.617902 57.562125 
L 73.617902 56.770125 
L 73.883616 56.770125 
L 73.883616 55.582125 
L 74.415045 55.582125 
L 74.415045 55.186125 
L 74.680759 55.186125 
L 74.680759 53.998125 
L 75.477902 53.998125 
L 75.477902 53.602125 
L 75.743616 53.602125 
L 75.743616 52.414125 
L 76.00933 52.414125 
L 76.00933 51.622125 
L 76.275045 51.622125 
L 76.275045 51.226125 
L 76.806473 51.226125 
L 76.806473 50.038125 
L 77.337902 50.038125 
L 77.337902 48.850125 
L 77.86933 48.850125 
L 77.86933 47.662125 
L 78.666473 47.662125 
L 78.666473 46.078125 
L 79.197902 46.078125 
L 79.197902 45.286125 
L 79.72933 45.286125 
L 79.72933 44.890125 
L 79.995045 44.890125 
L 79.995045 44.494125 
L 80.526473 44.494125 
L 80.526473 44.098125 
L 81.323616 44.098125 
L 81.323616 43.702125 
L 81.855045 43.702125 
L 81.855045 42.118125 
L 83.980759 42.118125 
L 83.980759 41.722125 
L 85.840759 41.722125 
L 85.840759 41.326125 
L 87.16933 41.326125 
L 87.16933 40.930125 
L 87.435045 40.930125 
L 87.435045 40.534125 
L 92.217902 40.534125 
L 92.217902 40.138125 
L 94.077902 40.138125 
L 94.077902 39.742125 
L 94.60933 39.742125 
L 94.60933 38.950125 
L 104.706473 38.950125 
L 104.706473 38.554125 
L 116.663616 38.554125 
L 116.663616 38.158125 
L 117.195045 38.158125 
L 117.195045 37.762125 
L 131.543616 37.762125 
L 131.543616 37.366125 
L 150.675045 37.366125 
L 150.675045 36.970125 
L 151.472188 36.970125 
L 151.472188 36.178125 
L 165.820759 36.178125 
L 165.820759 35.782125 
L 282.203616 35.782125 
L 282.203616 35.386125 
L 284.595045 35.386125 
L 284.595045 34.990125 
L 400.712187 34.990125 
L 400.712187 34.990125 
" clip-path="url(#p82efe54551)" style="fill: none; stroke: #0000ff; stroke-width: 2; stroke-linecap: square"/>
   </g>
   <g id="line2d_27">
    <path d="M 60.597902 288.430125 
L 60.597902 69.838125 
L 60.863616 69.838125 
L 60.863616 67.858125 
L 61.12933 67.858125 
L 61.12933 63.898125 
L 61.395045 63.898125 
L 61.395045 63.502125 
L 61.660759 63.502125 
L 61.660759 59.938125 
L 61.926473 59.938125 
L 61.926473 59.146125 
L 62.192188 59.146125 
L 62.192188 58.750125 
L 62.457902 58.750125 
L 62.457902 58.354125 
L 62.723616 58.354125 
L 62.723616 57.958125 
L 62.98933 57.958125 
L 62.98933 52.414125 
L 63.255045 52.414125 
L 63.255045 52.018125 
L 63.520759 52.018125 
L 63.520759 51.622125 
L 64.052188 51.622125 
L 64.052188 50.830125 
L 64.317902 50.830125 
L 64.317902 49.642125 
L 64.583616 49.642125 
L 64.583616 48.850125 
L 64.84933 48.850125 
L 64.84933 48.058125 
L 65.380759 48.058125 
L 65.380759 47.266125 
L 65.646473 47.266125 
L 65.646473 44.494125 
L 65.912188 44.494125 
L 65.912188 44.098125 
L 66.177902 44.098125 
L 66.177902 43.702125 
L 66.443616 43.702125 
L 66.443616 42.910125 
L 66.70933 42.910125 
L 66.70933 42.514125 
L 67.240759 42.514125 
L 67.240759 42.118125 
L 67.772188 42.118125 
L 67.772188 41.722125 
L 68.037902 41.722125 
L 68.037902 40.534125 
L 68.303616 40.534125 
L 68.303616 39.742125 
L 68.56933 39.742125 
L 68.56933 38.554125 
L 69.632188 38.554125 
L 69.632188 36.970125 
L 70.42933 36.970125 
L 70.42933 36.178125 
L 71.226473 36.178125 
L 71.226473 35.782125 
L 72.820759 35.782125 
L 72.820759 35.386125 
L 93.015045 35.386125 
L 93.015045 34.990125 
L 400.712187 34.990125 
L 400.712187 34.990125 
" clip-path="url(#p82efe54551)" style="fill: none; stroke: #008000; stroke-width: 2; stroke-linecap: square"/>
   </g>
   <g id="line2d_28">
    <path d="M 60.597902 288.430125 
L 400.712187 34.990125 
" clip-path="url(#p82efe54551)" style="fill: none; stroke-dasharray: 7.4,3.2; stroke-dashoffset: 0; stroke: #000000; stroke-width: 2"/>
   </g>
   <g id="patch_3">
    <path d="M 43.592188 288.430125 
L 43.592188 22.318125 
" style="fill: none; stroke: #000000; stroke-width: 2; stroke-linejoin: miter; stroke-linecap: square"/>
   </g>
   <g id="patch_4">
    <path d="M 400.712188 288.430125 
L 400.712188 22.318125 
" style="fill: none; stroke: #000000; stroke-width: 2; stroke-linejoin: miter; stroke-linecap: square"/>
   </g>
   <g id="patch_5">
    <path d="M 43.592188 288.430125 
L 400.712187 288.430125 
" style="fill: none; stroke: #000000; stroke-width: 2; stroke-linejoin: miter; stroke-linecap: square"/>
   </g>
   <g id="patch_6">
    <path d="M 43.592188 22.318125 
L 400.712187 22.318125 
" style="fill: none; stroke: #000000; stroke-width: 2; stroke-linejoin: miter; stroke-linecap: square"/>
   </g>
   <g id="text_15">
    <text style="font: 700 12px 'DejaVu Sans', 'Bitstream Vera Sans', 'Computer Modern Sans Serif', 'Lucida Grande', 'Verdana', 'Geneva', 'Lucid', 'Arial', 'Helvetica', 'Avant Garde', sans-serif; text-anchor: middle" x="222.152188" y="16.318125" transform="rotate(-0 222.152188 16.318125)">Multi-class classification ROC for charge features</text>
   </g>
   <g id="legend_1">
    <g id="patch_7">
     <path d="M 134.954375 283.430125 
L 393.712188 283.430125 
Q 395.712188 283.430125 395.712188 281.430125 
L 395.712188 238.39575 
Q 395.712188 236.39575 393.712188 236.39575 
L 134.954375 236.39575 
Q 132.954375 236.39575 132.954375 238.39575 
L 132.954375 281.430125 
Q 132.954375 283.430125 134.954375 283.430125 
z
" style="fill: #ffffff; opacity: 0.8; stroke: #cccccc; stroke-linejoin: miter"/>
    </g>
    <g id="line2d_29">
     <path d="M 136.954375 244.494187 
L 146.954375 244.494187 
L 156.954375 244.494187 
" style="fill: none; stroke: #ff0000; stroke-width: 2; stroke-linecap: square"/>
    </g>
    <g id="text_16">
     <text style="font: 700 10px 'DejaVu Sans', 'Bitstream Vera Sans', 'Computer Modern Sans Serif', 'Lucida Grande', 'Verdana', 'Geneva', 'Lucid', 'Arial', 'Helvetica', 'Avant Garde', sans-serif; text-anchor: start" x="164.954375" y="247.994187" transform="rotate(-0 164.954375 247.994187)">ROC curve (area = 0.99) for class mc6</text>
    </g>
    <g id="line2d_30">
     <path d="M 136.954375 259.172312 
L 146.954375 259.172312 
L 156.954375 259.172312 
" style="fill: none; stroke: #0000ff; stroke-width: 2; stroke-linecap: square"/>
    </g>
    <g id="text_17">
     <text style="font: 700 10px 'DejaVu Sans', 'Bitstream Vera Sans', 'Computer Modern Sans Serif', 'Lucida Grande', 'Verdana', 'Geneva', 'Lucid', 'Arial', 'Helvetica', 'Avant Garde', sans-serif; text-anchor: start" x="164.954375" y="262.672312" transform="rotate(-0 164.954375 262.672312)">ROC curve (area = 0.99) for class mc6s</text>
    </g>
    <g id="line2d_31">
     <path d="M 136.954375 273.850437 
L 146.954375 273.850437 
L 156.954375 273.850437 
" style="fill: none; stroke: #008000; stroke-width: 2; stroke-linecap: square"/>
    </g>
    <g id="text_18">
     <text style="font: 700 10px 'DejaVu Sans', 'Bitstream Vera Sans', 'Computer Modern Sans Serif', 'Lucida Grande', 'Verdana', 'Geneva', 'Lucid', 'Arial', 'Helvetica', 'Avant Garde', sans-serif; text-anchor: start" x="164.954375" y="277.350437" transform="rotate(-0 164.954375 277.350437)">ROC curve (area = 1.00) for class mc6sa</text>
    </g>
   </g>
  </g>
 </g>
 <defs>
  <clipPath id="p82efe54551">
   <rect x="43.592188" y="22.318125" width="357.12" height="266.112"/>
  </clipPath>
 </defs>
</svg>
