<?xml version="1.0" encoding="utf-8" standalone="no"?>
<!DOCTYPE svg PUBLIC "-//W3C//DTD SVG 1.1//EN"
  "http://www.w3.org/Graphics/SVG/1.1/DTD/svg11.dtd">
<svg xmlns:xlink="http://www.w3.org/1999/xlink" width="416.769219pt" height="323.986375pt" viewBox="0 0 416.769219 323.986375" xmlns="http://www.w3.org/2000/svg" version="1.1">
 <metadata>
  <rdf:RDF xmlns:dc="http://purl.org/dc/elements/1.1/" xmlns:cc="http://creativecommons.org/ns#" xmlns:rdf="http://www.w3.org/1999/02/22-rdf-syntax-ns#">
   <cc:Work>
    <dc:type rdf:resource="http://purl.org/dc/dcmitype/StillImage"/>
    <dc:date>2023-10-03T16:11:56.466847</dc:date>
    <dc:format>image/svg+xml</dc:format>
    <dc:creator>
     <cc:Agent>
      <dc:title>Matplotlib v3.7.3, https://matplotlib.org/</dc:title>
     </cc:Agent>
    </dc:creator>
   </cc:Work>
  </rdf:RDF>
 </metadata>
 <defs>
  <style type="text/css">*{stroke-linejoin: round; stroke-linecap: butt}</style>
 </defs>
 <g id="figure_1">
  <g id="patch_1">
   <path d="M 0 323.986375 
L 416.769219 323.986375 
L 416.769219 0 
L 0 0 
z
" style="fill: #ffffff"/>
  </g>
  <g id="axes_1">
   <g id="patch_2">
    <path d="M 43.592188 288.430125 
L 400.712188 288.430125 
L 400.712188 22.318125 
L 43.592188 22.318125 
z
" style="fill: #ffffff"/>
   </g>
   <g id="matplotlib.axis_1">
    <g id="xtick_1">
     <g id="line2d_1">
      <defs>
       <path id="m45138955e7" d="M 0 0 
L 0 -7 
" style="stroke: #000000; stroke-width: 2"/>
      </defs>
      <g>
       <use xlink:href="#m45138955e7" x="60.597902" y="288.430125" style="stroke: #000000; stroke-width: 2"/>
      </g>
     </g>
     <g id="line2d_2">
      <defs>
       <path id="m0f3062f8a8" d="M 0 0 
L 0 7 
" style="stroke: #000000; stroke-width: 2"/>
      </defs>
      <g>
       <use xlink:href="#m0f3062f8a8" x="60.597902" y="22.318125" style="stroke: #000000; stroke-width: 2"/>
      </g>
     </g>
     <g id="text_1">
      <text style="font: 700 10px 'DejaVu Sans', 'Bitstream Vera Sans', 'Computer Modern Sans Serif', 'Lucida Grande', 'Verdana', 'Geneva', 'Lucid', 'Arial', 'Helvetica', 'Avant Garde', sans-serif; text-anchor: middle" x="60.597902" y="301.028562" transform="rotate(-0 60.597902 301.028562)">0.0</text>
     </g>
    </g>
    <g id="xtick_2">
     <g id="line2d_3">
      <g>
       <use xlink:href="#m45138955e7" x="128.620759" y="288.430125" style="stroke: #000000; stroke-width: 2"/>
      </g>
     </g>
     <g id="line2d_4">
      <g>
       <use xlink:href="#m0f3062f8a8" x="128.620759" y="22.318125" style="stroke: #000000; stroke-width: 2"/>
      </g>
     </g>
     <g id="text_2">
      <text style="font: 700 10px 'DejaVu Sans', 'Bitstream Vera Sans', 'Computer Modern Sans Serif', 'Lucida Grande', 'Verdana', 'Geneva', 'Lucid', 'Arial', 'Helvetica', 'Avant Garde', sans-serif; text-anchor: middle" x="128.620759" y="301.028562" transform="rotate(-0 128.620759 301.028562)">0.2</text>
     </g>
    </g>
    <g id="xtick_3">
     <g id="line2d_5">
      <g>
       <use xlink:href="#m45138955e7" x="196.643616" y="288.430125" style="stroke: #000000; stroke-width: 2"/>
      </g>
     </g>
     <g id="line2d_6">
      <g>
       <use xlink:href="#m0f3062f8a8" x="196.643616" y="22.318125" style="stroke: #000000; stroke-width: 2"/>
      </g>
     </g>
     <g id="text_3">
      <text style="font: 700 10px 'DejaVu Sans', 'Bitstream Vera Sans', 'Computer Modern Sans Serif', 'Lucida Grande', 'Verdana', 'Geneva', 'Lucid', 'Arial', 'Helvetica', 'Avant Garde', sans-serif; text-anchor: middle" x="196.643616" y="301.028562" transform="rotate(-0 196.643616 301.028562)">0.4</text>
     </g>
    </g>
    <g id="xtick_4">
     <g id="line2d_7">
      <g>
       <use xlink:href="#m45138955e7" x="264.666473" y="288.430125" style="stroke: #000000; stroke-width: 2"/>
      </g>
     </g>
     <g id="line2d_8">
      <g>
       <use xlink:href="#m0f3062f8a8" x="264.666473" y="22.318125" style="stroke: #000000; stroke-width: 2"/>
      </g>
     </g>
     <g id="text_4">
      <text style="font: 700 10px 'DejaVu Sans', 'Bitstream Vera Sans', 'Computer Modern Sans Serif', 'Lucida Grande', 'Verdana', 'Geneva', 'Lucid', 'Arial', 'Helvetica', 'Avant Garde', sans-serif; text-anchor: middle" x="264.666473" y="301.028562" transform="rotate(-0 264.666473 301.028562)">0.6</text>
     </g>
    </g>
    <g id="xtick_5">
     <g id="line2d_9">
      <g>
       <use xlink:href="#m45138955e7" x="332.68933" y="288.430125" style="stroke: #000000; stroke-width: 2"/>
      </g>
     </g>
     <g id="line2d_10">
      <g>
       <use xlink:href="#m0f3062f8a8" x="332.68933" y="22.318125" style="stroke: #000000; stroke-width: 2"/>
      </g>
     </g>
     <g id="text_5">
      <text style="font: 700 10px 'DejaVu Sans', 'Bitstream Vera Sans', 'Computer Modern Sans Serif', 'Lucida Grande', 'Verdana', 'Geneva', 'Lucid', 'Arial', 'Helvetica', 'Avant Garde', sans-serif; text-anchor: middle" x="332.68933" y="301.028562" transform="rotate(-0 332.68933 301.028562)">0.8</text>
     </g>
    </g>
    <g id="xtick_6">
     <g id="line2d_11">
      <g>
       <use xlink:href="#m45138955e7" x="400.712188" y="288.430125" style="stroke: #000000; stroke-width: 2"/>
      </g>
     </g>
     <g id="line2d_12">
      <g>
       <use xlink:href="#m0f3062f8a8" x="400.712188" y="22.318125" style="stroke: #000000; stroke-width: 2"/>
      </g>
     </g>
     <g id="text_6">
      <text style="font: 700 10px 'DejaVu Sans', 'Bitstream Vera Sans', 'Computer Modern Sans Serif', 'Lucida Grande', 'Verdana', 'Geneva', 'Lucid', 'Arial', 'Helvetica', 'Avant Garde', sans-serif; text-anchor: middle" x="400.712188" y="301.028562" transform="rotate(-0 400.712188 301.028562)">1.0</text>
     </g>
    </g>
    <g id="text_7">
     <text style="font: 700 10px 'DejaVu Sans', 'Bitstream Vera Sans', 'Computer Modern Sans Serif', 'Lucida Grande', 'Verdana', 'Geneva', 'Lucid', 'Arial', 'Helvetica', 'Avant Garde', sans-serif; text-anchor: middle" x="222.152188" y="314.706687" transform="rotate(-0 222.152188 314.706687)">false positive rate</text>
    </g>
   </g>
   <g id="matplotlib.axis_2">
    <g id="ytick_1">
     <g id="line2d_13">
      <defs>
       <path id="mcc21f92e9a" d="M 0 0 
L 7 0 
" style="stroke: #000000; stroke-width: 2"/>
      </defs>
      <g>
       <use xlink:href="#mcc21f92e9a" x="43.592188" y="288.430125" style="stroke: #000000; stroke-width: 2"/>
      </g>
     </g>
     <g id="line2d_14">
      <defs>
       <path id="m13431e1bc7" d="M 0 0 
L -7 0 
" style="stroke: #000000; stroke-width: 2"/>
      </defs>
      <g>
       <use xlink:href="#m13431e1bc7" x="400.712188" y="288.430125" style="stroke: #000000; stroke-width: 2"/>
      </g>
     </g>
     <g id="text_8">
      <text style="font: 700 10px 'DejaVu Sans', 'Bitstream Vera Sans', 'Computer Modern Sans Serif', 'Lucida Grande', 'Verdana', 'Geneva', 'Lucid', 'Arial', 'Helvetica', 'Avant Garde', sans-serif; text-anchor: end" x="38.592188" y="292.229344" transform="rotate(-0 38.592188 292.229344)">0.0</text>
     </g>
    </g>
    <g id="ytick_2">
     <g id="line2d_15">
      <g>
       <use xlink:href="#mcc21f92e9a" x="43.592188" y="237.742125" style="stroke: #000000; stroke-width: 2"/>
      </g>
     </g>
     <g id="line2d_16">
      <g>
       <use xlink:href="#m13431e1bc7" x="400.712188" y="237.742125" style="stroke: #000000; stroke-width: 2"/>
      </g>
     </g>
     <g id="text_9">
      <text style="font: 700 10px 'DejaVu Sans', 'Bitstream Vera Sans', 'Computer Modern Sans Serif', 'Lucida Grande', 'Verdana', 'Geneva', 'Lucid', 'Arial', 'Helvetica', 'Avant Garde', sans-serif; text-anchor: end" x="38.592188" y="241.541344" transform="rotate(-0 38.592188 241.541344)">0.2</text>
     </g>
    </g>
    <g id="ytick_3">
     <g id="line2d_17">
      <g>
       <use xlink:href="#mcc21f92e9a" x="43.592188" y="187.054125" style="stroke: #000000; stroke-width: 2"/>
      </g>
     </g>
     <g id="line2d_18">
      <g>
       <use xlink:href="#m13431e1bc7" x="400.712188" y="187.054125" style="stroke: #000000; stroke-width: 2"/>
      </g>
     </g>
     <g id="text_10">
      <text style="font: 700 10px 'DejaVu Sans', 'Bitstream Vera Sans', 'Computer Modern Sans Serif', 'Lucida Grande', 'Verdana', 'Geneva', 'Lucid', 'Arial', 'Helvetica', 'Avant Garde', sans-serif; text-anchor: end" x="38.592188" y="190.853344" transform="rotate(-0 38.592188 190.853344)">0.4</text>
     </g>
    </g>
    <g id="ytick_4">
     <g id="line2d_19">
      <g>
       <use xlink:href="#mcc21f92e9a" x="43.592188" y="136.366125" style="stroke: #000000; stroke-width: 2"/>
      </g>
     </g>
     <g id="line2d_20">
      <g>
       <use xlink:href="#m13431e1bc7" x="400.712188" y="136.366125" style="stroke: #000000; stroke-width: 2"/>
      </g>
     </g>
     <g id="text_11">
      <text style="font: 700 10px 'DejaVu Sans', 'Bitstream Vera Sans', 'Computer Modern Sans Serif', 'Lucida Grande', 'Verdana', 'Geneva', 'Lucid', 'Arial', 'Helvetica', 'Avant Garde', sans-serif; text-anchor: end" x="38.592188" y="140.165344" transform="rotate(-0 38.592188 140.165344)">0.6</text>
     </g>
    </g>
    <g id="ytick_5">
     <g id="line2d_21">
      <g>
       <use xlink:href="#mcc21f92e9a" x="43.592188" y="85.678125" style="stroke: #000000; stroke-width: 2"/>
      </g>
     </g>
     <g id="line2d_22">
      <g>
       <use xlink:href="#m13431e1bc7" x="400.712188" y="85.678125" style="stroke: #000000; stroke-width: 2"/>
      </g>
     </g>
     <g id="text_12">
      <text style="font: 700 10px 'DejaVu Sans', 'Bitstream Vera Sans', 'Computer Modern Sans Serif', 'Lucida Grande', 'Verdana', 'Geneva', 'Lucid', 'Arial', 'Helvetica', 'Avant Garde', sans-serif; text-anchor: end" x="38.592188" y="89.477344" transform="rotate(-0 38.592188 89.477344)">0.8</text>
     </g>
    </g>
    <g id="ytick_6">
     <g id="line2d_23">
      <g>
       <use xlink:href="#mcc21f92e9a" x="43.592188" y="34.990125" style="stroke: #000000; stroke-width: 2"/>
      </g>
     </g>
     <g id="line2d_24">
      <g>
       <use xlink:href="#m13431e1bc7" x="400.712188" y="34.990125" style="stroke: #000000; stroke-width: 2"/>
      </g>
     </g>
     <g id="text_13">
      <text style="font: 700 10px 'DejaVu Sans', 'Bitstream Vera Sans', 'Computer Modern Sans Serif', 'Lucida Grande', 'Verdana', 'Geneva', 'Lucid', 'Arial', 'Helvetica', 'Avant Garde', sans-serif; text-anchor: end" x="38.592188" y="38.789344" transform="rotate(-0 38.592188 38.789344)">1.0</text>
     </g>
    </g>
    <g id="text_14">
     <text style="font: 700 10px 'DejaVu Sans', 'Bitstream Vera Sans', 'Computer Modern Sans Serif', 'Lucida Grande', 'Verdana', 'Geneva', 'Lucid', 'Arial', 'Helvetica', 'Avant Garde', sans-serif; text-anchor: middle" x="14.798438" y="155.374125" transform="rotate(-90 14.798438 155.374125)">true positive rate</text>
    </g>
   </g>
   <g id="line2d_25">
    <path d="M 60.597902 288.430125 
L 60.597902 194.578125 
L 60.863616 194.578125 
L 60.863616 193.390125 
L 101.252188 193.390125 
L 101.252188 192.994125 
L 107.62933 192.994125 
L 107.62933 192.598125 
L 111.083616 192.598125 
L 111.083616 192.202125 
L 124.36933 192.202125 
L 124.36933 191.806125 
L 128.08933 191.806125 
L 128.08933 191.410125 
L 129.683616 191.410125 
L 129.683616 191.014125 
L 131.80933 191.014125 
L 131.80933 190.618125 
L 135.52933 190.618125 
L 135.52933 190.222125 
L 138.452188 190.222125 
L 138.452188 189.826125 
L 140.046473 189.826125 
L 140.046473 189.430125 
L 140.312187 189.430125 
L 140.577902 189.034125 
L 142.96933 189.034125 
L 142.96933 188.638125 
L 145.892188 188.638125 
L 145.892188 188.242125 
L 146.68933 188.242125 
L 146.68933 187.846125 
L 147.220759 187.846125 
L 147.220759 187.450125 
L 148.815045 187.450125 
L 148.815045 187.054125 
L 151.737902 187.054125 
L 151.737902 186.658125 
L 152.535045 186.658125 
L 152.800759 186.262125 
L 152.800759 185.866125 
L 153.066473 185.866125 
L 153.066473 185.470125 
L 153.332188 185.470125 
L 153.332188 185.074125 
L 154.660759 185.074125 
L 154.660759 184.678125 
L 157.317902 184.678125 
L 157.317902 184.282125 
L 157.583616 184.282125 
L 157.583616 183.886125 
L 158.380759 183.886125 
L 158.380759 183.094125 
L 159.177902 183.094125 
L 159.177902 182.302125 
L 159.443616 182.302125 
L 159.443616 181.906125 
L 159.975045 181.906125 
L 159.975045 181.114125 
L 160.772188 181.114125 
L 160.772188 180.322125 
L 161.56933 180.322125 
L 161.56933 178.342125 
L 162.100759 178.342125 
L 162.100759 177.946125 
L 164.226473 177.946125 
L 164.226473 176.758125 
L 168.212187 176.758125 
L 168.212187 176.362125 
L 169.00933 176.362125 
L 169.00933 175.966125 
L 169.275045 175.570125 
L 169.806473 175.570125 
L 169.806473 175.174125 
L 170.072188 175.174125 
L 170.072188 174.778125 
L 170.337902 174.778125 
L 170.337902 174.382125 
L 171.135045 174.382125 
L 171.135045 173.986125 
L 171.400759 173.986125 
L 171.400759 173.590125 
L 171.666473 173.590125 
L 171.666473 173.194125 
L 175.917902 173.194125 
L 175.917902 172.798125 
L 177.246473 172.798125 
L 177.246473 172.402125 
L 177.512188 172.006125 
L 178.30933 172.006125 
L 178.575045 170.818125 
L 182.295045 170.818125 
L 182.295045 170.422125 
L 183.88933 170.422125 
L 184.155045 170.026125 
L 191.860759 170.026125 
L 191.860759 168.838125 
L 197.175045 168.838125 
L 197.175045 168.046125 
L 197.440759 167.650125 
L 198.76933 167.650125 
L 199.300759 167.254125 
L 201.957902 167.254125 
L 201.957902 166.858125 
L 203.552188 166.858125 
L 203.552188 165.670125 
L 203.817902 165.670125 
L 203.817902 163.690125 
L 205.146473 163.690125 
L 205.412188 163.294125 
L 205.943616 163.294125 
L 205.943616 162.502125 
L 207.006473 162.502125 
L 207.272188 162.106125 
L 208.600759 162.106125 
L 208.866473 161.710125 
L 212.586473 161.710125 
L 212.586473 160.918125 
L 213.64933 160.918125 
L 213.64933 160.522125 
L 215.50933 160.522125 
L 216.306473 160.126125 
L 216.572188 160.126125 
L 216.572188 159.730125 
L 216.837902 159.730125 
L 216.837902 159.334125 
L 218.166473 159.334125 
L 218.697902 158.542125 
L 220.026473 158.542125 
L 220.026473 158.146125 
L 220.823616 158.146125 
L 221.08933 157.750125 
L 221.08933 157.354125 
L 221.886473 157.354125 
L 222.683616 156.166125 
L 226.137902 156.166125 
L 226.137902 155.374125 
L 227.466473 155.374125 
L 227.466473 154.978125 
L 227.732188 154.186125 
L 227.732188 152.998125 
L 228.795045 152.998125 
L 228.795045 152.602125 
L 229.060759 152.206125 
L 229.857902 152.206125 
L 229.857902 151.018125 
L 230.655045 151.018125 
L 231.186473 149.830125 
L 231.717902 149.434125 
L 232.24933 149.434125 
L 232.24933 149.038125 
L 232.515045 148.642125 
L 233.312187 148.642125 
L 233.312187 146.662125 
L 233.843616 146.662125 
L 234.10933 146.266125 
L 234.640759 146.266125 
L 234.640759 145.870125 
L 235.172188 145.870125 
L 235.703616 145.078125 
L 235.703616 144.682125 
L 236.235045 144.682125 
L 236.235045 144.286125 
L 236.500759 143.890125 
L 237.032188 143.890125 
L 237.032188 143.494125 
L 238.095045 143.494125 
L 238.095045 143.098125 
L 238.626473 143.098125 
L 238.626473 141.118125 
L 239.955045 141.118125 
L 239.955045 140.722125 
L 240.220759 139.534125 
L 240.220759 138.742125 
L 240.752187 138.742125 
L 241.017902 138.346125 
L 241.283616 138.346125 
L 241.283616 137.950125 
L 241.54933 137.950125 
L 241.815045 137.158125 
L 241.815045 136.762125 
L 242.346473 136.762125 
L 242.346473 136.366125 
L 242.877902 136.366125 
L 243.675045 135.574125 
L 243.675045 134.782125 
L 243.940759 134.782125 
L 243.940759 134.386125 
L 244.737902 134.386125 
L 244.737902 133.594125 
L 246.332188 133.594125 
L 246.332188 132.802125 
L 247.660759 132.802125 
L 248.457902 131.614125 
L 248.98933 131.614125 
L 248.98933 130.426125 
L 250.052188 130.426125 
L 250.052188 129.634125 
L 250.84933 129.634125 
L 251.380759 127.654125 
L 253.772188 127.654125 
L 253.772188 126.070125 
L 255.100759 126.070125 
L 255.100759 125.674125 
L 255.632188 125.674125 
L 255.632188 125.278125 
L 256.163616 125.278125 
L 256.163616 124.486125 
L 257.226473 124.486125 
L 257.226473 123.694125 
L 259.086473 123.694125 
L 259.617902 122.110125 
L 259.883616 122.110125 
L 259.883616 120.526125 
L 260.680759 120.526125 
L 260.680759 119.734125 
L 261.212187 119.734125 
L 261.212187 118.942125 
L 262.00933 118.546125 
L 262.00933 117.754125 
L 262.275045 117.754125 
L 263.337902 116.170125 
L 263.337902 115.378125 
L 263.603616 114.586125 
L 264.135045 114.586125 
L 264.400759 111.814125 
L 264.666473 111.814125 
L 264.666473 111.022125 
L 265.72933 111.022125 
L 265.72933 109.438125 
L 265.995045 108.250125 
L 267.323616 108.250125 
L 267.323616 107.458125 
L 267.58933 107.062125 
L 268.120759 107.062125 
L 268.120759 105.874125 
L 268.386473 105.874125 
L 268.386473 105.082125 
L 269.183616 105.082125 
L 269.183616 104.290125 
L 269.980759 100.726125 
L 269.980759 99.934125 
L 270.512187 99.934125 
L 270.512187 99.538125 
L 270.777902 99.142125 
L 270.777902 96.766125 
L 271.043616 96.766125 
L 271.575045 95.974125 
L 271.840759 95.974125 
L 271.840759 94.786125 
L 272.637902 94.786125 
L 272.637902 94.390125 
L 272.903616 94.390125 
L 273.700759 92.806125 
L 273.700759 92.410125 
L 273.966473 92.014125 
L 274.232188 90.430125 
L 274.497902 88.450125 
L 274.763616 88.450125 
L 274.763616 87.658125 
L 275.295045 87.658125 
L 275.295045 86.866125 
L 275.826473 86.866125 
L 276.092187 85.678125 
L 276.357902 85.678125 
L 276.357902 85.282125 
L 276.623616 85.282125 
L 276.623616 84.886125 
L 276.88933 84.094125 
L 277.155045 84.094125 
L 277.155045 82.906125 
L 277.952187 82.510125 
L 277.952187 81.718125 
L 279.280759 81.718125 
L 280.077902 80.530125 
L 280.343616 80.530125 
L 280.60933 80.134125 
L 281.140759 78.946125 
L 282.203616 78.946125 
L 282.735045 77.362125 
L 283.532188 77.362125 
L 283.532188 76.570125 
L 284.063616 76.570125 
L 284.063616 75.778125 
L 285.126473 75.778125 
L 285.126473 74.986125 
L 285.657902 74.590125 
L 285.657902 73.798125 
L 286.18933 73.006125 
L 286.720759 72.610125 
L 286.986473 72.214125 
L 286.986473 71.818125 
L 287.517902 71.026125 
L 288.04933 71.026125 
L 289.643616 70.630125 
L 290.175045 70.234125 
L 290.175045 69.838125 
L 291.503616 69.442125 
L 292.035045 69.442125 
L 292.035045 69.046125 
L 292.300759 69.046125 
L 292.300759 67.066125 
L 292.832188 67.066125 
L 293.363616 66.274125 
L 293.363616 65.086125 
L 294.426473 63.106125 
L 296.286473 63.106125 
L 296.286473 62.710125 
L 297.880759 62.710125 
L 298.146473 61.918125 
L 298.412188 61.522125 
L 299.20933 61.522125 
L 299.20933 60.730125 
L 299.740759 60.730125 
L 300.272187 60.334125 
L 300.272187 58.750125 
L 300.537902 58.750125 
L 300.537902 58.354125 
L 301.06933 58.354125 
L 301.335045 57.562125 
L 301.600759 56.374125 
L 301.866473 56.374125 
L 301.866473 55.186125 
L 304.257902 55.186125 
L 305.320759 54.790125 
L 305.852187 54.790125 
L 306.117902 54.394125 
L 307.977902 54.394125 
L 307.977902 53.998125 
L 308.243616 53.998125 
L 308.775045 53.602125 
L 310.103616 52.810125 
L 311.697902 52.810125 
L 311.697902 52.018125 
L 312.22933 51.622125 
L 312.22933 51.226125 
L 312.760759 51.226125 
L 313.292187 50.830125 
L 313.292187 50.434125 
L 319.137902 50.434125 
L 319.935045 50.038125 
L 321.263616 50.038125 
L 321.263616 49.642125 
L 322.326473 49.642125 
L 323.123616 48.058125 
L 324.452187 48.058125 
L 324.717902 47.662125 
L 324.983616 46.474125 
L 326.312187 46.474125 
L 326.312187 46.078125 
L 326.843616 46.078125 
L 327.375045 45.682125 
L 327.906473 45.682125 
L 328.703616 44.494125 
L 329.500759 44.494125 
L 330.297902 44.098125 
L 334.283616 44.098125 
L 334.283616 43.306125 
L 334.815045 43.306125 
L 335.080759 42.910125 
L 335.080759 42.514125 
L 335.877902 42.118125 
L 336.143616 42.118125 
L 336.940759 41.722125 
L 338.535045 41.722125 
L 338.535045 41.326125 
L 340.12933 41.326125 
L 340.395045 40.534125 
L 340.660759 40.534125 
L 341.192187 40.138125 
L 343.84933 40.138125 
L 343.84933 39.742125 
L 351.28933 39.742125 
L 351.28933 38.950125 
L 357.135045 38.950125 
L 357.400759 37.762125 
L 357.666473 37.762125 
L 357.666473 36.574125 
L 361.120759 36.574125 
L 361.917902 35.782125 
L 364.575045 35.782125 
L 364.575045 35.386125 
L 367.497902 35.386125 
L 368.295045 34.990125 
L 400.712187 34.990125 
L 400.712187 34.990125 
" clip-path="url(#p991bfebb18)" style="fill: none; stroke: #ff0000; stroke-width: 2; stroke-linecap: square"/>
   </g>
   <g id="line2d_26">
    <path d="M 60.597902 288.430125 
L 60.597902 208.834125 
L 60.863616 208.834125 
L 60.863616 202.498125 
L 61.395045 202.498125 
L 61.395045 200.518125 
L 62.457902 200.518125 
L 62.457902 194.578125 
L 62.723616 194.578125 
L 62.723616 194.182125 
L 62.98933 194.182125 
L 62.98933 192.994125 
L 63.520759 192.994125 
L 63.520759 192.598125 
L 63.786473 192.598125 
L 63.786473 192.202125 
L 64.052188 192.202125 
L 64.052188 191.410125 
L 64.583616 191.410125 
L 64.583616 190.618125 
L 65.115045 190.618125 
L 65.115045 190.222125 
L 66.443616 190.222125 
L 66.443616 189.826125 
L 66.70933 189.826125 
L 66.70933 189.430125 
L 66.975045 189.430125 
L 66.975045 189.034125 
L 67.772188 189.034125 
L 67.772188 187.846125 
L 68.835045 187.846125 
L 68.835045 187.054125 
L 69.100759 187.054125 
L 69.100759 185.866125 
L 70.42933 185.866125 
L 70.42933 185.470125 
L 70.960759 185.470125 
L 70.960759 185.074125 
L 72.023616 185.074125 
L 72.023616 184.678125 
L 72.555045 184.678125 
L 72.555045 184.282125 
L 74.14933 184.282125 
L 74.14933 183.094125 
L 74.415045 183.094125 
L 74.415045 182.302125 
L 74.680759 182.302125 
L 74.680759 181.906125 
L 74.946473 181.906125 
L 74.946473 181.510125 
L 76.00933 181.510125 
L 76.00933 181.114125 
L 76.540759 181.114125 
L 76.540759 179.926125 
L 76.806473 179.926125 
L 76.806473 179.530125 
L 77.337902 179.530125 
L 77.337902 177.946125 
L 78.135045 177.946125 
L 78.135045 177.154125 
L 78.666473 177.154125 
L 78.666473 176.758125 
L 78.932187 176.758125 
L 78.932187 176.362125 
L 79.72933 176.362125 
L 79.72933 174.778125 
L 81.323616 174.778125 
L 81.323616 174.382125 
L 81.58933 174.382125 
L 81.58933 172.006125 
L 82.652188 172.006125 
L 82.652188 171.214125 
L 83.183616 171.214125 
L 83.183616 170.026125 
L 83.980759 170.026125 
L 83.980759 169.630125 
L 85.575045 169.630125 
L 85.575045 169.234125 
L 86.106473 169.234125 
L 86.106473 168.838125 
L 86.903616 168.838125 
L 86.903616 168.442125 
L 87.16933 168.442125 
L 87.16933 167.254125 
L 87.966473 167.254125 
L 87.966473 166.066125 
L 88.232188 166.066125 
L 88.232188 164.878125 
L 89.02933 164.878125 
L 89.02933 163.690125 
L 89.560759 163.690125 
L 89.560759 163.294125 
L 89.826473 163.294125 
L 89.826473 162.898125 
L 90.88933 162.898125 
L 90.88933 162.502125 
L 92.217902 162.502125 
L 92.483616 162.106125 
L 92.483616 161.314125 
L 92.74933 161.314125 
L 92.74933 160.918125 
L 93.546473 160.918125 
L 93.546473 160.522125 
L 93.812188 160.522125 
L 94.343616 160.126125 
L 94.343616 159.334125 
L 94.875045 159.334125 
L 94.875045 158.938125 
L 95.406473 158.938125 
L 95.406473 158.542125 
L 95.672188 158.542125 
L 95.672188 157.750125 
L 96.203616 157.750125 
L 96.203616 157.354125 
L 97.000759 157.354125 
L 97.000759 156.166125 
L 97.266473 155.770125 
L 97.532188 155.770125 
L 97.532188 154.186125 
L 97.797902 153.790125 
L 97.797902 153.394125 
L 98.063616 153.394125 
L 98.063616 151.414125 
L 99.392188 151.414125 
L 99.657902 151.018125 
L 99.923616 151.018125 
L 99.923616 150.622125 
L 100.986473 150.622125 
L 100.986473 150.226125 
L 101.252188 150.226125 
L 101.252188 149.830125 
L 101.783616 149.830125 
L 101.783616 149.038125 
L 102.580759 149.038125 
L 102.580759 147.850125 
L 103.377902 147.850125 
L 103.377902 147.454125 
L 103.643616 147.454125 
L 103.90933 147.058125 
L 104.706473 147.058125 
L 104.706473 146.662125 
L 104.972188 146.662125 
L 104.972188 146.266125 
L 105.76933 146.266125 
L 105.76933 145.078125 
L 106.832188 145.078125 
L 106.832188 144.286125 
L 108.160759 144.286125 
L 108.160759 143.098125 
L 110.020759 143.098125 
L 110.020759 142.306125 
L 110.817902 142.306125 
L 110.817902 141.514125 
L 111.083616 141.514125 
L 111.615045 141.118125 
L 111.615045 140.722125 
L 112.146473 140.722125 
L 112.146473 140.326125 
L 112.943616 140.326125 
L 112.943616 139.534125 
L 114.006473 139.534125 
L 114.006473 137.554125 
L 114.272188 137.554125 
L 114.272188 137.158125 
L 114.803616 137.158125 
L 114.803616 136.762125 
L 115.06933 136.762125 
L 115.06933 134.782125 
L 115.335045 134.782125 
L 115.335045 134.386125 
L 115.600759 134.386125 
L 115.600759 132.010125 
L 115.866473 132.010125 
L 115.866473 129.634125 
L 117.195045 129.634125 
L 117.195045 128.446125 
L 117.726473 128.446125 
L 117.726473 127.654125 
L 118.257902 127.654125 
L 118.257902 126.070125 
L 118.523616 126.070125 
L 118.523616 124.090125 
L 119.320759 124.090125 
L 119.320759 123.694125 
L 119.586473 123.694125 
L 119.586473 122.506125 
L 119.852188 122.506125 
L 119.852188 121.714125 
L 120.915045 121.714125 
L 120.915045 121.318125 
L 121.712187 121.318125 
L 121.712187 120.526125 
L 122.243616 120.526125 
L 122.243616 119.734125 
L 122.50933 119.734125 
L 122.50933 118.546125 
L 122.775045 118.150125 
L 123.306473 118.150125 
L 123.306473 116.566125 
L 123.572187 116.566125 
L 123.572187 115.774125 
L 123.837902 115.774125 
L 123.837902 114.982125 
L 124.36933 114.982125 
L 124.36933 114.190125 
L 125.166473 114.190125 
L 125.166473 112.606125 
L 125.432187 112.606125 
L 125.432187 111.418125 
L 125.963616 111.418125 
L 125.963616 110.626125 
L 126.22933 110.626125 
L 126.22933 110.230125 
L 128.886473 110.230125 
L 128.886473 108.250125 
L 129.417902 108.250125 
L 129.417902 104.686125 
L 129.683616 104.686125 
L 129.683616 103.498125 
L 129.94933 103.498125 
L 129.94933 102.706125 
L 130.480759 102.706125 
L 130.480759 102.310125 
L 131.277902 102.310125 
L 131.277902 101.122125 
L 131.543616 101.122125 
L 131.543616 100.726125 
L 132.075045 100.726125 
L 132.340759 100.330125 
L 132.340759 99.934125 
L 132.872187 99.934125 
L 132.872187 99.538125 
L 133.137902 99.538125 
L 133.137902 99.142125 
L 133.935045 99.142125 
L 133.935045 98.746125 
L 134.200759 98.746125 
L 134.200759 98.350125 
L 135.263616 98.350125 
L 135.263616 97.558125 
L 135.52933 97.162125 
L 135.795045 97.162125 
L 135.795045 96.766125 
L 137.655045 96.766125 
L 137.655045 96.370125 
L 138.452188 95.974125 
L 138.452188 95.578125 
L 139.780759 95.578125 
L 139.780759 94.786125 
L 140.312187 94.786125 
L 140.312187 94.390125 
L 140.843616 94.390125 
L 140.843616 93.994125 
L 141.10933 93.994125 
L 141.10933 93.598125 
L 141.640759 93.598125 
L 141.906473 93.202125 
L 142.172188 93.202125 
L 142.172188 92.806125 
L 143.235045 92.806125 
L 143.235045 92.014125 
L 143.500759 92.014125 
L 143.500759 91.222125 
L 145.360759 91.222125 
L 145.360759 90.034125 
L 145.626473 90.034125 
L 145.892188 89.638125 
L 146.423616 89.638125 
L 146.68933 89.242125 
L 146.955045 89.242125 
L 146.955045 88.846125 
L 147.486473 88.846125 
L 147.486473 87.658125 
L 147.752187 87.262125 
L 147.752187 86.866125 
L 148.017902 86.470125 
L 149.612188 86.470125 
L 149.612188 85.678125 
L 149.877902 85.282125 
L 150.675045 85.282125 
L 150.675045 84.886125 
L 151.472188 84.886125 
L 151.472188 83.698125 
L 152.26933 83.698125 
L 152.26933 83.302125 
L 152.800759 83.302125 
L 152.800759 82.510125 
L 153.332188 82.510125 
L 153.332188 80.530125 
L 154.660759 80.530125 
L 154.926473 80.134125 
L 155.192188 80.134125 
L 155.192188 79.342125 
L 155.723616 79.342125 
L 155.723616 78.550125 
L 158.912188 78.550125 
L 158.912188 78.154125 
L 160.772188 78.154125 
L 160.772188 77.758125 
L 161.56933 77.758125 
L 161.56933 77.362125 
L 162.366473 77.362125 
L 162.632187 76.966125 
L 162.897902 76.966125 
L 162.897902 76.570125 
L 163.42933 76.570125 
L 163.42933 76.174125 
L 163.695045 76.174125 
L 163.695045 75.778125 
L 163.960759 75.778125 
L 163.960759 75.382125 
L 164.226473 75.382125 
L 164.226473 74.986125 
L 165.28933 74.986125 
L 165.555045 74.590125 
L 165.555045 73.798125 
L 165.820759 73.798125 
L 165.820759 73.006125 
L 166.352187 73.006125 
L 166.352187 72.610125 
L 166.617902 72.214125 
L 169.00933 72.214125 
L 169.00933 71.818125 
L 169.275045 71.818125 
L 169.275045 71.026125 
L 169.540759 71.026125 
L 169.540759 70.630125 
L 169.806473 70.630125 
L 169.806473 70.234125 
L 171.135045 70.234125 
L 171.135045 69.838125 
L 171.666473 69.838125 
L 171.666473 69.442125 
L 172.197902 69.442125 
L 172.463616 69.046125 
L 172.463616 67.858125 
L 172.72933 67.858125 
L 172.72933 67.462125 
L 173.260759 67.462125 
L 173.260759 67.066125 
L 176.44933 67.066125 
L 176.44933 66.274125 
L 176.980759 66.274125 
L 177.246473 65.878125 
L 177.246473 65.086125 
L 178.30933 65.086125 
L 178.575045 64.294125 
L 179.903616 64.294125 
L 179.903616 63.502125 
L 180.435045 63.502125 
L 180.435045 62.314125 
L 180.700759 62.314125 
L 180.700759 61.918125 
L 181.763616 61.918125 
L 181.763616 61.126125 
L 184.420759 61.126125 
L 184.420759 60.730125 
L 185.217902 60.730125 
L 185.217902 59.938125 
L 185.483616 59.542125 
L 185.483616 58.750125 
L 186.812187 58.750125 
L 187.077902 58.354125 
L 187.875045 58.354125 
L 187.875045 57.562125 
L 189.735045 57.562125 
L 189.735045 56.770125 
L 190.532187 56.770125 
L 190.532187 53.998125 
L 190.797902 53.998125 
L 190.797902 53.602125 
L 191.32933 53.602125 
L 191.32933 53.206125 
L 193.986473 53.206125 
L 194.252187 52.810125 
L 195.315045 52.810125 
L 195.315045 52.018125 
L 196.90933 52.018125 
L 196.90933 51.622125 
L 197.440759 51.622125 
L 197.440759 51.226125 
L 197.706473 51.226125 
L 197.706473 50.038125 
L 199.566473 50.038125 
L 199.566473 49.246125 
L 200.62933 49.246125 
L 200.62933 48.454125 
L 201.160759 48.454125 
L 201.160759 48.058125 
L 201.426473 48.058125 
L 201.426473 47.266125 
L 203.552188 47.266125 
L 203.552188 46.870125 
L 204.615045 46.870125 
L 204.615045 46.474125 
L 206.475045 46.474125 
L 206.740759 46.078125 
L 207.006473 46.078125 
L 207.006473 45.286125 
L 207.272188 45.286125 
L 207.272188 44.494125 
L 208.06933 44.494125 
L 208.06933 43.702125 
L 208.335045 43.702125 
L 208.600759 43.306125 
L 208.866473 43.306125 
L 208.866473 42.910125 
L 209.92933 42.910125 
L 209.92933 42.118125 
L 210.460759 42.118125 
L 210.460759 41.722125 
L 212.320759 41.722125 
L 212.320759 41.326125 
L 212.586473 41.326125 
L 212.586473 40.930125 
L 213.915045 40.930125 
L 214.180759 40.534125 
L 214.712187 40.534125 
L 214.712187 40.138125 
L 219.760759 40.138125 
L 219.760759 39.742125 
L 221.08933 39.742125 
L 221.08933 38.554125 
L 224.277902 38.554125 
L 224.277902 38.158125 
L 225.606473 38.158125 
L 225.606473 37.762125 
L 235.703616 37.762125 
L 235.703616 37.366125 
L 236.235045 37.366125 
L 236.235045 36.970125 
L 242.612188 36.970125 
L 242.877902 36.574125 
L 271.30933 36.574125 
L 271.575045 36.178125 
L 274.497902 36.178125 
L 274.763616 35.782125 
L 275.295045 35.386125 
L 282.735045 35.386125 
L 283.000759 34.990125 
L 400.712187 34.990125 
L 400.712187 34.990125 
" clip-path="url(#p991bfebb18)" style="fill: none; stroke: #0000ff; stroke-width: 2; stroke-linecap: square"/>
   </g>
   <g id="line2d_27">
    <path d="M 60.597902 288.430125 
L 60.597902 284.866125 
L 60.863616 284.866125 
L 60.863616 282.886125 
L 61.395045 282.886125 
L 61.395045 276.946125 
L 61.660759 276.946125 
L 61.660759 276.550125 
L 61.926473 276.550125 
L 61.926473 274.174125 
L 62.192188 274.174125 
L 62.192188 272.986125 
L 62.457902 272.986125 
L 62.723616 272.590125 
L 62.98933 272.590125 
L 62.98933 271.798125 
L 63.255045 271.798125 
L 63.255045 270.610125 
L 63.520759 270.610125 
L 63.520759 269.818125 
L 63.786473 269.818125 
L 63.786473 269.026125 
L 64.052188 269.026125 
L 64.052188 268.630125 
L 64.583616 268.630125 
L 64.583616 268.234125 
L 65.115045 268.234125 
L 65.115045 267.838125 
L 65.646473 267.838125 
L 65.646473 265.066125 
L 66.443616 265.066125 
L 66.443616 263.878125 
L 66.70933 263.878125 
L 66.975045 263.482125 
L 67.240759 263.482125 
L 67.240759 262.294125 
L 67.772188 262.294125 
L 67.772188 261.898125 
L 68.037902 261.898125 
L 68.037902 261.502125 
L 68.56933 260.710125 
L 68.56933 260.314125 
L 68.835045 260.314125 
L 68.835045 259.918125 
L 69.366473 259.918125 
L 69.366473 259.522125 
L 69.632188 259.522125 
L 69.632188 259.126125 
L 70.960759 259.126125 
L 70.960759 257.542125 
L 72.023616 257.542125 
L 72.28933 257.146125 
L 74.14933 257.146125 
L 74.14933 255.958125 
L 74.680759 255.958125 
L 74.946473 255.166125 
L 79.463616 255.166125 
L 79.463616 254.770125 
L 80.260759 254.770125 
L 80.260759 254.374125 
L 81.58933 254.374125 
L 81.58933 253.978125 
L 83.44933 253.978125 
L 83.44933 253.582125 
L 83.980759 253.582125 
L 83.980759 253.186125 
L 84.246473 253.186125 
L 84.246473 252.790125 
L 87.700759 252.790125 
L 87.700759 251.998125 
L 89.02933 251.998125 
L 89.02933 251.602125 
L 92.217902 251.602125 
L 92.483616 250.810125 
L 92.74933 250.810125 
L 92.74933 250.018125 
L 94.875045 250.018125 
L 94.875045 249.622125 
L 95.140759 249.622125 
L 95.140759 249.226125 
L 96.203616 249.226125 
L 96.46933 248.830125 
L 97.266473 248.830125 
L 97.266473 247.642125 
L 99.657902 247.642125 
L 99.657902 247.246125 
L 102.580759 247.246125 
L 102.580759 246.850125 
L 103.90933 246.850125 
L 103.90933 246.454125 
L 105.76933 246.454125 
L 105.76933 246.058125 
L 106.566473 246.058125 
L 106.566473 245.662125 
L 106.832188 244.870125 
L 107.363616 244.870125 
L 107.62933 244.474125 
L 107.895045 244.474125 
L 108.426473 243.682125 
L 108.426473 243.286125 
L 110.552188 243.286125 
L 110.552188 242.890125 
L 111.083616 242.890125 
L 111.083616 241.702125 
L 111.615045 241.702125 
L 111.615045 241.306125 
L 112.943616 241.306125 
L 112.943616 240.910125 
L 113.475045 240.910125 
L 113.475045 240.514125 
L 114.272188 240.514125 
L 114.272188 238.930125 
L 115.06933 238.930125 
L 115.06933 238.138125 
L 115.335045 238.138125 
L 115.335045 237.742125 
L 115.866473 237.742125 
L 115.866473 237.346125 
L 116.92933 237.346125 
L 116.92933 235.762125 
L 117.195045 235.762125 
L 117.195045 233.782125 
L 117.726473 233.782125 
L 117.726473 233.386125 
L 118.523616 233.386125 
L 118.523616 232.990125 
L 119.055045 232.990125 
L 119.320759 232.594125 
L 119.852188 232.594125 
L 119.852188 232.198125 
L 120.117902 232.198125 
L 120.383616 231.802125 
L 121.180759 231.802125 
L 121.180759 231.406125 
L 121.446473 231.406125 
L 121.446473 230.218125 
L 121.712187 229.822125 
L 121.977902 229.822125 
L 121.977902 229.426125 
L 122.50933 229.426125 
L 122.50933 229.030125 
L 122.775045 229.030125 
L 122.775045 227.050125 
L 123.837902 227.050125 
L 123.837902 225.862125 
L 124.103616 225.862125 
L 124.103616 225.070125 
L 124.36933 225.070125 
L 124.36933 224.674125 
L 124.635045 223.882125 
L 124.635045 223.486125 
L 125.697902 223.486125 
L 125.697902 223.090125 
L 125.963616 223.090125 
L 125.963616 222.298125 
L 126.22933 222.298125 
L 126.22933 221.506125 
L 126.495045 221.506125 
L 126.495045 220.714125 
L 126.760759 220.318125 
L 126.760759 219.922125 
L 127.557902 219.922125 
L 127.557902 219.130125 
L 127.823616 219.130125 
L 127.823616 218.734125 
L 128.08933 218.338125 
L 128.08933 217.942125 
L 128.355045 217.942125 
L 128.355045 217.546125 
L 129.152187 217.546125 
L 129.152187 216.358125 
L 130.215045 216.358125 
L 130.215045 215.962125 
L 130.480759 215.962125 
L 130.480759 214.774125 
L 131.012188 214.774125 
L 131.012188 212.398125 
L 131.277902 212.002125 
L 131.543616 212.002125 
L 131.543616 211.606125 
L 132.606473 211.606125 
L 132.606473 210.022125 
L 132.872187 210.022125 
L 132.872187 209.626125 
L 133.935045 209.626125 
L 133.935045 209.230125 
L 134.200759 209.230125 
L 134.200759 208.438125 
L 134.466473 208.438125 
L 134.466473 206.458125 
L 134.732188 206.458125 
L 134.732188 204.874125 
L 136.592187 204.874125 
L 136.592187 204.082125 
L 137.38933 204.082125 
L 137.655045 203.686125 
L 137.655045 203.290125 
L 138.452188 203.290125 
L 138.452188 202.498125 
L 138.983616 202.102125 
L 139.24933 202.102125 
L 139.24933 201.706125 
L 139.780759 201.706125 
L 139.780759 200.914125 
L 140.046473 200.914125 
L 140.312187 200.518125 
L 140.312187 197.746125 
L 141.640759 197.746125 
L 141.640759 197.350125 
L 142.437902 197.350125 
L 142.437902 196.162125 
L 142.703616 196.162125 
L 142.703616 195.766125 
L 142.96933 195.766125 
L 142.96933 194.974125 
L 144.563616 194.974125 
L 144.563616 194.578125 
L 144.82933 194.578125 
L 144.82933 194.182125 
L 145.095045 194.182125 
L 145.095045 192.994125 
L 145.360759 192.994125 
L 145.360759 192.202125 
L 145.626473 192.202125 
L 145.626473 191.806125 
L 146.157902 191.806125 
L 146.157902 190.618125 
L 146.68933 190.618125 
L 146.68933 189.430125 
L 146.955045 189.430125 
L 146.955045 188.242125 
L 147.220759 188.242125 
L 147.220759 187.054125 
L 147.752187 187.054125 
L 147.752187 186.262125 
L 148.017902 186.262125 
L 148.017902 184.678125 
L 148.815045 184.678125 
L 148.815045 183.490125 
L 149.346473 183.490125 
L 149.346473 182.698125 
L 149.877902 182.698125 
L 149.877902 181.906125 
L 150.40933 181.906125 
L 150.40933 181.114125 
L 150.675045 181.114125 
L 150.940759 180.718125 
L 151.472188 180.718125 
L 151.472188 179.926125 
L 151.737902 179.926125 
L 151.737902 178.738125 
L 152.003616 178.738125 
L 152.003616 177.550125 
L 152.535045 177.550125 
L 152.535045 177.154125 
L 152.800759 177.154125 
L 152.800759 174.778125 
L 153.066473 174.778125 
L 153.066473 173.590125 
L 153.597902 173.590125 
L 153.597902 172.798125 
L 153.863616 172.798125 
L 153.863616 172.402125 
L 154.12933 172.402125 
L 154.12933 172.006125 
L 154.395045 171.610125 
L 154.395045 170.818125 
L 154.926473 170.818125 
L 154.926473 169.630125 
L 155.457902 169.630125 
L 155.457902 168.838125 
L 155.723616 168.838125 
L 155.723616 168.442125 
L 155.98933 168.046125 
L 155.98933 167.254125 
L 156.255045 167.254125 
L 156.255045 165.274125 
L 156.786473 165.274125 
L 156.786473 164.878125 
L 157.052188 164.482125 
L 157.052188 164.086125 
L 157.317902 164.086125 
L 157.317902 163.690125 
L 157.583616 163.690125 
L 158.115045 162.898125 
L 158.115045 160.918125 
L 158.380759 160.918125 
L 158.380759 160.522125 
L 158.646473 160.126125 
L 158.646473 158.938125 
L 158.912188 158.938125 
L 158.912188 158.542125 
L 160.240759 158.542125 
L 160.240759 156.562125 
L 160.506473 156.166125 
L 161.037902 156.166125 
L 161.037902 155.770125 
L 162.100759 155.770125 
L 162.100759 154.186125 
L 162.632187 154.186125 
L 162.632187 153.790125 
L 162.897902 153.790125 
L 162.897902 152.602125 
L 163.163616 152.602125 
L 163.163616 151.810125 
L 163.42933 151.810125 
L 163.42933 150.226125 
L 163.960759 150.226125 
L 163.960759 148.642125 
L 164.226473 148.642125 
L 164.226473 148.246125 
L 164.492188 148.246125 
L 164.492188 145.474125 
L 164.757902 145.474125 
L 164.757902 144.682125 
L 165.023616 144.682125 
L 165.023616 142.306125 
L 165.28933 142.306125 
L 165.28933 141.514125 
L 165.555045 141.514125 
L 165.555045 140.326125 
L 165.820759 140.326125 
L 165.820759 139.930125 
L 166.086473 139.930125 
L 166.086473 137.950125 
L 166.352187 137.950125 
L 166.352187 137.554125 
L 166.617902 137.554125 
L 166.617902 137.158125 
L 167.14933 137.158125 
L 167.14933 136.366125 
L 167.415045 136.366125 
L 167.415045 135.178125 
L 167.680759 135.178125 
L 167.680759 133.990125 
L 167.946473 133.990125 
L 167.946473 132.802125 
L 168.212187 132.802125 
L 168.212187 132.406125 
L 168.477902 132.406125 
L 168.477902 132.010125 
L 169.540759 132.010125 
L 169.540759 131.614125 
L 170.072188 131.614125 
L 170.072188 128.446125 
L 170.337902 128.446125 
L 170.337902 127.654125 
L 170.86933 127.654125 
L 170.86933 127.258125 
L 171.135045 127.258125 
L 171.400759 126.466125 
L 171.400759 124.486125 
L 172.463616 124.486125 
L 172.463616 122.110125 
L 172.72933 122.110125 
L 172.72933 121.714125 
L 172.995045 121.714125 
L 172.995045 119.338125 
L 173.260759 118.942125 
L 173.260759 114.586125 
L 173.792188 114.586125 
L 173.792188 113.002125 
L 174.323616 113.002125 
L 174.323616 111.418125 
L 174.58933 111.418125 
L 174.58933 110.626125 
L 175.386473 110.626125 
L 175.386473 108.646125 
L 175.652187 108.646125 
L 175.652187 107.854125 
L 175.917902 107.854125 
L 175.917902 105.874125 
L 176.183616 105.874125 
L 176.183616 104.686125 
L 176.44933 104.290125 
L 176.44933 103.894125 
L 176.715045 103.894125 
L 176.715045 103.102125 
L 176.980759 103.102125 
L 176.980759 101.914125 
L 177.512188 101.914125 
L 177.512188 101.518125 
L 177.777902 101.518125 
L 177.777902 100.726125 
L 178.043616 100.330125 
L 178.043616 98.746125 
L 178.840759 98.746125 
L 178.840759 97.954125 
L 179.106473 97.954125 
L 179.106473 94.786125 
L 179.372187 94.786125 
L 179.637902 94.390125 
L 180.16933 94.390125 
L 180.16933 93.202125 
L 180.435045 93.202125 
L 180.435045 91.222125 
L 181.232188 91.222125 
L 181.232188 90.034125 
L 181.497902 90.034125 
L 181.497902 88.450125 
L 182.02933 88.450125 
L 182.02933 87.262125 
L 182.295045 87.262125 
L 182.295045 86.866125 
L 182.560759 86.866125 
L 182.560759 86.074125 
L 183.357902 86.074125 
L 183.357902 85.282125 
L 183.623616 84.490125 
L 183.623616 84.094125 
L 184.686473 84.094125 
L 184.686473 83.302125 
L 184.952187 83.302125 
L 184.952187 82.114125 
L 185.217902 82.114125 
L 185.217902 81.718125 
L 185.74933 81.718125 
L 185.74933 80.926125 
L 186.015045 80.926125 
L 186.015045 80.134125 
L 186.280759 80.134125 
L 186.280759 78.550125 
L 186.546473 78.550125 
L 186.546473 77.758125 
L 187.077902 77.758125 
L 187.077902 76.966125 
L 187.60933 76.966125 
L 187.60933 74.986125 
L 187.875045 74.986125 
L 187.875045 74.194125 
L 188.406473 74.194125 
L 188.406473 73.006125 
L 188.937902 73.006125 
L 188.937902 72.214125 
L 189.46933 72.214125 
L 189.46933 71.818125 
L 189.735045 71.818125 
L 189.735045 71.026125 
L 190.532187 71.026125 
L 190.532187 70.630125 
L 190.797902 70.630125 
L 190.797902 70.234125 
L 191.32933 70.234125 
L 191.32933 69.838125 
L 191.860759 69.838125 
L 191.860759 69.046125 
L 192.126473 69.046125 
L 192.126473 68.650125 
L 192.657902 68.650125 
L 192.657902 68.254125 
L 192.923616 68.254125 
L 192.923616 67.858125 
L 193.18933 67.462125 
L 194.252187 67.462125 
L 194.252187 66.670125 
L 194.783616 66.670125 
L 194.783616 65.878125 
L 195.846473 65.878125 
L 195.846473 65.482125 
L 196.643616 65.482125 
L 196.643616 65.086125 
L 197.175045 65.086125 
L 197.175045 64.294125 
L 197.706473 64.294125 
L 197.706473 63.898125 
L 197.972188 63.898125 
L 197.972188 62.710125 
L 198.237902 62.710125 
L 198.237902 62.314125 
L 198.76933 62.314125 
L 198.76933 61.522125 
L 199.300759 61.522125 
L 199.300759 61.126125 
L 200.363616 61.126125 
L 200.363616 60.730125 
L 200.62933 60.730125 
L 200.62933 59.938125 
L 202.223616 59.938125 
L 202.223616 58.750125 
L 202.48933 58.750125 
L 202.48933 58.354125 
L 203.552188 58.354125 
L 203.552188 57.166125 
L 204.880759 57.166125 
L 204.880759 56.770125 
L 205.412188 56.770125 
L 205.412188 56.374125 
L 205.677902 56.374125 
L 205.677902 55.582125 
L 207.006473 55.582125 
L 207.006473 53.206125 
L 207.537902 53.206125 
L 207.537902 51.622125 
L 208.600759 51.622125 
L 208.600759 51.226125 
L 209.92933 51.226125 
L 209.92933 49.246125 
L 210.195045 49.246125 
L 210.195045 48.850125 
L 210.460759 48.850125 
L 210.460759 48.454125 
L 210.726473 48.454125 
L 210.726473 48.058125 
L 210.992188 48.058125 
L 210.992188 47.662125 
L 211.523616 47.662125 
L 211.523616 47.266125 
L 213.64933 47.266125 
L 213.64933 46.474125 
L 214.977902 46.474125 
L 214.977902 45.682125 
L 215.243616 45.286125 
L 215.243616 44.890125 
L 218.432187 44.890125 
L 218.432187 44.098125 
L 218.697902 44.098125 
L 218.697902 43.702125 
L 219.22933 43.702125 
L 219.22933 43.306125 
L 220.026473 43.306125 
L 220.026473 42.910125 
L 220.292188 42.910125 
L 220.292188 42.118125 
L 221.08933 42.118125 
L 221.08933 40.930125 
L 222.152187 40.930125 
L 222.152187 40.534125 
L 224.543616 40.534125 
L 224.543616 40.138125 
L 224.80933 40.138125 
L 224.80933 39.742125 
L 226.935045 39.742125 
L 226.935045 39.346125 
L 227.200759 39.346125 
L 227.200759 38.950125 
L 227.732188 38.950125 
L 227.732188 38.158125 
L 227.997902 38.158125 
L 227.997902 37.762125 
L 237.82933 37.762125 
L 237.82933 36.574125 
L 240.220759 36.574125 
L 240.220759 36.178125 
L 240.752187 36.178125 
L 240.752187 35.782125 
L 242.080759 35.782125 
L 242.080759 35.386125 
L 245.003616 35.386125 
L 245.003616 34.990125 
L 400.712187 34.990125 
L 400.712187 34.990125 
" clip-path="url(#p991bfebb18)" style="fill: none; stroke: #008000; stroke-width: 2; stroke-linecap: square"/>
   </g>
   <g id="line2d_28">
    <path d="M 60.597902 288.430125 
L 400.712187 34.990125 
" clip-path="url(#p991bfebb18)" style="fill: none; stroke-dasharray: 7.4,3.2; stroke-dashoffset: 0; stroke: #000000; stroke-width: 2"/>
   </g>
   <g id="patch_3">
    <path d="M 43.592188 288.430125 
L 43.592188 22.318125 
" style="fill: none; stroke: #000000; stroke-width: 2; stroke-linejoin: miter; stroke-linecap: square"/>
   </g>
   <g id="patch_4">
    <path d="M 400.712188 288.430125 
L 400.712188 22.318125 
" style="fill: none; stroke: #000000; stroke-width: 2; stroke-linejoin: miter; stroke-linecap: square"/>
   </g>
   <g id="patch_5">
    <path d="M 43.592188 288.430125 
L 400.712187 288.430125 
" style="fill: none; stroke: #000000; stroke-width: 2; stroke-linejoin: miter; stroke-linecap: square"/>
   </g>
   <g id="patch_6">
    <path d="M 43.592188 22.318125 
L 400.712187 22.318125 
" style="fill: none; stroke: #000000; stroke-width: 2; stroke-linejoin: miter; stroke-linecap: square"/>
   </g>
   <g id="text_15">
    <text style="font: 700 12px 'DejaVu Sans', 'Bitstream Vera Sans', 'Computer Modern Sans Serif', 'Lucida Grande', 'Verdana', 'Geneva', 'Lucid', 'Arial', 'Helvetica', 'Avant Garde', sans-serif; text-anchor: middle" x="222.152188" y="16.318125" transform="rotate(-0 222.152188 16.318125)">Multi-class classification ROC for dist features</text>
   </g>
   <g id="legend_1">
    <g id="patch_7">
     <path d="M 134.954375 283.430125 
L 393.712188 283.430125 
Q 395.712188 283.430125 395.712188 281.430125 
L 395.712188 238.39575 
Q 395.712188 236.39575 393.712188 236.39575 
L 134.954375 236.39575 
Q 132.954375 236.39575 132.954375 238.39575 
L 132.954375 281.430125 
Q 132.954375 283.430125 134.954375 283.430125 
z
" style="fill: #ffffff; opacity: 0.8; stroke: #cccccc; stroke-linejoin: miter"/>
    </g>
    <g id="line2d_29">
     <path d="M 136.954375 244.494187 
L 146.954375 244.494187 
L 156.954375 244.494187 
" style="fill: none; stroke: #ff0000; stroke-width: 2; stroke-linecap: square"/>
    </g>
    <g id="text_16">
     <text style="font: 700 10px 'DejaVu Sans', 'Bitstream Vera Sans', 'Computer Modern Sans Serif', 'Lucida Grande', 'Verdana', 'Geneva', 'Lucid', 'Arial', 'Helvetica', 'Avant Garde', sans-serif; text-anchor: start" x="164.954375" y="247.994187" transform="rotate(-0 164.954375 247.994187)">ROC curve (area = 0.65) for class mc6</text>
    </g>
    <g id="line2d_30">
     <path d="M 136.954375 259.172312 
L 146.954375 259.172312 
L 156.954375 259.172312 
" style="fill: none; stroke: #0000ff; stroke-width: 2; stroke-linecap: square"/>
    </g>
    <g id="text_17">
     <text style="font: 700 10px 'DejaVu Sans', 'Bitstream Vera Sans', 'Computer Modern Sans Serif', 'Lucida Grande', 'Verdana', 'Geneva', 'Lucid', 'Arial', 'Helvetica', 'Avant Garde', sans-serif; text-anchor: start" x="164.954375" y="262.672312" transform="rotate(-0 164.954375 262.672312)">ROC curve (area = 0.87) for class mc6s</text>
    </g>
    <g id="line2d_31">
     <path d="M 136.954375 273.850437 
L 146.954375 273.850437 
L 156.954375 273.850437 
" style="fill: none; stroke: #008000; stroke-width: 2; stroke-linecap: square"/>
    </g>
    <g id="text_18">
     <text style="font: 700 10px 'DejaVu Sans', 'Bitstream Vera Sans', 'Computer Modern Sans Serif', 'Lucida Grande', 'Verdana', 'Geneva', 'Lucid', 'Arial', 'Helvetica', 'Avant Garde', sans-serif; text-anchor: start" x="164.954375" y="277.350437" transform="rotate(-0 164.954375 277.350437)">ROC curve (area = 0.74) for class mc6sa</text>
    </g>
   </g>
  </g>
 </g>
 <defs>
  <clipPath id="p991bfebb18">
   <rect x="43.592188" y="22.318125" width="357.12" height="266.112"/>
  </clipPath>
 </defs>
</svg>
