<?xml version="1.0" encoding="utf-8" standalone="no"?>
<!DOCTYPE svg PUBLIC "-//W3C//DTD SVG 1.1//EN"
  "http://www.w3.org/Graphics/SVG/1.1/DTD/svg11.dtd">
<svg xmlns:xlink="http://www.w3.org/1999/xlink" width="416.769219pt" height="323.986375pt" viewBox="0 0 416.769219 323.986375" xmlns="http://www.w3.org/2000/svg" version="1.1">
 <metadata>
  <rdf:RDF xmlns:dc="http://purl.org/dc/elements/1.1/" xmlns:cc="http://creativecommons.org/ns#" xmlns:rdf="http://www.w3.org/1999/02/22-rdf-syntax-ns#">
   <cc:Work>
    <dc:type rdf:resource="http://purl.org/dc/dcmitype/StillImage"/>
    <dc:date>2023-10-11T18:54:51.224127</dc:date>
    <dc:format>image/svg+xml</dc:format>
    <dc:creator>
     <cc:Agent>
      <dc:title>Matplotlib v3.7.3, https://matplotlib.org/</dc:title>
     </cc:Agent>
    </dc:creator>
   </cc:Work>
  </rdf:RDF>
 </metadata>
 <defs>
  <style type="text/css">*{stroke-linejoin: round; stroke-linecap: butt}</style>
 </defs>
 <g id="figure_1">
  <g id="patch_1">
   <path d="M 0 323.986375 
L 416.769219 323.986375 
L 416.769219 0 
L 0 0 
z
" style="fill: #ffffff"/>
  </g>
  <g id="axes_1">
   <g id="patch_2">
    <path d="M 43.592188 288.430125 
L 400.712188 288.430125 
L 400.712188 22.318125 
L 43.592188 22.318125 
z
" style="fill: #ffffff"/>
   </g>
   <g id="matplotlib.axis_1">
    <g id="xtick_1">
     <g id="line2d_1">
      <defs>
       <path id="mbf60b1ea7d" d="M 0 0 
L 0 -7 
" style="stroke: #000000; stroke-width: 2"/>
      </defs>
      <g>
       <use xlink:href="#mbf60b1ea7d" x="60.597902" y="288.430125" style="stroke: #000000; stroke-width: 2"/>
      </g>
     </g>
     <g id="line2d_2">
      <defs>
       <path id="mdf9ad6505e" d="M 0 0 
L 0 7 
" style="stroke: #000000; stroke-width: 2"/>
      </defs>
      <g>
       <use xlink:href="#mdf9ad6505e" x="60.597902" y="22.318125" style="stroke: #000000; stroke-width: 2"/>
      </g>
     </g>
     <g id="text_1">
      <text style="font: 700 10px 'DejaVu Sans', 'Bitstream Vera Sans', 'Computer Modern Sans Serif', 'Lucida Grande', 'Verdana', 'Geneva', 'Lucid', 'Arial', 'Helvetica', 'Avant Garde', sans-serif; text-anchor: middle" x="60.597902" y="301.028562" transform="rotate(-0 60.597902 301.028562)">0.0</text>
     </g>
    </g>
    <g id="xtick_2">
     <g id="line2d_3">
      <g>
       <use xlink:href="#mbf60b1ea7d" x="128.620759" y="288.430125" style="stroke: #000000; stroke-width: 2"/>
      </g>
     </g>
     <g id="line2d_4">
      <g>
       <use xlink:href="#mdf9ad6505e" x="128.620759" y="22.318125" style="stroke: #000000; stroke-width: 2"/>
      </g>
     </g>
     <g id="text_2">
      <text style="font: 700 10px 'DejaVu Sans', 'Bitstream Vera Sans', 'Computer Modern Sans Serif', 'Lucida Grande', 'Verdana', 'Geneva', 'Lucid', 'Arial', 'Helvetica', 'Avant Garde', sans-serif; text-anchor: middle" x="128.620759" y="301.028562" transform="rotate(-0 128.620759 301.028562)">0.2</text>
     </g>
    </g>
    <g id="xtick_3">
     <g id="line2d_5">
      <g>
       <use xlink:href="#mbf60b1ea7d" x="196.643616" y="288.430125" style="stroke: #000000; stroke-width: 2"/>
      </g>
     </g>
     <g id="line2d_6">
      <g>
       <use xlink:href="#mdf9ad6505e" x="196.643616" y="22.318125" style="stroke: #000000; stroke-width: 2"/>
      </g>
     </g>
     <g id="text_3">
      <text style="font: 700 10px 'DejaVu Sans', 'Bitstream Vera Sans', 'Computer Modern Sans Serif', 'Lucida Grande', 'Verdana', 'Geneva', 'Lucid', 'Arial', 'Helvetica', 'Avant Garde', sans-serif; text-anchor: middle" x="196.643616" y="301.028562" transform="rotate(-0 196.643616 301.028562)">0.4</text>
     </g>
    </g>
    <g id="xtick_4">
     <g id="line2d_7">
      <g>
       <use xlink:href="#mbf60b1ea7d" x="264.666473" y="288.430125" style="stroke: #000000; stroke-width: 2"/>
      </g>
     </g>
     <g id="line2d_8">
      <g>
       <use xlink:href="#mdf9ad6505e" x="264.666473" y="22.318125" style="stroke: #000000; stroke-width: 2"/>
      </g>
     </g>
     <g id="text_4">
      <text style="font: 700 10px 'DejaVu Sans', 'Bitstream Vera Sans', 'Computer Modern Sans Serif', 'Lucida Grande', 'Verdana', 'Geneva', 'Lucid', 'Arial', 'Helvetica', 'Avant Garde', sans-serif; text-anchor: middle" x="264.666473" y="301.028562" transform="rotate(-0 264.666473 301.028562)">0.6</text>
     </g>
    </g>
    <g id="xtick_5">
     <g id="line2d_9">
      <g>
       <use xlink:href="#mbf60b1ea7d" x="332.68933" y="288.430125" style="stroke: #000000; stroke-width: 2"/>
      </g>
     </g>
     <g id="line2d_10">
      <g>
       <use xlink:href="#mdf9ad6505e" x="332.68933" y="22.318125" style="stroke: #000000; stroke-width: 2"/>
      </g>
     </g>
     <g id="text_5">
      <text style="font: 700 10px 'DejaVu Sans', 'Bitstream Vera Sans', 'Computer Modern Sans Serif', 'Lucida Grande', 'Verdana', 'Geneva', 'Lucid', 'Arial', 'Helvetica', 'Avant Garde', sans-serif; text-anchor: middle" x="332.68933" y="301.028562" transform="rotate(-0 332.68933 301.028562)">0.8</text>
     </g>
    </g>
    <g id="xtick_6">
     <g id="line2d_11">
      <g>
       <use xlink:href="#mbf60b1ea7d" x="400.712188" y="288.430125" style="stroke: #000000; stroke-width: 2"/>
      </g>
     </g>
     <g id="line2d_12">
      <g>
       <use xlink:href="#mdf9ad6505e" x="400.712188" y="22.318125" style="stroke: #000000; stroke-width: 2"/>
      </g>
     </g>
     <g id="text_6">
      <text style="font: 700 10px 'DejaVu Sans', 'Bitstream Vera Sans', 'Computer Modern Sans Serif', 'Lucida Grande', 'Verdana', 'Geneva', 'Lucid', 'Arial', 'Helvetica', 'Avant Garde', sans-serif; text-anchor: middle" x="400.712188" y="301.028562" transform="rotate(-0 400.712188 301.028562)">1.0</text>
     </g>
    </g>
    <g id="text_7">
     <text style="font: 700 10px 'DejaVu Sans', 'Bitstream Vera Sans', 'Computer Modern Sans Serif', 'Lucida Grande', 'Verdana', 'Geneva', 'Lucid', 'Arial', 'Helvetica', 'Avant Garde', sans-serif; text-anchor: middle" x="222.152188" y="314.706687" transform="rotate(-0 222.152188 314.706687)">false positive rate</text>
    </g>
   </g>
   <g id="matplotlib.axis_2">
    <g id="ytick_1">
     <g id="line2d_13">
      <defs>
       <path id="m4c98523e8e" d="M 0 0 
L 7 0 
" style="stroke: #000000; stroke-width: 2"/>
      </defs>
      <g>
       <use xlink:href="#m4c98523e8e" x="43.592188" y="288.430125" style="stroke: #000000; stroke-width: 2"/>
      </g>
     </g>
     <g id="line2d_14">
      <defs>
       <path id="mc78923d8ac" d="M 0 0 
L -7 0 
" style="stroke: #000000; stroke-width: 2"/>
      </defs>
      <g>
       <use xlink:href="#mc78923d8ac" x="400.712188" y="288.430125" style="stroke: #000000; stroke-width: 2"/>
      </g>
     </g>
     <g id="text_8">
      <text style="font: 700 10px 'DejaVu Sans', 'Bitstream Vera Sans', 'Computer Modern Sans Serif', 'Lucida Grande', 'Verdana', 'Geneva', 'Lucid', 'Arial', 'Helvetica', 'Avant Garde', sans-serif; text-anchor: end" x="38.592188" y="292.229344" transform="rotate(-0 38.592188 292.229344)">0.0</text>
     </g>
    </g>
    <g id="ytick_2">
     <g id="line2d_15">
      <g>
       <use xlink:href="#m4c98523e8e" x="43.592188" y="237.742125" style="stroke: #000000; stroke-width: 2"/>
      </g>
     </g>
     <g id="line2d_16">
      <g>
       <use xlink:href="#mc78923d8ac" x="400.712188" y="237.742125" style="stroke: #000000; stroke-width: 2"/>
      </g>
     </g>
     <g id="text_9">
      <text style="font: 700 10px 'DejaVu Sans', 'Bitstream Vera Sans', 'Computer Modern Sans Serif', 'Lucida Grande', 'Verdana', 'Geneva', 'Lucid', 'Arial', 'Helvetica', 'Avant Garde', sans-serif; text-anchor: end" x="38.592188" y="241.541344" transform="rotate(-0 38.592188 241.541344)">0.2</text>
     </g>
    </g>
    <g id="ytick_3">
     <g id="line2d_17">
      <g>
       <use xlink:href="#m4c98523e8e" x="43.592188" y="187.054125" style="stroke: #000000; stroke-width: 2"/>
      </g>
     </g>
     <g id="line2d_18">
      <g>
       <use xlink:href="#mc78923d8ac" x="400.712188" y="187.054125" style="stroke: #000000; stroke-width: 2"/>
      </g>
     </g>
     <g id="text_10">
      <text style="font: 700 10px 'DejaVu Sans', 'Bitstream Vera Sans', 'Computer Modern Sans Serif', 'Lucida Grande', 'Verdana', 'Geneva', 'Lucid', 'Arial', 'Helvetica', 'Avant Garde', sans-serif; text-anchor: end" x="38.592188" y="190.853344" transform="rotate(-0 38.592188 190.853344)">0.4</text>
     </g>
    </g>
    <g id="ytick_4">
     <g id="line2d_19">
      <g>
       <use xlink:href="#m4c98523e8e" x="43.592188" y="136.366125" style="stroke: #000000; stroke-width: 2"/>
      </g>
     </g>
     <g id="line2d_20">
      <g>
       <use xlink:href="#mc78923d8ac" x="400.712188" y="136.366125" style="stroke: #000000; stroke-width: 2"/>
      </g>
     </g>
     <g id="text_11">
      <text style="font: 700 10px 'DejaVu Sans', 'Bitstream Vera Sans', 'Computer Modern Sans Serif', 'Lucida Grande', 'Verdana', 'Geneva', 'Lucid', 'Arial', 'Helvetica', 'Avant Garde', sans-serif; text-anchor: end" x="38.592188" y="140.165344" transform="rotate(-0 38.592188 140.165344)">0.6</text>
     </g>
    </g>
    <g id="ytick_5">
     <g id="line2d_21">
      <g>
       <use xlink:href="#m4c98523e8e" x="43.592188" y="85.678125" style="stroke: #000000; stroke-width: 2"/>
      </g>
     </g>
     <g id="line2d_22">
      <g>
       <use xlink:href="#mc78923d8ac" x="400.712188" y="85.678125" style="stroke: #000000; stroke-width: 2"/>
      </g>
     </g>
     <g id="text_12">
      <text style="font: 700 10px 'DejaVu Sans', 'Bitstream Vera Sans', 'Computer Modern Sans Serif', 'Lucida Grande', 'Verdana', 'Geneva', 'Lucid', 'Arial', 'Helvetica', 'Avant Garde', sans-serif; text-anchor: end" x="38.592188" y="89.477344" transform="rotate(-0 38.592188 89.477344)">0.8</text>
     </g>
    </g>
    <g id="ytick_6">
     <g id="line2d_23">
      <g>
       <use xlink:href="#m4c98523e8e" x="43.592188" y="34.990125" style="stroke: #000000; stroke-width: 2"/>
      </g>
     </g>
     <g id="line2d_24">
      <g>
       <use xlink:href="#mc78923d8ac" x="400.712188" y="34.990125" style="stroke: #000000; stroke-width: 2"/>
      </g>
     </g>
     <g id="text_13">
      <text style="font: 700 10px 'DejaVu Sans', 'Bitstream Vera Sans', 'Computer Modern Sans Serif', 'Lucida Grande', 'Verdana', 'Geneva', 'Lucid', 'Arial', 'Helvetica', 'Avant Garde', sans-serif; text-anchor: end" x="38.592188" y="38.789344" transform="rotate(-0 38.592188 38.789344)">1.0</text>
     </g>
    </g>
    <g id="text_14">
     <text style="font: 700 10px 'DejaVu Sans', 'Bitstream Vera Sans', 'Computer Modern Sans Serif', 'Lucida Grande', 'Verdana', 'Geneva', 'Lucid', 'Arial', 'Helvetica', 'Avant Garde', sans-serif; text-anchor: middle" x="14.798438" y="155.374125" transform="rotate(-90 14.798438 155.374125)">true positive rate</text>
    </g>
   </g>
   <g id="line2d_25">
    <path d="M 60.597902 288.430125 
L 60.597902 240.514125 
L 60.863616 240.514125 
L 60.863616 220.714125 
L 61.12933 220.714125 
L 61.12933 209.626125 
L 61.395045 209.626125 
L 61.395045 202.102125 
L 61.660759 202.102125 
L 61.660759 201.310125 
L 61.926473 201.310125 
L 61.926473 196.162125 
L 62.192188 196.162125 
L 62.192188 195.370125 
L 62.723616 195.370125 
L 62.723616 187.846125 
L 62.98933 187.846125 
L 62.98933 186.658125 
L 63.255045 186.658125 
L 63.255045 176.758125 
L 63.520759 176.758125 
L 63.520759 171.610125 
L 63.786473 171.610125 
L 63.786473 170.818125 
L 64.052188 170.818125 
L 64.052188 164.482125 
L 64.317902 164.482125 
L 64.317902 157.750125 
L 65.115045 157.750125 
L 65.115045 150.226125 
L 65.380759 150.226125 
L 65.380759 149.038125 
L 65.646473 149.038125 
L 65.646473 146.266125 
L 65.912188 146.266125 
L 65.912188 145.474125 
L 66.177902 145.474125 
L 66.177902 144.682125 
L 66.443616 144.682125 
L 66.443616 143.890125 
L 66.70933 143.890125 
L 66.70933 143.494125 
L 66.975045 143.494125 
L 66.975045 142.306125 
L 67.240759 142.306125 
L 67.240759 137.950125 
L 67.506473 137.950125 
L 67.506473 137.554125 
L 67.772188 137.554125 
L 67.772188 137.158125 
L 68.303616 137.158125 
L 68.303616 135.970125 
L 68.835045 135.970125 
L 68.835045 133.594125 
L 69.100759 133.594125 
L 69.100759 131.614125 
L 69.632188 131.614125 
L 69.632188 130.822125 
L 69.897902 130.822125 
L 69.897902 130.030125 
L 70.42933 130.030125 
L 70.42933 129.634125 
L 70.695045 129.634125 
L 70.695045 127.654125 
L 71.226473 127.654125 
L 71.226473 126.862125 
L 71.492188 126.862125 
L 71.492188 126.466125 
L 71.757902 126.466125 
L 71.757902 125.278125 
L 72.023616 125.278125 
L 72.023616 124.486125 
L 73.086473 124.486125 
L 73.086473 124.090125 
L 73.352187 124.090125 
L 73.352187 123.694125 
L 73.883616 123.694125 
L 73.883616 122.110125 
L 74.14933 122.110125 
L 74.14933 121.714125 
L 74.415045 121.714125 
L 74.415045 121.318125 
L 74.946473 121.318125 
L 74.946473 120.922125 
L 75.477902 120.922125 
L 75.477902 119.338125 
L 75.743616 119.338125 
L 75.743616 118.942125 
L 76.00933 118.942125 
L 76.00933 118.150125 
L 76.540759 118.150125 
L 76.540759 115.774125 
L 76.806473 115.774125 
L 76.806473 115.378125 
L 77.072188 115.378125 
L 77.072188 114.586125 
L 77.86933 114.586125 
L 77.86933 113.398125 
L 78.135045 113.398125 
L 78.135045 111.418125 
L 78.400759 111.418125 
L 78.400759 111.022125 
L 78.666473 111.022125 
L 78.666473 110.230125 
L 79.463616 110.230125 
L 79.463616 109.438125 
L 79.72933 109.438125 
L 79.72933 107.854125 
L 80.260759 107.854125 
L 80.260759 106.666125 
L 80.526473 106.666125 
L 80.526473 106.270125 
L 80.792188 106.270125 
L 80.792188 105.478125 
L 81.057902 105.478125 
L 81.057902 104.290125 
L 81.323616 104.290125 
L 81.323616 103.894125 
L 81.58933 103.894125 
L 81.58933 103.102125 
L 82.120759 103.102125 
L 82.120759 102.310125 
L 82.652188 102.310125 
L 82.652188 101.518125 
L 83.183616 101.518125 
L 83.183616 101.122125 
L 83.44933 101.122125 
L 83.44933 100.726125 
L 83.980759 100.726125 
L 83.980759 99.934125 
L 84.246473 99.934125 
L 84.246473 99.538125 
L 85.30933 99.538125 
L 85.30933 98.746125 
L 85.575045 98.746125 
L 85.575045 98.350125 
L 85.840759 98.350125 
L 85.840759 96.766125 
L 86.637902 96.766125 
L 86.637902 96.370125 
L 86.903616 96.370125 
L 86.903616 95.974125 
L 87.16933 95.974125 
L 87.16933 95.578125 
L 87.435045 95.578125 
L 87.435045 95.182125 
L 87.966473 95.182125 
L 87.966473 94.786125 
L 88.497902 94.786125 
L 88.497902 94.390125 
L 88.763616 94.390125 
L 88.763616 93.598125 
L 89.560759 93.598125 
L 89.560759 92.410125 
L 89.826473 92.410125 
L 89.826473 90.034125 
L 90.623616 90.034125 
L 90.623616 89.638125 
L 91.952188 89.638125 
L 91.952188 89.242125 
L 92.483616 89.242125 
L 92.483616 88.450125 
L 92.74933 88.450125 
L 92.74933 88.054125 
L 93.280759 88.054125 
L 93.280759 87.658125 
L 93.546473 87.658125 
L 93.546473 86.866125 
L 94.60933 86.866125 
L 94.60933 85.678125 
L 94.875045 85.678125 
L 94.875045 85.282125 
L 96.203616 85.282125 
L 96.203616 84.490125 
L 96.46933 84.490125 
L 96.46933 83.698125 
L 96.735045 83.698125 
L 96.735045 83.302125 
L 97.797902 83.302125 
L 97.797902 82.906125 
L 99.126473 82.906125 
L 99.126473 82.114125 
L 99.923616 82.114125 
L 99.923616 81.718125 
L 100.720759 81.718125 
L 100.720759 80.926125 
L 101.252188 80.926125 
L 101.252188 80.134125 
L 102.315045 80.134125 
L 102.315045 79.738125 
L 102.580759 79.738125 
L 102.580759 79.342125 
L 103.643616 79.342125 
L 103.643616 78.154125 
L 103.90933 78.154125 
L 103.90933 76.966125 
L 104.972188 76.966125 
L 104.972188 76.570125 
L 105.76933 76.570125 
L 105.76933 75.778125 
L 106.035045 75.778125 
L 106.035045 75.382125 
L 106.300759 75.382125 
L 106.300759 74.986125 
L 107.097902 74.986125 
L 107.097902 74.194125 
L 109.755045 74.194125 
L 109.755045 73.798125 
L 111.083616 73.798125 
L 111.083616 72.610125 
L 111.34933 72.610125 
L 111.34933 72.214125 
L 113.740759 72.214125 
L 113.740759 71.818125 
L 116.397902 71.818125 
L 116.397902 71.422125 
L 116.663616 71.422125 
L 116.663616 70.630125 
L 117.726473 70.630125 
L 117.726473 70.234125 
L 117.992188 70.234125 
L 117.992188 69.838125 
L 118.257902 69.838125 
L 118.257902 69.442125 
L 119.320759 69.442125 
L 119.320759 69.046125 
L 120.64933 69.046125 
L 120.64933 68.650125 
L 121.180759 68.650125 
L 121.180759 67.858125 
L 121.446473 67.858125 
L 121.446473 67.066125 
L 121.712187 67.066125 
L 121.712187 66.670125 
L 122.775045 66.670125 
L 122.775045 66.274125 
L 125.963616 66.274125 
L 125.963616 65.482125 
L 127.026473 65.482125 
L 127.026473 65.086125 
L 127.292188 65.086125 
L 127.292188 64.690125 
L 128.620759 64.690125 
L 128.620759 64.294125 
L 129.152187 64.294125 
L 129.152187 63.898125 
L 129.417902 63.898125 
L 129.417902 63.502125 
L 129.94933 63.502125 
L 129.94933 63.106125 
L 130.215045 63.106125 
L 130.215045 62.710125 
L 130.480759 62.710125 
L 130.480759 62.314125 
L 134.466473 62.314125 
L 134.466473 61.918125 
L 135.263616 61.918125 
L 135.263616 61.522125 
L 136.326473 61.522125 
L 136.326473 61.126125 
L 136.592187 61.126125 
L 136.592187 60.730125 
L 138.452188 60.730125 
L 138.452188 60.334125 
L 141.906473 60.334125 
L 141.906473 59.146125 
L 142.96933 59.146125 
L 142.96933 58.750125 
L 143.766473 58.750125 
L 143.766473 58.354125 
L 144.82933 58.354125 
L 144.82933 57.958125 
L 145.095045 57.958125 
L 145.095045 57.562125 
L 145.360759 57.562125 
L 145.360759 57.166125 
L 146.68933 57.166125 
L 146.68933 56.770125 
L 147.486473 56.770125 
L 147.486473 55.978125 
L 148.54933 55.978125 
L 148.54933 55.582125 
L 149.080759 55.582125 
L 149.080759 55.186125 
L 151.737902 55.186125 
L 151.737902 54.790125 
L 158.380759 54.790125 
L 158.380759 54.394125 
L 159.443616 54.394125 
L 159.443616 53.998125 
L 162.366473 53.998125 
L 162.366473 53.602125 
L 163.42933 53.602125 
L 163.42933 52.810125 
L 164.492188 52.810125 
L 164.492188 52.018125 
L 165.555045 52.018125 
L 165.555045 51.622125 
L 165.820759 51.622125 
L 165.820759 50.830125 
L 166.617902 50.830125 
L 166.617902 50.434125 
L 166.883616 50.434125 
L 166.883616 50.038125 
L 177.246473 50.038125 
L 177.246473 49.246125 
L 178.043616 49.246125 
L 178.043616 48.850125 
L 179.903616 48.850125 
L 179.903616 48.454125 
L 182.295045 48.454125 
L 182.295045 48.058125 
L 183.88933 48.058125 
L 183.88933 47.662125 
L 184.686473 47.662125 
L 184.686473 46.870125 
L 192.392188 46.870125 
L 192.392188 46.474125 
L 192.657902 46.474125 
L 192.657902 46.078125 
L 195.315045 46.078125 
L 195.315045 45.682125 
L 198.237902 45.682125 
L 198.237902 45.286125 
L 201.692188 45.286125 
L 201.692188 44.890125 
L 202.48933 44.890125 
L 202.48933 44.494125 
L 205.146473 44.494125 
L 205.146473 44.098125 
L 207.006473 44.098125 
L 207.006473 43.702125 
L 210.726473 43.702125 
L 210.726473 43.306125 
L 214.977902 43.306125 
L 214.977902 42.910125 
L 216.837902 42.910125 
L 216.837902 42.514125 
L 222.94933 42.514125 
L 222.94933 42.118125 
L 228.52933 42.118125 
L 228.52933 41.722125 
L 229.326473 41.722125 
L 229.326473 40.930125 
L 229.592188 40.930125 
L 229.592188 40.534125 
L 229.857902 40.534125 
L 229.857902 40.138125 
L 236.766473 40.138125 
L 236.766473 39.742125 
L 238.626473 39.742125 
L 238.626473 39.346125 
L 241.815045 39.346125 
L 241.815045 38.950125 
L 242.346473 38.950125 
L 242.346473 38.554125 
L 253.772188 38.554125 
L 253.772188 38.158125 
L 256.960759 38.158125 
L 256.960759 37.762125 
L 258.820759 37.762125 
L 258.820759 37.366125 
L 282.203616 37.366125 
L 282.203616 36.970125 
L 289.643616 36.970125 
L 289.643616 36.574125 
L 306.383616 36.574125 
L 306.383616 36.178125 
L 316.215045 36.178125 
L 316.215045 35.782125 
L 317.012187 35.782125 
L 317.012187 35.386125 
L 318.606473 35.386125 
L 318.606473 34.990125 
L 400.712187 34.990125 
L 400.712187 34.990125 
" clip-path="url(#p3a089210ec)" style="fill: none; stroke: #ff0000; stroke-width: 2; stroke-linecap: square"/>
   </g>
   <g id="line2d_26">
    <path d="M 60.597902 288.430125 
L 60.597902 262.690125 
L 60.863616 262.690125 
L 60.863616 260.710125 
L 61.12933 260.710125 
L 61.12933 253.582125 
L 61.395045 253.582125 
L 61.395045 252.394125 
L 61.660759 252.394125 
L 61.660759 246.058125 
L 61.926473 245.662125 
L 61.926473 237.346125 
L 62.192188 237.346125 
L 62.192188 231.802125 
L 62.457902 231.802125 
L 62.457902 227.446125 
L 62.723616 227.446125 
L 62.723616 227.050125 
L 62.98933 227.050125 
L 62.98933 222.298125 
L 63.520759 222.298125 
L 63.520759 220.318125 
L 63.786473 220.318125 
L 63.786473 217.150125 
L 64.052188 217.150125 
L 64.052188 216.754125 
L 64.317902 216.754125 
L 64.317902 215.170125 
L 64.583616 215.170125 
L 64.583616 206.854125 
L 65.115045 206.854125 
L 65.115045 200.518125 
L 65.380759 200.518125 
L 65.380759 200.122125 
L 66.177902 200.122125 
L 66.177902 199.726125 
L 66.443616 199.726125 
L 66.443616 198.538125 
L 66.70933 198.538125 
L 66.70933 196.558125 
L 67.240759 196.558125 
L 67.240759 194.182125 
L 67.772188 194.182125 
L 67.772188 192.994125 
L 68.037902 192.994125 
L 68.037902 192.598125 
L 68.303616 192.598125 
L 68.303616 191.014125 
L 68.56933 191.014125 
L 68.56933 188.638125 
L 68.835045 188.638125 
L 68.835045 188.242125 
L 69.100759 188.242125 
L 69.100759 187.450125 
L 69.366473 187.450125 
L 69.366473 181.906125 
L 70.163616 181.906125 
L 70.163616 179.926125 
L 70.42933 179.926125 
L 70.42933 177.154125 
L 70.695045 177.154125 
L 70.695045 176.758125 
L 71.492188 176.758125 
L 71.492188 175.570125 
L 72.28933 175.570125 
L 72.28933 174.778125 
L 72.555045 174.778125 
L 72.555045 174.382125 
L 73.086473 174.382125 
L 73.086473 172.798125 
L 73.352187 172.798125 
L 73.352187 171.610125 
L 73.617902 171.610125 
L 73.617902 170.026125 
L 74.14933 170.026125 
L 74.14933 169.630125 
L 74.415045 169.630125 
L 74.415045 168.838125 
L 74.680759 168.838125 
L 74.680759 168.442125 
L 75.212187 168.442125 
L 75.212187 167.254125 
L 75.477902 167.254125 
L 75.477902 165.670125 
L 76.275045 165.670125 
L 76.275045 165.274125 
L 77.072188 165.274125 
L 77.072188 164.482125 
L 77.337902 164.482125 
L 77.337902 163.690125 
L 78.666473 163.690125 
L 78.666473 162.106125 
L 78.932187 162.106125 
L 78.932187 160.522125 
L 79.72933 160.522125 
L 79.72933 158.146125 
L 79.995045 158.146125 
L 79.995045 157.750125 
L 80.792188 157.750125 
L 80.792188 157.354125 
L 81.323616 157.354125 
L 81.323616 156.958125 
L 81.58933 156.958125 
L 81.58933 154.186125 
L 82.120759 154.186125 
L 82.120759 153.790125 
L 82.386473 153.790125 
L 82.386473 153.394125 
L 82.917902 153.394125 
L 82.917902 152.602125 
L 83.183616 152.602125 
L 83.183616 152.206125 
L 83.44933 152.206125 
L 83.44933 151.414125 
L 84.777902 151.414125 
L 84.777902 150.226125 
L 86.106473 150.226125 
L 86.106473 147.850125 
L 86.903616 147.850125 
L 86.903616 147.058125 
L 87.16933 147.058125 
L 87.16933 145.870125 
L 87.435045 145.870125 
L 87.435045 144.682125 
L 87.700759 144.682125 
L 87.700759 144.286125 
L 87.966473 144.286125 
L 87.966473 143.494125 
L 88.232188 143.494125 
L 88.232188 143.098125 
L 88.763616 143.098125 
L 88.763616 142.702125 
L 89.295045 142.702125 
L 89.295045 141.514125 
L 89.560759 141.514125 
L 89.560759 141.118125 
L 89.826473 141.118125 
L 89.826473 139.534125 
L 90.092188 139.534125 
L 90.092188 137.950125 
L 90.623616 137.950125 
L 90.623616 137.158125 
L 90.88933 137.158125 
L 90.88933 136.762125 
L 91.155045 136.762125 
L 91.155045 136.366125 
L 91.420759 136.366125 
L 91.420759 135.970125 
L 92.217902 135.970125 
L 92.217902 135.178125 
L 92.483616 135.178125 
L 92.483616 134.782125 
L 92.74933 134.782125 
L 92.74933 134.386125 
L 93.280759 134.386125 
L 93.280759 133.990125 
L 93.546473 133.990125 
L 93.546473 133.198125 
L 93.812188 133.198125 
L 93.812188 132.406125 
L 94.077902 132.406125 
L 94.077902 132.010125 
L 94.343616 132.010125 
L 94.343616 131.218125 
L 94.60933 131.218125 
L 94.60933 130.822125 
L 94.875045 130.822125 
L 94.875045 130.426125 
L 95.140759 130.426125 
L 95.140759 129.634125 
L 95.937902 129.634125 
L 95.937902 129.238125 
L 96.203616 129.238125 
L 96.203616 128.842125 
L 97.266473 128.842125 
L 97.266473 128.050125 
L 97.532188 128.050125 
L 97.532188 126.862125 
L 97.797902 126.862125 
L 97.797902 126.070125 
L 98.595045 126.070125 
L 98.595045 125.674125 
L 99.392188 125.674125 
L 99.392188 125.278125 
L 100.18933 125.278125 
L 100.18933 123.694125 
L 100.455045 123.694125 
L 100.455045 122.902125 
L 100.720759 122.902125 
L 100.720759 122.506125 
L 101.252188 122.506125 
L 101.252188 121.714125 
L 102.315045 121.714125 
L 102.315045 120.922125 
L 102.846473 120.922125 
L 102.846473 120.130125 
L 103.643616 120.130125 
L 103.643616 119.338125 
L 104.440759 119.338125 
L 104.440759 118.546125 
L 104.972188 118.546125 
L 104.972188 118.150125 
L 106.035045 118.150125 
L 106.035045 117.754125 
L 106.566473 117.754125 
L 106.566473 115.378125 
L 107.097902 115.378125 
L 107.097902 114.586125 
L 107.363616 114.586125 
L 107.363616 114.190125 
L 107.62933 114.190125 
L 107.62933 112.210125 
L 107.895045 112.210125 
L 107.895045 110.626125 
L 108.160759 110.626125 
L 108.160759 110.230125 
L 108.426473 110.230125 
L 108.426473 107.854125 
L 109.223616 107.854125 
L 109.223616 107.458125 
L 109.48933 107.458125 
L 109.48933 106.270125 
L 109.755045 106.270125 
L 109.755045 105.478125 
L 110.020759 105.478125 
L 110.020759 105.082125 
L 110.286473 105.082125 
L 110.286473 104.686125 
L 111.083616 104.686125 
L 111.083616 104.290125 
L 111.34933 104.290125 
L 111.34933 103.102125 
L 112.146473 103.102125 
L 112.146473 102.310125 
L 112.412188 102.310125 
L 112.412188 101.122125 
L 112.677902 101.122125 
L 112.677902 100.330125 
L 113.20933 100.330125 
L 113.20933 99.934125 
L 113.475045 99.934125 
L 113.475045 99.538125 
L 115.335045 99.538125 
L 115.335045 99.142125 
L 115.866473 99.142125 
L 115.866473 98.746125 
L 116.132188 98.746125 
L 116.132188 97.954125 
L 116.663616 97.954125 
L 116.663616 97.162125 
L 117.992188 97.162125 
L 117.992188 96.370125 
L 119.055045 96.370125 
L 119.055045 95.974125 
L 119.586473 95.974125 
L 119.586473 95.578125 
L 121.446473 95.578125 
L 121.446473 94.786125 
L 122.50933 94.786125 
L 122.50933 94.390125 
L 123.572187 94.390125 
L 123.572187 93.994125 
L 123.837902 93.994125 
L 123.837902 93.598125 
L 124.900759 93.598125 
L 124.900759 93.202125 
L 125.166473 93.202125 
L 125.166473 92.806125 
L 125.432187 92.806125 
L 125.432187 92.014125 
L 125.697902 92.014125 
L 125.697902 91.222125 
L 125.963616 91.222125 
L 125.963616 90.826125 
L 126.495045 90.826125 
L 126.495045 90.430125 
L 128.08933 90.430125 
L 128.08933 89.638125 
L 128.355045 89.638125 
L 128.355045 89.242125 
L 128.620759 89.242125 
L 128.620759 88.450125 
L 128.886473 88.450125 
L 128.886473 88.054125 
L 129.152187 88.054125 
L 129.152187 87.658125 
L 129.417902 87.658125 
L 129.417902 87.262125 
L 130.480759 87.262125 
L 130.480759 86.470125 
L 132.872187 86.470125 
L 132.872187 86.074125 
L 133.66933 86.074125 
L 133.66933 84.886125 
L 134.466473 84.886125 
L 134.466473 84.490125 
L 135.263616 84.490125 
L 135.263616 84.094125 
L 135.52933 84.094125 
L 135.52933 83.698125 
L 136.326473 83.698125 
L 136.326473 83.302125 
L 136.592187 83.302125 
L 136.592187 82.906125 
L 136.857902 82.906125 
L 136.857902 82.114125 
L 140.577902 82.114125 
L 140.577902 81.322125 
L 140.843616 81.322125 
L 140.843616 80.530125 
L 142.437902 80.530125 
L 142.437902 80.134125 
L 142.703616 80.134125 
L 142.703616 79.738125 
L 143.500759 79.738125 
L 143.500759 78.946125 
L 144.563616 78.946125 
L 144.563616 78.550125 
L 145.360759 78.550125 
L 145.360759 78.154125 
L 145.626473 78.154125 
L 145.626473 77.758125 
L 146.423616 77.758125 
L 146.423616 77.362125 
L 147.486473 77.362125 
L 147.486473 76.966125 
L 148.017902 76.966125 
L 148.017902 76.174125 
L 148.283616 76.174125 
L 148.283616 75.778125 
L 148.54933 75.778125 
L 148.54933 75.382125 
L 148.815045 75.382125 
L 148.815045 74.590125 
L 149.080759 74.590125 
L 149.080759 73.798125 
L 149.877902 73.798125 
L 149.877902 70.630125 
L 150.143616 70.630125 
L 150.143616 70.234125 
L 150.40933 70.234125 
L 150.40933 69.838125 
L 150.675045 69.838125 
L 150.675045 69.442125 
L 150.940759 69.442125 
L 150.940759 69.046125 
L 152.800759 69.046125 
L 152.800759 68.650125 
L 153.332188 68.650125 
L 153.332188 68.254125 
L 153.597902 68.254125 
L 153.597902 67.858125 
L 154.660759 67.858125 
L 154.660759 67.462125 
L 155.457902 67.462125 
L 155.457902 67.066125 
L 157.583616 67.066125 
L 157.583616 66.670125 
L 158.115045 66.670125 
L 158.115045 66.274125 
L 161.56933 66.274125 
L 161.56933 65.878125 
L 161.835045 65.878125 
L 161.835045 65.482125 
L 162.632187 65.482125 
L 162.632187 65.086125 
L 166.086473 65.086125 
L 166.086473 64.690125 
L 166.883616 64.690125 
L 166.883616 63.502125 
L 169.540759 63.502125 
L 169.540759 63.106125 
L 172.197902 63.106125 
L 172.197902 62.710125 
L 172.995045 62.710125 
L 172.995045 62.314125 
L 174.057902 62.314125 
L 174.057902 61.918125 
L 177.246473 61.918125 
L 177.246473 61.522125 
L 177.512188 61.522125 
L 177.512188 61.126125 
L 180.435045 61.126125 
L 180.435045 60.334125 
L 182.02933 60.334125 
L 182.02933 59.938125 
L 183.623616 59.938125 
L 183.623616 59.542125 
L 183.88933 59.542125 
L 183.88933 59.146125 
L 184.952187 59.146125 
L 184.952187 58.750125 
L 185.483616 58.750125 
L 185.483616 58.354125 
L 186.546473 58.354125 
L 186.546473 57.562125 
L 186.812187 57.562125 
L 186.812187 57.166125 
L 187.875045 57.166125 
L 187.875045 56.770125 
L 189.203616 56.770125 
L 189.203616 55.978125 
L 192.126473 55.978125 
L 192.126473 55.582125 
L 194.783616 55.582125 
L 194.783616 55.186125 
L 195.315045 55.186125 
L 195.315045 54.790125 
L 196.377902 54.790125 
L 196.377902 54.394125 
L 202.755045 54.394125 
L 202.755045 53.998125 
L 203.020759 53.998125 
L 203.020759 53.602125 
L 204.083616 53.602125 
L 204.083616 52.414125 
L 207.272188 52.414125 
L 207.272188 52.018125 
L 212.852187 52.018125 
L 212.852187 51.622125 
L 213.117902 51.622125 
L 213.117902 51.226125 
L 215.50933 51.226125 
L 215.50933 50.830125 
L 216.837902 50.830125 
L 216.837902 50.038125 
L 217.635045 50.038125 
L 217.635045 49.642125 
L 218.697902 49.642125 
L 218.697902 49.246125 
L 221.08933 49.246125 
L 221.08933 48.454125 
L 224.543616 48.454125 
L 224.543616 47.662125 
L 225.075045 47.662125 
L 225.075045 47.266125 
L 227.200759 47.266125 
L 227.200759 46.870125 
L 227.732188 46.870125 
L 227.732188 46.474125 
L 229.857902 46.474125 
L 229.857902 46.078125 
L 232.24933 46.078125 
L 232.24933 45.682125 
L 232.780759 45.682125 
L 232.780759 45.286125 
L 234.10933 45.286125 
L 234.10933 44.890125 
L 234.640759 44.890125 
L 234.640759 44.494125 
L 250.052188 44.494125 
L 250.052188 44.098125 
L 253.772188 44.098125 
L 253.772188 43.702125 
L 256.163616 43.702125 
L 256.163616 43.306125 
L 256.960759 43.306125 
L 256.960759 42.910125 
L 264.932187 42.910125 
L 264.932187 42.514125 
L 267.58933 42.514125 
L 267.58933 42.118125 
L 271.30933 42.118125 
L 271.30933 41.722125 
L 271.840759 41.722125 
L 271.840759 40.930125 
L 272.106473 40.930125 
L 272.106473 40.534125 
L 276.092187 40.534125 
L 276.092187 40.138125 
L 276.88933 40.138125 
L 276.88933 39.742125 
L 277.686473 39.742125 
L 277.686473 39.346125 
L 279.812187 39.346125 
L 279.812187 38.950125 
L 283.000759 38.950125 
L 283.000759 38.554125 
L 286.986473 38.554125 
L 286.986473 38.158125 
L 289.377902 38.158125 
L 289.377902 37.762125 
L 300.803616 37.762125 
L 300.803616 37.366125 
L 308.243616 37.366125 
L 308.243616 36.970125 
L 309.572187 36.970125 
L 309.572187 36.574125 
L 339.863616 36.574125 
L 339.863616 36.178125 
L 346.240759 36.178125 
L 346.240759 35.782125 
L 346.772187 35.782125 
L 346.772187 35.386125 
L 370.155045 35.386125 
L 370.155045 34.990125 
L 400.712187 34.990125 
L 400.712187 34.990125 
" clip-path="url(#p3a089210ec)" style="fill: none; stroke: #0000ff; stroke-width: 2; stroke-linecap: square"/>
   </g>
   <g id="line2d_27">
    <path d="M 60.597902 288.430125 
L 60.597902 274.966125 
L 60.863616 274.570125 
L 60.863616 265.858125 
L 61.12933 265.858125 
L 61.12933 262.294125 
L 61.395045 262.294125 
L 61.395045 247.246125 
L 61.660759 247.246125 
L 61.660759 243.682125 
L 61.926473 243.682125 
L 61.926473 231.010125 
L 62.192188 231.010125 
L 62.192188 219.922125 
L 62.723616 219.922125 
L 62.723616 215.962125 
L 62.98933 215.962125 
L 62.98933 213.190125 
L 63.520759 213.190125 
L 63.520759 212.002125 
L 63.786473 212.002125 
L 63.786473 211.210125 
L 64.052188 211.210125 
L 64.052188 206.854125 
L 64.317902 206.854125 
L 64.317902 205.270125 
L 64.583616 205.270125 
L 64.583616 192.202125 
L 64.84933 192.202125 
L 64.84933 190.222125 
L 65.115045 190.222125 
L 65.115045 189.430125 
L 65.380759 189.430125 
L 65.380759 185.470125 
L 65.646473 185.470125 
L 65.646473 185.074125 
L 66.177902 185.074125 
L 66.177902 179.926125 
L 66.443616 179.926125 
L 66.443616 178.342125 
L 66.70933 178.342125 
L 66.70933 177.550125 
L 66.975045 177.550125 
L 66.975045 176.758125 
L 67.240759 176.758125 
L 67.240759 174.382125 
L 67.506473 174.382125 
L 67.506473 173.986125 
L 67.772188 173.986125 
L 67.772188 172.006125 
L 68.037902 172.006125 
L 68.037902 170.422125 
L 68.303616 170.422125 
L 68.303616 167.650125 
L 68.56933 167.650125 
L 68.56933 167.254125 
L 69.100759 167.254125 
L 69.100759 161.710125 
L 69.366473 161.710125 
L 69.366473 160.522125 
L 69.897902 160.522125 
L 69.897902 156.166125 
L 70.163616 156.166125 
L 70.163616 154.978125 
L 70.42933 154.978125 
L 70.42933 152.206125 
L 70.960759 152.206125 
L 70.960759 151.810125 
L 71.226473 151.810125 
L 71.226473 151.414125 
L 71.492188 151.414125 
L 71.492188 149.038125 
L 71.757902 149.038125 
L 71.757902 148.642125 
L 72.28933 148.642125 
L 72.28933 148.246125 
L 72.555045 148.246125 
L 72.555045 146.266125 
L 73.086473 146.266125 
L 73.086473 145.870125 
L 73.352187 145.870125 
L 73.352187 144.682125 
L 73.617902 144.682125 
L 73.617902 143.098125 
L 73.883616 143.098125 
L 73.883616 142.306125 
L 74.415045 142.306125 
L 74.415045 139.930125 
L 74.680759 139.930125 
L 74.680759 135.574125 
L 74.946473 135.574125 
L 74.946473 135.178125 
L 75.212187 135.178125 
L 75.212187 133.990125 
L 75.477902 133.990125 
L 75.477902 131.218125 
L 76.275045 131.218125 
L 76.275045 129.238125 
L 76.540759 129.238125 
L 76.540759 128.446125 
L 76.806473 128.446125 
L 76.806473 128.050125 
L 77.072188 128.050125 
L 77.072188 127.654125 
L 77.337902 127.654125 
L 77.337902 127.258125 
L 77.603616 127.258125 
L 77.603616 126.466125 
L 77.86933 126.466125 
L 77.86933 126.070125 
L 78.135045 126.070125 
L 78.135045 121.714125 
L 78.666473 121.714125 
L 78.666473 120.922125 
L 78.932187 120.922125 
L 78.932187 120.130125 
L 79.197902 120.130125 
L 79.197902 119.734125 
L 79.463616 119.734125 
L 79.463616 119.338125 
L 79.72933 119.338125 
L 79.72933 118.546125 
L 79.995045 118.546125 
L 79.995045 118.150125 
L 80.792188 118.150125 
L 80.792188 117.358125 
L 81.057902 117.358125 
L 81.057902 116.962125 
L 81.58933 116.962125 
L 81.58933 115.774125 
L 82.386473 115.774125 
L 82.386473 114.982125 
L 82.917902 114.982125 
L 82.917902 113.794125 
L 84.512188 113.794125 
L 84.512188 113.398125 
L 85.043616 113.398125 
L 85.043616 111.814125 
L 85.30933 111.814125 
L 85.30933 111.022125 
L 85.575045 111.022125 
L 85.575045 110.230125 
L 86.372187 110.230125 
L 86.372187 108.646125 
L 86.637902 108.646125 
L 86.637902 108.250125 
L 87.16933 108.250125 
L 87.16933 107.854125 
L 88.232188 107.854125 
L 88.232188 106.666125 
L 88.497902 106.666125 
L 88.497902 106.270125 
L 89.295045 106.270125 
L 89.295045 105.478125 
L 89.826473 105.478125 
L 89.826473 104.290125 
L 90.357902 104.290125 
L 90.357902 103.102125 
L 90.88933 103.102125 
L 90.88933 101.914125 
L 91.686473 101.914125 
L 91.686473 101.518125 
L 92.217902 101.518125 
L 92.217902 100.726125 
L 92.74933 100.726125 
L 92.74933 99.538125 
L 95.937902 99.538125 
L 95.937902 99.142125 
L 96.46933 99.142125 
L 96.46933 98.350125 
L 96.735045 98.350125 
L 96.735045 97.954125 
L 97.000759 97.954125 
L 97.000759 97.558125 
L 98.063616 97.558125 
L 98.063616 96.766125 
L 98.595045 96.766125 
L 98.595045 95.578125 
L 98.860759 95.578125 
L 98.860759 95.182125 
L 99.126473 95.182125 
L 99.126473 94.786125 
L 99.392188 94.786125 
L 99.392188 93.598125 
L 100.18933 93.598125 
L 100.18933 92.806125 
L 100.455045 92.806125 
L 100.455045 92.410125 
L 101.517902 92.410125 
L 101.517902 91.222125 
L 101.783616 91.222125 
L 101.783616 90.430125 
L 102.315045 90.430125 
L 102.315045 89.638125 
L 102.846473 89.638125 
L 102.846473 89.242125 
L 103.377902 89.242125 
L 103.377902 88.846125 
L 105.503616 88.846125 
L 105.503616 87.658125 
L 106.832188 87.658125 
L 106.832188 87.262125 
L 108.160759 87.262125 
L 108.160759 86.866125 
L 110.020759 86.866125 
L 110.020759 86.470125 
L 110.817902 86.470125 
L 110.817902 85.678125 
L 111.083616 85.678125 
L 111.083616 84.490125 
L 111.615045 84.490125 
L 111.615045 84.094125 
L 112.412188 84.094125 
L 112.412188 83.698125 
L 114.272188 83.698125 
L 114.272188 82.906125 
L 114.537902 82.906125 
L 114.537902 82.510125 
L 115.335045 82.510125 
L 115.335045 82.114125 
L 116.132188 82.114125 
L 116.132188 81.718125 
L 116.397902 81.718125 
L 116.397902 81.322125 
L 116.663616 81.322125 
L 116.663616 80.926125 
L 116.92933 80.926125 
L 116.92933 80.530125 
L 117.195045 80.530125 
L 117.195045 80.134125 
L 117.992188 80.134125 
L 117.992188 79.738125 
L 118.523616 79.738125 
L 118.523616 79.342125 
L 119.055045 79.342125 
L 119.055045 78.946125 
L 119.852188 78.946125 
L 119.852188 78.550125 
L 120.64933 78.550125 
L 120.64933 78.154125 
L 121.712187 78.154125 
L 121.712187 77.362125 
L 122.243616 77.362125 
L 122.243616 76.174125 
L 123.306473 76.174125 
L 123.306473 75.778125 
L 123.572187 75.778125 
L 123.572187 75.382125 
L 123.837902 75.382125 
L 123.837902 74.986125 
L 125.166473 74.986125 
L 125.166473 74.590125 
L 125.432187 74.590125 
L 125.432187 74.194125 
L 125.697902 74.194125 
L 125.697902 73.798125 
L 126.22933 73.798125 
L 126.22933 73.402125 
L 126.495045 73.402125 
L 126.495045 73.006125 
L 126.760759 73.006125 
L 126.760759 71.818125 
L 127.557902 71.818125 
L 127.557902 71.422125 
L 127.823616 71.422125 
L 127.823616 71.026125 
L 128.355045 71.026125 
L 128.355045 69.838125 
L 129.417902 69.838125 
L 129.417902 69.046125 
L 132.340759 69.046125 
L 132.340759 68.650125 
L 133.403616 68.650125 
L 133.403616 68.254125 
L 133.66933 68.254125 
L 133.66933 67.858125 
L 135.52933 67.858125 
L 135.52933 67.462125 
L 136.592187 67.462125 
L 136.592187 67.066125 
L 137.655045 67.066125 
L 137.655045 66.670125 
L 138.186473 66.670125 
L 138.186473 66.274125 
L 140.312187 66.274125 
L 140.312187 65.878125 
L 140.843616 65.878125 
L 140.843616 65.482125 
L 141.906473 65.482125 
L 141.906473 65.086125 
L 142.172188 65.086125 
L 142.172188 64.690125 
L 143.235045 64.690125 
L 143.235045 63.898125 
L 143.500759 63.898125 
L 143.500759 63.502125 
L 143.766473 63.502125 
L 143.766473 63.106125 
L 144.297902 63.106125 
L 144.297902 62.710125 
L 145.095045 62.710125 
L 145.095045 61.126125 
L 145.892188 61.126125 
L 145.892188 60.730125 
L 147.486473 60.730125 
L 147.486473 60.334125 
L 150.675045 60.334125 
L 150.675045 59.938125 
L 153.066473 59.938125 
L 153.066473 59.542125 
L 154.660759 59.542125 
L 154.660759 59.146125 
L 154.926473 59.146125 
L 154.926473 58.354125 
L 155.98933 58.354125 
L 155.98933 57.958125 
L 157.052188 57.958125 
L 157.052188 57.562125 
L 157.84933 57.562125 
L 157.84933 57.166125 
L 159.177902 57.166125 
L 159.177902 56.770125 
L 159.443616 56.770125 
L 159.443616 56.374125 
L 161.56933 56.374125 
L 161.56933 55.978125 
L 162.897902 55.978125 
L 162.897902 55.582125 
L 163.960759 55.582125 
L 163.960759 55.186125 
L 165.28933 55.186125 
L 165.28933 54.394125 
L 166.086473 54.394125 
L 166.086473 53.998125 
L 167.415045 53.998125 
L 167.415045 53.602125 
L 168.212187 53.602125 
L 168.212187 53.206125 
L 169.00933 53.206125 
L 169.00933 52.810125 
L 169.275045 52.810125 
L 169.275045 52.414125 
L 172.197902 52.414125 
L 172.197902 52.018125 
L 174.855045 52.018125 
L 174.855045 51.622125 
L 177.512188 51.622125 
L 177.512188 51.226125 
L 178.575045 51.226125 
L 178.575045 50.830125 
L 186.280759 50.830125 
L 186.280759 50.434125 
L 187.875045 50.434125 
L 187.875045 50.038125 
L 188.406473 50.038125 
L 188.406473 49.642125 
L 188.937902 49.642125 
L 188.937902 49.246125 
L 191.32933 49.246125 
L 191.32933 48.850125 
L 193.720759 48.850125 
L 193.720759 48.454125 
L 196.643616 48.454125 
L 196.643616 48.058125 
L 197.175045 48.058125 
L 197.175045 47.662125 
L 200.62933 47.662125 
L 200.62933 47.266125 
L 203.286473 47.266125 
L 203.286473 46.870125 
L 207.272188 46.870125 
L 207.272188 46.474125 
L 207.803616 46.474125 
L 207.803616 46.078125 
L 208.06933 46.078125 
L 208.06933 45.682125 
L 208.866473 45.682125 
L 208.866473 44.890125 
L 210.195045 44.890125 
L 210.195045 44.494125 
L 211.257902 44.494125 
L 211.257902 44.098125 
L 211.78933 44.098125 
L 211.78933 43.702125 
L 215.50933 43.702125 
L 215.50933 43.306125 
L 216.306473 43.306125 
L 216.306473 42.910125 
L 219.22933 42.910125 
L 219.22933 42.514125 
L 220.026473 42.514125 
L 220.026473 42.118125 
L 222.417902 42.118125 
L 222.417902 41.722125 
L 222.94933 41.722125 
L 222.94933 41.326125 
L 223.480759 41.326125 
L 223.480759 40.930125 
L 225.075045 40.930125 
L 225.075045 40.534125 
L 230.920759 40.534125 
L 230.920759 39.346125 
L 234.640759 39.346125 
L 234.640759 38.554125 
L 261.477902 38.554125 
L 261.477902 38.158125 
L 278.483616 38.158125 
L 278.483616 37.762125 
L 278.74933 37.762125 
L 278.74933 37.366125 
L 282.203616 37.366125 
L 282.203616 36.970125 
L 288.04933 36.970125 
L 288.04933 36.574125 
L 289.112188 36.574125 
L 289.112188 35.782125 
L 320.997902 35.782125 
L 320.997902 35.386125 
L 321.52933 35.386125 
L 321.52933 34.990125 
L 400.712187 34.990125 
L 400.712187 34.990125 
" clip-path="url(#p3a089210ec)" style="fill: none; stroke: #008000; stroke-width: 2; stroke-linecap: square"/>
   </g>
   <g id="line2d_28">
    <path d="M 60.597902 288.430125 
L 400.712187 34.990125 
" clip-path="url(#p3a089210ec)" style="fill: none; stroke-dasharray: 7.4,3.2; stroke-dashoffset: 0; stroke: #000000; stroke-width: 2"/>
   </g>
   <g id="patch_3">
    <path d="M 43.592188 288.430125 
L 43.592188 22.318125 
" style="fill: none; stroke: #000000; stroke-width: 2; stroke-linejoin: miter; stroke-linecap: square"/>
   </g>
   <g id="patch_4">
    <path d="M 400.712188 288.430125 
L 400.712188 22.318125 
" style="fill: none; stroke: #000000; stroke-width: 2; stroke-linejoin: miter; stroke-linecap: square"/>
   </g>
   <g id="patch_5">
    <path d="M 43.592188 288.430125 
L 400.712187 288.430125 
" style="fill: none; stroke: #000000; stroke-width: 2; stroke-linejoin: miter; stroke-linecap: square"/>
   </g>
   <g id="patch_6">
    <path d="M 43.592188 22.318125 
L 400.712187 22.318125 
" style="fill: none; stroke: #000000; stroke-width: 2; stroke-linejoin: miter; stroke-linecap: square"/>
   </g>
   <g id="text_15">
    <text style="font: 700 12px 'DejaVu Sans', 'Bitstream Vera Sans', 'Computer Modern Sans Serif', 'Lucida Grande', 'Verdana', 'Geneva', 'Lucid', 'Arial', 'Helvetica', 'Avant Garde', sans-serif; text-anchor: middle" x="222.152188" y="16.318125" transform="rotate(-0 222.152188 16.318125)">Multi-class classification ROC for charge features</text>
   </g>
   <g id="legend_1">
    <g id="patch_7">
     <path d="M 134.954375 283.430125 
L 393.712188 283.430125 
Q 395.712188 283.430125 395.712188 281.430125 
L 395.712188 238.39575 
Q 395.712188 236.39575 393.712188 236.39575 
L 134.954375 236.39575 
Q 132.954375 236.39575 132.954375 238.39575 
L 132.954375 281.430125 
Q 132.954375 283.430125 134.954375 283.430125 
z
" style="fill: #ffffff; opacity: 0.8; stroke: #cccccc; stroke-linejoin: miter"/>
    </g>
    <g id="line2d_29">
     <path d="M 136.954375 244.494187 
L 146.954375 244.494187 
L 156.954375 244.494187 
" style="fill: none; stroke: #ff0000; stroke-width: 2; stroke-linecap: square"/>
    </g>
    <g id="text_16">
     <text style="font: 700 10px 'DejaVu Sans', 'Bitstream Vera Sans', 'Computer Modern Sans Serif', 'Lucida Grande', 'Verdana', 'Geneva', 'Lucid', 'Arial', 'Helvetica', 'Avant Garde', sans-serif; text-anchor: start" x="164.954375" y="247.994187" transform="rotate(-0 164.954375 247.994187)">ROC curve (area = 0.93) for class mc6</text>
    </g>
    <g id="line2d_30">
     <path d="M 136.954375 259.172312 
L 146.954375 259.172312 
L 156.954375 259.172312 
" style="fill: none; stroke: #0000ff; stroke-width: 2; stroke-linecap: square"/>
    </g>
    <g id="text_17">
     <text style="font: 700 10px 'DejaVu Sans', 'Bitstream Vera Sans', 'Computer Modern Sans Serif', 'Lucida Grande', 'Verdana', 'Geneva', 'Lucid', 'Arial', 'Helvetica', 'Avant Garde', sans-serif; text-anchor: start" x="164.954375" y="262.672312" transform="rotate(-0 164.954375 262.672312)">ROC curve (area = 0.88) for class mc6s</text>
    </g>
    <g id="line2d_31">
     <path d="M 136.954375 273.850437 
L 146.954375 273.850437 
L 156.954375 273.850437 
" style="fill: none; stroke: #008000; stroke-width: 2; stroke-linecap: square"/>
    </g>
    <g id="text_18">
     <text style="font: 700 10px 'DejaVu Sans', 'Bitstream Vera Sans', 'Computer Modern Sans Serif', 'Lucida Grande', 'Verdana', 'Geneva', 'Lucid', 'Arial', 'Helvetica', 'Avant Garde', sans-serif; text-anchor: start" x="164.954375" y="277.350437" transform="rotate(-0 164.954375 277.350437)">ROC curve (area = 0.91) for class mc6sa</text>
    </g>
   </g>
  </g>
 </g>
 <defs>
  <clipPath id="p3a089210ec">
   <rect x="43.592188" y="22.318125" width="357.12" height="266.112"/>
  </clipPath>
 </defs>
</svg>
