<?xml version="1.0" encoding="utf-8" standalone="no"?>
<!DOCTYPE svg PUBLIC "-//W3C//DTD SVG 1.1//EN"
  "http://www.w3.org/Graphics/SVG/1.1/DTD/svg11.dtd">
<svg xmlns:xlink="http://www.w3.org/1999/xlink" width="856.472187pt" height="280.474375pt" viewBox="0 0 856.472187 280.474375" xmlns="http://www.w3.org/2000/svg" version="1.1">
 <metadata>
  <rdf:RDF xmlns:dc="http://purl.org/dc/elements/1.1/" xmlns:cc="http://creativecommons.org/ns#" xmlns:rdf="http://www.w3.org/1999/02/22-rdf-syntax-ns#">
   <cc:Work>
    <dc:type rdf:resource="http://purl.org/dc/dcmitype/StillImage"/>
    <dc:date>2023-10-11T18:54:49.785198</dc:date>
    <dc:format>image/svg+xml</dc:format>
    <dc:creator>
     <cc:Agent>
      <dc:title>Matplotlib v3.7.3, https://matplotlib.org/</dc:title>
     </cc:Agent>
    </dc:creator>
   </cc:Work>
  </rdf:RDF>
 </metadata>
 <defs>
  <style type="text/css">*{stroke-linejoin: round; stroke-linecap: butt}</style>
 </defs>
 <g id="figure_1">
  <g id="patch_1">
   <path d="M -0 280.474375 
L 856.472187 280.474375 
L 856.472187 0 
L -0 0 
z
" style="fill: #ffffff"/>
  </g>
  <g id="axes_1">
   <g id="patch_2">
    <path d="M 43.592188 244.918125 
L 422.672187 244.918125 
L 422.672187 22.318125 
L 43.592188 22.318125 
z
" style="fill: #ffffff"/>
   </g>
   <g id="matplotlib.axis_1">
    <g id="xtick_1">
     <g id="line2d_1">
      <defs>
       <path id="md968624bf4" d="M 0 0 
L 0 -7 
" style="stroke: #000000; stroke-width: 2"/>
      </defs>
      <g>
       <use xlink:href="#md968624bf4" x="60.823097" y="244.918125" style="stroke: #000000; stroke-width: 2"/>
      </g>
     </g>
     <g id="line2d_2">
      <defs>
       <path id="m61f30b0426" d="M 0 0 
L 0 7 
" style="stroke: #000000; stroke-width: 2"/>
      </defs>
      <g>
       <use xlink:href="#m61f30b0426" x="60.823097" y="22.318125" style="stroke: #000000; stroke-width: 2"/>
      </g>
     </g>
     <g id="text_1">
      <text style="font: 700 10px 'DejaVu Sans', 'Bitstream Vera Sans', 'Computer Modern Sans Serif', 'Lucida Grande', 'Verdana', 'Geneva', 'Lucid', 'Arial', 'Helvetica', 'Avant Garde', sans-serif; text-anchor: middle" x="60.823097" y="257.516563" transform="rotate(-0 60.823097 257.516563)">0</text>
     </g>
    </g>
    <g id="xtick_2">
     <g id="line2d_3">
      <g>
       <use xlink:href="#md968624bf4" x="130.442931" y="244.918125" style="stroke: #000000; stroke-width: 2"/>
      </g>
     </g>
     <g id="line2d_4">
      <g>
       <use xlink:href="#m61f30b0426" x="130.442931" y="22.318125" style="stroke: #000000; stroke-width: 2"/>
      </g>
     </g>
     <g id="text_2">
      <text style="font: 700 10px 'DejaVu Sans', 'Bitstream Vera Sans', 'Computer Modern Sans Serif', 'Lucida Grande', 'Verdana', 'Geneva', 'Lucid', 'Arial', 'Helvetica', 'Avant Garde', sans-serif; text-anchor: middle" x="130.442931" y="257.516563" transform="rotate(-0 130.442931 257.516563)">20</text>
     </g>
    </g>
    <g id="xtick_3">
     <g id="line2d_5">
      <g>
       <use xlink:href="#md968624bf4" x="200.062766" y="244.918125" style="stroke: #000000; stroke-width: 2"/>
      </g>
     </g>
     <g id="line2d_6">
      <g>
       <use xlink:href="#m61f30b0426" x="200.062766" y="22.318125" style="stroke: #000000; stroke-width: 2"/>
      </g>
     </g>
     <g id="text_3">
      <text style="font: 700 10px 'DejaVu Sans', 'Bitstream Vera Sans', 'Computer Modern Sans Serif', 'Lucida Grande', 'Verdana', 'Geneva', 'Lucid', 'Arial', 'Helvetica', 'Avant Garde', sans-serif; text-anchor: middle" x="200.062766" y="257.516563" transform="rotate(-0 200.062766 257.516563)">40</text>
     </g>
    </g>
    <g id="xtick_4">
     <g id="line2d_7">
      <g>
       <use xlink:href="#md968624bf4" x="269.682601" y="244.918125" style="stroke: #000000; stroke-width: 2"/>
      </g>
     </g>
     <g id="line2d_8">
      <g>
       <use xlink:href="#m61f30b0426" x="269.682601" y="22.318125" style="stroke: #000000; stroke-width: 2"/>
      </g>
     </g>
     <g id="text_4">
      <text style="font: 700 10px 'DejaVu Sans', 'Bitstream Vera Sans', 'Computer Modern Sans Serif', 'Lucida Grande', 'Verdana', 'Geneva', 'Lucid', 'Arial', 'Helvetica', 'Avant Garde', sans-serif; text-anchor: middle" x="269.682601" y="257.516563" transform="rotate(-0 269.682601 257.516563)">60</text>
     </g>
    </g>
    <g id="xtick_5">
     <g id="line2d_9">
      <g>
       <use xlink:href="#md968624bf4" x="339.302435" y="244.918125" style="stroke: #000000; stroke-width: 2"/>
      </g>
     </g>
     <g id="line2d_10">
      <g>
       <use xlink:href="#m61f30b0426" x="339.302435" y="22.318125" style="stroke: #000000; stroke-width: 2"/>
      </g>
     </g>
     <g id="text_5">
      <text style="font: 700 10px 'DejaVu Sans', 'Bitstream Vera Sans', 'Computer Modern Sans Serif', 'Lucida Grande', 'Verdana', 'Geneva', 'Lucid', 'Arial', 'Helvetica', 'Avant Garde', sans-serif; text-anchor: middle" x="339.302435" y="257.516563" transform="rotate(-0 339.302435 257.516563)">80</text>
     </g>
    </g>
    <g id="xtick_6">
     <g id="line2d_11">
      <g>
       <use xlink:href="#md968624bf4" x="408.92227" y="244.918125" style="stroke: #000000; stroke-width: 2"/>
      </g>
     </g>
     <g id="line2d_12">
      <g>
       <use xlink:href="#m61f30b0426" x="408.92227" y="22.318125" style="stroke: #000000; stroke-width: 2"/>
      </g>
     </g>
     <g id="text_6">
      <text style="font: 700 10px 'DejaVu Sans', 'Bitstream Vera Sans', 'Computer Modern Sans Serif', 'Lucida Grande', 'Verdana', 'Geneva', 'Lucid', 'Arial', 'Helvetica', 'Avant Garde', sans-serif; text-anchor: middle" x="408.92227" y="257.516563" transform="rotate(-0 408.92227 257.516563)">100</text>
     </g>
    </g>
    <g id="text_7">
     <text style="font: 700 10px 'DejaVu Sans', 'Bitstream Vera Sans', 'Computer Modern Sans Serif', 'Lucida Grande', 'Verdana', 'Geneva', 'Lucid', 'Arial', 'Helvetica', 'Avant Garde', sans-serif; text-anchor: middle" x="233.132187" y="271.194687" transform="rotate(-0 233.132187 271.194687)">epoch</text>
    </g>
   </g>
   <g id="matplotlib.axis_2">
    <g id="ytick_1">
     <g id="line2d_13">
      <defs>
       <path id="m224aabb008" d="M 0 0 
L 7 0 
" style="stroke: #000000; stroke-width: 2"/>
      </defs>
      <g>
       <use xlink:href="#m224aabb008" x="43.592188" y="234.806799" style="stroke: #000000; stroke-width: 2"/>
      </g>
     </g>
     <g id="line2d_14">
      <defs>
       <path id="ma24e7d6f70" d="M 0 0 
L -7 0 
" style="stroke: #000000; stroke-width: 2"/>
      </defs>
      <g>
       <use xlink:href="#ma24e7d6f70" x="422.672187" y="234.806799" style="stroke: #000000; stroke-width: 2"/>
      </g>
     </g>
     <g id="text_8">
      <text style="font: 700 10px 'DejaVu Sans', 'Bitstream Vera Sans', 'Computer Modern Sans Serif', 'Lucida Grande', 'Verdana', 'Geneva', 'Lucid', 'Arial', 'Helvetica', 'Avant Garde', sans-serif; text-anchor: end" x="38.592188" y="238.606017" transform="rotate(-0 38.592188 238.606017)">0.0</text>
     </g>
    </g>
    <g id="ytick_2">
     <g id="line2d_15">
      <g>
       <use xlink:href="#m224aabb008" x="43.592188" y="189.839103" style="stroke: #000000; stroke-width: 2"/>
      </g>
     </g>
     <g id="line2d_16">
      <g>
       <use xlink:href="#ma24e7d6f70" x="422.672187" y="189.839103" style="stroke: #000000; stroke-width: 2"/>
      </g>
     </g>
     <g id="text_9">
      <text style="font: 700 10px 'DejaVu Sans', 'Bitstream Vera Sans', 'Computer Modern Sans Serif', 'Lucida Grande', 'Verdana', 'Geneva', 'Lucid', 'Arial', 'Helvetica', 'Avant Garde', sans-serif; text-anchor: end" x="38.592188" y="193.638322" transform="rotate(-0 38.592188 193.638322)">0.2</text>
     </g>
    </g>
    <g id="ytick_3">
     <g id="line2d_17">
      <g>
       <use xlink:href="#m224aabb008" x="43.592188" y="144.871408" style="stroke: #000000; stroke-width: 2"/>
      </g>
     </g>
     <g id="line2d_18">
      <g>
       <use xlink:href="#ma24e7d6f70" x="422.672187" y="144.871408" style="stroke: #000000; stroke-width: 2"/>
      </g>
     </g>
     <g id="text_10">
      <text style="font: 700 10px 'DejaVu Sans', 'Bitstream Vera Sans', 'Computer Modern Sans Serif', 'Lucida Grande', 'Verdana', 'Geneva', 'Lucid', 'Arial', 'Helvetica', 'Avant Garde', sans-serif; text-anchor: end" x="38.592188" y="148.670627" transform="rotate(-0 38.592188 148.670627)">0.4</text>
     </g>
    </g>
    <g id="ytick_4">
     <g id="line2d_19">
      <g>
       <use xlink:href="#m224aabb008" x="43.592188" y="99.903712" style="stroke: #000000; stroke-width: 2"/>
      </g>
     </g>
     <g id="line2d_20">
      <g>
       <use xlink:href="#ma24e7d6f70" x="422.672187" y="99.903712" style="stroke: #000000; stroke-width: 2"/>
      </g>
     </g>
     <g id="text_11">
      <text style="font: 700 10px 'DejaVu Sans', 'Bitstream Vera Sans', 'Computer Modern Sans Serif', 'Lucida Grande', 'Verdana', 'Geneva', 'Lucid', 'Arial', 'Helvetica', 'Avant Garde', sans-serif; text-anchor: end" x="38.592188" y="103.702931" transform="rotate(-0 38.592188 103.702931)">0.6</text>
     </g>
    </g>
    <g id="ytick_5">
     <g id="line2d_21">
      <g>
       <use xlink:href="#m224aabb008" x="43.592188" y="54.936017" style="stroke: #000000; stroke-width: 2"/>
      </g>
     </g>
     <g id="line2d_22">
      <g>
       <use xlink:href="#ma24e7d6f70" x="422.672187" y="54.936017" style="stroke: #000000; stroke-width: 2"/>
      </g>
     </g>
     <g id="text_12">
      <text style="font: 700 10px 'DejaVu Sans', 'Bitstream Vera Sans', 'Computer Modern Sans Serif', 'Lucida Grande', 'Verdana', 'Geneva', 'Lucid', 'Arial', 'Helvetica', 'Avant Garde', sans-serif; text-anchor: end" x="38.592188" y="58.735236" transform="rotate(-0 38.592188 58.735236)">0.8</text>
     </g>
    </g>
    <g id="text_13">
     <text style="font: 700 10px 'DejaVu Sans', 'Bitstream Vera Sans', 'Computer Modern Sans Serif', 'Lucida Grande', 'Verdana', 'Geneva', 'Lucid', 'Arial', 'Helvetica', 'Avant Garde', sans-serif; text-anchor: middle" x="14.798438" y="133.618125" transform="rotate(-90 14.798438 133.618125)">loss</text>
    </g>
   </g>
   <g id="line2d_23">
    <path d="M 60.823097 32.436307 
L 64.304088 187.256497 
L 67.78508 232.174435 
L 71.266072 234.074251 
L 74.747064 234.258496 
L 78.228055 234.361637 
L 81.709047 234.086496 
L 85.190039 234.283573 
L 88.67103 234.374586 
L 92.152022 234.529643 
L 95.633014 234.635926 
L 99.114006 234.664492 
L 102.594997 234.560443 
L 106.075989 234.650772 
L 109.556981 234.695376 
L 113.037973 234.663517 
L 116.518964 234.654932 
L 119.999956 234.730598 
L 123.480948 234.734312 
L 126.96194 234.709404 
L 130.442931 234.741639 
L 133.923923 234.695022 
L 137.404915 234.559777 
L 140.885907 234.629422 
L 144.366898 234.715253 
L 147.84789 234.696108 
L 151.328882 234.534247 
L 154.809873 234.706269 
L 158.290865 234.663844 
L 161.771857 234.769048 
L 165.252849 234.771895 
L 168.73384 234.753835 
L 172.214832 234.660924 
L 175.695824 234.613195 
L 179.176816 234.777934 
L 182.657807 234.774651 
L 186.138799 234.778627 
L 189.619791 234.771626 
L 193.100783 234.779877 
L 196.581774 234.731043 
L 200.062766 234.603349 
L 203.543758 234.597072 
L 207.024749 234.656777 
L 210.505741 234.73744 
L 213.986733 234.66772 
L 217.467725 234.744095 
L 220.948716 234.725737 
L 224.429708 234.782821 
L 227.9107 234.790947 
L 231.391692 234.789165 
L 234.872683 234.789355 
L 238.353675 234.789605 
L 241.834667 234.786778 
L 245.315659 234.780783 
L 248.79665 234.746221 
L 252.277642 234.790411 
L 255.758634 234.789713 
L 259.239626 234.795682 
L 262.720617 234.791705 
L 266.201609 234.792995 
L 269.682601 234.793891 
L 273.163592 234.793956 
L 276.644584 234.792127 
L 280.125576 234.795955 
L 283.606568 234.797505 
L 287.087559 234.796796 
L 290.568551 234.796048 
L 294.049543 234.795516 
L 297.530535 234.796464 
L 301.011526 234.797785 
L 304.492518 234.797204 
L 307.97351 234.794844 
L 311.454502 234.797141 
L 314.935493 234.777053 
L 318.416485 234.639456 
L 321.897477 234.432978 
L 325.378468 234.643934 
L 328.85946 234.709482 
L 332.340452 234.651576 
L 335.821444 234.786918 
L 339.302435 234.791827 
L 342.783427 234.792776 
L 346.264419 234.792024 
L 349.745411 234.780319 
L 353.226402 234.790839 
L 356.707394 234.797093 
L 360.188386 234.7901 
L 363.669378 234.794019 
L 367.150369 234.796744 
L 370.631361 234.790047 
L 374.112353 234.799943 
L 377.593345 234.796867 
L 381.074336 234.795948 
L 384.555328 234.795215 
L 388.03632 234.786395 
L 391.517311 234.650241 
L 394.998303 234.659622 
L 398.479295 234.679714 
L 401.960287 234.772775 
L 405.441278 234.79787 
" clip-path="url(#p888273069e)" style="fill: none; stroke: #ff0000; stroke-width: 1.5; stroke-linecap: square"/>
   </g>
   <g id="line2d_24">
    <path d="M 60.823097 102.408184 
L 64.304088 215.698501 
L 67.78508 222.882141 
L 71.266072 222.704818 
L 74.747064 224.457597 
L 78.228055 220.240617 
L 81.709047 222.273603 
L 85.190039 219.431288 
L 88.67103 222.229566 
L 92.152022 223.02255 
L 95.633014 224.205796 
L 99.114006 221.208998 
L 102.594997 223.575899 
L 106.075989 223.117783 
L 109.556981 223.979126 
L 113.037973 220.329566 
L 116.518964 224.419696 
L 119.999956 222.215497 
L 123.480948 223.603215 
L 126.96194 223.762103 
L 130.442931 221.515965 
L 133.923923 222.108271 
L 137.404915 223.307949 
L 140.885907 222.442284 
L 144.366898 221.801537 
L 147.84789 217.066846 
L 151.328882 223.58686 
L 154.809873 222.808013 
L 158.290865 220.622988 
L 161.771857 220.930455 
L 165.252849 221.259356 
L 168.73384 220.134674 
L 172.214832 219.159728 
L 175.695824 221.384291 
L 179.176816 219.454736 
L 182.657807 220.443681 
L 186.138799 219.061221 
L 189.619791 220.265451 
L 193.100783 219.592449 
L 196.581774 219.732567 
L 200.062766 214.340327 
L 203.543758 219.342529 
L 207.024749 217.989243 
L 210.505741 215.669026 
L 213.986733 218.090527 
L 217.467725 214.291584 
L 220.948716 216.414629 
L 224.429708 213.958976 
L 227.9107 215.329017 
L 231.391692 216.832776 
L 234.872683 217.359857 
L 238.353675 216.451784 
L 241.834667 215.27107 
L 245.315659 218.717837 
L 248.79665 215.903577 
L 252.277642 215.35695 
L 255.758634 214.102228 
L 259.239626 216.337407 
L 262.720617 215.507184 
L 266.201609 216.597909 
L 269.682601 216.168076 
L 273.163592 216.580326 
L 276.644584 216.996167 
L 280.125576 217.047551 
L 283.606568 217.725018 
L 287.087559 217.683556 
L 290.568551 216.45985 
L 294.049543 217.034524 
L 297.530535 216.908962 
L 301.011526 217.957204 
L 304.492518 217.408668 
L 307.97351 218.167861 
L 311.454502 216.313995 
L 314.935493 217.728726 
L 318.416485 219.67862 
L 321.897477 208.764433 
L 325.378468 200.881922 
L 328.85946 201.00439 
L 332.340452 215.357834 
L 335.821444 212.445224 
L 339.302435 210.097586 
L 342.783427 210.260789 
L 346.264419 210.590078 
L 349.745411 211.729693 
L 353.226402 211.056893 
L 356.707394 209.410451 
L 360.188386 209.254189 
L 363.669378 209.474347 
L 367.150369 208.151473 
L 370.631361 211.121733 
L 374.112353 209.489305 
L 377.593345 212.044817 
L 381.074336 209.949188 
L 384.555328 211.246027 
L 388.03632 211.519392 
L 391.517311 206.855265 
L 394.998303 208.31807 
L 398.479295 207.117242 
L 401.960287 199.930617 
L 405.441278 204.826428 
" clip-path="url(#p888273069e)" style="fill: none; stroke: #0000ff; stroke-width: 1.5; stroke-linecap: square"/>
   </g>
   <g id="patch_3">
    <path d="M 43.592188 244.918125 
L 43.592188 22.318125 
" style="fill: none; stroke: #000000; stroke-width: 2; stroke-linejoin: miter; stroke-linecap: square"/>
   </g>
   <g id="patch_4">
    <path d="M 422.672187 244.918125 
L 422.672187 22.318125 
" style="fill: none; stroke: #000000; stroke-width: 2; stroke-linejoin: miter; stroke-linecap: square"/>
   </g>
   <g id="patch_5">
    <path d="M 43.592188 244.918125 
L 422.672187 244.918125 
" style="fill: none; stroke: #000000; stroke-width: 2; stroke-linejoin: miter; stroke-linecap: square"/>
   </g>
   <g id="patch_6">
    <path d="M 43.592188 22.318125 
L 422.672187 22.318125 
" style="fill: none; stroke: #000000; stroke-width: 2; stroke-linejoin: miter; stroke-linecap: square"/>
   </g>
   <g id="text_14">
    <text style="font: 700 12px 'DejaVu Sans', 'Bitstream Vera Sans', 'Computer Modern Sans Serif', 'Lucida Grande', 'Verdana', 'Geneva', 'Lucid', 'Arial', 'Helvetica', 'Avant Garde', sans-serif; text-anchor: middle" x="233.132187" y="16.318125" transform="rotate(-0 233.132187 16.318125)">dist</text>
   </g>
   <g id="legend_1">
    <g id="patch_7">
     <path d="M 301.762812 59.7525 
L 415.672187 59.7525 
Q 417.672187 59.7525 417.672187 57.7525 
L 417.672187 29.318125 
Q 417.672187 27.318125 415.672187 27.318125 
L 301.762812 27.318125 
Q 299.762812 27.318125 299.762812 29.318125 
L 299.762812 57.7525 
Q 299.762812 59.7525 301.762812 59.7525 
z
" style="fill: #ffffff; opacity: 0.8; stroke: #cccccc; stroke-linejoin: miter"/>
    </g>
    <g id="line2d_25">
     <path d="M 303.762812 35.416563 
L 313.762812 35.416563 
L 323.762812 35.416563 
" style="fill: none; stroke: #ff0000; stroke-width: 1.5; stroke-linecap: square"/>
    </g>
    <g id="text_15">
     <text style="font: 700 10px 'DejaVu Sans', 'Bitstream Vera Sans', 'Computer Modern Sans Serif', 'Lucida Grande', 'Verdana', 'Geneva', 'Lucid', 'Arial', 'Helvetica', 'Avant Garde', sans-serif; text-anchor: start" x="331.762812" y="38.916563" transform="rotate(-0 331.762812 38.916563)">training loss</text>
    </g>
    <g id="line2d_26">
     <path d="M 303.762812 50.172813 
L 313.762812 50.172813 
L 323.762812 50.172813 
" style="fill: none; stroke: #0000ff; stroke-width: 1.5; stroke-linecap: square"/>
    </g>
    <g id="text_16">
     <text style="font: 700 10px 'DejaVu Sans', 'Bitstream Vera Sans', 'Computer Modern Sans Serif', 'Lucida Grande', 'Verdana', 'Geneva', 'Lucid', 'Arial', 'Helvetica', 'Avant Garde', sans-serif; text-anchor: start" x="331.762812" y="53.672813" transform="rotate(-0 331.762812 53.672813)">validation loss</text>
    </g>
   </g>
  </g>
  <g id="axes_2">
   <g id="patch_8">
    <path d="M 470.192187 244.918125 
L 849.272187 244.918125 
L 849.272187 22.318125 
L 470.192187 22.318125 
z
" style="fill: #ffffff"/>
   </g>
   <g id="matplotlib.axis_3">
    <g id="xtick_7">
     <g id="line2d_27">
      <g>
       <use xlink:href="#md968624bf4" x="487.423097" y="244.918125" style="stroke: #000000; stroke-width: 2"/>
      </g>
     </g>
     <g id="line2d_28">
      <g>
       <use xlink:href="#m61f30b0426" x="487.423097" y="22.318125" style="stroke: #000000; stroke-width: 2"/>
      </g>
     </g>
     <g id="text_17">
      <text style="font: 700 10px 'DejaVu Sans', 'Bitstream Vera Sans', 'Computer Modern Sans Serif', 'Lucida Grande', 'Verdana', 'Geneva', 'Lucid', 'Arial', 'Helvetica', 'Avant Garde', sans-serif; text-anchor: middle" x="487.423097" y="257.516563" transform="rotate(-0 487.423097 257.516563)">0</text>
     </g>
    </g>
    <g id="xtick_8">
     <g id="line2d_29">
      <g>
       <use xlink:href="#md968624bf4" x="557.042931" y="244.918125" style="stroke: #000000; stroke-width: 2"/>
      </g>
     </g>
     <g id="line2d_30">
      <g>
       <use xlink:href="#m61f30b0426" x="557.042931" y="22.318125" style="stroke: #000000; stroke-width: 2"/>
      </g>
     </g>
     <g id="text_18">
      <text style="font: 700 10px 'DejaVu Sans', 'Bitstream Vera Sans', 'Computer Modern Sans Serif', 'Lucida Grande', 'Verdana', 'Geneva', 'Lucid', 'Arial', 'Helvetica', 'Avant Garde', sans-serif; text-anchor: middle" x="557.042931" y="257.516563" transform="rotate(-0 557.042931 257.516563)">20</text>
     </g>
    </g>
    <g id="xtick_9">
     <g id="line2d_31">
      <g>
       <use xlink:href="#md968624bf4" x="626.662766" y="244.918125" style="stroke: #000000; stroke-width: 2"/>
      </g>
     </g>
     <g id="line2d_32">
      <g>
       <use xlink:href="#m61f30b0426" x="626.662766" y="22.318125" style="stroke: #000000; stroke-width: 2"/>
      </g>
     </g>
     <g id="text_19">
      <text style="font: 700 10px 'DejaVu Sans', 'Bitstream Vera Sans', 'Computer Modern Sans Serif', 'Lucida Grande', 'Verdana', 'Geneva', 'Lucid', 'Arial', 'Helvetica', 'Avant Garde', sans-serif; text-anchor: middle" x="626.662766" y="257.516563" transform="rotate(-0 626.662766 257.516563)">40</text>
     </g>
    </g>
    <g id="xtick_10">
     <g id="line2d_33">
      <g>
       <use xlink:href="#md968624bf4" x="696.282601" y="244.918125" style="stroke: #000000; stroke-width: 2"/>
      </g>
     </g>
     <g id="line2d_34">
      <g>
       <use xlink:href="#m61f30b0426" x="696.282601" y="22.318125" style="stroke: #000000; stroke-width: 2"/>
      </g>
     </g>
     <g id="text_20">
      <text style="font: 700 10px 'DejaVu Sans', 'Bitstream Vera Sans', 'Computer Modern Sans Serif', 'Lucida Grande', 'Verdana', 'Geneva', 'Lucid', 'Arial', 'Helvetica', 'Avant Garde', sans-serif; text-anchor: middle" x="696.282601" y="257.516563" transform="rotate(-0 696.282601 257.516563)">60</text>
     </g>
    </g>
    <g id="xtick_11">
     <g id="line2d_35">
      <g>
       <use xlink:href="#md968624bf4" x="765.902435" y="244.918125" style="stroke: #000000; stroke-width: 2"/>
      </g>
     </g>
     <g id="line2d_36">
      <g>
       <use xlink:href="#m61f30b0426" x="765.902435" y="22.318125" style="stroke: #000000; stroke-width: 2"/>
      </g>
     </g>
     <g id="text_21">
      <text style="font: 700 10px 'DejaVu Sans', 'Bitstream Vera Sans', 'Computer Modern Sans Serif', 'Lucida Grande', 'Verdana', 'Geneva', 'Lucid', 'Arial', 'Helvetica', 'Avant Garde', sans-serif; text-anchor: middle" x="765.902435" y="257.516563" transform="rotate(-0 765.902435 257.516563)">80</text>
     </g>
    </g>
    <g id="xtick_12">
     <g id="line2d_37">
      <g>
       <use xlink:href="#md968624bf4" x="835.52227" y="244.918125" style="stroke: #000000; stroke-width: 2"/>
      </g>
     </g>
     <g id="line2d_38">
      <g>
       <use xlink:href="#m61f30b0426" x="835.52227" y="22.318125" style="stroke: #000000; stroke-width: 2"/>
      </g>
     </g>
     <g id="text_22">
      <text style="font: 700 10px 'DejaVu Sans', 'Bitstream Vera Sans', 'Computer Modern Sans Serif', 'Lucida Grande', 'Verdana', 'Geneva', 'Lucid', 'Arial', 'Helvetica', 'Avant Garde', sans-serif; text-anchor: middle" x="835.52227" y="257.516563" transform="rotate(-0 835.52227 257.516563)">100</text>
     </g>
    </g>
    <g id="text_23">
     <text style="font: 700 10px 'DejaVu Sans', 'Bitstream Vera Sans', 'Computer Modern Sans Serif', 'Lucida Grande', 'Verdana', 'Geneva', 'Lucid', 'Arial', 'Helvetica', 'Avant Garde', sans-serif; text-anchor: middle" x="659.732188" y="271.194687" transform="rotate(-0 659.732188 271.194687)">epoch</text>
    </g>
   </g>
   <g id="matplotlib.axis_4">
    <g id="ytick_6">
     <g id="line2d_39">
      <g>
       <use xlink:href="#m224aabb008" x="470.192187" y="242.224054" style="stroke: #000000; stroke-width: 2"/>
      </g>
     </g>
     <g id="line2d_40">
      <g>
       <use xlink:href="#ma24e7d6f70" x="849.272187" y="242.224054" style="stroke: #000000; stroke-width: 2"/>
      </g>
     </g>
     <g id="text_24">
      <text style="font: 700 10px 'DejaVu Sans', 'Bitstream Vera Sans', 'Computer Modern Sans Serif', 'Lucida Grande', 'Verdana', 'Geneva', 'Lucid', 'Arial', 'Helvetica', 'Avant Garde', sans-serif; text-anchor: end" x="465.192187" y="246.023273" transform="rotate(-0 465.192187 246.023273)">0.0</text>
     </g>
    </g>
    <g id="ytick_7">
     <g id="line2d_41">
      <g>
       <use xlink:href="#m224aabb008" x="470.192187" y="202.720791" style="stroke: #000000; stroke-width: 2"/>
      </g>
     </g>
     <g id="line2d_42">
      <g>
       <use xlink:href="#ma24e7d6f70" x="849.272187" y="202.720791" style="stroke: #000000; stroke-width: 2"/>
      </g>
     </g>
     <g id="text_25">
      <text style="font: 700 10px 'DejaVu Sans', 'Bitstream Vera Sans', 'Computer Modern Sans Serif', 'Lucida Grande', 'Verdana', 'Geneva', 'Lucid', 'Arial', 'Helvetica', 'Avant Garde', sans-serif; text-anchor: end" x="465.192187" y="206.52001" transform="rotate(-0 465.192187 206.52001)">0.2</text>
     </g>
    </g>
    <g id="ytick_8">
     <g id="line2d_43">
      <g>
       <use xlink:href="#m224aabb008" x="470.192187" y="163.217529" style="stroke: #000000; stroke-width: 2"/>
      </g>
     </g>
     <g id="line2d_44">
      <g>
       <use xlink:href="#ma24e7d6f70" x="849.272187" y="163.217529" style="stroke: #000000; stroke-width: 2"/>
      </g>
     </g>
     <g id="text_26">
      <text style="font: 700 10px 'DejaVu Sans', 'Bitstream Vera Sans', 'Computer Modern Sans Serif', 'Lucida Grande', 'Verdana', 'Geneva', 'Lucid', 'Arial', 'Helvetica', 'Avant Garde', sans-serif; text-anchor: end" x="465.192187" y="167.016748" transform="rotate(-0 465.192187 167.016748)">0.4</text>
     </g>
    </g>
    <g id="ytick_9">
     <g id="line2d_45">
      <g>
       <use xlink:href="#m224aabb008" x="470.192187" y="123.714266" style="stroke: #000000; stroke-width: 2"/>
      </g>
     </g>
     <g id="line2d_46">
      <g>
       <use xlink:href="#ma24e7d6f70" x="849.272187" y="123.714266" style="stroke: #000000; stroke-width: 2"/>
      </g>
     </g>
     <g id="text_27">
      <text style="font: 700 10px 'DejaVu Sans', 'Bitstream Vera Sans', 'Computer Modern Sans Serif', 'Lucida Grande', 'Verdana', 'Geneva', 'Lucid', 'Arial', 'Helvetica', 'Avant Garde', sans-serif; text-anchor: end" x="465.192187" y="127.513485" transform="rotate(-0 465.192187 127.513485)">0.6</text>
     </g>
    </g>
    <g id="ytick_10">
     <g id="line2d_47">
      <g>
       <use xlink:href="#m224aabb008" x="470.192187" y="84.211003" style="stroke: #000000; stroke-width: 2"/>
      </g>
     </g>
     <g id="line2d_48">
      <g>
       <use xlink:href="#ma24e7d6f70" x="849.272187" y="84.211003" style="stroke: #000000; stroke-width: 2"/>
      </g>
     </g>
     <g id="text_28">
      <text style="font: 700 10px 'DejaVu Sans', 'Bitstream Vera Sans', 'Computer Modern Sans Serif', 'Lucida Grande', 'Verdana', 'Geneva', 'Lucid', 'Arial', 'Helvetica', 'Avant Garde', sans-serif; text-anchor: end" x="465.192187" y="88.010222" transform="rotate(-0 465.192187 88.010222)">0.8</text>
     </g>
    </g>
    <g id="ytick_11">
     <g id="line2d_49">
      <g>
       <use xlink:href="#m224aabb008" x="470.192187" y="44.707741" style="stroke: #000000; stroke-width: 2"/>
      </g>
     </g>
     <g id="line2d_50">
      <g>
       <use xlink:href="#ma24e7d6f70" x="849.272187" y="44.707741" style="stroke: #000000; stroke-width: 2"/>
      </g>
     </g>
     <g id="text_29">
      <text style="font: 700 10px 'DejaVu Sans', 'Bitstream Vera Sans', 'Computer Modern Sans Serif', 'Lucida Grande', 'Verdana', 'Geneva', 'Lucid', 'Arial', 'Helvetica', 'Avant Garde', sans-serif; text-anchor: end" x="465.192187" y="48.506959" transform="rotate(-0 465.192187 48.506959)">1.0</text>
     </g>
    </g>
    <g id="text_30">
     <text style="font: 700 10px 'DejaVu Sans', 'Bitstream Vera Sans', 'Computer Modern Sans Serif', 'Lucida Grande', 'Verdana', 'Geneva', 'Lucid', 'Arial', 'Helvetica', 'Avant Garde', sans-serif; text-anchor: middle" x="441.398437" y="133.618125" transform="rotate(-90 441.398437 133.618125)">loss</text>
    </g>
   </g>
   <g id="line2d_51">
    <path d="M 487.423097 32.436307 
L 490.904088 63.918935 
L 494.38508 106.702133 
L 497.866072 133.03985 
L 501.347064 149.901341 
L 504.828055 159.067763 
L 508.309047 166.500214 
L 511.790039 171.770816 
L 515.27103 177.324527 
L 518.752022 180.812742 
L 522.233014 183.266478 
L 525.714006 186.560467 
L 529.194997 188.657242 
L 532.675989 190.320725 
L 536.156981 192.698758 
L 539.637973 193.836752 
L 543.118964 196.0517 
L 546.599956 196.817874 
L 550.080948 198.424677 
L 553.56194 200.025225 
L 557.042931 201.307723 
L 560.523923 202.395423 
L 564.004915 203.226807 
L 567.485907 204.447147 
L 570.966898 204.331879 
L 574.44789 204.701269 
L 577.928882 206.275275 
L 581.409873 207.651054 
L 584.890865 208.320544 
L 588.371857 209.25582 
L 591.852849 209.798689 
L 595.33384 210.685363 
L 598.814832 211.442953 
L 602.295824 211.19156 
L 605.776816 212.739401 
L 609.257807 213.288603 
L 612.738799 214.209745 
L 616.219791 214.537095 
L 619.700783 215.196795 
L 623.181774 216.044526 
L 626.662766 216.685588 
L 630.143758 217.413678 
L 633.624749 218.021562 
L 637.105741 218.559361 
L 640.586733 219.270114 
L 644.067725 219.584271 
L 647.548716 220.409054 
L 651.029708 220.418896 
L 654.5107 221.242277 
L 657.991692 221.329274 
L 661.472683 221.65283 
L 664.953675 222.294332 
L 668.434667 223.075094 
L 671.915659 223.542406 
L 675.39665 223.86336 
L 678.877642 224.493868 
L 682.358634 225.071076 
L 685.839626 225.562886 
L 689.320617 225.4813 
L 692.801609 225.744184 
L 696.282601 226.589942 
L 699.763592 227.056816 
L 703.244584 227.277098 
L 706.725576 227.567365 
L 710.206568 227.979348 
L 713.687559 228.092779 
L 717.168551 228.192714 
L 720.649543 228.707922 
L 724.130535 228.955826 
L 727.611526 229.081941 
L 731.092518 229.500328 
L 734.57351 229.993926 
L 738.054502 229.872047 
L 741.535493 229.468074 
L 745.016485 230.660172 
L 748.497477 231.294594 
L 751.978468 230.916662 
L 755.45946 231.026561 
L 758.940452 231.716535 
L 762.421444 231.220136 
L 765.902435 232.291802 
L 769.383427 232.711683 
L 772.864419 232.786973 
L 776.345411 232.855631 
L 779.826402 232.779156 
L 783.307394 233.14094 
L 786.788386 232.572642 
L 790.269378 233.415591 
L 793.750369 233.515074 
L 797.231361 233.650854 
L 800.712353 234.049718 
L 804.193345 234.264576 
L 807.674336 234.298315 
L 811.155328 234.384765 
L 814.63632 234.439461 
L 818.117311 234.266929 
L 821.598303 234.799943 
L 825.079295 234.569701 
L 828.560287 234.634951 
L 832.041278 234.763352 
" clip-path="url(#p28d691db09)" style="fill: none; stroke: #ff0000; stroke-width: 1.5; stroke-linecap: square"/>
   </g>
   <g id="line2d_52">
    <path d="M 487.423097 41.890517 
L 490.904088 82.601233 
L 494.38508 110.198058 
L 497.866072 125.925011 
L 501.347064 134.456681 
L 504.828055 137.867975 
L 508.309047 141.032336 
L 511.790039 142.048328 
L 515.27103 142.30998 
L 518.752022 144.319088 
L 522.233014 145.775969 
L 525.714006 148.805035 
L 529.194997 143.829899 
L 532.675989 147.499412 
L 536.156981 145.866711 
L 539.637973 147.456449 
L 543.118964 141.223319 
L 546.599956 145.525924 
L 550.080948 146.003696 
L 553.56194 148.790355 
L 557.042931 145.88366 
L 560.523923 145.455449 
L 564.004915 143.517465 
L 567.485907 142.097579 
L 570.966898 144.406502 
L 574.44789 139.418454 
L 577.928882 144.067856 
L 581.409873 143.813474 
L 584.890865 142.493178 
L 588.371857 143.15265 
L 591.852849 141.214059 
L 595.33384 141.029774 
L 598.814832 141.233686 
L 602.295824 137.716298 
L 605.776816 140.930639 
L 609.257807 139.462705 
L 612.738799 140.060202 
L 616.219791 139.822468 
L 619.700783 139.919064 
L 623.181774 136.518606 
L 626.662766 135.618662 
L 630.143758 140.383734 
L 633.624749 136.838153 
L 637.105741 134.34857 
L 640.586733 134.333099 
L 644.067725 134.113249 
L 647.548716 132.535593 
L 651.029708 133.246715 
L 654.5107 134.402225 
L 657.991692 132.263667 
L 661.472683 131.936046 
L 664.953675 129.751805 
L 668.434667 127.85936 
L 671.915659 129.807978 
L 675.39665 130.21776 
L 678.877642 131.767598 
L 682.358634 128.558003 
L 685.839626 130.021577 
L 689.320617 129.758865 
L 692.801609 129.035622 
L 696.282601 123.412004 
L 699.763592 121.521315 
L 703.244584 124.744441 
L 706.725576 125.805536 
L 710.206568 123.202779 
L 713.687559 125.234064 
L 717.168551 123.598468 
L 720.649543 127.186313 
L 724.130535 123.935389 
L 727.611526 122.968697 
L 731.092518 122.229844 
L 734.57351 119.666715 
L 738.054502 118.079513 
L 741.535493 115.729196 
L 745.016485 124.79745 
L 748.497477 119.85527 
L 751.978468 119.144265 
L 755.45946 118.20337 
L 758.940452 118.246703 
L 762.421444 113.776502 
L 765.902435 117.605016 
L 769.383427 119.621781 
L 772.864419 115.685514 
L 776.345411 114.186559 
L 779.826402 119.234159 
L 783.307394 114.433433 
L 786.788386 114.618552 
L 790.269378 119.626046 
L 793.750369 120.586093 
L 797.231361 116.893615 
L 800.712353 116.238019 
L 804.193345 115.41247 
L 807.674336 115.795872 
L 811.155328 112.840535 
L 814.63632 112.936366 
L 818.117311 110.967255 
L 821.598303 113.676667 
L 825.079295 111.298887 
L 828.560287 113.128685 
L 832.041278 115.192677 
" clip-path="url(#p28d691db09)" style="fill: none; stroke: #0000ff; stroke-width: 1.5; stroke-linecap: square"/>
   </g>
   <g id="patch_9">
    <path d="M 470.192187 244.918125 
L 470.192187 22.318125 
" style="fill: none; stroke: #000000; stroke-width: 2; stroke-linejoin: miter; stroke-linecap: square"/>
   </g>
   <g id="patch_10">
    <path d="M 849.272187 244.918125 
L 849.272187 22.318125 
" style="fill: none; stroke: #000000; stroke-width: 2; stroke-linejoin: miter; stroke-linecap: square"/>
   </g>
   <g id="patch_11">
    <path d="M 470.192187 244.918125 
L 849.272187 244.918125 
" style="fill: none; stroke: #000000; stroke-width: 2; stroke-linejoin: miter; stroke-linecap: square"/>
   </g>
   <g id="patch_12">
    <path d="M 470.192187 22.318125 
L 849.272187 22.318125 
" style="fill: none; stroke: #000000; stroke-width: 2; stroke-linejoin: miter; stroke-linecap: square"/>
   </g>
   <g id="text_31">
    <text style="font: 700 12px 'DejaVu Sans', 'Bitstream Vera Sans', 'Computer Modern Sans Serif', 'Lucida Grande', 'Verdana', 'Geneva', 'Lucid', 'Arial', 'Helvetica', 'Avant Garde', sans-serif; text-anchor: middle" x="659.732188" y="16.318125" transform="rotate(-0 659.732188 16.318125)">charge</text>
   </g>
   <g id="legend_2">
    <g id="patch_13">
     <path d="M 728.362813 59.7525 
L 842.272187 59.7525 
Q 844.272187 59.7525 844.272187 57.7525 
L 844.272187 29.318125 
Q 844.272187 27.318125 842.272187 27.318125 
L 728.362813 27.318125 
Q 726.362813 27.318125 726.362813 29.318125 
L 726.362813 57.7525 
Q 726.362813 59.7525 728.362813 59.7525 
z
" style="fill: #ffffff; opacity: 0.8; stroke: #cccccc; stroke-linejoin: miter"/>
    </g>
    <g id="line2d_53">
     <path d="M 730.362813 35.416563 
L 740.362813 35.416563 
L 750.362813 35.416563 
" style="fill: none; stroke: #ff0000; stroke-width: 1.5; stroke-linecap: square"/>
    </g>
    <g id="text_32">
     <text style="font: 700 10px 'DejaVu Sans', 'Bitstream Vera Sans', 'Computer Modern Sans Serif', 'Lucida Grande', 'Verdana', 'Geneva', 'Lucid', 'Arial', 'Helvetica', 'Avant Garde', sans-serif; text-anchor: start" x="758.362813" y="38.916563" transform="rotate(-0 758.362813 38.916563)">training loss</text>
    </g>
    <g id="line2d_54">
     <path d="M 730.362813 50.172813 
L 740.362813 50.172813 
L 750.362813 50.172813 
" style="fill: none; stroke: #0000ff; stroke-width: 1.5; stroke-linecap: square"/>
    </g>
    <g id="text_33">
     <text style="font: 700 10px 'DejaVu Sans', 'Bitstream Vera Sans', 'Computer Modern Sans Serif', 'Lucida Grande', 'Verdana', 'Geneva', 'Lucid', 'Arial', 'Helvetica', 'Avant Garde', sans-serif; text-anchor: start" x="758.362813" y="53.672813" transform="rotate(-0 758.362813 53.672813)">validation loss</text>
    </g>
   </g>
  </g>
 </g>
 <defs>
  <clipPath id="p888273069e">
   <rect x="43.592188" y="22.318125" width="379.08" height="222.6"/>
  </clipPath>
  <clipPath id="p28d691db09">
   <rect x="470.192187" y="22.318125" width="379.08" height="222.6"/>
  </clipPath>
 </defs>
</svg>
