<?xml version="1.0" encoding="utf-8" standalone="no"?>
<!DOCTYPE svg PUBLIC "-//W3C//DTD SVG 1.1//EN"
  "http://www.w3.org/Graphics/SVG/1.1/DTD/svg11.dtd">
<svg xmlns:xlink="http://www.w3.org/1999/xlink" width="856.472187pt" height="280.474375pt" viewBox="0 0 856.472187 280.474375" xmlns="http://www.w3.org/2000/svg" version="1.1">
 <metadata>
  <rdf:RDF xmlns:dc="http://purl.org/dc/elements/1.1/" xmlns:cc="http://creativecommons.org/ns#" xmlns:rdf="http://www.w3.org/1999/02/22-rdf-syntax-ns#">
   <cc:Work>
    <dc:type rdf:resource="http://purl.org/dc/dcmitype/StillImage"/>
    <dc:date>2023-10-03T22:53:45.056265</dc:date>
    <dc:format>image/svg+xml</dc:format>
    <dc:creator>
     <cc:Agent>
      <dc:title>Matplotlib v3.7.3, https://matplotlib.org/</dc:title>
     </cc:Agent>
    </dc:creator>
   </cc:Work>
  </rdf:RDF>
 </metadata>
 <defs>
  <style type="text/css">*{stroke-linejoin: round; stroke-linecap: butt}</style>
 </defs>
 <g id="figure_1">
  <g id="patch_1">
   <path d="M -0 280.474375 
L 856.472187 280.474375 
L 856.472187 0 
L -0 0 
z
" style="fill: #ffffff"/>
  </g>
  <g id="axes_1">
   <g id="patch_2">
    <path d="M 43.592188 244.918125 
L 422.672187 244.918125 
L 422.672187 22.318125 
L 43.592188 22.318125 
z
" style="fill: #ffffff"/>
   </g>
   <g id="matplotlib.axis_1">
    <g id="xtick_1">
     <g id="line2d_1">
      <defs>
       <path id="m0beb404db7" d="M 0 0 
L 0 -7 
" style="stroke: #000000; stroke-width: 2"/>
      </defs>
      <g>
       <use xlink:href="#m0beb404db7" x="60.823097" y="244.918125" style="stroke: #000000; stroke-width: 2"/>
      </g>
     </g>
     <g id="line2d_2">
      <defs>
       <path id="me74083bef9" d="M 0 0 
L 0 7 
" style="stroke: #000000; stroke-width: 2"/>
      </defs>
      <g>
       <use xlink:href="#me74083bef9" x="60.823097" y="22.318125" style="stroke: #000000; stroke-width: 2"/>
      </g>
     </g>
     <g id="text_1">
      <text style="font: 700 10px 'DejaVu Sans', 'Bitstream Vera Sans', 'Computer Modern Sans Serif', 'Lucida Grande', 'Verdana', 'Geneva', 'Lucid', 'Arial', 'Helvetica', 'Avant Garde', sans-serif; text-anchor: middle" x="60.823097" y="257.516563" transform="rotate(-0 60.823097 257.516563)">0</text>
     </g>
    </g>
    <g id="xtick_2">
     <g id="line2d_3">
      <g>
       <use xlink:href="#m0beb404db7" x="131.153338" y="244.918125" style="stroke: #000000; stroke-width: 2"/>
      </g>
     </g>
     <g id="line2d_4">
      <g>
       <use xlink:href="#me74083bef9" x="131.153338" y="22.318125" style="stroke: #000000; stroke-width: 2"/>
      </g>
     </g>
     <g id="text_2">
      <text style="font: 700 10px 'DejaVu Sans', 'Bitstream Vera Sans', 'Computer Modern Sans Serif', 'Lucida Grande', 'Verdana', 'Geneva', 'Lucid', 'Arial', 'Helvetica', 'Avant Garde', sans-serif; text-anchor: middle" x="131.153338" y="257.516563" transform="rotate(-0 131.153338 257.516563)">10</text>
     </g>
    </g>
    <g id="xtick_3">
     <g id="line2d_5">
      <g>
       <use xlink:href="#m0beb404db7" x="201.483579" y="244.918125" style="stroke: #000000; stroke-width: 2"/>
      </g>
     </g>
     <g id="line2d_6">
      <g>
       <use xlink:href="#me74083bef9" x="201.483579" y="22.318125" style="stroke: #000000; stroke-width: 2"/>
      </g>
     </g>
     <g id="text_3">
      <text style="font: 700 10px 'DejaVu Sans', 'Bitstream Vera Sans', 'Computer Modern Sans Serif', 'Lucida Grande', 'Verdana', 'Geneva', 'Lucid', 'Arial', 'Helvetica', 'Avant Garde', sans-serif; text-anchor: middle" x="201.483579" y="257.516563" transform="rotate(-0 201.483579 257.516563)">20</text>
     </g>
    </g>
    <g id="xtick_4">
     <g id="line2d_7">
      <g>
       <use xlink:href="#m0beb404db7" x="271.81382" y="244.918125" style="stroke: #000000; stroke-width: 2"/>
      </g>
     </g>
     <g id="line2d_8">
      <g>
       <use xlink:href="#me74083bef9" x="271.81382" y="22.318125" style="stroke: #000000; stroke-width: 2"/>
      </g>
     </g>
     <g id="text_4">
      <text style="font: 700 10px 'DejaVu Sans', 'Bitstream Vera Sans', 'Computer Modern Sans Serif', 'Lucida Grande', 'Verdana', 'Geneva', 'Lucid', 'Arial', 'Helvetica', 'Avant Garde', sans-serif; text-anchor: middle" x="271.81382" y="257.516563" transform="rotate(-0 271.81382 257.516563)">30</text>
     </g>
    </g>
    <g id="xtick_5">
     <g id="line2d_9">
      <g>
       <use xlink:href="#m0beb404db7" x="342.144061" y="244.918125" style="stroke: #000000; stroke-width: 2"/>
      </g>
     </g>
     <g id="line2d_10">
      <g>
       <use xlink:href="#me74083bef9" x="342.144061" y="22.318125" style="stroke: #000000; stroke-width: 2"/>
      </g>
     </g>
     <g id="text_5">
      <text style="font: 700 10px 'DejaVu Sans', 'Bitstream Vera Sans', 'Computer Modern Sans Serif', 'Lucida Grande', 'Verdana', 'Geneva', 'Lucid', 'Arial', 'Helvetica', 'Avant Garde', sans-serif; text-anchor: middle" x="342.144061" y="257.516563" transform="rotate(-0 342.144061 257.516563)">40</text>
     </g>
    </g>
    <g id="xtick_6">
     <g id="line2d_11">
      <g>
       <use xlink:href="#m0beb404db7" x="412.474303" y="244.918125" style="stroke: #000000; stroke-width: 2"/>
      </g>
     </g>
     <g id="line2d_12">
      <g>
       <use xlink:href="#me74083bef9" x="412.474303" y="22.318125" style="stroke: #000000; stroke-width: 2"/>
      </g>
     </g>
     <g id="text_6">
      <text style="font: 700 10px 'DejaVu Sans', 'Bitstream Vera Sans', 'Computer Modern Sans Serif', 'Lucida Grande', 'Verdana', 'Geneva', 'Lucid', 'Arial', 'Helvetica', 'Avant Garde', sans-serif; text-anchor: middle" x="412.474303" y="257.516563" transform="rotate(-0 412.474303 257.516563)">50</text>
     </g>
    </g>
    <g id="text_7">
     <text style="font: 700 10px 'DejaVu Sans', 'Bitstream Vera Sans', 'Computer Modern Sans Serif', 'Lucida Grande', 'Verdana', 'Geneva', 'Lucid', 'Arial', 'Helvetica', 'Avant Garde', sans-serif; text-anchor: middle" x="233.132187" y="271.194687" transform="rotate(-0 233.132187 271.194687)">epoch</text>
    </g>
   </g>
   <g id="matplotlib.axis_2">
    <g id="ytick_1">
     <g id="line2d_13">
      <defs>
       <path id="m64f49649e6" d="M 0 0 
L 7 0 
" style="stroke: #000000; stroke-width: 2"/>
      </defs>
      <g>
       <use xlink:href="#m64f49649e6" x="43.592188" y="234.803572" style="stroke: #000000; stroke-width: 2"/>
      </g>
     </g>
     <g id="line2d_14">
      <defs>
       <path id="mc4427a1dc0" d="M 0 0 
L -7 0 
" style="stroke: #000000; stroke-width: 2"/>
      </defs>
      <g>
       <use xlink:href="#mc4427a1dc0" x="422.672187" y="234.803572" style="stroke: #000000; stroke-width: 2"/>
      </g>
     </g>
     <g id="text_8">
      <text style="font: 700 10px 'DejaVu Sans', 'Bitstream Vera Sans', 'Computer Modern Sans Serif', 'Lucida Grande', 'Verdana', 'Geneva', 'Lucid', 'Arial', 'Helvetica', 'Avant Garde', sans-serif; text-anchor: end" x="38.592188" y="238.602791" transform="rotate(-0 38.592188 238.602791)">0.0</text>
     </g>
    </g>
    <g id="ytick_2">
     <g id="line2d_15">
      <g>
       <use xlink:href="#m64f49649e6" x="43.592188" y="204.441078" style="stroke: #000000; stroke-width: 2"/>
      </g>
     </g>
     <g id="line2d_16">
      <g>
       <use xlink:href="#mc4427a1dc0" x="422.672187" y="204.441078" style="stroke: #000000; stroke-width: 2"/>
      </g>
     </g>
     <g id="text_9">
      <text style="font: 700 10px 'DejaVu Sans', 'Bitstream Vera Sans', 'Computer Modern Sans Serif', 'Lucida Grande', 'Verdana', 'Geneva', 'Lucid', 'Arial', 'Helvetica', 'Avant Garde', sans-serif; text-anchor: end" x="38.592188" y="208.240297" transform="rotate(-0 38.592188 208.240297)">0.5</text>
     </g>
    </g>
    <g id="ytick_3">
     <g id="line2d_17">
      <g>
       <use xlink:href="#m64f49649e6" x="43.592188" y="174.078584" style="stroke: #000000; stroke-width: 2"/>
      </g>
     </g>
     <g id="line2d_18">
      <g>
       <use xlink:href="#mc4427a1dc0" x="422.672187" y="174.078584" style="stroke: #000000; stroke-width: 2"/>
      </g>
     </g>
     <g id="text_10">
      <text style="font: 700 10px 'DejaVu Sans', 'Bitstream Vera Sans', 'Computer Modern Sans Serif', 'Lucida Grande', 'Verdana', 'Geneva', 'Lucid', 'Arial', 'Helvetica', 'Avant Garde', sans-serif; text-anchor: end" x="38.592188" y="177.877803" transform="rotate(-0 38.592188 177.877803)">1.0</text>
     </g>
    </g>
    <g id="ytick_4">
     <g id="line2d_19">
      <g>
       <use xlink:href="#m64f49649e6" x="43.592188" y="143.71609" style="stroke: #000000; stroke-width: 2"/>
      </g>
     </g>
     <g id="line2d_20">
      <g>
       <use xlink:href="#mc4427a1dc0" x="422.672187" y="143.71609" style="stroke: #000000; stroke-width: 2"/>
      </g>
     </g>
     <g id="text_11">
      <text style="font: 700 10px 'DejaVu Sans', 'Bitstream Vera Sans', 'Computer Modern Sans Serif', 'Lucida Grande', 'Verdana', 'Geneva', 'Lucid', 'Arial', 'Helvetica', 'Avant Garde', sans-serif; text-anchor: end" x="38.592188" y="147.515308" transform="rotate(-0 38.592188 147.515308)">1.5</text>
     </g>
    </g>
    <g id="ytick_5">
     <g id="line2d_21">
      <g>
       <use xlink:href="#m64f49649e6" x="43.592188" y="113.353596" style="stroke: #000000; stroke-width: 2"/>
      </g>
     </g>
     <g id="line2d_22">
      <g>
       <use xlink:href="#mc4427a1dc0" x="422.672187" y="113.353596" style="stroke: #000000; stroke-width: 2"/>
      </g>
     </g>
     <g id="text_12">
      <text style="font: 700 10px 'DejaVu Sans', 'Bitstream Vera Sans', 'Computer Modern Sans Serif', 'Lucida Grande', 'Verdana', 'Geneva', 'Lucid', 'Arial', 'Helvetica', 'Avant Garde', sans-serif; text-anchor: end" x="38.592188" y="117.152814" transform="rotate(-0 38.592188 117.152814)">2.0</text>
     </g>
    </g>
    <g id="ytick_6">
     <g id="line2d_23">
      <g>
       <use xlink:href="#m64f49649e6" x="43.592188" y="82.991102" style="stroke: #000000; stroke-width: 2"/>
      </g>
     </g>
     <g id="line2d_24">
      <g>
       <use xlink:href="#mc4427a1dc0" x="422.672187" y="82.991102" style="stroke: #000000; stroke-width: 2"/>
      </g>
     </g>
     <g id="text_13">
      <text style="font: 700 10px 'DejaVu Sans', 'Bitstream Vera Sans', 'Computer Modern Sans Serif', 'Lucida Grande', 'Verdana', 'Geneva', 'Lucid', 'Arial', 'Helvetica', 'Avant Garde', sans-serif; text-anchor: end" x="38.592188" y="86.79032" transform="rotate(-0 38.592188 86.79032)">2.5</text>
     </g>
    </g>
    <g id="ytick_7">
     <g id="line2d_25">
      <g>
       <use xlink:href="#m64f49649e6" x="43.592188" y="52.628608" style="stroke: #000000; stroke-width: 2"/>
      </g>
     </g>
     <g id="line2d_26">
      <g>
       <use xlink:href="#mc4427a1dc0" x="422.672187" y="52.628608" style="stroke: #000000; stroke-width: 2"/>
      </g>
     </g>
     <g id="text_14">
      <text style="font: 700 10px 'DejaVu Sans', 'Bitstream Vera Sans', 'Computer Modern Sans Serif', 'Lucida Grande', 'Verdana', 'Geneva', 'Lucid', 'Arial', 'Helvetica', 'Avant Garde', sans-serif; text-anchor: end" x="38.592188" y="56.427826" transform="rotate(-0 38.592188 56.427826)">3.0</text>
     </g>
    </g>
    <g id="text_15">
     <text style="font: 700 10px 'DejaVu Sans', 'Bitstream Vera Sans', 'Computer Modern Sans Serif', 'Lucida Grande', 'Verdana', 'Geneva', 'Lucid', 'Arial', 'Helvetica', 'Avant Garde', sans-serif; text-anchor: middle" x="14.798438" y="133.618125" transform="rotate(-90 14.798438 133.618125)">loss</text>
    </g>
   </g>
   <g id="line2d_27">
    <path d="M 60.823097 181.193476 
L 67.856121 224.260461 
L 74.889145 234.101934 
L 81.922169 234.5097 
L 88.955193 234.626559 
L 95.988217 234.66767 
L 103.021241 234.683593 
L 110.054265 234.6971 
L 117.08729 234.731101 
L 124.120314 234.698422 
L 131.153338 234.696613 
L 138.186362 234.730014 
L 145.219386 234.757726 
L 152.25241 234.764222 
L 159.285434 234.770315 
L 166.318458 234.774098 
L 173.351482 234.774366 
L 180.384507 234.763183 
L 187.417531 234.749774 
L 194.450555 234.782229 
L 201.483579 234.785825 
L 208.516603 234.776464 
L 215.549627 234.772664 
L 222.582651 234.781687 
L 229.615675 234.733174 
L 236.6487 234.776344 
L 243.681724 234.739305 
L 250.714748 234.794245 
L 257.747772 234.787836 
L 264.780796 234.787563 
L 271.81382 234.766586 
L 278.846844 234.773653 
L 285.879868 234.792895 
L 292.912893 234.762725 
L 299.945917 234.765476 
L 306.978941 234.734617 
L 314.011965 234.779048 
L 321.044989 234.747441 
L 328.078013 234.795926 
L 335.111037 234.796854 
L 342.144061 234.795461 
L 349.177085 234.790974 
L 356.21011 234.79789 
L 363.243134 234.798442 
L 370.276158 234.796705 
L 377.309182 234.79832 
L 384.342206 234.797955 
L 391.37523 234.795963 
L 398.408254 234.799159 
L 405.441278 234.799943 
" clip-path="url(#p8cdcfdfded)" style="fill: none; stroke: #ff0000; stroke-width: 1.5; stroke-linecap: square"/>
   </g>
   <g id="line2d_28">
    <path d="M 60.823097 171.31415 
L 67.856121 102.637195 
L 74.889145 80.731095 
L 81.922169 78.966285 
L 88.955193 75.603517 
L 95.988217 78.306874 
L 103.021241 78.178177 
L 110.054265 73.821536 
L 117.08729 77.401326 
L 124.120314 72.822123 
L 131.153338 71.106907 
L 138.186362 67.326696 
L 145.219386 69.448579 
L 152.25241 68.478653 
L 159.285434 64.639186 
L 166.318458 60.902843 
L 173.351482 61.843601 
L 180.384507 57.598793 
L 187.417531 57.483522 
L 194.450555 59.593533 
L 201.483579 56.648715 
L 208.516603 57.33726 
L 215.549627 52.789879 
L 222.582651 58.662017 
L 229.615675 53.297812 
L 236.6487 53.482431 
L 243.681724 47.731108 
L 250.714748 52.013234 
L 257.747772 47.890255 
L 264.780796 46.840482 
L 271.81382 43.519893 
L 278.846844 49.250563 
L 285.879868 40.636683 
L 292.912893 43.040816 
L 299.945917 46.768459 
L 306.978941 42.893844 
L 314.011965 40.318279 
L 321.044989 39.222978 
L 328.078013 37.045038 
L 335.111037 38.053743 
L 342.144061 37.14225 
L 349.177085 37.031497 
L 356.21011 34.109748 
L 363.243134 38.956768 
L 370.276158 32.436307 
L 377.309182 35.953732 
L 384.342206 34.689058 
L 391.37523 33.998854 
L 398.408254 36.909186 
L 405.441278 34.881651 
" clip-path="url(#p8cdcfdfded)" style="fill: none; stroke: #0000ff; stroke-width: 1.5; stroke-linecap: square"/>
   </g>
   <g id="patch_3">
    <path d="M 43.592188 244.918125 
L 43.592188 22.318125 
" style="fill: none; stroke: #000000; stroke-width: 2; stroke-linejoin: miter; stroke-linecap: square"/>
   </g>
   <g id="patch_4">
    <path d="M 422.672187 244.918125 
L 422.672187 22.318125 
" style="fill: none; stroke: #000000; stroke-width: 2; stroke-linejoin: miter; stroke-linecap: square"/>
   </g>
   <g id="patch_5">
    <path d="M 43.592188 244.918125 
L 422.672187 244.918125 
" style="fill: none; stroke: #000000; stroke-width: 2; stroke-linejoin: miter; stroke-linecap: square"/>
   </g>
   <g id="patch_6">
    <path d="M 43.592188 22.318125 
L 422.672187 22.318125 
" style="fill: none; stroke: #000000; stroke-width: 2; stroke-linejoin: miter; stroke-linecap: square"/>
   </g>
   <g id="text_16">
    <text style="font: 700 12px 'DejaVu Sans', 'Bitstream Vera Sans', 'Computer Modern Sans Serif', 'Lucida Grande', 'Verdana', 'Geneva', 'Lucid', 'Arial', 'Helvetica', 'Avant Garde', sans-serif; text-anchor: middle" x="233.132187" y="16.318125" transform="rotate(-0 233.132187 16.318125)">dist</text>
   </g>
   <g id="legend_1">
    <g id="patch_7">
     <path d="M 50.592188 59.7525 
L 164.501563 59.7525 
Q 166.501563 59.7525 166.501563 57.7525 
L 166.501563 29.318125 
Q 166.501563 27.318125 164.501563 27.318125 
L 50.592188 27.318125 
Q 48.592188 27.318125 48.592188 29.318125 
L 48.592188 57.7525 
Q 48.592188 59.7525 50.592188 59.7525 
z
" style="fill: #ffffff; opacity: 0.8; stroke: #cccccc; stroke-linejoin: miter"/>
    </g>
    <g id="line2d_29">
     <path d="M 52.592188 35.416563 
L 62.592188 35.416563 
L 72.592187 35.416563 
" style="fill: none; stroke: #ff0000; stroke-width: 1.5; stroke-linecap: square"/>
    </g>
    <g id="text_17">
     <text style="font: 700 10px 'DejaVu Sans', 'Bitstream Vera Sans', 'Computer Modern Sans Serif', 'Lucida Grande', 'Verdana', 'Geneva', 'Lucid', 'Arial', 'Helvetica', 'Avant Garde', sans-serif; text-anchor: start" x="80.592187" y="38.916563" transform="rotate(-0 80.592187 38.916563)">training loss</text>
    </g>
    <g id="line2d_30">
     <path d="M 52.592188 50.172813 
L 62.592188 50.172813 
L 72.592187 50.172813 
" style="fill: none; stroke: #0000ff; stroke-width: 1.5; stroke-linecap: square"/>
    </g>
    <g id="text_18">
     <text style="font: 700 10px 'DejaVu Sans', 'Bitstream Vera Sans', 'Computer Modern Sans Serif', 'Lucida Grande', 'Verdana', 'Geneva', 'Lucid', 'Arial', 'Helvetica', 'Avant Garde', sans-serif; text-anchor: start" x="80.592187" y="53.672813" transform="rotate(-0 80.592187 53.672813)">validation loss</text>
    </g>
   </g>
  </g>
  <g id="axes_2">
   <g id="patch_8">
    <path d="M 470.192187 244.918125 
L 849.272187 244.918125 
L 849.272187 22.318125 
L 470.192187 22.318125 
z
" style="fill: #ffffff"/>
   </g>
   <g id="matplotlib.axis_3">
    <g id="xtick_7">
     <g id="line2d_31">
      <g>
       <use xlink:href="#m0beb404db7" x="487.423097" y="244.918125" style="stroke: #000000; stroke-width: 2"/>
      </g>
     </g>
     <g id="line2d_32">
      <g>
       <use xlink:href="#me74083bef9" x="487.423097" y="22.318125" style="stroke: #000000; stroke-width: 2"/>
      </g>
     </g>
     <g id="text_19">
      <text style="font: 700 10px 'DejaVu Sans', 'Bitstream Vera Sans', 'Computer Modern Sans Serif', 'Lucida Grande', 'Verdana', 'Geneva', 'Lucid', 'Arial', 'Helvetica', 'Avant Garde', sans-serif; text-anchor: middle" x="487.423097" y="257.516563" transform="rotate(-0 487.423097 257.516563)">0</text>
     </g>
    </g>
    <g id="xtick_8">
     <g id="line2d_33">
      <g>
       <use xlink:href="#m0beb404db7" x="557.753338" y="244.918125" style="stroke: #000000; stroke-width: 2"/>
      </g>
     </g>
     <g id="line2d_34">
      <g>
       <use xlink:href="#me74083bef9" x="557.753338" y="22.318125" style="stroke: #000000; stroke-width: 2"/>
      </g>
     </g>
     <g id="text_20">
      <text style="font: 700 10px 'DejaVu Sans', 'Bitstream Vera Sans', 'Computer Modern Sans Serif', 'Lucida Grande', 'Verdana', 'Geneva', 'Lucid', 'Arial', 'Helvetica', 'Avant Garde', sans-serif; text-anchor: middle" x="557.753338" y="257.516563" transform="rotate(-0 557.753338 257.516563)">10</text>
     </g>
    </g>
    <g id="xtick_9">
     <g id="line2d_35">
      <g>
       <use xlink:href="#m0beb404db7" x="628.083579" y="244.918125" style="stroke: #000000; stroke-width: 2"/>
      </g>
     </g>
     <g id="line2d_36">
      <g>
       <use xlink:href="#me74083bef9" x="628.083579" y="22.318125" style="stroke: #000000; stroke-width: 2"/>
      </g>
     </g>
     <g id="text_21">
      <text style="font: 700 10px 'DejaVu Sans', 'Bitstream Vera Sans', 'Computer Modern Sans Serif', 'Lucida Grande', 'Verdana', 'Geneva', 'Lucid', 'Arial', 'Helvetica', 'Avant Garde', sans-serif; text-anchor: middle" x="628.083579" y="257.516563" transform="rotate(-0 628.083579 257.516563)">20</text>
     </g>
    </g>
    <g id="xtick_10">
     <g id="line2d_37">
      <g>
       <use xlink:href="#m0beb404db7" x="698.41382" y="244.918125" style="stroke: #000000; stroke-width: 2"/>
      </g>
     </g>
     <g id="line2d_38">
      <g>
       <use xlink:href="#me74083bef9" x="698.41382" y="22.318125" style="stroke: #000000; stroke-width: 2"/>
      </g>
     </g>
     <g id="text_22">
      <text style="font: 700 10px 'DejaVu Sans', 'Bitstream Vera Sans', 'Computer Modern Sans Serif', 'Lucida Grande', 'Verdana', 'Geneva', 'Lucid', 'Arial', 'Helvetica', 'Avant Garde', sans-serif; text-anchor: middle" x="698.41382" y="257.516563" transform="rotate(-0 698.41382 257.516563)">30</text>
     </g>
    </g>
    <g id="xtick_11">
     <g id="line2d_39">
      <g>
       <use xlink:href="#m0beb404db7" x="768.744061" y="244.918125" style="stroke: #000000; stroke-width: 2"/>
      </g>
     </g>
     <g id="line2d_40">
      <g>
       <use xlink:href="#me74083bef9" x="768.744061" y="22.318125" style="stroke: #000000; stroke-width: 2"/>
      </g>
     </g>
     <g id="text_23">
      <text style="font: 700 10px 'DejaVu Sans', 'Bitstream Vera Sans', 'Computer Modern Sans Serif', 'Lucida Grande', 'Verdana', 'Geneva', 'Lucid', 'Arial', 'Helvetica', 'Avant Garde', sans-serif; text-anchor: middle" x="768.744061" y="257.516563" transform="rotate(-0 768.744061 257.516563)">40</text>
     </g>
    </g>
    <g id="xtick_12">
     <g id="line2d_41">
      <g>
       <use xlink:href="#m0beb404db7" x="839.074303" y="244.918125" style="stroke: #000000; stroke-width: 2"/>
      </g>
     </g>
     <g id="line2d_42">
      <g>
       <use xlink:href="#me74083bef9" x="839.074303" y="22.318125" style="stroke: #000000; stroke-width: 2"/>
      </g>
     </g>
     <g id="text_24">
      <text style="font: 700 10px 'DejaVu Sans', 'Bitstream Vera Sans', 'Computer Modern Sans Serif', 'Lucida Grande', 'Verdana', 'Geneva', 'Lucid', 'Arial', 'Helvetica', 'Avant Garde', sans-serif; text-anchor: middle" x="839.074303" y="257.516563" transform="rotate(-0 839.074303 257.516563)">50</text>
     </g>
    </g>
    <g id="text_25">
     <text style="font: 700 10px 'DejaVu Sans', 'Bitstream Vera Sans', 'Computer Modern Sans Serif', 'Lucida Grande', 'Verdana', 'Geneva', 'Lucid', 'Arial', 'Helvetica', 'Avant Garde', sans-serif; text-anchor: middle" x="659.732188" y="271.194687" transform="rotate(-0 659.732188 271.194687)">epoch</text>
    </g>
   </g>
   <g id="matplotlib.axis_4">
    <g id="ytick_8">
     <g id="line2d_43">
      <g>
       <use xlink:href="#m64f49649e6" x="470.192187" y="236.244787" style="stroke: #000000; stroke-width: 2"/>
      </g>
     </g>
     <g id="line2d_44">
      <g>
       <use xlink:href="#mc4427a1dc0" x="849.272187" y="236.244787" style="stroke: #000000; stroke-width: 2"/>
      </g>
     </g>
     <g id="text_26">
      <text style="font: 700 10px 'DejaVu Sans', 'Bitstream Vera Sans', 'Computer Modern Sans Serif', 'Lucida Grande', 'Verdana', 'Geneva', 'Lucid', 'Arial', 'Helvetica', 'Avant Garde', sans-serif; text-anchor: end" x="465.192187" y="240.044005" transform="rotate(-0 465.192187 240.044005)">0.0</text>
     </g>
    </g>
    <g id="ytick_9">
     <g id="line2d_45">
      <g>
       <use xlink:href="#m64f49649e6" x="470.192187" y="196.983268" style="stroke: #000000; stroke-width: 2"/>
      </g>
     </g>
     <g id="line2d_46">
      <g>
       <use xlink:href="#mc4427a1dc0" x="849.272187" y="196.983268" style="stroke: #000000; stroke-width: 2"/>
      </g>
     </g>
     <g id="text_27">
      <text style="font: 700 10px 'DejaVu Sans', 'Bitstream Vera Sans', 'Computer Modern Sans Serif', 'Lucida Grande', 'Verdana', 'Geneva', 'Lucid', 'Arial', 'Helvetica', 'Avant Garde', sans-serif; text-anchor: end" x="465.192187" y="200.782486" transform="rotate(-0 465.192187 200.782486)">0.2</text>
     </g>
    </g>
    <g id="ytick_10">
     <g id="line2d_47">
      <g>
       <use xlink:href="#m64f49649e6" x="470.192187" y="157.721749" style="stroke: #000000; stroke-width: 2"/>
      </g>
     </g>
     <g id="line2d_48">
      <g>
       <use xlink:href="#mc4427a1dc0" x="849.272187" y="157.721749" style="stroke: #000000; stroke-width: 2"/>
      </g>
     </g>
     <g id="text_28">
      <text style="font: 700 10px 'DejaVu Sans', 'Bitstream Vera Sans', 'Computer Modern Sans Serif', 'Lucida Grande', 'Verdana', 'Geneva', 'Lucid', 'Arial', 'Helvetica', 'Avant Garde', sans-serif; text-anchor: end" x="465.192187" y="161.520968" transform="rotate(-0 465.192187 161.520968)">0.4</text>
     </g>
    </g>
    <g id="ytick_11">
     <g id="line2d_49">
      <g>
       <use xlink:href="#m64f49649e6" x="470.192187" y="118.46023" style="stroke: #000000; stroke-width: 2"/>
      </g>
     </g>
     <g id="line2d_50">
      <g>
       <use xlink:href="#mc4427a1dc0" x="849.272187" y="118.46023" style="stroke: #000000; stroke-width: 2"/>
      </g>
     </g>
     <g id="text_29">
      <text style="font: 700 10px 'DejaVu Sans', 'Bitstream Vera Sans', 'Computer Modern Sans Serif', 'Lucida Grande', 'Verdana', 'Geneva', 'Lucid', 'Arial', 'Helvetica', 'Avant Garde', sans-serif; text-anchor: end" x="465.192187" y="122.259449" transform="rotate(-0 465.192187 122.259449)">0.6</text>
     </g>
    </g>
    <g id="ytick_12">
     <g id="line2d_51">
      <g>
       <use xlink:href="#m64f49649e6" x="470.192187" y="79.198711" style="stroke: #000000; stroke-width: 2"/>
      </g>
     </g>
     <g id="line2d_52">
      <g>
       <use xlink:href="#mc4427a1dc0" x="849.272187" y="79.198711" style="stroke: #000000; stroke-width: 2"/>
      </g>
     </g>
     <g id="text_30">
      <text style="font: 700 10px 'DejaVu Sans', 'Bitstream Vera Sans', 'Computer Modern Sans Serif', 'Lucida Grande', 'Verdana', 'Geneva', 'Lucid', 'Arial', 'Helvetica', 'Avant Garde', sans-serif; text-anchor: end" x="465.192187" y="82.99793" transform="rotate(-0 465.192187 82.99793)">0.8</text>
     </g>
    </g>
    <g id="ytick_13">
     <g id="line2d_53">
      <g>
       <use xlink:href="#m64f49649e6" x="470.192187" y="39.937192" style="stroke: #000000; stroke-width: 2"/>
      </g>
     </g>
     <g id="line2d_54">
      <g>
       <use xlink:href="#mc4427a1dc0" x="849.272187" y="39.937192" style="stroke: #000000; stroke-width: 2"/>
      </g>
     </g>
     <g id="text_31">
      <text style="font: 700 10px 'DejaVu Sans', 'Bitstream Vera Sans', 'Computer Modern Sans Serif', 'Lucida Grande', 'Verdana', 'Geneva', 'Lucid', 'Arial', 'Helvetica', 'Avant Garde', sans-serif; text-anchor: end" x="465.192187" y="43.736411" transform="rotate(-0 465.192187 43.736411)">1.0</text>
     </g>
    </g>
    <g id="text_32">
     <text style="font: 700 10px 'DejaVu Sans', 'Bitstream Vera Sans', 'Computer Modern Sans Serif', 'Lucida Grande', 'Verdana', 'Geneva', 'Lucid', 'Arial', 'Helvetica', 'Avant Garde', sans-serif; text-anchor: middle" x="441.398437" y="133.618125" transform="rotate(-90 441.398437 133.618125)">loss</text>
    </g>
   </g>
   <g id="line2d_55">
    <path d="M 487.423097 32.436307 
L 494.456121 96.243994 
L 501.489145 179.1751 
L 508.522169 206.800558 
L 515.555193 215.145581 
L 522.588217 219.227755 
L 529.621241 222.037963 
L 536.654265 223.8697 
L 543.68729 225.506539 
L 550.720314 226.72649 
L 557.753338 227.944183 
L 564.786362 228.657592 
L 571.819386 229.632936 
L 578.85241 230.118299 
L 585.885434 230.833151 
L 592.918458 231.172019 
L 599.951482 231.571386 
L 606.984507 231.964123 
L 614.017531 232.407314 
L 621.050555 232.693704 
L 628.083579 232.882733 
L 635.116603 232.854093 
L 642.149627 233.20076 
L 649.182651 233.390982 
L 656.215675 233.485025 
L 663.2487 233.627317 
L 670.281724 233.667747 
L 677.314748 233.807161 
L 684.347772 233.955592 
L 691.380796 234.049185 
L 698.41382 234.145229 
L 705.446844 234.237861 
L 712.479868 234.28577 
L 719.512893 234.352838 
L 726.545917 234.397247 
L 733.578941 234.424674 
L 740.611965 234.501516 
L 747.644989 234.543158 
L 754.678013 234.521812 
L 761.711037 234.563919 
L 768.744061 234.589275 
L 775.777085 234.641373 
L 782.81011 234.540671 
L 789.843134 234.68514 
L 796.876158 234.720878 
L 803.909182 234.749333 
L 810.942206 234.768207 
L 817.97523 234.753699 
L 825.008254 234.790785 
L 832.041278 234.799943 
" clip-path="url(#pd7164fa972)" style="fill: none; stroke: #ff0000; stroke-width: 1.5; stroke-linecap: square"/>
   </g>
   <g id="line2d_56">
    <path d="M 487.423097 39.716934 
L 494.456121 94.733272 
L 501.489145 138.933738 
L 508.522169 169.161598 
L 515.555193 183.615134 
L 522.588217 186.566471 
L 529.621241 189.832873 
L 536.654265 188.483036 
L 543.68729 194.207742 
L 550.720314 194.135542 
L 557.753338 194.878734 
L 564.786362 193.743476 
L 571.819386 195.793551 
L 578.85241 193.356489 
L 585.885434 195.871346 
L 592.918458 197.24273 
L 599.951482 195.164762 
L 606.984507 196.150844 
L 614.017531 194.958504 
L 621.050555 195.764682 
L 628.083579 194.318881 
L 635.116603 196.110046 
L 642.149627 192.962444 
L 649.182651 196.439338 
L 656.215675 195.073766 
L 663.2487 196.996485 
L 670.281724 195.402522 
L 677.314748 193.351776 
L 684.347772 195.925977 
L 691.380796 193.523425 
L 698.41382 197.274291 
L 705.446844 194.674958 
L 712.479868 195.685785 
L 719.512893 196.032959 
L 726.545917 194.595753 
L 733.578941 192.978603 
L 740.611965 194.151777 
L 747.644989 194.484494 
L 754.678013 192.829847 
L 761.711037 194.603431 
L 768.744061 195.442803 
L 775.777085 193.922665 
L 782.81011 196.059207 
L 789.843134 194.365462 
L 796.876158 195.274399 
L 803.909182 194.58177 
L 810.942206 195.059768 
L 817.97523 193.384252 
L 825.008254 195.713504 
L 832.041278 195.790236 
" clip-path="url(#pd7164fa972)" style="fill: none; stroke: #0000ff; stroke-width: 1.5; stroke-linecap: square"/>
   </g>
   <g id="patch_9">
    <path d="M 470.192187 244.918125 
L 470.192187 22.318125 
" style="fill: none; stroke: #000000; stroke-width: 2; stroke-linejoin: miter; stroke-linecap: square"/>
   </g>
   <g id="patch_10">
    <path d="M 849.272187 244.918125 
L 849.272187 22.318125 
" style="fill: none; stroke: #000000; stroke-width: 2; stroke-linejoin: miter; stroke-linecap: square"/>
   </g>
   <g id="patch_11">
    <path d="M 470.192187 244.918125 
L 849.272187 244.918125 
" style="fill: none; stroke: #000000; stroke-width: 2; stroke-linejoin: miter; stroke-linecap: square"/>
   </g>
   <g id="patch_12">
    <path d="M 470.192187 22.318125 
L 849.272187 22.318125 
" style="fill: none; stroke: #000000; stroke-width: 2; stroke-linejoin: miter; stroke-linecap: square"/>
   </g>
   <g id="text_33">
    <text style="font: 700 12px 'DejaVu Sans', 'Bitstream Vera Sans', 'Computer Modern Sans Serif', 'Lucida Grande', 'Verdana', 'Geneva', 'Lucid', 'Arial', 'Helvetica', 'Avant Garde', sans-serif; text-anchor: middle" x="659.732188" y="16.318125" transform="rotate(-0 659.732188 16.318125)">charge</text>
   </g>
   <g id="legend_2">
    <g id="patch_13">
     <path d="M 728.362813 59.7525 
L 842.272187 59.7525 
Q 844.272187 59.7525 844.272187 57.7525 
L 844.272187 29.318125 
Q 844.272187 27.318125 842.272187 27.318125 
L 728.362813 27.318125 
Q 726.362813 27.318125 726.362813 29.318125 
L 726.362813 57.7525 
Q 726.362813 59.7525 728.362813 59.7525 
z
" style="fill: #ffffff; opacity: 0.8; stroke: #cccccc; stroke-linejoin: miter"/>
    </g>
    <g id="line2d_57">
     <path d="M 730.362813 35.416563 
L 740.362813 35.416563 
L 750.362813 35.416563 
" style="fill: none; stroke: #ff0000; stroke-width: 1.5; stroke-linecap: square"/>
    </g>
    <g id="text_34">
     <text style="font: 700 10px 'DejaVu Sans', 'Bitstream Vera Sans', 'Computer Modern Sans Serif', 'Lucida Grande', 'Verdana', 'Geneva', 'Lucid', 'Arial', 'Helvetica', 'Avant Garde', sans-serif; text-anchor: start" x="758.362813" y="38.916563" transform="rotate(-0 758.362813 38.916563)">training loss</text>
    </g>
    <g id="line2d_58">
     <path d="M 730.362813 50.172813 
L 740.362813 50.172813 
L 750.362813 50.172813 
" style="fill: none; stroke: #0000ff; stroke-width: 1.5; stroke-linecap: square"/>
    </g>
    <g id="text_35">
     <text style="font: 700 10px 'DejaVu Sans', 'Bitstream Vera Sans', 'Computer Modern Sans Serif', 'Lucida Grande', 'Verdana', 'Geneva', 'Lucid', 'Arial', 'Helvetica', 'Avant Garde', sans-serif; text-anchor: start" x="758.362813" y="53.672813" transform="rotate(-0 758.362813 53.672813)">validation loss</text>
    </g>
   </g>
  </g>
 </g>
 <defs>
  <clipPath id="p8cdcfdfded">
   <rect x="43.592188" y="22.318125" width="379.08" height="222.6"/>
  </clipPath>
  <clipPath id="pd7164fa972">
   <rect x="470.192187" y="22.318125" width="379.08" height="222.6"/>
  </clipPath>
 </defs>
</svg>
