<?xml version="1.0" encoding="utf-8" standalone="no"?>
<!DOCTYPE svg PUBLIC "-//W3C//DTD SVG 1.1//EN"
  "http://www.w3.org/Graphics/SVG/1.1/DTD/svg11.dtd">
<svg xmlns:xlink="http://www.w3.org/1999/xlink" width="416.769219pt" height="323.986375pt" viewBox="0 0 416.769219 323.986375" xmlns="http://www.w3.org/2000/svg" version="1.1">
 <metadata>
  <rdf:RDF xmlns:dc="http://purl.org/dc/elements/1.1/" xmlns:cc="http://creativecommons.org/ns#" xmlns:rdf="http://www.w3.org/1999/02/22-rdf-syntax-ns#">
   <cc:Work>
    <dc:type rdf:resource="http://purl.org/dc/dcmitype/StillImage"/>
    <dc:date>2023-10-03T22:53:46.614928</dc:date>
    <dc:format>image/svg+xml</dc:format>
    <dc:creator>
     <cc:Agent>
      <dc:title>Matplotlib v3.7.3, https://matplotlib.org/</dc:title>
     </cc:Agent>
    </dc:creator>
   </cc:Work>
  </rdf:RDF>
 </metadata>
 <defs>
  <style type="text/css">*{stroke-linejoin: round; stroke-linecap: butt}</style>
 </defs>
 <g id="figure_1">
  <g id="patch_1">
   <path d="M 0 323.986375 
L 416.769219 323.986375 
L 416.769219 0 
L 0 0 
z
" style="fill: #ffffff"/>
  </g>
  <g id="axes_1">
   <g id="patch_2">
    <path d="M 43.592188 288.430125 
L 400.712188 288.430125 
L 400.712188 22.318125 
L 43.592188 22.318125 
z
" style="fill: #ffffff"/>
   </g>
   <g id="matplotlib.axis_1">
    <g id="xtick_1">
     <g id="line2d_1">
      <defs>
       <path id="m074f787715" d="M 0 0 
L 0 -7 
" style="stroke: #000000; stroke-width: 2"/>
      </defs>
      <g>
       <use xlink:href="#m074f787715" x="60.597902" y="288.430125" style="stroke: #000000; stroke-width: 2"/>
      </g>
     </g>
     <g id="line2d_2">
      <defs>
       <path id="m4dcb248824" d="M 0 0 
L 0 7 
" style="stroke: #000000; stroke-width: 2"/>
      </defs>
      <g>
       <use xlink:href="#m4dcb248824" x="60.597902" y="22.318125" style="stroke: #000000; stroke-width: 2"/>
      </g>
     </g>
     <g id="text_1">
      <text style="font: 700 10px 'DejaVu Sans', 'Bitstream Vera Sans', 'Computer Modern Sans Serif', 'Lucida Grande', 'Verdana', 'Geneva', 'Lucid', 'Arial', 'Helvetica', 'Avant Garde', sans-serif; text-anchor: middle" x="60.597902" y="301.028562" transform="rotate(-0 60.597902 301.028562)">0.0</text>
     </g>
    </g>
    <g id="xtick_2">
     <g id="line2d_3">
      <g>
       <use xlink:href="#m074f787715" x="128.620759" y="288.430125" style="stroke: #000000; stroke-width: 2"/>
      </g>
     </g>
     <g id="line2d_4">
      <g>
       <use xlink:href="#m4dcb248824" x="128.620759" y="22.318125" style="stroke: #000000; stroke-width: 2"/>
      </g>
     </g>
     <g id="text_2">
      <text style="font: 700 10px 'DejaVu Sans', 'Bitstream Vera Sans', 'Computer Modern Sans Serif', 'Lucida Grande', 'Verdana', 'Geneva', 'Lucid', 'Arial', 'Helvetica', 'Avant Garde', sans-serif; text-anchor: middle" x="128.620759" y="301.028562" transform="rotate(-0 128.620759 301.028562)">0.2</text>
     </g>
    </g>
    <g id="xtick_3">
     <g id="line2d_5">
      <g>
       <use xlink:href="#m074f787715" x="196.643616" y="288.430125" style="stroke: #000000; stroke-width: 2"/>
      </g>
     </g>
     <g id="line2d_6">
      <g>
       <use xlink:href="#m4dcb248824" x="196.643616" y="22.318125" style="stroke: #000000; stroke-width: 2"/>
      </g>
     </g>
     <g id="text_3">
      <text style="font: 700 10px 'DejaVu Sans', 'Bitstream Vera Sans', 'Computer Modern Sans Serif', 'Lucida Grande', 'Verdana', 'Geneva', 'Lucid', 'Arial', 'Helvetica', 'Avant Garde', sans-serif; text-anchor: middle" x="196.643616" y="301.028562" transform="rotate(-0 196.643616 301.028562)">0.4</text>
     </g>
    </g>
    <g id="xtick_4">
     <g id="line2d_7">
      <g>
       <use xlink:href="#m074f787715" x="264.666473" y="288.430125" style="stroke: #000000; stroke-width: 2"/>
      </g>
     </g>
     <g id="line2d_8">
      <g>
       <use xlink:href="#m4dcb248824" x="264.666473" y="22.318125" style="stroke: #000000; stroke-width: 2"/>
      </g>
     </g>
     <g id="text_4">
      <text style="font: 700 10px 'DejaVu Sans', 'Bitstream Vera Sans', 'Computer Modern Sans Serif', 'Lucida Grande', 'Verdana', 'Geneva', 'Lucid', 'Arial', 'Helvetica', 'Avant Garde', sans-serif; text-anchor: middle" x="264.666473" y="301.028562" transform="rotate(-0 264.666473 301.028562)">0.6</text>
     </g>
    </g>
    <g id="xtick_5">
     <g id="line2d_9">
      <g>
       <use xlink:href="#m074f787715" x="332.68933" y="288.430125" style="stroke: #000000; stroke-width: 2"/>
      </g>
     </g>
     <g id="line2d_10">
      <g>
       <use xlink:href="#m4dcb248824" x="332.68933" y="22.318125" style="stroke: #000000; stroke-width: 2"/>
      </g>
     </g>
     <g id="text_5">
      <text style="font: 700 10px 'DejaVu Sans', 'Bitstream Vera Sans', 'Computer Modern Sans Serif', 'Lucida Grande', 'Verdana', 'Geneva', 'Lucid', 'Arial', 'Helvetica', 'Avant Garde', sans-serif; text-anchor: middle" x="332.68933" y="301.028562" transform="rotate(-0 332.68933 301.028562)">0.8</text>
     </g>
    </g>
    <g id="xtick_6">
     <g id="line2d_11">
      <g>
       <use xlink:href="#m074f787715" x="400.712188" y="288.430125" style="stroke: #000000; stroke-width: 2"/>
      </g>
     </g>
     <g id="line2d_12">
      <g>
       <use xlink:href="#m4dcb248824" x="400.712188" y="22.318125" style="stroke: #000000; stroke-width: 2"/>
      </g>
     </g>
     <g id="text_6">
      <text style="font: 700 10px 'DejaVu Sans', 'Bitstream Vera Sans', 'Computer Modern Sans Serif', 'Lucida Grande', 'Verdana', 'Geneva', 'Lucid', 'Arial', 'Helvetica', 'Avant Garde', sans-serif; text-anchor: middle" x="400.712188" y="301.028562" transform="rotate(-0 400.712188 301.028562)">1.0</text>
     </g>
    </g>
    <g id="text_7">
     <text style="font: 700 10px 'DejaVu Sans', 'Bitstream Vera Sans', 'Computer Modern Sans Serif', 'Lucida Grande', 'Verdana', 'Geneva', 'Lucid', 'Arial', 'Helvetica', 'Avant Garde', sans-serif; text-anchor: middle" x="222.152188" y="314.706687" transform="rotate(-0 222.152188 314.706687)">false positive rate</text>
    </g>
   </g>
   <g id="matplotlib.axis_2">
    <g id="ytick_1">
     <g id="line2d_13">
      <defs>
       <path id="m5ea5542d49" d="M 0 0 
L 7 0 
" style="stroke: #000000; stroke-width: 2"/>
      </defs>
      <g>
       <use xlink:href="#m5ea5542d49" x="43.592188" y="288.430125" style="stroke: #000000; stroke-width: 2"/>
      </g>
     </g>
     <g id="line2d_14">
      <defs>
       <path id="m0dbe568d97" d="M 0 0 
L -7 0 
" style="stroke: #000000; stroke-width: 2"/>
      </defs>
      <g>
       <use xlink:href="#m0dbe568d97" x="400.712188" y="288.430125" style="stroke: #000000; stroke-width: 2"/>
      </g>
     </g>
     <g id="text_8">
      <text style="font: 700 10px 'DejaVu Sans', 'Bitstream Vera Sans', 'Computer Modern Sans Serif', 'Lucida Grande', 'Verdana', 'Geneva', 'Lucid', 'Arial', 'Helvetica', 'Avant Garde', sans-serif; text-anchor: end" x="38.592188" y="292.229344" transform="rotate(-0 38.592188 292.229344)">0.0</text>
     </g>
    </g>
    <g id="ytick_2">
     <g id="line2d_15">
      <g>
       <use xlink:href="#m5ea5542d49" x="43.592188" y="237.742125" style="stroke: #000000; stroke-width: 2"/>
      </g>
     </g>
     <g id="line2d_16">
      <g>
       <use xlink:href="#m0dbe568d97" x="400.712188" y="237.742125" style="stroke: #000000; stroke-width: 2"/>
      </g>
     </g>
     <g id="text_9">
      <text style="font: 700 10px 'DejaVu Sans', 'Bitstream Vera Sans', 'Computer Modern Sans Serif', 'Lucida Grande', 'Verdana', 'Geneva', 'Lucid', 'Arial', 'Helvetica', 'Avant Garde', sans-serif; text-anchor: end" x="38.592188" y="241.541344" transform="rotate(-0 38.592188 241.541344)">0.2</text>
     </g>
    </g>
    <g id="ytick_3">
     <g id="line2d_17">
      <g>
       <use xlink:href="#m5ea5542d49" x="43.592188" y="187.054125" style="stroke: #000000; stroke-width: 2"/>
      </g>
     </g>
     <g id="line2d_18">
      <g>
       <use xlink:href="#m0dbe568d97" x="400.712188" y="187.054125" style="stroke: #000000; stroke-width: 2"/>
      </g>
     </g>
     <g id="text_10">
      <text style="font: 700 10px 'DejaVu Sans', 'Bitstream Vera Sans', 'Computer Modern Sans Serif', 'Lucida Grande', 'Verdana', 'Geneva', 'Lucid', 'Arial', 'Helvetica', 'Avant Garde', sans-serif; text-anchor: end" x="38.592188" y="190.853344" transform="rotate(-0 38.592188 190.853344)">0.4</text>
     </g>
    </g>
    <g id="ytick_4">
     <g id="line2d_19">
      <g>
       <use xlink:href="#m5ea5542d49" x="43.592188" y="136.366125" style="stroke: #000000; stroke-width: 2"/>
      </g>
     </g>
     <g id="line2d_20">
      <g>
       <use xlink:href="#m0dbe568d97" x="400.712188" y="136.366125" style="stroke: #000000; stroke-width: 2"/>
      </g>
     </g>
     <g id="text_11">
      <text style="font: 700 10px 'DejaVu Sans', 'Bitstream Vera Sans', 'Computer Modern Sans Serif', 'Lucida Grande', 'Verdana', 'Geneva', 'Lucid', 'Arial', 'Helvetica', 'Avant Garde', sans-serif; text-anchor: end" x="38.592188" y="140.165344" transform="rotate(-0 38.592188 140.165344)">0.6</text>
     </g>
    </g>
    <g id="ytick_5">
     <g id="line2d_21">
      <g>
       <use xlink:href="#m5ea5542d49" x="43.592188" y="85.678125" style="stroke: #000000; stroke-width: 2"/>
      </g>
     </g>
     <g id="line2d_22">
      <g>
       <use xlink:href="#m0dbe568d97" x="400.712188" y="85.678125" style="stroke: #000000; stroke-width: 2"/>
      </g>
     </g>
     <g id="text_12">
      <text style="font: 700 10px 'DejaVu Sans', 'Bitstream Vera Sans', 'Computer Modern Sans Serif', 'Lucida Grande', 'Verdana', 'Geneva', 'Lucid', 'Arial', 'Helvetica', 'Avant Garde', sans-serif; text-anchor: end" x="38.592188" y="89.477344" transform="rotate(-0 38.592188 89.477344)">0.8</text>
     </g>
    </g>
    <g id="ytick_6">
     <g id="line2d_23">
      <g>
       <use xlink:href="#m5ea5542d49" x="43.592188" y="34.990125" style="stroke: #000000; stroke-width: 2"/>
      </g>
     </g>
     <g id="line2d_24">
      <g>
       <use xlink:href="#m0dbe568d97" x="400.712188" y="34.990125" style="stroke: #000000; stroke-width: 2"/>
      </g>
     </g>
     <g id="text_13">
      <text style="font: 700 10px 'DejaVu Sans', 'Bitstream Vera Sans', 'Computer Modern Sans Serif', 'Lucida Grande', 'Verdana', 'Geneva', 'Lucid', 'Arial', 'Helvetica', 'Avant Garde', sans-serif; text-anchor: end" x="38.592188" y="38.789344" transform="rotate(-0 38.592188 38.789344)">1.0</text>
     </g>
    </g>
    <g id="text_14">
     <text style="font: 700 10px 'DejaVu Sans', 'Bitstream Vera Sans', 'Computer Modern Sans Serif', 'Lucida Grande', 'Verdana', 'Geneva', 'Lucid', 'Arial', 'Helvetica', 'Avant Garde', sans-serif; text-anchor: middle" x="14.798438" y="155.374125" transform="rotate(-90 14.798438 155.374125)">true positive rate</text>
    </g>
   </g>
   <g id="line2d_25">
    <path d="M 60.597902 288.430125 
L 60.597902 135.970125 
L 60.863616 135.970125 
L 60.863616 101.122125 
L 61.12933 101.122125 
L 61.12933 95.974125 
L 61.395045 95.974125 
L 61.395045 95.578125 
L 61.926473 95.578125 
L 61.926473 94.390125 
L 62.192188 94.390125 
L 62.192188 90.826125 
L 62.457902 90.826125 
L 62.457902 86.866125 
L 62.98933 86.866125 
L 62.98933 86.074125 
L 63.255045 86.074125 
L 63.255045 81.718125 
L 63.786473 81.718125 
L 63.786473 80.134125 
L 64.052188 80.134125 
L 64.052188 78.550125 
L 64.317902 78.550125 
L 64.317902 77.362125 
L 64.583616 77.362125 
L 64.583616 76.966125 
L 64.84933 76.966125 
L 64.84933 73.798125 
L 65.115045 73.798125 
L 65.115045 73.402125 
L 65.646473 73.402125 
L 65.646473 72.214125 
L 66.177902 72.214125 
L 66.177902 71.026125 
L 66.975045 71.026125 
L 66.975045 70.630125 
L 67.240759 70.630125 
L 67.240759 69.442125 
L 67.506473 69.442125 
L 67.506473 69.046125 
L 68.037902 69.046125 
L 68.037902 68.650125 
L 68.303616 68.650125 
L 68.303616 66.274125 
L 68.56933 66.274125 
L 68.56933 65.878125 
L 69.632188 65.878125 
L 69.632188 64.690125 
L 69.897902 64.690125 
L 69.897902 63.502125 
L 70.695045 63.502125 
L 70.695045 62.314125 
L 71.226473 62.314125 
L 71.226473 59.542125 
L 71.757902 59.542125 
L 71.757902 58.750125 
L 72.023616 58.750125 
L 72.023616 58.354125 
L 73.086473 58.354125 
L 73.086473 57.958125 
L 73.352187 57.958125 
L 73.352187 57.166125 
L 73.617902 57.166125 
L 73.617902 55.978125 
L 73.883616 55.978125 
L 73.883616 55.582125 
L 74.14933 55.582125 
L 74.14933 54.790125 
L 74.946473 54.790125 
L 74.946473 54.394125 
L 75.212187 54.394125 
L 75.212187 53.998125 
L 75.477902 53.998125 
L 75.477902 53.602125 
L 76.275045 53.602125 
L 76.275045 53.206125 
L 77.072188 53.206125 
L 77.072188 52.810125 
L 78.400759 52.810125 
L 78.400759 52.414125 
L 79.463616 52.414125 
L 79.463616 50.434125 
L 80.260759 50.434125 
L 80.260759 50.038125 
L 80.792188 50.038125 
L 80.792188 48.850125 
L 83.44933 48.850125 
L 83.44933 48.454125 
L 83.715045 48.454125 
L 83.715045 47.662125 
L 83.980759 47.662125 
L 83.980759 47.266125 
L 85.575045 47.266125 
L 85.575045 46.474125 
L 87.966473 46.474125 
L 87.966473 46.078125 
L 88.232188 46.078125 
L 88.232188 45.286125 
L 88.763616 45.286125 
L 88.763616 44.890125 
L 89.560759 44.890125 
L 89.560759 44.494125 
L 90.623616 44.494125 
L 90.623616 44.098125 
L 92.483616 44.098125 
L 92.483616 43.702125 
L 95.140759 43.702125 
L 95.140759 43.306125 
L 95.406473 43.306125 
L 95.406473 42.910125 
L 97.266473 42.910125 
L 97.266473 42.514125 
L 98.595045 42.514125 
L 98.595045 42.118125 
L 99.923616 42.118125 
L 99.923616 41.722125 
L 100.986473 41.722125 
L 100.986473 41.326125 
L 103.90933 41.326125 
L 103.90933 40.930125 
L 105.503616 40.930125 
L 105.503616 40.534125 
L 106.035045 40.534125 
L 106.035045 39.742125 
L 106.832188 39.742125 
L 106.832188 39.346125 
L 107.097902 39.346125 
L 107.097902 38.950125 
L 117.992188 38.950125 
L 117.992188 38.554125 
L 121.180759 38.554125 
L 121.180759 38.158125 
L 123.837902 38.158125 
L 123.837902 37.366125 
L 137.655045 37.366125 
L 137.655045 36.970125 
L 146.955045 36.970125 
L 146.955045 36.574125 
L 147.220759 36.574125 
L 147.220759 36.178125 
L 150.940759 36.178125 
L 150.940759 35.782125 
L 153.863616 35.782125 
L 153.863616 35.386125 
L 178.30933 35.386125 
L 178.30933 34.990125 
L 400.712187 34.990125 
L 400.712187 34.990125 
" clip-path="url(#p48033d6ec2)" style="fill: none; stroke: #ff0000; stroke-width: 2; stroke-linecap: square"/>
   </g>
   <g id="line2d_26">
    <path d="M 60.597902 288.430125 
L 60.597902 224.674125 
L 60.863616 224.674125 
L 60.863616 172.402125 
L 61.12933 172.402125 
L 61.12933 158.938125 
L 61.395045 158.938125 
L 61.395045 150.226125 
L 61.660759 150.226125 
L 61.660759 128.446125 
L 61.926473 128.446125 
L 61.926473 122.110125 
L 62.192188 122.110125 
L 62.192188 118.942125 
L 62.457902 118.942125 
L 62.457902 105.874125 
L 62.723616 105.874125 
L 62.723616 104.686125 
L 62.98933 104.686125 
L 62.98933 103.894125 
L 63.255045 103.894125 
L 63.255045 103.102125 
L 63.520759 103.102125 
L 63.520759 102.310125 
L 63.786473 102.310125 
L 63.786473 98.350125 
L 64.052188 98.350125 
L 64.052188 95.974125 
L 64.317902 95.974125 
L 64.317902 93.994125 
L 64.583616 93.994125 
L 64.583616 91.618125 
L 64.84933 91.618125 
L 64.84933 91.222125 
L 65.380759 91.222125 
L 65.380759 89.638125 
L 65.646473 89.638125 
L 65.646473 87.262125 
L 65.912188 87.262125 
L 65.912188 83.302125 
L 66.70933 83.302125 
L 66.70933 81.322125 
L 66.975045 81.322125 
L 66.975045 80.134125 
L 67.240759 80.134125 
L 67.240759 77.758125 
L 67.506473 77.758125 
L 67.506473 76.174125 
L 67.772188 76.174125 
L 67.772188 74.194125 
L 68.037902 74.194125 
L 68.037902 72.610125 
L 68.835045 72.610125 
L 68.835045 70.234125 
L 69.366473 70.234125 
L 69.366473 69.838125 
L 69.632188 69.838125 
L 69.632188 68.254125 
L 69.897902 68.254125 
L 69.897902 67.858125 
L 70.163616 67.858125 
L 70.163616 67.462125 
L 70.42933 67.462125 
L 70.42933 66.670125 
L 70.695045 66.670125 
L 70.695045 65.482125 
L 70.960759 65.482125 
L 70.960759 65.086125 
L 71.226473 65.086125 
L 71.226473 64.690125 
L 71.492188 64.690125 
L 71.492188 63.898125 
L 72.555045 63.898125 
L 72.555045 62.314125 
L 72.820759 62.314125 
L 72.820759 61.918125 
L 73.352187 61.918125 
L 73.352187 60.730125 
L 73.617902 60.730125 
L 73.617902 60.334125 
L 73.883616 60.334125 
L 73.883616 59.938125 
L 74.14933 59.938125 
L 74.14933 58.750125 
L 74.415045 58.750125 
L 74.415045 57.562125 
L 74.680759 57.562125 
L 74.680759 57.166125 
L 75.477902 57.166125 
L 75.477902 55.978125 
L 76.275045 55.978125 
L 76.275045 55.582125 
L 76.540759 55.582125 
L 76.540759 55.186125 
L 76.806473 55.186125 
L 76.806473 54.790125 
L 77.603616 54.790125 
L 77.603616 54.394125 
L 77.86933 54.394125 
L 77.86933 53.998125 
L 78.400759 53.998125 
L 78.400759 53.206125 
L 79.197902 53.206125 
L 79.197902 52.810125 
L 79.463616 52.810125 
L 79.463616 52.414125 
L 79.72933 52.414125 
L 79.72933 52.018125 
L 80.526473 52.018125 
L 80.526473 51.226125 
L 82.917902 51.226125 
L 82.917902 50.434125 
L 84.246473 50.434125 
L 84.246473 49.642125 
L 84.777902 49.642125 
L 84.777902 49.246125 
L 85.840759 49.246125 
L 85.840759 48.850125 
L 87.16933 48.850125 
L 87.16933 48.454125 
L 87.435045 48.454125 
L 87.435045 47.662125 
L 89.02933 47.662125 
L 89.02933 47.266125 
L 89.560759 47.266125 
L 89.560759 46.474125 
L 90.357902 46.474125 
L 90.357902 45.682125 
L 91.420759 45.682125 
L 91.420759 45.286125 
L 92.483616 45.286125 
L 92.483616 44.890125 
L 92.74933 44.890125 
L 92.74933 44.098125 
L 93.812188 44.098125 
L 93.812188 43.306125 
L 94.60933 43.306125 
L 94.60933 42.514125 
L 94.875045 42.514125 
L 94.875045 42.118125 
L 98.063616 42.118125 
L 98.063616 41.722125 
L 98.32933 41.722125 
L 98.32933 41.326125 
L 98.860759 41.326125 
L 98.860759 40.930125 
L 100.455045 40.930125 
L 100.455045 40.138125 
L 101.252188 40.138125 
L 101.252188 39.742125 
L 102.04933 39.742125 
L 102.04933 39.346125 
L 104.175045 39.346125 
L 104.175045 38.950125 
L 105.503616 38.950125 
L 105.503616 38.554125 
L 106.300759 38.554125 
L 106.300759 37.762125 
L 110.020759 37.762125 
L 110.020759 37.366125 
L 114.803616 37.366125 
L 114.803616 36.970125 
L 116.132188 36.970125 
L 116.132188 36.574125 
L 116.663616 36.574125 
L 116.663616 36.178125 
L 117.460759 36.178125 
L 117.460759 35.782125 
L 122.50933 35.782125 
L 122.50933 35.386125 
L 169.00933 35.386125 
L 169.00933 34.990125 
L 400.712187 34.990125 
L 400.712187 34.990125 
" clip-path="url(#p48033d6ec2)" style="fill: none; stroke: #0000ff; stroke-width: 2; stroke-linecap: square"/>
   </g>
   <g id="line2d_27">
    <path d="M 60.597902 288.430125 
L 60.597902 288.034125 
L 60.597902 278.530125 
L 60.597902 277.738125 
L 60.597902 275.362125 
L 60.597902 274.570125 
L 60.597902 273.778125 
L 60.597902 272.986125 
L 60.597902 271.402125 
L 60.597902 270.610125 
L 60.597902 265.858125 
L 60.597902 265.066125 
L 60.597902 242.098125 
L 60.597902 241.306125 
L 60.597902 220.714125 
L 60.597902 219.922125 
L 60.597902 218.338125 
L 60.597902 217.546125 
L 60.597902 204.874125 
L 60.597902 204.082125 
L 60.597902 105.082125 
L 60.863616 105.082125 
L 60.863616 87.658125 
L 61.12933 87.658125 
L 61.12933 64.690125 
L 61.395045 64.690125 
L 61.395045 55.186125 
L 61.660759 55.186125 
L 61.660759 51.622125 
L 61.926473 51.622125 
L 61.926473 50.038125 
L 62.192188 50.038125 
L 62.192188 49.246125 
L 62.457902 49.246125 
L 62.457902 44.494125 
L 62.723616 44.494125 
L 62.723616 42.514125 
L 62.98933 42.514125 
L 62.98933 41.722125 
L 64.052188 41.722125 
L 64.052188 39.742125 
L 64.583616 39.742125 
L 64.583616 38.554125 
L 64.84933 38.554125 
L 64.84933 38.158125 
L 65.115045 38.158125 
L 65.115045 37.762125 
L 65.380759 37.762125 
L 65.380759 37.366125 
L 66.975045 37.366125 
L 66.975045 36.970125 
L 67.772188 36.970125 
L 67.772188 36.574125 
L 68.037902 36.574125 
L 68.037902 36.178125 
L 69.366473 36.178125 
L 69.366473 35.782125 
L 78.400759 35.782125 
L 78.400759 35.386125 
L 127.557902 35.386125 
L 127.557902 34.990125 
L 400.712187 34.990125 
" clip-path="url(#p48033d6ec2)" style="fill: none; stroke: #008000; stroke-width: 2; stroke-linecap: square"/>
   </g>
   <g id="line2d_28">
    <path d="M 60.597902 288.430125 
L 400.712187 34.990125 
" clip-path="url(#p48033d6ec2)" style="fill: none; stroke-dasharray: 7.4,3.2; stroke-dashoffset: 0; stroke: #000000; stroke-width: 2"/>
   </g>
   <g id="patch_3">
    <path d="M 43.592188 288.430125 
L 43.592188 22.318125 
" style="fill: none; stroke: #000000; stroke-width: 2; stroke-linejoin: miter; stroke-linecap: square"/>
   </g>
   <g id="patch_4">
    <path d="M 400.712188 288.430125 
L 400.712188 22.318125 
" style="fill: none; stroke: #000000; stroke-width: 2; stroke-linejoin: miter; stroke-linecap: square"/>
   </g>
   <g id="patch_5">
    <path d="M 43.592188 288.430125 
L 400.712187 288.430125 
" style="fill: none; stroke: #000000; stroke-width: 2; stroke-linejoin: miter; stroke-linecap: square"/>
   </g>
   <g id="patch_6">
    <path d="M 43.592188 22.318125 
L 400.712187 22.318125 
" style="fill: none; stroke: #000000; stroke-width: 2; stroke-linejoin: miter; stroke-linecap: square"/>
   </g>
   <g id="text_15">
    <text style="font: 700 12px 'DejaVu Sans', 'Bitstream Vera Sans', 'Computer Modern Sans Serif', 'Lucida Grande', 'Verdana', 'Geneva', 'Lucid', 'Arial', 'Helvetica', 'Avant Garde', sans-serif; text-anchor: middle" x="222.152188" y="16.318125" transform="rotate(-0 222.152188 16.318125)">Multi-class classification ROC for charge features</text>
   </g>
   <g id="legend_1">
    <g id="patch_7">
     <path d="M 134.954375 283.430125 
L 393.712188 283.430125 
Q 395.712188 283.430125 395.712188 281.430125 
L 395.712188 238.39575 
Q 395.712188 236.39575 393.712188 236.39575 
L 134.954375 236.39575 
Q 132.954375 236.39575 132.954375 238.39575 
L 132.954375 281.430125 
Q 132.954375 283.430125 134.954375 283.430125 
z
" style="fill: #ffffff; opacity: 0.8; stroke: #cccccc; stroke-linejoin: miter"/>
    </g>
    <g id="line2d_29">
     <path d="M 136.954375 244.494187 
L 146.954375 244.494187 
L 156.954375 244.494187 
" style="fill: none; stroke: #ff0000; stroke-width: 2; stroke-linecap: square"/>
    </g>
    <g id="text_16">
     <text style="font: 700 10px 'DejaVu Sans', 'Bitstream Vera Sans', 'Computer Modern Sans Serif', 'Lucida Grande', 'Verdana', 'Geneva', 'Lucid', 'Arial', 'Helvetica', 'Avant Garde', sans-serif; text-anchor: start" x="164.954375" y="247.994187" transform="rotate(-0 164.954375 247.994187)">ROC curve (area = 0.99) for class mc6</text>
    </g>
    <g id="line2d_30">
     <path d="M 136.954375 259.172312 
L 146.954375 259.172312 
L 156.954375 259.172312 
" style="fill: none; stroke: #0000ff; stroke-width: 2; stroke-linecap: square"/>
    </g>
    <g id="text_17">
     <text style="font: 700 10px 'DejaVu Sans', 'Bitstream Vera Sans', 'Computer Modern Sans Serif', 'Lucida Grande', 'Verdana', 'Geneva', 'Lucid', 'Arial', 'Helvetica', 'Avant Garde', sans-serif; text-anchor: start" x="164.954375" y="262.672312" transform="rotate(-0 164.954375 262.672312)">ROC curve (area = 0.99) for class mc6s</text>
    </g>
    <g id="line2d_31">
     <path d="M 136.954375 273.850437 
L 146.954375 273.850437 
L 156.954375 273.850437 
" style="fill: none; stroke: #008000; stroke-width: 2; stroke-linecap: square"/>
    </g>
    <g id="text_18">
     <text style="font: 700 10px 'DejaVu Sans', 'Bitstream Vera Sans', 'Computer Modern Sans Serif', 'Lucida Grande', 'Verdana', 'Geneva', 'Lucid', 'Arial', 'Helvetica', 'Avant Garde', sans-serif; text-anchor: start" x="164.954375" y="277.350437" transform="rotate(-0 164.954375 277.350437)">ROC curve (area = 1.00) for class mc6sa</text>
    </g>
   </g>
  </g>
 </g>
 <defs>
  <clipPath id="p48033d6ec2">
   <rect x="43.592188" y="22.318125" width="357.12" height="266.112"/>
  </clipPath>
 </defs>
</svg>
