<?xml version="1.0" encoding="utf-8" standalone="no"?>
<!DOCTYPE svg PUBLIC "-//W3C//DTD SVG 1.1//EN"
  "http://www.w3.org/Graphics/SVG/1.1/DTD/svg11.dtd">
<svg xmlns:xlink="http://www.w3.org/1999/xlink" width="416.769219pt" height="323.986375pt" viewBox="0 0 416.769219 323.986375" xmlns="http://www.w3.org/2000/svg" version="1.1">
 <metadata>
  <rdf:RDF xmlns:dc="http://purl.org/dc/elements/1.1/" xmlns:cc="http://creativecommons.org/ns#" xmlns:rdf="http://www.w3.org/1999/02/22-rdf-syntax-ns#">
   <cc:Work>
    <dc:type rdf:resource="http://purl.org/dc/dcmitype/StillImage"/>
    <dc:date>2023-10-03T22:53:45.954637</dc:date>
    <dc:format>image/svg+xml</dc:format>
    <dc:creator>
     <cc:Agent>
      <dc:title>Matplotlib v3.7.3, https://matplotlib.org/</dc:title>
     </cc:Agent>
    </dc:creator>
   </cc:Work>
  </rdf:RDF>
 </metadata>
 <defs>
  <style type="text/css">*{stroke-linejoin: round; stroke-linecap: butt}</style>
 </defs>
 <g id="figure_1">
  <g id="patch_1">
   <path d="M 0 323.986375 
L 416.769219 323.986375 
L 416.769219 0 
L 0 0 
z
" style="fill: #ffffff"/>
  </g>
  <g id="axes_1">
   <g id="patch_2">
    <path d="M 43.592188 288.430125 
L 400.712188 288.430125 
L 400.712188 22.318125 
L 43.592188 22.318125 
z
" style="fill: #ffffff"/>
   </g>
   <g id="matplotlib.axis_1">
    <g id="xtick_1">
     <g id="line2d_1">
      <defs>
       <path id="mbb9007d789" d="M 0 0 
L 0 -7 
" style="stroke: #000000; stroke-width: 2"/>
      </defs>
      <g>
       <use xlink:href="#mbb9007d789" x="60.597902" y="288.430125" style="stroke: #000000; stroke-width: 2"/>
      </g>
     </g>
     <g id="line2d_2">
      <defs>
       <path id="m26835a9b91" d="M 0 0 
L 0 7 
" style="stroke: #000000; stroke-width: 2"/>
      </defs>
      <g>
       <use xlink:href="#m26835a9b91" x="60.597902" y="22.318125" style="stroke: #000000; stroke-width: 2"/>
      </g>
     </g>
     <g id="text_1">
      <text style="font: 700 10px 'DejaVu Sans', 'Bitstream Vera Sans', 'Computer Modern Sans Serif', 'Lucida Grande', 'Verdana', 'Geneva', 'Lucid', 'Arial', 'Helvetica', 'Avant Garde', sans-serif; text-anchor: middle" x="60.597902" y="301.028562" transform="rotate(-0 60.597902 301.028562)">0.0</text>
     </g>
    </g>
    <g id="xtick_2">
     <g id="line2d_3">
      <g>
       <use xlink:href="#mbb9007d789" x="128.620759" y="288.430125" style="stroke: #000000; stroke-width: 2"/>
      </g>
     </g>
     <g id="line2d_4">
      <g>
       <use xlink:href="#m26835a9b91" x="128.620759" y="22.318125" style="stroke: #000000; stroke-width: 2"/>
      </g>
     </g>
     <g id="text_2">
      <text style="font: 700 10px 'DejaVu Sans', 'Bitstream Vera Sans', 'Computer Modern Sans Serif', 'Lucida Grande', 'Verdana', 'Geneva', 'Lucid', 'Arial', 'Helvetica', 'Avant Garde', sans-serif; text-anchor: middle" x="128.620759" y="301.028562" transform="rotate(-0 128.620759 301.028562)">0.2</text>
     </g>
    </g>
    <g id="xtick_3">
     <g id="line2d_5">
      <g>
       <use xlink:href="#mbb9007d789" x="196.643616" y="288.430125" style="stroke: #000000; stroke-width: 2"/>
      </g>
     </g>
     <g id="line2d_6">
      <g>
       <use xlink:href="#m26835a9b91" x="196.643616" y="22.318125" style="stroke: #000000; stroke-width: 2"/>
      </g>
     </g>
     <g id="text_3">
      <text style="font: 700 10px 'DejaVu Sans', 'Bitstream Vera Sans', 'Computer Modern Sans Serif', 'Lucida Grande', 'Verdana', 'Geneva', 'Lucid', 'Arial', 'Helvetica', 'Avant Garde', sans-serif; text-anchor: middle" x="196.643616" y="301.028562" transform="rotate(-0 196.643616 301.028562)">0.4</text>
     </g>
    </g>
    <g id="xtick_4">
     <g id="line2d_7">
      <g>
       <use xlink:href="#mbb9007d789" x="264.666473" y="288.430125" style="stroke: #000000; stroke-width: 2"/>
      </g>
     </g>
     <g id="line2d_8">
      <g>
       <use xlink:href="#m26835a9b91" x="264.666473" y="22.318125" style="stroke: #000000; stroke-width: 2"/>
      </g>
     </g>
     <g id="text_4">
      <text style="font: 700 10px 'DejaVu Sans', 'Bitstream Vera Sans', 'Computer Modern Sans Serif', 'Lucida Grande', 'Verdana', 'Geneva', 'Lucid', 'Arial', 'Helvetica', 'Avant Garde', sans-serif; text-anchor: middle" x="264.666473" y="301.028562" transform="rotate(-0 264.666473 301.028562)">0.6</text>
     </g>
    </g>
    <g id="xtick_5">
     <g id="line2d_9">
      <g>
       <use xlink:href="#mbb9007d789" x="332.68933" y="288.430125" style="stroke: #000000; stroke-width: 2"/>
      </g>
     </g>
     <g id="line2d_10">
      <g>
       <use xlink:href="#m26835a9b91" x="332.68933" y="22.318125" style="stroke: #000000; stroke-width: 2"/>
      </g>
     </g>
     <g id="text_5">
      <text style="font: 700 10px 'DejaVu Sans', 'Bitstream Vera Sans', 'Computer Modern Sans Serif', 'Lucida Grande', 'Verdana', 'Geneva', 'Lucid', 'Arial', 'Helvetica', 'Avant Garde', sans-serif; text-anchor: middle" x="332.68933" y="301.028562" transform="rotate(-0 332.68933 301.028562)">0.8</text>
     </g>
    </g>
    <g id="xtick_6">
     <g id="line2d_11">
      <g>
       <use xlink:href="#mbb9007d789" x="400.712188" y="288.430125" style="stroke: #000000; stroke-width: 2"/>
      </g>
     </g>
     <g id="line2d_12">
      <g>
       <use xlink:href="#m26835a9b91" x="400.712188" y="22.318125" style="stroke: #000000; stroke-width: 2"/>
      </g>
     </g>
     <g id="text_6">
      <text style="font: 700 10px 'DejaVu Sans', 'Bitstream Vera Sans', 'Computer Modern Sans Serif', 'Lucida Grande', 'Verdana', 'Geneva', 'Lucid', 'Arial', 'Helvetica', 'Avant Garde', sans-serif; text-anchor: middle" x="400.712188" y="301.028562" transform="rotate(-0 400.712188 301.028562)">1.0</text>
     </g>
    </g>
    <g id="text_7">
     <text style="font: 700 10px 'DejaVu Sans', 'Bitstream Vera Sans', 'Computer Modern Sans Serif', 'Lucida Grande', 'Verdana', 'Geneva', 'Lucid', 'Arial', 'Helvetica', 'Avant Garde', sans-serif; text-anchor: middle" x="222.152188" y="314.706687" transform="rotate(-0 222.152188 314.706687)">false positive rate</text>
    </g>
   </g>
   <g id="matplotlib.axis_2">
    <g id="ytick_1">
     <g id="line2d_13">
      <defs>
       <path id="m49c71d1c30" d="M 0 0 
L 7 0 
" style="stroke: #000000; stroke-width: 2"/>
      </defs>
      <g>
       <use xlink:href="#m49c71d1c30" x="43.592188" y="288.430125" style="stroke: #000000; stroke-width: 2"/>
      </g>
     </g>
     <g id="line2d_14">
      <defs>
       <path id="mce0ba05da4" d="M 0 0 
L -7 0 
" style="stroke: #000000; stroke-width: 2"/>
      </defs>
      <g>
       <use xlink:href="#mce0ba05da4" x="400.712188" y="288.430125" style="stroke: #000000; stroke-width: 2"/>
      </g>
     </g>
     <g id="text_8">
      <text style="font: 700 10px 'DejaVu Sans', 'Bitstream Vera Sans', 'Computer Modern Sans Serif', 'Lucida Grande', 'Verdana', 'Geneva', 'Lucid', 'Arial', 'Helvetica', 'Avant Garde', sans-serif; text-anchor: end" x="38.592188" y="292.229344" transform="rotate(-0 38.592188 292.229344)">0.0</text>
     </g>
    </g>
    <g id="ytick_2">
     <g id="line2d_15">
      <g>
       <use xlink:href="#m49c71d1c30" x="43.592188" y="237.742125" style="stroke: #000000; stroke-width: 2"/>
      </g>
     </g>
     <g id="line2d_16">
      <g>
       <use xlink:href="#mce0ba05da4" x="400.712188" y="237.742125" style="stroke: #000000; stroke-width: 2"/>
      </g>
     </g>
     <g id="text_9">
      <text style="font: 700 10px 'DejaVu Sans', 'Bitstream Vera Sans', 'Computer Modern Sans Serif', 'Lucida Grande', 'Verdana', 'Geneva', 'Lucid', 'Arial', 'Helvetica', 'Avant Garde', sans-serif; text-anchor: end" x="38.592188" y="241.541344" transform="rotate(-0 38.592188 241.541344)">0.2</text>
     </g>
    </g>
    <g id="ytick_3">
     <g id="line2d_17">
      <g>
       <use xlink:href="#m49c71d1c30" x="43.592188" y="187.054125" style="stroke: #000000; stroke-width: 2"/>
      </g>
     </g>
     <g id="line2d_18">
      <g>
       <use xlink:href="#mce0ba05da4" x="400.712188" y="187.054125" style="stroke: #000000; stroke-width: 2"/>
      </g>
     </g>
     <g id="text_10">
      <text style="font: 700 10px 'DejaVu Sans', 'Bitstream Vera Sans', 'Computer Modern Sans Serif', 'Lucida Grande', 'Verdana', 'Geneva', 'Lucid', 'Arial', 'Helvetica', 'Avant Garde', sans-serif; text-anchor: end" x="38.592188" y="190.853344" transform="rotate(-0 38.592188 190.853344)">0.4</text>
     </g>
    </g>
    <g id="ytick_4">
     <g id="line2d_19">
      <g>
       <use xlink:href="#m49c71d1c30" x="43.592188" y="136.366125" style="stroke: #000000; stroke-width: 2"/>
      </g>
     </g>
     <g id="line2d_20">
      <g>
       <use xlink:href="#mce0ba05da4" x="400.712188" y="136.366125" style="stroke: #000000; stroke-width: 2"/>
      </g>
     </g>
     <g id="text_11">
      <text style="font: 700 10px 'DejaVu Sans', 'Bitstream Vera Sans', 'Computer Modern Sans Serif', 'Lucida Grande', 'Verdana', 'Geneva', 'Lucid', 'Arial', 'Helvetica', 'Avant Garde', sans-serif; text-anchor: end" x="38.592188" y="140.165344" transform="rotate(-0 38.592188 140.165344)">0.6</text>
     </g>
    </g>
    <g id="ytick_5">
     <g id="line2d_21">
      <g>
       <use xlink:href="#m49c71d1c30" x="43.592188" y="85.678125" style="stroke: #000000; stroke-width: 2"/>
      </g>
     </g>
     <g id="line2d_22">
      <g>
       <use xlink:href="#mce0ba05da4" x="400.712188" y="85.678125" style="stroke: #000000; stroke-width: 2"/>
      </g>
     </g>
     <g id="text_12">
      <text style="font: 700 10px 'DejaVu Sans', 'Bitstream Vera Sans', 'Computer Modern Sans Serif', 'Lucida Grande', 'Verdana', 'Geneva', 'Lucid', 'Arial', 'Helvetica', 'Avant Garde', sans-serif; text-anchor: end" x="38.592188" y="89.477344" transform="rotate(-0 38.592188 89.477344)">0.8</text>
     </g>
    </g>
    <g id="ytick_6">
     <g id="line2d_23">
      <g>
       <use xlink:href="#m49c71d1c30" x="43.592188" y="34.990125" style="stroke: #000000; stroke-width: 2"/>
      </g>
     </g>
     <g id="line2d_24">
      <g>
       <use xlink:href="#mce0ba05da4" x="400.712188" y="34.990125" style="stroke: #000000; stroke-width: 2"/>
      </g>
     </g>
     <g id="text_13">
      <text style="font: 700 10px 'DejaVu Sans', 'Bitstream Vera Sans', 'Computer Modern Sans Serif', 'Lucida Grande', 'Verdana', 'Geneva', 'Lucid', 'Arial', 'Helvetica', 'Avant Garde', sans-serif; text-anchor: end" x="38.592188" y="38.789344" transform="rotate(-0 38.592188 38.789344)">1.0</text>
     </g>
    </g>
    <g id="text_14">
     <text style="font: 700 10px 'DejaVu Sans', 'Bitstream Vera Sans', 'Computer Modern Sans Serif', 'Lucida Grande', 'Verdana', 'Geneva', 'Lucid', 'Arial', 'Helvetica', 'Avant Garde', sans-serif; text-anchor: middle" x="14.798438" y="155.374125" transform="rotate(-90 14.798438 155.374125)">true positive rate</text>
    </g>
   </g>
   <g id="line2d_25">
    <path d="M 60.597902 288.430125 
L 112.146473 288.430125 
L 112.146473 288.034125 
L 115.600759 288.034125 
L 115.600759 287.638125 
L 119.055045 287.638125 
L 119.055045 286.846125 
L 121.712187 286.846125 
L 121.712187 286.450125 
L 123.040759 286.450125 
L 123.040759 285.658125 
L 128.08933 285.658125 
L 128.08933 285.262125 
L 128.355045 285.262125 
L 128.355045 284.866125 
L 129.417902 284.866125 
L 129.417902 284.470125 
L 129.683616 284.470125 
L 129.683616 283.678125 
L 132.340759 283.678125 
L 132.340759 282.886125 
L 132.872187 282.886125 
L 132.872187 282.490125 
L 133.137902 282.490125 
L 133.137902 282.094125 
L 134.200759 282.094125 
L 134.200759 281.698125 
L 134.466473 281.698125 
L 134.466473 281.302125 
L 135.52933 281.302125 
L 135.52933 280.906125 
L 136.592187 280.906125 
L 136.592187 280.510125 
L 138.186473 280.510125 
L 138.186473 280.114125 
L 138.983616 280.114125 
L 138.983616 279.718125 
L 139.24933 279.718125 
L 139.24933 279.322125 
L 140.312187 279.322125 
L 140.312187 278.926125 
L 141.375045 278.926125 
L 141.375045 278.134125 
L 142.437902 278.134125 
L 142.437902 277.738125 
L 143.235045 277.738125 
L 143.235045 277.342125 
L 143.766473 277.342125 
L 143.766473 276.550125 
L 144.297902 276.550125 
L 144.297902 276.154125 
L 145.095045 276.154125 
L 145.095045 275.758125 
L 147.752187 275.758125 
L 147.752187 275.362125 
L 148.283616 275.362125 
L 148.283616 274.570125 
L 149.877902 274.570125 
L 149.877902 274.174125 
L 152.535045 274.174125 
L 152.535045 273.778125 
L 156.255045 273.778125 
L 156.255045 273.382125 
L 156.786473 273.382125 
L 156.786473 272.986125 
L 158.912188 272.986125 
L 158.912188 272.590125 
L 160.240759 272.590125 
L 160.240759 271.798125 
L 161.037902 271.798125 
L 161.037902 271.402125 
L 161.56933 271.402125 
L 161.56933 271.006125 
L 162.100759 271.006125 
L 162.100759 270.610125 
L 162.366473 270.610125 
L 162.366473 270.214125 
L 163.42933 270.214125 
L 163.42933 269.422125 
L 163.695045 269.422125 
L 163.695045 269.026125 
L 163.960759 269.026125 
L 163.960759 268.234125 
L 164.226473 268.234125 
L 164.226473 267.442125 
L 165.023616 267.442125 
L 165.023616 267.046125 
L 165.28933 267.046125 
L 165.28933 266.650125 
L 165.820759 266.650125 
L 165.820759 266.254125 
L 167.415045 266.254125 
L 167.415045 265.858125 
L 168.212187 265.858125 
L 168.212187 265.462125 
L 169.275045 265.462125 
L 169.275045 265.066125 
L 169.540759 265.066125 
L 169.540759 264.274125 
L 170.072188 264.274125 
L 170.072188 262.294125 
L 170.603616 262.294125 
L 170.603616 261.502125 
L 170.86933 261.502125 
L 170.86933 260.314125 
L 171.400759 260.314125 
L 171.400759 259.918125 
L 171.666473 259.918125 
L 171.666473 259.126125 
L 172.197902 259.126125 
L 172.197902 257.938125 
L 172.72933 257.938125 
L 172.72933 257.542125 
L 172.995045 257.542125 
L 172.995045 256.354125 
L 173.260759 256.354125 
L 173.260759 255.958125 
L 174.057902 255.958125 
L 174.057902 255.562125 
L 174.58933 255.562125 
L 174.58933 254.374125 
L 175.120759 254.374125 
L 175.120759 253.978125 
L 176.183616 253.978125 
L 176.183616 251.998125 
L 176.44933 251.998125 
L 176.44933 251.206125 
L 176.980759 251.206125 
L 176.980759 250.414125 
L 177.246473 250.414125 
L 177.246473 249.226125 
L 178.043616 249.226125 
L 178.043616 248.830125 
L 178.575045 248.830125 
L 178.575045 248.434125 
L 178.840759 248.434125 
L 178.840759 247.642125 
L 179.903616 247.642125 
L 179.903616 246.058125 
L 180.16933 246.058125 
L 180.16933 245.662125 
L 181.232188 245.662125 
L 181.232188 245.266125 
L 181.497902 245.266125 
L 181.497902 244.078125 
L 182.295045 244.078125 
L 182.295045 243.286125 
L 182.826473 243.286125 
L 182.826473 241.702125 
L 183.357902 241.702125 
L 183.357902 240.514125 
L 183.623616 240.514125 
L 183.623616 240.118125 
L 183.88933 240.118125 
L 183.88933 238.534125 
L 184.155045 238.534125 
L 184.155045 237.346125 
L 186.280759 237.346125 
L 186.280759 236.554125 
L 186.546473 236.554125 
L 186.546473 234.970125 
L 187.077902 234.970125 
L 187.077902 233.386125 
L 188.140759 233.386125 
L 188.140759 232.594125 
L 188.937902 232.594125 
L 188.937902 232.198125 
L 189.203616 232.198125 
L 189.203616 231.010125 
L 189.46933 231.010125 
L 189.46933 230.614125 
L 190.797902 230.614125 
L 190.797902 229.030125 
L 191.063616 229.030125 
L 191.063616 228.634125 
L 191.32933 228.634125 
L 191.32933 227.050125 
L 191.595045 227.050125 
L 191.595045 226.654125 
L 191.860759 226.654125 
L 191.860759 224.674125 
L 192.126473 224.674125 
L 192.126473 224.278125 
L 192.923616 224.278125 
L 192.923616 223.882125 
L 194.252187 223.882125 
L 194.252187 223.486125 
L 194.783616 223.486125 
L 194.783616 223.090125 
L 195.04933 223.090125 
L 195.04933 221.902125 
L 195.315045 221.902125 
L 195.315045 220.714125 
L 196.377902 220.714125 
L 196.377902 220.318125 
L 196.643616 220.318125 
L 196.643616 219.526125 
L 197.175045 219.526125 
L 197.175045 217.942125 
L 197.440759 217.942125 
L 197.440759 217.546125 
L 198.503616 217.546125 
L 198.503616 217.150125 
L 198.76933 217.150125 
L 198.76933 216.754125 
L 199.035045 216.754125 
L 199.035045 215.566125 
L 199.566473 215.566125 
L 199.566473 214.378125 
L 200.097902 214.378125 
L 200.097902 213.982125 
L 200.363616 213.982125 
L 200.363616 213.586125 
L 201.160759 213.586125 
L 201.160759 212.794125 
L 201.957902 212.794125 
L 201.957902 212.002125 
L 202.223616 212.002125 
L 202.223616 211.606125 
L 203.552188 211.606125 
L 203.552188 211.210125 
L 204.34933 211.210125 
L 204.34933 210.814125 
L 204.880759 210.814125 
L 204.880759 209.230125 
L 205.146473 209.230125 
L 205.146473 206.854125 
L 207.006473 206.854125 
L 207.006473 206.062125 
L 207.272188 206.062125 
L 207.272188 205.270125 
L 207.537902 205.270125 
L 207.537902 204.874125 
L 208.06933 204.874125 
L 208.06933 204.478125 
L 208.866473 204.478125 
L 208.866473 203.686125 
L 209.132188 203.686125 
L 209.132188 203.290125 
L 209.663616 203.290125 
L 209.663616 201.310125 
L 209.92933 201.310125 
L 209.92933 200.518125 
L 210.195045 200.518125 
L 210.195045 200.122125 
L 210.992188 200.122125 
L 210.992188 199.726125 
L 211.257902 199.726125 
L 211.257902 199.330125 
L 211.523616 199.330125 
L 211.523616 198.142125 
L 211.78933 198.142125 
L 211.78933 197.746125 
L 212.055045 197.746125 
L 212.055045 197.350125 
L 213.117902 197.350125 
L 213.117902 196.954125 
L 213.383616 196.954125 
L 213.383616 196.558125 
L 213.64933 196.558125 
L 213.64933 196.162125 
L 214.446473 196.162125 
L 214.446473 195.370125 
L 215.50933 195.370125 
L 215.50933 194.974125 
L 216.040759 194.974125 
L 216.040759 193.390125 
L 216.306473 193.390125 
L 216.306473 192.202125 
L 216.572188 192.202125 
L 216.572188 191.806125 
L 217.36933 191.806125 
L 217.36933 191.410125 
L 218.166473 191.410125 
L 218.166473 191.014125 
L 218.963616 191.014125 
L 218.963616 189.430125 
L 219.495045 189.430125 
L 219.495045 188.242125 
L 220.292188 188.242125 
L 220.292188 187.846125 
L 220.823616 187.846125 
L 220.823616 187.450125 
L 221.620759 187.450125 
L 221.620759 187.054125 
L 221.886473 187.054125 
L 221.886473 186.658125 
L 222.417902 186.658125 
L 222.417902 186.262125 
L 222.683616 186.262125 
L 222.683616 183.094125 
L 222.94933 183.094125 
L 222.94933 182.302125 
L 223.215045 182.302125 
L 223.215045 181.906125 
L 223.480759 181.906125 
L 223.480759 181.510125 
L 223.746473 181.510125 
L 223.746473 181.114125 
L 224.543616 181.114125 
L 224.543616 180.718125 
L 225.606473 180.718125 
L 225.606473 180.322125 
L 226.137902 180.322125 
L 226.137902 179.530125 
L 226.66933 179.530125 
L 226.66933 178.342125 
L 226.935045 178.342125 
L 226.935045 177.946125 
L 227.200759 177.946125 
L 227.200759 177.154125 
L 227.997902 177.154125 
L 227.997902 176.758125 
L 228.263616 176.758125 
L 228.263616 176.362125 
L 228.52933 176.362125 
L 228.52933 175.966125 
L 228.795045 175.966125 
L 228.795045 175.570125 
L 229.060759 175.570125 
L 229.060759 175.174125 
L 229.326473 175.174125 
L 229.326473 174.382125 
L 231.452188 174.382125 
L 231.452188 173.986125 
L 231.717902 173.986125 
L 231.717902 173.590125 
L 231.983616 173.590125 
L 231.983616 173.194125 
L 233.577902 173.194125 
L 233.577902 172.006125 
L 233.843616 172.006125 
L 233.843616 171.610125 
L 234.906473 171.610125 
L 234.906473 171.214125 
L 235.437902 171.214125 
L 235.437902 170.026125 
L 236.235045 170.026125 
L 236.235045 169.630125 
L 236.500759 169.630125 
L 236.500759 169.234125 
L 237.032188 169.234125 
L 237.032188 168.838125 
L 238.095045 168.838125 
L 238.095045 168.046125 
L 238.360759 168.046125 
L 238.360759 167.650125 
L 239.157902 167.650125 
L 239.157902 167.254125 
L 240.486473 167.254125 
L 240.486473 166.462125 
L 240.752187 166.462125 
L 240.752187 165.274125 
L 242.080759 165.274125 
L 242.080759 164.482125 
L 243.143616 164.482125 
L 243.143616 163.690125 
L 243.40933 163.690125 
L 243.40933 162.898125 
L 243.675045 162.898125 
L 243.675045 162.106125 
L 243.940759 162.106125 
L 243.940759 161.314125 
L 244.737902 161.314125 
L 244.737902 160.918125 
L 245.535045 160.918125 
L 245.535045 159.730125 
L 245.800759 159.730125 
L 245.800759 158.542125 
L 246.066473 158.542125 
L 246.066473 158.146125 
L 247.660759 158.146125 
L 247.660759 157.750125 
L 248.457902 157.750125 
L 248.457902 156.958125 
L 248.98933 156.958125 
L 248.98933 156.166125 
L 249.255045 156.166125 
L 249.255045 155.770125 
L 249.786473 155.770125 
L 249.786473 155.374125 
L 250.583616 155.374125 
L 250.583616 154.978125 
L 251.380759 154.978125 
L 251.380759 154.582125 
L 251.646473 154.582125 
L 251.646473 154.186125 
L 252.177902 154.186125 
L 252.177902 153.394125 
L 252.70933 153.394125 
L 252.70933 152.998125 
L 252.975045 152.998125 
L 252.975045 152.602125 
L 254.835045 152.602125 
L 254.835045 152.206125 
L 255.100759 152.206125 
L 255.100759 151.810125 
L 255.366473 151.810125 
L 255.366473 151.414125 
L 255.632188 151.414125 
L 255.632188 147.454125 
L 256.42933 147.454125 
L 256.42933 147.058125 
L 256.695045 147.058125 
L 256.695045 145.870125 
L 258.023616 145.870125 
L 258.023616 145.078125 
L 259.086473 145.078125 
L 259.086473 144.682125 
L 259.352187 144.682125 
L 259.352187 144.286125 
L 259.883616 144.286125 
L 259.883616 143.098125 
L 260.14933 143.098125 
L 260.14933 142.702125 
L 260.946473 142.702125 
L 260.946473 141.910125 
L 261.212187 141.910125 
L 261.212187 141.118125 
L 261.477902 141.118125 
L 261.477902 140.326125 
L 261.743616 140.326125 
L 261.743616 138.742125 
L 262.275045 138.742125 
L 262.275045 137.950125 
L 262.806473 137.950125 
L 262.806473 137.554125 
L 264.135045 137.554125 
L 264.135045 137.158125 
L 264.666473 137.158125 
L 264.666473 136.762125 
L 267.323616 136.762125 
L 267.323616 135.574125 
L 268.120759 135.574125 
L 268.120759 135.178125 
L 268.652187 135.178125 
L 268.652187 133.990125 
L 268.917902 133.990125 
L 268.917902 131.614125 
L 269.183616 131.614125 
L 269.183616 131.218125 
L 269.715045 131.218125 
L 269.715045 130.426125 
L 269.980759 130.426125 
L 269.980759 130.030125 
L 270.512187 130.030125 
L 270.512187 129.634125 
L 271.043616 129.634125 
L 271.043616 129.238125 
L 272.637902 129.238125 
L 272.637902 128.842125 
L 272.903616 128.842125 
L 272.903616 128.446125 
L 273.16933 128.446125 
L 273.16933 127.258125 
L 273.966473 127.258125 
L 273.966473 126.862125 
L 274.497902 126.862125 
L 274.497902 126.466125 
L 274.763616 126.466125 
L 274.763616 126.070125 
L 276.357902 126.070125 
L 276.357902 124.486125 
L 277.155045 124.486125 
L 277.155045 123.298125 
L 277.420759 123.298125 
L 277.420759 122.902125 
L 277.686473 122.902125 
L 277.686473 122.110125 
L 278.483616 122.110125 
L 278.483616 121.318125 
L 279.015045 121.318125 
L 279.015045 120.922125 
L 279.812187 120.922125 
L 279.812187 119.734125 
L 280.343616 119.734125 
L 280.343616 117.358125 
L 281.140759 117.358125 
L 281.140759 116.566125 
L 281.406473 116.566125 
L 281.406473 116.170125 
L 282.203616 116.170125 
L 282.203616 113.794125 
L 282.735045 113.794125 
L 282.735045 113.398125 
L 283.797902 113.398125 
L 283.797902 112.606125 
L 284.063616 112.606125 
L 284.063616 111.418125 
L 284.32933 111.418125 
L 284.32933 111.022125 
L 285.657902 111.022125 
L 285.657902 110.626125 
L 285.923616 110.626125 
L 285.923616 110.230125 
L 286.720759 110.230125 
L 286.720759 109.438125 
L 286.986473 109.438125 
L 286.986473 108.250125 
L 287.783616 108.250125 
L 287.783616 107.854125 
L 288.04933 107.854125 
L 288.04933 107.458125 
L 288.580759 107.458125 
L 288.580759 105.874125 
L 289.112188 105.874125 
L 289.112188 104.686125 
L 289.90933 104.686125 
L 289.90933 104.290125 
L 290.175045 104.290125 
L 290.175045 103.894125 
L 290.706473 103.894125 
L 290.706473 103.498125 
L 291.237902 103.498125 
L 291.237902 102.706125 
L 291.76933 102.706125 
L 291.76933 102.310125 
L 292.035045 102.310125 
L 292.035045 101.914125 
L 292.300759 101.914125 
L 292.300759 101.518125 
L 292.832188 101.518125 
L 292.832188 101.122125 
L 294.957902 101.122125 
L 294.957902 100.726125 
L 295.223616 100.726125 
L 295.223616 100.330125 
L 296.817902 100.330125 
L 296.817902 99.934125 
L 297.615045 99.934125 
L 297.615045 99.538125 
L 298.677902 99.538125 
L 298.677902 99.142125 
L 298.943616 99.142125 
L 298.943616 98.746125 
L 299.20933 98.746125 
L 299.20933 98.350125 
L 299.740759 98.350125 
L 299.740759 97.954125 
L 300.006473 97.954125 
L 300.006473 97.558125 
L 300.272187 97.558125 
L 300.272187 95.974125 
L 300.537902 95.974125 
L 300.537902 95.578125 
L 301.06933 95.578125 
L 301.06933 95.182125 
L 301.600759 95.182125 
L 301.600759 94.390125 
L 302.397902 94.390125 
L 302.397902 93.598125 
L 303.992188 93.598125 
L 303.992188 92.410125 
L 304.257902 92.410125 
L 304.257902 92.014125 
L 304.78933 92.014125 
L 304.78933 91.618125 
L 305.055045 91.618125 
L 305.055045 91.222125 
L 306.117902 91.222125 
L 306.117902 90.826125 
L 307.180759 90.826125 
L 307.180759 90.034125 
L 308.243616 90.034125 
L 308.243616 89.638125 
L 308.775045 89.638125 
L 308.775045 88.846125 
L 309.040759 88.846125 
L 309.040759 88.450125 
L 311.166473 88.450125 
L 311.166473 88.054125 
L 311.432187 88.054125 
L 311.432187 87.262125 
L 311.697902 87.262125 
L 311.697902 86.866125 
L 312.22933 86.866125 
L 312.22933 86.470125 
L 312.760759 86.470125 
L 312.760759 86.074125 
L 313.292187 86.074125 
L 313.292187 85.282125 
L 314.620759 85.282125 
L 314.620759 84.886125 
L 315.417902 84.886125 
L 315.417902 84.490125 
L 315.94933 84.490125 
L 315.94933 84.094125 
L 317.277902 84.094125 
L 317.277902 83.698125 
L 317.80933 83.698125 
L 317.80933 82.906125 
L 318.872187 82.906125 
L 318.872187 82.114125 
L 320.200759 82.114125 
L 320.200759 81.322125 
L 320.997902 81.322125 
L 320.997902 80.926125 
L 321.263616 80.926125 
L 321.263616 80.530125 
L 322.326473 80.530125 
L 322.326473 79.738125 
L 323.920759 79.738125 
L 323.920759 79.342125 
L 324.186473 79.342125 
L 324.186473 78.550125 
L 324.452187 78.550125 
L 324.452187 78.154125 
L 324.983616 78.154125 
L 324.983616 77.758125 
L 325.24933 77.758125 
L 325.24933 76.966125 
L 326.843616 76.966125 
L 326.843616 76.570125 
L 327.375045 76.570125 
L 327.375045 75.778125 
L 327.640759 75.778125 
L 327.640759 74.986125 
L 328.703616 74.986125 
L 328.703616 74.590125 
L 329.500759 74.590125 
L 329.500759 74.194125 
L 330.82933 74.194125 
L 330.82933 73.402125 
L 332.157902 73.402125 
L 332.157902 73.006125 
L 333.486473 73.006125 
L 333.486473 72.610125 
L 334.017902 72.610125 
L 334.017902 72.214125 
L 337.206473 72.214125 
L 337.206473 71.818125 
L 338.003616 71.818125 
L 338.003616 71.422125 
L 338.800759 71.422125 
L 338.800759 71.026125 
L 340.12933 71.026125 
L 340.12933 70.630125 
L 340.395045 70.630125 
L 340.395045 70.234125 
L 340.660759 70.234125 
L 340.660759 69.838125 
L 342.786473 69.838125 
L 342.786473 69.046125 
L 343.317902 69.046125 
L 343.317902 67.858125 
L 343.583616 67.858125 
L 343.583616 67.066125 
L 344.115045 67.066125 
L 344.115045 66.670125 
L 344.380759 66.670125 
L 344.380759 66.274125 
L 348.100759 66.274125 
L 348.100759 65.878125 
L 350.226473 65.878125 
L 350.226473 65.482125 
L 350.492187 65.482125 
L 350.492187 65.086125 
L 351.820759 65.086125 
L 351.820759 64.690125 
L 352.352187 64.690125 
L 352.352187 64.294125 
L 353.415045 64.294125 
L 353.415045 63.898125 
L 356.072187 63.898125 
L 356.072187 63.502125 
L 356.337902 63.502125 
L 356.337902 63.106125 
L 356.603616 63.106125 
L 356.603616 61.918125 
L 357.400759 61.918125 
L 357.400759 61.522125 
L 358.72933 61.522125 
L 358.72933 61.126125 
L 358.995045 61.126125 
L 358.995045 60.730125 
L 359.260759 60.730125 
L 359.260759 59.938125 
L 359.526473 59.938125 
L 359.526473 59.542125 
L 360.057902 59.542125 
L 360.057902 59.146125 
L 360.855045 59.146125 
L 360.855045 58.750125 
L 361.120759 58.750125 
L 361.120759 58.354125 
L 361.386473 58.354125 
L 361.386473 57.958125 
L 361.652187 57.958125 
L 361.652187 57.562125 
L 362.183616 57.562125 
L 362.183616 57.166125 
L 362.715045 57.166125 
L 362.715045 56.770125 
L 362.980759 56.770125 
L 362.980759 56.374125 
L 363.512187 56.374125 
L 363.512187 55.978125 
L 363.777902 55.978125 
L 363.777902 55.582125 
L 364.043616 55.582125 
L 364.043616 55.186125 
L 364.575045 55.186125 
L 364.575045 54.790125 
L 365.106473 54.790125 
L 365.106473 54.394125 
L 366.966473 54.394125 
L 366.966473 53.998125 
L 368.295045 53.998125 
L 368.295045 53.602125 
L 368.826473 53.602125 
L 368.826473 53.206125 
L 369.092187 53.206125 
L 369.092187 52.810125 
L 370.155045 52.810125 
L 370.155045 52.414125 
L 370.420759 52.414125 
L 370.420759 52.018125 
L 370.686473 52.018125 
L 370.686473 51.622125 
L 371.483616 51.622125 
L 371.483616 51.226125 
L 373.077902 51.226125 
L 373.077902 50.830125 
L 373.343616 50.830125 
L 373.343616 50.038125 
L 374.672188 50.038125 
L 374.672188 49.642125 
L 375.735045 49.642125 
L 375.735045 49.246125 
L 376.266473 49.246125 
L 376.266473 48.850125 
L 376.797902 48.850125 
L 376.797902 48.454125 
L 377.32933 48.454125 
L 377.32933 48.058125 
L 377.595045 48.058125 
L 377.595045 47.266125 
L 379.720759 47.266125 
L 379.720759 46.474125 
L 379.986473 46.474125 
L 379.986473 45.682125 
L 380.783616 45.682125 
L 380.783616 45.286125 
L 381.846473 45.286125 
L 381.846473 44.890125 
L 382.643616 44.890125 
L 382.643616 44.494125 
L 382.90933 44.494125 
L 382.90933 43.702125 
L 383.175045 43.702125 
L 383.175045 43.306125 
L 383.440759 43.306125 
L 383.440759 42.910125 
L 383.972187 42.910125 
L 383.972187 42.514125 
L 384.237902 42.514125 
L 384.237902 42.118125 
L 385.300759 42.118125 
L 385.300759 41.722125 
L 385.832187 41.722125 
L 385.832187 40.930125 
L 387.160759 40.930125 
L 387.160759 40.534125 
L 387.426473 40.534125 
L 387.426473 40.138125 
L 387.692187 40.138125 
L 387.692187 39.742125 
L 387.957902 39.742125 
L 387.957902 38.950125 
L 388.48933 38.950125 
L 388.48933 38.554125 
L 388.755045 38.554125 
L 388.755045 37.366125 
L 390.083616 37.366125 
L 390.083616 36.970125 
L 390.615045 36.970125 
L 390.615045 36.178125 
L 390.880759 36.178125 
L 390.880759 35.782125 
L 391.146473 35.782125 
L 391.146473 35.386125 
L 391.412187 35.386125 
L 391.412187 34.990125 
L 400.712187 34.990125 
L 400.712187 34.990125 
" clip-path="url(#p298420778d)" style="fill: none; stroke: #ff0000; stroke-width: 2; stroke-linecap: square"/>
   </g>
   <g id="line2d_26">
    <path d="M 60.597902 288.430125 
L 61.926473 287.242125 
L 62.98933 287.242125 
L 64.052188 286.846125 
L 64.317902 286.054125 
L 65.380759 283.678125 
L 65.912188 282.886125 
L 67.506473 282.094125 
L 67.506473 281.698125 
L 68.037902 281.302125 
L 68.835045 280.510125 
L 68.835045 280.114125 
L 69.100759 278.134125 
L 69.632188 277.342125 
L 69.632188 276.946125 
L 70.42933 275.758125 
L 70.42933 274.570125 
L 70.695045 274.174125 
L 71.492188 274.174125 
L 71.492188 273.778125 
L 71.757902 273.778125 
L 72.023616 273.382125 
L 72.28933 273.382125 
L 72.28933 272.986125 
L 73.086473 272.986125 
L 73.086473 272.590125 
L 73.352187 272.194125 
L 73.352187 271.798125 
L 73.617902 271.798125 
L 73.617902 271.402125 
L 74.14933 271.402125 
L 74.14933 271.006125 
L 74.415045 270.610125 
L 74.680759 269.818125 
L 74.946473 269.818125 
L 74.946473 269.422125 
L 75.743616 269.422125 
L 75.743616 269.026125 
L 76.540759 269.026125 
L 76.806473 267.838125 
L 77.337902 267.838125 
L 77.337902 267.442125 
L 77.603616 267.442125 
L 78.135045 267.046125 
L 78.400759 267.046125 
L 78.400759 265.858125 
L 78.666473 265.858125 
L 78.666473 265.462125 
L 79.197902 265.066125 
L 79.995045 265.066125 
L 79.995045 263.878125 
L 80.526473 263.878125 
L 80.526473 263.482125 
L 80.792188 263.482125 
L 80.792188 262.294125 
L 81.057902 262.294125 
L 81.323616 261.898125 
L 81.323616 261.106125 
L 81.58933 261.106125 
L 81.58933 258.334125 
L 81.855045 258.334125 
L 81.855045 257.938125 
L 82.917902 257.938125 
L 82.917902 257.542125 
L 83.183616 257.146125 
L 83.44933 257.146125 
L 83.44933 256.750125 
L 84.246473 256.750125 
L 84.246473 255.166125 
L 84.512188 255.166125 
L 84.777902 254.770125 
L 84.777902 253.582125 
L 85.043616 253.582125 
L 85.30933 253.186125 
L 85.30933 252.790125 
L 85.575045 252.790125 
L 85.575045 251.998125 
L 85.840759 251.602125 
L 85.840759 250.414125 
L 86.106473 250.414125 
L 86.106473 249.226125 
L 86.372187 248.830125 
L 86.372187 248.038125 
L 86.637902 248.038125 
L 86.637902 246.850125 
L 86.903616 246.850125 
L 86.903616 246.454125 
L 87.16933 246.454125 
L 87.16933 246.058125 
L 87.700759 246.058125 
L 87.700759 245.662125 
L 88.232188 245.662125 
L 88.232188 245.266125 
L 88.497902 245.266125 
L 88.497902 244.078125 
L 89.02933 244.078125 
L 89.02933 242.890125 
L 91.155045 242.890125 
L 91.155045 242.494125 
L 92.483616 242.494125 
L 92.483616 241.306125 
L 93.280759 241.306125 
L 93.280759 240.910125 
L 93.546473 240.910125 
L 93.546473 240.514125 
L 93.812188 240.514125 
L 93.812188 238.534125 
L 94.875045 238.534125 
L 94.875045 237.742125 
L 95.140759 237.742125 
L 95.140759 237.346125 
L 95.672188 237.346125 
L 95.672188 236.158125 
L 95.937902 236.158125 
L 95.937902 235.762125 
L 97.532188 235.762125 
L 97.532188 235.366125 
L 97.797902 235.366125 
L 97.797902 234.178125 
L 98.860759 234.178125 
L 98.860759 233.386125 
L 99.126473 233.386125 
L 99.126473 232.990125 
L 99.392188 232.990125 
L 99.392188 232.594125 
L 99.657902 232.594125 
L 99.657902 231.802125 
L 99.923616 231.802125 
L 99.923616 230.218125 
L 100.455045 230.218125 
L 100.455045 229.822125 
L 100.720759 229.822125 
L 100.720759 228.634125 
L 100.986473 228.634125 
L 100.986473 228.238125 
L 101.252188 228.238125 
L 101.252188 227.842125 
L 101.517902 227.842125 
L 101.517902 227.050125 
L 101.783616 227.050125 
L 101.783616 225.466125 
L 102.315045 225.466125 
L 102.315045 225.070125 
L 103.643616 225.070125 
L 103.643616 224.674125 
L 103.90933 224.674125 
L 103.90933 223.486125 
L 104.440759 223.486125 
L 104.440759 223.090125 
L 104.706473 223.090125 
L 104.706473 221.902125 
L 104.972188 221.902125 
L 104.972188 221.506125 
L 105.237902 221.506125 
L 105.237902 221.110125 
L 105.76933 221.110125 
L 105.76933 219.922125 
L 106.035045 219.922125 
L 106.035045 218.734125 
L 106.566473 218.734125 
L 106.566473 217.546125 
L 107.097902 217.546125 
L 107.097902 216.358125 
L 109.223616 216.358125 
L 109.223616 215.566125 
L 110.552188 215.566125 
L 110.552188 215.170125 
L 112.412188 215.170125 
L 112.412188 214.774125 
L 114.006473 214.774125 
L 114.006473 212.794125 
L 114.272188 212.794125 
L 114.272188 212.398125 
L 115.335045 212.398125 
L 115.335045 212.002125 
L 115.600759 212.002125 
L 115.600759 211.606125 
L 115.866473 211.606125 
L 115.866473 211.210125 
L 116.397902 211.210125 
L 116.397902 210.814125 
L 117.195045 210.814125 
L 117.195045 210.418125 
L 117.460759 210.418125 
L 117.460759 209.626125 
L 118.257902 209.626125 
L 118.257902 208.438125 
L 118.523616 208.438125 
L 118.523616 208.042125 
L 118.78933 208.042125 
L 118.78933 206.854125 
L 120.117902 206.854125 
L 120.117902 206.062125 
L 120.64933 206.062125 
L 120.64933 203.686125 
L 121.180759 203.686125 
L 121.180759 203.290125 
L 121.446473 203.290125 
L 121.446473 202.498125 
L 121.712187 202.498125 
L 121.712187 202.102125 
L 121.977902 202.102125 
L 121.977902 200.914125 
L 123.837902 200.914125 
L 123.837902 200.518125 
L 124.103616 200.518125 
L 124.103616 199.726125 
L 124.36933 199.726125 
L 124.36933 198.934125 
L 124.635045 198.934125 
L 124.635045 198.538125 
L 125.166473 198.538125 
L 125.166473 197.350125 
L 125.432187 197.350125 
L 125.432187 196.558125 
L 126.495045 196.558125 
L 126.495045 195.370125 
L 126.760759 195.370125 
L 126.760759 194.578125 
L 127.026473 194.578125 
L 127.026473 193.786125 
L 127.292188 193.786125 
L 127.292188 192.598125 
L 128.08933 192.598125 
L 128.08933 191.806125 
L 128.620759 191.806125 
L 128.620759 189.826125 
L 129.152187 189.826125 
L 129.152187 188.638125 
L 129.417902 188.638125 
L 129.417902 188.242125 
L 129.683616 188.242125 
L 129.683616 187.846125 
L 131.277902 187.846125 
L 131.277902 187.054125 
L 131.80933 187.054125 
L 131.80933 186.658125 
L 134.732188 186.658125 
L 134.732188 186.262125 
L 135.795045 186.262125 
L 135.795045 185.470125 
L 136.857902 185.470125 
L 136.857902 183.886125 
L 137.123616 183.886125 
L 137.123616 181.510125 
L 137.920759 181.510125 
L 137.920759 180.718125 
L 138.452188 180.718125 
L 138.452188 179.926125 
L 140.312187 179.926125 
L 140.312187 179.530125 
L 140.577902 179.530125 
L 140.577902 178.738125 
L 140.843616 178.738125 
L 140.843616 177.946125 
L 141.640759 177.946125 
L 141.640759 177.154125 
L 142.437902 177.154125 
L 142.437902 175.966125 
L 142.703616 175.966125 
L 142.703616 175.570125 
L 142.96933 175.570125 
L 142.96933 174.778125 
L 143.235045 174.778125 
L 143.235045 173.986125 
L 143.500759 173.986125 
L 143.500759 173.194125 
L 144.297902 173.194125 
L 144.297902 172.798125 
L 144.563616 172.798125 
L 144.563616 171.610125 
L 145.892188 171.610125 
L 145.892188 171.214125 
L 146.157902 171.214125 
L 146.157902 170.422125 
L 146.955045 170.422125 
L 146.955045 170.026125 
L 147.486473 170.026125 
L 147.486473 168.838125 
L 148.017902 168.838125 
L 148.017902 167.650125 
L 149.080759 167.650125 
L 149.080759 167.254125 
L 149.346473 167.254125 
L 149.346473 166.858125 
L 149.612188 166.858125 
L 149.612188 166.066125 
L 150.675045 166.066125 
L 150.675045 165.670125 
L 150.940759 165.670125 
L 150.940759 165.274125 
L 152.003616 165.274125 
L 152.003616 164.878125 
L 152.26933 164.878125 
L 152.26933 163.690125 
L 152.535045 163.690125 
L 152.535045 162.502125 
L 153.863616 162.502125 
L 153.863616 161.314125 
L 154.12933 161.314125 
L 154.12933 160.918125 
L 154.395045 160.918125 
L 154.395045 160.522125 
L 155.98933 160.522125 
L 155.98933 160.126125 
L 156.520759 160.126125 
L 156.520759 159.730125 
L 157.317902 159.730125 
L 157.317902 159.334125 
L 158.115045 159.334125 
L 158.115045 158.938125 
L 158.646473 158.938125 
L 158.646473 158.542125 
L 159.975045 158.542125 
L 159.975045 158.146125 
L 160.772188 158.146125 
L 160.772188 157.354125 
L 161.835045 157.354125 
L 161.835045 156.958125 
L 162.366473 156.958125 
L 162.366473 156.562125 
L 163.42933 156.562125 
L 163.42933 156.166125 
L 163.695045 156.166125 
L 163.695045 155.770125 
L 164.757902 155.770125 
L 164.757902 155.374125 
L 165.555045 155.374125 
L 165.555045 154.978125 
L 165.820759 154.978125 
L 165.820759 154.582125 
L 167.415045 154.582125 
L 167.415045 154.186125 
L 169.275045 154.186125 
L 169.275045 153.790125 
L 170.072188 153.790125 
L 170.072188 153.394125 
L 172.197902 153.394125 
L 172.197902 152.998125 
L 172.995045 152.998125 
L 172.995045 152.602125 
L 173.260759 152.602125 
L 173.260759 152.206125 
L 173.792188 152.206125 
L 173.792188 151.810125 
L 174.323616 151.810125 
L 174.323616 151.414125 
L 174.58933 151.414125 
L 174.58933 151.018125 
L 176.183616 151.018125 
L 176.183616 150.226125 
L 176.980759 150.226125 
L 176.980759 149.830125 
L 177.246473 149.830125 
L 177.246473 149.038125 
L 178.043616 149.038125 
L 178.043616 148.642125 
L 181.232188 148.642125 
L 181.232188 147.850125 
L 182.560759 147.850125 
L 182.560759 147.454125 
L 183.092187 147.454125 
L 183.092187 147.058125 
L 183.357902 147.058125 
L 183.357902 146.266125 
L 184.952187 146.266125 
L 184.952187 145.870125 
L 185.217902 145.870125 
L 185.217902 145.474125 
L 187.343616 145.474125 
L 187.343616 145.078125 
L 188.140759 145.078125 
L 188.140759 144.286125 
L 191.063616 144.286125 
L 191.063616 143.890125 
L 193.18933 143.890125 
L 193.18933 143.494125 
L 193.455045 143.494125 
L 193.455045 143.098125 
L 193.720759 143.098125 
L 193.720759 142.702125 
L 194.252187 142.702125 
L 194.252187 141.910125 
L 194.517902 141.910125 
L 194.517902 141.514125 
L 195.580759 141.514125 
L 195.580759 140.326125 
L 198.237902 140.326125 
L 198.237902 139.930125 
L 199.300759 139.930125 
L 199.300759 139.534125 
L 200.097902 139.534125 
L 200.097902 139.138125 
L 204.34933 139.138125 
L 204.34933 138.346125 
L 207.537902 138.346125 
L 207.537902 137.950125 
L 210.460759 137.950125 
L 210.460759 137.554125 
L 210.992188 137.554125 
L 210.992188 136.762125 
L 211.78933 136.762125 
L 211.78933 136.366125 
L 213.117902 136.366125 
L 213.117902 135.970125 
L 214.712187 135.970125 
L 214.712187 135.574125 
L 216.040759 135.574125 
L 216.040759 135.178125 
L 217.36933 135.178125 
L 217.36933 134.386125 
L 218.166473 134.386125 
L 218.166473 133.990125 
L 218.432187 133.990125 
L 218.432187 133.594125 
L 224.012188 133.594125 
L 224.012188 133.198125 
L 224.80933 133.198125 
L 224.80933 132.802125 
L 225.872188 132.802125 
L 225.872188 132.406125 
L 232.515045 132.406125 
L 232.515045 132.010125 
L 237.297902 132.010125 
L 237.297902 131.614125 
L 239.68933 131.614125 
L 239.68933 131.218125 
L 249.520759 131.218125 
L 249.520759 130.822125 
L 271.575045 130.822125 
L 271.575045 130.426125 
L 277.686473 130.426125 
L 277.686473 130.030125 
L 400.712187 130.030125 
L 400.712187 34.990125 
L 400.712187 34.990125 
" clip-path="url(#p298420778d)" style="fill: none; stroke: #0000ff; stroke-width: 2; stroke-linecap: square"/>
   </g>
   <g id="line2d_27">
    <path d="M 60.597902 288.430125 
L 60.597902 277.738125 
L 60.863616 277.738125 
L 60.863616 277.342125 
L 61.12933 277.342125 
L 61.12933 275.758125 
L 61.395045 275.758125 
L 61.395045 274.966125 
L 61.660759 274.966125 
L 61.660759 272.194125 
L 62.457902 272.194125 
L 62.457902 268.630125 
L 62.723616 268.630125 
L 62.723616 268.234125 
L 62.98933 268.234125 
L 62.98933 267.838125 
L 63.255045 267.838125 
L 63.255045 266.650125 
L 63.520759 266.650125 
L 63.520759 265.858125 
L 63.786473 265.858125 
L 63.786473 262.690125 
L 64.052188 262.690125 
L 64.052188 261.898125 
L 64.317902 261.898125 
L 64.317902 261.502125 
L 64.583616 261.502125 
L 64.583616 258.730125 
L 64.84933 258.730125 
L 64.84933 257.938125 
L 65.115045 257.938125 
L 65.115045 257.542125 
L 65.912188 257.542125 
L 65.912188 256.750125 
L 66.177902 256.750125 
L 66.177902 251.602125 
L 66.443616 251.602125 
L 66.443616 250.018125 
L 66.975045 250.018125 
L 66.975045 249.226125 
L 67.240759 249.226125 
L 67.240759 248.038125 
L 67.772188 248.038125 
L 67.772188 247.246125 
L 68.037902 247.246125 
L 68.037902 246.850125 
L 69.366473 246.850125 
L 69.366473 246.058125 
L 69.897902 246.058125 
L 69.897902 245.662125 
L 71.226473 245.662125 
L 71.226473 245.266125 
L 71.757902 245.266125 
L 71.757902 244.870125 
L 72.28933 244.870125 
L 72.28933 244.474125 
L 73.352187 244.474125 
L 73.352187 244.078125 
L 73.617902 244.078125 
L 73.617902 243.286125 
L 74.14933 243.286125 
L 74.14933 242.890125 
L 74.415045 242.890125 
L 74.415045 242.494125 
L 75.212187 242.494125 
L 75.212187 241.306125 
L 76.00933 241.306125 
L 76.00933 240.910125 
L 76.540759 240.910125 
L 76.540759 239.326125 
L 76.806473 239.326125 
L 76.806473 238.534125 
L 77.86933 238.534125 
L 77.86933 237.742125 
L 78.666473 237.742125 
L 78.666473 236.950125 
L 78.932187 236.950125 
L 78.932187 235.366125 
L 79.463616 235.366125 
L 79.463616 234.970125 
L 79.995045 234.970125 
L 79.995045 234.574125 
L 81.057902 234.574125 
L 81.057902 231.406125 
L 81.323616 231.406125 
L 81.323616 231.010125 
L 81.58933 231.010125 
L 81.58933 229.822125 
L 81.855045 229.822125 
L 81.855045 225.070125 
L 82.120759 225.070125 
L 82.120759 222.694125 
L 82.917902 222.694125 
L 82.917902 222.298125 
L 83.183616 222.298125 
L 83.183616 217.150125 
L 83.44933 217.150125 
L 83.44933 216.358125 
L 83.715045 216.358125 
L 83.715045 214.378125 
L 84.246473 214.378125 
L 84.246473 213.982125 
L 84.512188 213.982125 
L 84.512188 211.606125 
L 84.777902 211.606125 
L 84.777902 210.418125 
L 85.043616 210.418125 
L 85.043616 209.626125 
L 85.30933 209.626125 
L 85.30933 209.230125 
L 85.575045 209.230125 
L 85.575045 208.834125 
L 86.106473 208.834125 
L 86.106473 206.854125 
L 86.372187 206.854125 
L 86.372187 206.458125 
L 86.637902 206.458125 
L 86.637902 205.666125 
L 87.435045 205.666125 
L 87.435045 204.478125 
L 87.966473 204.478125 
L 87.966473 203.686125 
L 88.763616 203.686125 
L 88.763616 202.894125 
L 89.295045 202.894125 
L 89.295045 202.102125 
L 89.826473 202.102125 
L 89.826473 201.706125 
L 90.092188 201.706125 
L 90.092188 200.914125 
L 90.623616 200.914125 
L 90.623616 200.518125 
L 91.155045 200.518125 
L 91.155045 199.726125 
L 91.686473 199.726125 
L 91.686473 199.330125 
L 92.217902 199.330125 
L 92.217902 197.746125 
L 92.74933 197.746125 
L 92.74933 197.350125 
L 93.015045 197.350125 
L 93.015045 196.954125 
L 93.280759 196.954125 
L 93.280759 196.558125 
L 93.546473 196.558125 
L 93.546473 193.786125 
L 93.812188 193.786125 
L 93.812188 191.410125 
L 94.077902 191.410125 
L 94.077902 191.014125 
L 94.343616 191.014125 
L 94.343616 190.222125 
L 94.60933 190.222125 
L 94.60933 189.826125 
L 95.406473 189.826125 
L 95.406473 187.846125 
L 95.672188 187.846125 
L 95.672188 187.450125 
L 96.203616 187.450125 
L 96.203616 187.054125 
L 96.735045 187.054125 
L 96.735045 186.658125 
L 97.266473 186.658125 
L 97.266473 186.262125 
L 97.797902 186.262125 
L 97.797902 185.866125 
L 98.063616 185.866125 
L 98.063616 184.282125 
L 98.32933 184.282125 
L 98.32933 183.490125 
L 98.595045 183.490125 
L 98.595045 182.698125 
L 98.860759 182.698125 
L 98.860759 182.302125 
L 99.126473 182.302125 
L 99.126473 181.906125 
L 99.392188 181.906125 
L 99.392188 180.322125 
L 99.657902 180.322125 
L 99.657902 179.926125 
L 99.923616 179.926125 
L 99.923616 179.530125 
L 100.455045 179.530125 
L 100.455045 179.134125 
L 100.720759 179.134125 
L 100.720759 178.738125 
L 101.252188 178.738125 
L 101.252188 177.946125 
L 102.04933 177.946125 
L 102.04933 177.154125 
L 102.315045 177.154125 
L 102.315045 176.758125 
L 102.846473 176.758125 
L 102.846473 175.570125 
L 103.112188 175.570125 
L 103.112188 174.382125 
L 103.377902 174.382125 
L 103.377902 173.590125 
L 103.643616 173.590125 
L 103.643616 172.798125 
L 103.90933 172.798125 
L 103.90933 172.402125 
L 104.175045 172.402125 
L 104.175045 170.818125 
L 104.706473 170.818125 
L 104.706473 169.234125 
L 104.972188 169.234125 
L 104.972188 168.838125 
L 105.237902 168.838125 
L 105.237902 168.442125 
L 105.503616 168.442125 
L 105.503616 168.046125 
L 106.035045 168.046125 
L 106.035045 167.650125 
L 106.300759 167.650125 
L 106.300759 167.254125 
L 106.566473 167.254125 
L 106.566473 166.858125 
L 106.832188 166.858125 
L 106.832188 166.462125 
L 107.895045 166.462125 
L 107.895045 166.066125 
L 108.160759 166.066125 
L 108.160759 165.670125 
L 108.426473 165.670125 
L 108.426473 165.274125 
L 108.692188 165.274125 
L 108.692188 164.878125 
L 108.957902 164.878125 
L 108.957902 164.086125 
L 109.48933 164.086125 
L 109.48933 163.294125 
L 110.020759 163.294125 
L 110.020759 162.898125 
L 110.286473 162.898125 
L 110.286473 161.314125 
L 110.817902 161.314125 
L 110.817902 159.730125 
L 111.615045 159.730125 
L 111.615045 159.334125 
L 111.880759 159.334125 
L 111.880759 158.938125 
L 112.146473 158.938125 
L 112.146473 157.750125 
L 112.412188 157.750125 
L 112.412188 157.354125 
L 112.677902 157.354125 
L 112.677902 156.958125 
L 112.943616 156.958125 
L 112.943616 156.562125 
L 113.20933 156.562125 
L 113.20933 155.374125 
L 113.475045 155.374125 
L 113.475045 154.978125 
L 113.740759 154.978125 
L 113.740759 153.790125 
L 114.803616 153.790125 
L 114.803616 152.998125 
L 115.335045 152.998125 
L 115.335045 152.206125 
L 116.92933 152.206125 
L 116.92933 151.414125 
L 117.460759 151.414125 
L 117.460759 151.018125 
L 117.726473 151.018125 
L 117.726473 150.622125 
L 118.257902 150.622125 
L 118.257902 150.226125 
L 119.320759 150.226125 
L 119.320759 149.434125 
L 119.852188 149.434125 
L 119.852188 148.246125 
L 120.117902 148.246125 
L 120.117902 147.058125 
L 120.383616 147.058125 
L 120.383616 146.266125 
L 121.180759 146.266125 
L 121.180759 145.078125 
L 121.446473 145.078125 
L 121.446473 144.286125 
L 121.977902 144.286125 
L 121.977902 143.890125 
L 122.243616 143.890125 
L 122.243616 140.722125 
L 122.775045 140.722125 
L 122.775045 140.326125 
L 123.040759 140.326125 
L 123.040759 139.138125 
L 124.103616 139.138125 
L 124.103616 138.742125 
L 125.432187 138.742125 
L 125.432187 137.950125 
L 125.963616 137.950125 
L 125.963616 137.554125 
L 126.760759 137.554125 
L 126.760759 137.158125 
L 127.823616 137.158125 
L 127.823616 136.762125 
L 128.08933 136.762125 
L 128.08933 135.970125 
L 128.355045 135.970125 
L 128.355045 135.574125 
L 128.886473 135.574125 
L 128.886473 133.594125 
L 129.417902 133.594125 
L 129.417902 133.198125 
L 129.683616 133.198125 
L 129.683616 132.406125 
L 129.94933 132.406125 
L 129.94933 132.010125 
L 130.215045 132.010125 
L 130.215045 131.614125 
L 130.480759 131.614125 
L 130.480759 130.426125 
L 131.012188 130.426125 
L 131.012188 129.634125 
L 131.277902 129.634125 
L 131.277902 129.238125 
L 131.80933 129.238125 
L 131.80933 128.446125 
L 132.075045 128.446125 
L 132.075045 128.050125 
L 133.935045 128.050125 
L 133.935045 127.654125 
L 134.200759 127.654125 
L 134.200759 126.862125 
L 135.263616 126.862125 
L 135.263616 126.466125 
L 135.52933 126.466125 
L 135.52933 124.882125 
L 136.857902 124.882125 
L 136.857902 123.694125 
L 137.123616 123.694125 
L 137.123616 121.714125 
L 137.38933 121.714125 
L 137.38933 121.318125 
L 137.655045 121.318125 
L 137.655045 120.922125 
L 138.186473 120.922125 
L 138.186473 120.526125 
L 138.717902 120.526125 
L 138.717902 120.130125 
L 139.24933 120.130125 
L 139.24933 119.338125 
L 139.515045 119.338125 
L 139.515045 118.150125 
L 140.046473 118.150125 
L 140.046473 116.962125 
L 140.312187 116.962125 
L 140.312187 115.774125 
L 140.843616 115.774125 
L 140.843616 114.982125 
L 141.375045 114.982125 
L 141.375045 114.190125 
L 141.906473 114.190125 
L 141.906473 113.398125 
L 142.96933 113.398125 
L 142.96933 112.606125 
L 143.235045 112.606125 
L 143.235045 110.230125 
L 144.297902 110.230125 
L 144.297902 109.834125 
L 144.82933 109.834125 
L 144.82933 107.854125 
L 145.360759 107.854125 
L 145.360759 107.062125 
L 148.283616 107.062125 
L 148.283616 106.666125 
L 149.080759 106.666125 
L 149.080759 106.270125 
L 149.346473 106.270125 
L 149.346473 105.478125 
L 149.612188 105.478125 
L 149.612188 105.082125 
L 149.877902 105.082125 
L 149.877902 104.686125 
L 150.143616 104.686125 
L 150.143616 104.290125 
L 151.472188 104.290125 
L 151.472188 103.498125 
L 151.737902 103.498125 
L 151.737902 101.914125 
L 152.26933 101.914125 
L 152.26933 100.330125 
L 154.12933 100.330125 
L 154.12933 99.538125 
L 154.395045 99.538125 
L 154.395045 98.350125 
L 154.926473 98.350125 
L 154.926473 96.766125 
L 155.192188 96.766125 
L 155.192188 96.370125 
L 155.457902 96.370125 
L 155.457902 95.974125 
L 155.723616 95.974125 
L 155.723616 95.182125 
L 155.98933 95.182125 
L 155.98933 93.202125 
L 156.520759 93.202125 
L 156.520759 92.410125 
L 156.786473 92.410125 
L 156.786473 92.014125 
L 157.583616 92.014125 
L 157.583616 91.618125 
L 157.84933 91.618125 
L 157.84933 91.222125 
L 158.646473 91.222125 
L 158.646473 90.826125 
L 158.912188 90.826125 
L 158.912188 90.430125 
L 159.443616 90.430125 
L 159.443616 89.242125 
L 160.506473 89.242125 
L 160.506473 87.262125 
L 161.56933 87.262125 
L 161.56933 86.866125 
L 162.100759 86.866125 
L 162.100759 86.470125 
L 163.163616 86.470125 
L 163.163616 85.678125 
L 163.42933 85.678125 
L 163.42933 85.282125 
L 163.695045 85.282125 
L 163.695045 84.094125 
L 163.960759 84.094125 
L 163.960759 83.698125 
L 164.492188 83.698125 
L 164.492188 83.302125 
L 164.757902 83.302125 
L 164.757902 82.906125 
L 165.555045 82.906125 
L 165.555045 82.510125 
L 165.820759 82.510125 
L 165.820759 81.718125 
L 166.617902 81.718125 
L 166.617902 80.926125 
L 166.883616 80.926125 
L 166.883616 79.738125 
L 167.415045 79.738125 
L 167.415045 79.342125 
L 167.680759 79.342125 
L 167.680759 78.550125 
L 167.946473 78.550125 
L 167.946473 78.154125 
L 168.212187 78.154125 
L 168.212187 77.758125 
L 168.477902 77.758125 
L 168.477902 77.362125 
L 169.00933 77.362125 
L 169.00933 76.966125 
L 169.275045 76.966125 
L 169.275045 76.570125 
L 169.806473 76.570125 
L 169.806473 74.986125 
L 170.337902 74.986125 
L 170.337902 72.610125 
L 171.400759 72.610125 
L 171.400759 71.026125 
L 172.197902 71.026125 
L 172.197902 69.838125 
L 172.463616 69.838125 
L 172.463616 69.442125 
L 173.526473 69.442125 
L 173.526473 69.046125 
L 173.792188 69.046125 
L 173.792188 68.650125 
L 174.057902 68.650125 
L 174.057902 67.858125 
L 174.58933 67.858125 
L 174.58933 67.462125 
L 175.120759 67.462125 
L 175.120759 66.670125 
L 175.386473 66.670125 
L 175.386473 66.274125 
L 176.44933 66.274125 
L 176.44933 65.086125 
L 176.715045 65.086125 
L 176.715045 64.690125 
L 176.980759 64.690125 
L 176.980759 63.898125 
L 177.246473 63.898125 
L 177.246473 63.106125 
L 178.30933 63.106125 
L 178.30933 61.126125 
L 178.575045 61.126125 
L 178.575045 60.334125 
L 179.106473 60.334125 
L 179.106473 59.938125 
L 180.16933 59.938125 
L 180.16933 59.146125 
L 182.295045 59.146125 
L 182.295045 58.354125 
L 182.826473 58.354125 
L 182.826473 57.958125 
L 183.092187 57.958125 
L 183.092187 57.166125 
L 183.357902 57.166125 
L 183.357902 55.978125 
L 183.623616 55.978125 
L 183.623616 55.582125 
L 184.686473 55.582125 
L 184.686473 55.186125 
L 185.74933 55.186125 
L 185.74933 54.790125 
L 186.812187 54.790125 
L 186.812187 54.394125 
L 187.343616 54.394125 
L 187.343616 53.998125 
L 187.875045 53.998125 
L 187.875045 53.602125 
L 188.672188 53.602125 
L 188.672188 52.810125 
L 188.937902 52.810125 
L 188.937902 52.414125 
L 190.266473 52.414125 
L 190.266473 52.018125 
L 190.797902 52.018125 
L 190.797902 51.622125 
L 191.063616 51.622125 
L 191.063616 51.226125 
L 192.657902 51.226125 
L 192.657902 50.830125 
L 194.517902 50.830125 
L 194.517902 50.434125 
L 195.315045 50.434125 
L 195.315045 50.038125 
L 195.846473 50.038125 
L 195.846473 49.642125 
L 196.643616 49.642125 
L 196.643616 48.058125 
L 197.706473 48.058125 
L 197.706473 47.662125 
L 198.503616 47.662125 
L 198.503616 47.266125 
L 199.300759 47.266125 
L 199.300759 46.870125 
L 199.832188 46.870125 
L 199.832188 45.682125 
L 201.426473 45.682125 
L 201.426473 44.890125 
L 201.692188 44.890125 
L 201.692188 44.494125 
L 202.48933 44.494125 
L 202.48933 44.098125 
L 203.020759 44.098125 
L 203.020759 43.702125 
L 203.552188 43.702125 
L 203.552188 42.910125 
L 204.083616 42.910125 
L 204.083616 42.514125 
L 205.146473 42.514125 
L 205.146473 41.722125 
L 205.677902 41.722125 
L 205.677902 41.326125 
L 205.943616 41.326125 
L 205.943616 40.930125 
L 207.006473 40.930125 
L 207.006473 40.534125 
L 208.06933 40.534125 
L 208.06933 40.138125 
L 209.397902 40.138125 
L 209.397902 39.346125 
L 209.663616 39.346125 
L 209.663616 38.158125 
L 213.117902 38.158125 
L 213.117902 37.366125 
L 216.040759 37.366125 
L 216.040759 36.970125 
L 225.340759 36.970125 
L 225.340759 36.574125 
L 227.200759 36.574125 
L 227.200759 36.178125 
L 230.123616 36.178125 
L 230.123616 35.782125 
L 230.655045 35.782125 
L 230.655045 35.386125 
L 232.780759 35.386125 
L 232.780759 34.990125 
L 400.712187 34.990125 
L 400.712187 34.990125 
" clip-path="url(#p298420778d)" style="fill: none; stroke: #008000; stroke-width: 2; stroke-linecap: square"/>
   </g>
   <g id="line2d_28">
    <path d="M 60.597902 288.430125 
L 400.712187 34.990125 
" clip-path="url(#p298420778d)" style="fill: none; stroke-dasharray: 7.4,3.2; stroke-dashoffset: 0; stroke: #000000; stroke-width: 2"/>
   </g>
   <g id="patch_3">
    <path d="M 43.592188 288.430125 
L 43.592188 22.318125 
" style="fill: none; stroke: #000000; stroke-width: 2; stroke-linejoin: miter; stroke-linecap: square"/>
   </g>
   <g id="patch_4">
    <path d="M 400.712188 288.430125 
L 400.712188 22.318125 
" style="fill: none; stroke: #000000; stroke-width: 2; stroke-linejoin: miter; stroke-linecap: square"/>
   </g>
   <g id="patch_5">
    <path d="M 43.592188 288.430125 
L 400.712187 288.430125 
" style="fill: none; stroke: #000000; stroke-width: 2; stroke-linejoin: miter; stroke-linecap: square"/>
   </g>
   <g id="patch_6">
    <path d="M 43.592188 22.318125 
L 400.712187 22.318125 
" style="fill: none; stroke: #000000; stroke-width: 2; stroke-linejoin: miter; stroke-linecap: square"/>
   </g>
   <g id="text_15">
    <text style="font: 700 12px 'DejaVu Sans', 'Bitstream Vera Sans', 'Computer Modern Sans Serif', 'Lucida Grande', 'Verdana', 'Geneva', 'Lucid', 'Arial', 'Helvetica', 'Avant Garde', sans-serif; text-anchor: middle" x="222.152188" y="16.318125" transform="rotate(-0 222.152188 16.318125)">Multi-class classification ROC for dist features</text>
   </g>
   <g id="legend_1">
    <g id="patch_7">
     <path d="M 50.592188 74.3525 
L 309.35 74.3525 
Q 311.35 74.3525 311.35 72.3525 
L 311.35 29.318125 
Q 311.35 27.318125 309.35 27.318125 
L 50.592188 27.318125 
Q 48.592188 27.318125 48.592188 29.318125 
L 48.592188 72.3525 
Q 48.592188 74.3525 50.592188 74.3525 
z
" style="fill: #ffffff; opacity: 0.8; stroke: #cccccc; stroke-linejoin: miter"/>
    </g>
    <g id="line2d_29">
     <path d="M 52.592188 35.416562 
L 62.592188 35.416562 
L 72.592188 35.416562 
" style="fill: none; stroke: #ff0000; stroke-width: 2; stroke-linecap: square"/>
    </g>
    <g id="text_16">
     <text style="font: 700 10px 'DejaVu Sans', 'Bitstream Vera Sans', 'Computer Modern Sans Serif', 'Lucida Grande', 'Verdana', 'Geneva', 'Lucid', 'Arial', 'Helvetica', 'Avant Garde', sans-serif; text-anchor: start" x="80.592188" y="38.916562" transform="rotate(-0 80.592188 38.916562)">ROC curve (area = 0.44) for class mc6</text>
    </g>
    <g id="line2d_30">
     <path d="M 52.592188 50.094688 
L 62.592188 50.094688 
L 72.592188 50.094688 
" style="fill: none; stroke: #0000ff; stroke-width: 2; stroke-linecap: square"/>
    </g>
    <g id="text_17">
     <text style="font: 700 10px 'DejaVu Sans', 'Bitstream Vera Sans', 'Computer Modern Sans Serif', 'Lucida Grande', 'Verdana', 'Geneva', 'Lucid', 'Arial', 'Helvetica', 'Avant Garde', sans-serif; text-anchor: start" x="80.592188" y="53.594688" transform="rotate(-0 80.592188 53.594688)">ROC curve (area = 0.51) for class mc6s</text>
    </g>
    <g id="line2d_31">
     <path d="M 52.592188 64.772812 
L 62.592188 64.772812 
L 72.592188 64.772812 
" style="fill: none; stroke: #008000; stroke-width: 2; stroke-linecap: square"/>
    </g>
    <g id="text_18">
     <text style="font: 700 10px 'DejaVu Sans', 'Bitstream Vera Sans', 'Computer Modern Sans Serif', 'Lucida Grande', 'Verdana', 'Geneva', 'Lucid', 'Arial', 'Helvetica', 'Avant Garde', sans-serif; text-anchor: start" x="80.592188" y="68.272812" transform="rotate(-0 80.592188 68.272812)">ROC curve (area = 0.83) for class mc6sa</text>
    </g>
   </g>
  </g>
 </g>
 <defs>
  <clipPath id="p298420778d">
   <rect x="43.592188" y="22.318125" width="357.12" height="266.112"/>
  </clipPath>
 </defs>
</svg>
