<?xml version="1.0" encoding="utf-8" standalone="no"?>
<!DOCTYPE svg PUBLIC "-//W3C//DTD SVG 1.1//EN"
  "http://www.w3.org/Graphics/SVG/1.1/DTD/svg11.dtd">
<svg xmlns:xlink="http://www.w3.org/1999/xlink" width="416.769219pt" height="323.986375pt" viewBox="0 0 416.769219 323.986375" xmlns="http://www.w3.org/2000/svg" version="1.1">
 <metadata>
  <rdf:RDF xmlns:dc="http://purl.org/dc/elements/1.1/" xmlns:cc="http://creativecommons.org/ns#" xmlns:rdf="http://www.w3.org/1999/02/22-rdf-syntax-ns#">
   <cc:Work>
    <dc:type rdf:resource="http://purl.org/dc/dcmitype/StillImage"/>
    <dc:date>2023-10-03T23:09:57.335541</dc:date>
    <dc:format>image/svg+xml</dc:format>
    <dc:creator>
     <cc:Agent>
      <dc:title>Matplotlib v3.7.3, https://matplotlib.org/</dc:title>
     </cc:Agent>
    </dc:creator>
   </cc:Work>
  </rdf:RDF>
 </metadata>
 <defs>
  <style type="text/css">*{stroke-linejoin: round; stroke-linecap: butt}</style>
 </defs>
 <g id="figure_1">
  <g id="patch_1">
   <path d="M 0 323.986375 
L 416.769219 323.986375 
L 416.769219 0 
L 0 0 
z
" style="fill: #ffffff"/>
  </g>
  <g id="axes_1">
   <g id="patch_2">
    <path d="M 43.592188 288.430125 
L 400.712188 288.430125 
L 400.712188 22.318125 
L 43.592188 22.318125 
z
" style="fill: #ffffff"/>
   </g>
   <g id="matplotlib.axis_1">
    <g id="xtick_1">
     <g id="line2d_1">
      <defs>
       <path id="m22e807f28d" d="M 0 0 
L 0 -7 
" style="stroke: #000000; stroke-width: 2"/>
      </defs>
      <g>
       <use xlink:href="#m22e807f28d" x="60.597902" y="288.430125" style="stroke: #000000; stroke-width: 2"/>
      </g>
     </g>
     <g id="line2d_2">
      <defs>
       <path id="md43ebc8772" d="M 0 0 
L 0 7 
" style="stroke: #000000; stroke-width: 2"/>
      </defs>
      <g>
       <use xlink:href="#md43ebc8772" x="60.597902" y="22.318125" style="stroke: #000000; stroke-width: 2"/>
      </g>
     </g>
     <g id="text_1">
      <text style="font: 700 10px 'DejaVu Sans', 'Bitstream Vera Sans', 'Computer Modern Sans Serif', 'Lucida Grande', 'Verdana', 'Geneva', 'Lucid', 'Arial', 'Helvetica', 'Avant Garde', sans-serif; text-anchor: middle" x="60.597902" y="301.028562" transform="rotate(-0 60.597902 301.028562)">0.0</text>
     </g>
    </g>
    <g id="xtick_2">
     <g id="line2d_3">
      <g>
       <use xlink:href="#m22e807f28d" x="128.620759" y="288.430125" style="stroke: #000000; stroke-width: 2"/>
      </g>
     </g>
     <g id="line2d_4">
      <g>
       <use xlink:href="#md43ebc8772" x="128.620759" y="22.318125" style="stroke: #000000; stroke-width: 2"/>
      </g>
     </g>
     <g id="text_2">
      <text style="font: 700 10px 'DejaVu Sans', 'Bitstream Vera Sans', 'Computer Modern Sans Serif', 'Lucida Grande', 'Verdana', 'Geneva', 'Lucid', 'Arial', 'Helvetica', 'Avant Garde', sans-serif; text-anchor: middle" x="128.620759" y="301.028562" transform="rotate(-0 128.620759 301.028562)">0.2</text>
     </g>
    </g>
    <g id="xtick_3">
     <g id="line2d_5">
      <g>
       <use xlink:href="#m22e807f28d" x="196.643616" y="288.430125" style="stroke: #000000; stroke-width: 2"/>
      </g>
     </g>
     <g id="line2d_6">
      <g>
       <use xlink:href="#md43ebc8772" x="196.643616" y="22.318125" style="stroke: #000000; stroke-width: 2"/>
      </g>
     </g>
     <g id="text_3">
      <text style="font: 700 10px 'DejaVu Sans', 'Bitstream Vera Sans', 'Computer Modern Sans Serif', 'Lucida Grande', 'Verdana', 'Geneva', 'Lucid', 'Arial', 'Helvetica', 'Avant Garde', sans-serif; text-anchor: middle" x="196.643616" y="301.028562" transform="rotate(-0 196.643616 301.028562)">0.4</text>
     </g>
    </g>
    <g id="xtick_4">
     <g id="line2d_7">
      <g>
       <use xlink:href="#m22e807f28d" x="264.666473" y="288.430125" style="stroke: #000000; stroke-width: 2"/>
      </g>
     </g>
     <g id="line2d_8">
      <g>
       <use xlink:href="#md43ebc8772" x="264.666473" y="22.318125" style="stroke: #000000; stroke-width: 2"/>
      </g>
     </g>
     <g id="text_4">
      <text style="font: 700 10px 'DejaVu Sans', 'Bitstream Vera Sans', 'Computer Modern Sans Serif', 'Lucida Grande', 'Verdana', 'Geneva', 'Lucid', 'Arial', 'Helvetica', 'Avant Garde', sans-serif; text-anchor: middle" x="264.666473" y="301.028562" transform="rotate(-0 264.666473 301.028562)">0.6</text>
     </g>
    </g>
    <g id="xtick_5">
     <g id="line2d_9">
      <g>
       <use xlink:href="#m22e807f28d" x="332.68933" y="288.430125" style="stroke: #000000; stroke-width: 2"/>
      </g>
     </g>
     <g id="line2d_10">
      <g>
       <use xlink:href="#md43ebc8772" x="332.68933" y="22.318125" style="stroke: #000000; stroke-width: 2"/>
      </g>
     </g>
     <g id="text_5">
      <text style="font: 700 10px 'DejaVu Sans', 'Bitstream Vera Sans', 'Computer Modern Sans Serif', 'Lucida Grande', 'Verdana', 'Geneva', 'Lucid', 'Arial', 'Helvetica', 'Avant Garde', sans-serif; text-anchor: middle" x="332.68933" y="301.028562" transform="rotate(-0 332.68933 301.028562)">0.8</text>
     </g>
    </g>
    <g id="xtick_6">
     <g id="line2d_11">
      <g>
       <use xlink:href="#m22e807f28d" x="400.712188" y="288.430125" style="stroke: #000000; stroke-width: 2"/>
      </g>
     </g>
     <g id="line2d_12">
      <g>
       <use xlink:href="#md43ebc8772" x="400.712188" y="22.318125" style="stroke: #000000; stroke-width: 2"/>
      </g>
     </g>
     <g id="text_6">
      <text style="font: 700 10px 'DejaVu Sans', 'Bitstream Vera Sans', 'Computer Modern Sans Serif', 'Lucida Grande', 'Verdana', 'Geneva', 'Lucid', 'Arial', 'Helvetica', 'Avant Garde', sans-serif; text-anchor: middle" x="400.712188" y="301.028562" transform="rotate(-0 400.712188 301.028562)">1.0</text>
     </g>
    </g>
    <g id="text_7">
     <text style="font: 700 10px 'DejaVu Sans', 'Bitstream Vera Sans', 'Computer Modern Sans Serif', 'Lucida Grande', 'Verdana', 'Geneva', 'Lucid', 'Arial', 'Helvetica', 'Avant Garde', sans-serif; text-anchor: middle" x="222.152188" y="314.706687" transform="rotate(-0 222.152188 314.706687)">false positive rate</text>
    </g>
   </g>
   <g id="matplotlib.axis_2">
    <g id="ytick_1">
     <g id="line2d_13">
      <defs>
       <path id="m37e35bbc6b" d="M 0 0 
L 7 0 
" style="stroke: #000000; stroke-width: 2"/>
      </defs>
      <g>
       <use xlink:href="#m37e35bbc6b" x="43.592188" y="288.430125" style="stroke: #000000; stroke-width: 2"/>
      </g>
     </g>
     <g id="line2d_14">
      <defs>
       <path id="ma7fbe67801" d="M 0 0 
L -7 0 
" style="stroke: #000000; stroke-width: 2"/>
      </defs>
      <g>
       <use xlink:href="#ma7fbe67801" x="400.712188" y="288.430125" style="stroke: #000000; stroke-width: 2"/>
      </g>
     </g>
     <g id="text_8">
      <text style="font: 700 10px 'DejaVu Sans', 'Bitstream Vera Sans', 'Computer Modern Sans Serif', 'Lucida Grande', 'Verdana', 'Geneva', 'Lucid', 'Arial', 'Helvetica', 'Avant Garde', sans-serif; text-anchor: end" x="38.592188" y="292.229344" transform="rotate(-0 38.592188 292.229344)">0.0</text>
     </g>
    </g>
    <g id="ytick_2">
     <g id="line2d_15">
      <g>
       <use xlink:href="#m37e35bbc6b" x="43.592188" y="237.742125" style="stroke: #000000; stroke-width: 2"/>
      </g>
     </g>
     <g id="line2d_16">
      <g>
       <use xlink:href="#ma7fbe67801" x="400.712188" y="237.742125" style="stroke: #000000; stroke-width: 2"/>
      </g>
     </g>
     <g id="text_9">
      <text style="font: 700 10px 'DejaVu Sans', 'Bitstream Vera Sans', 'Computer Modern Sans Serif', 'Lucida Grande', 'Verdana', 'Geneva', 'Lucid', 'Arial', 'Helvetica', 'Avant Garde', sans-serif; text-anchor: end" x="38.592188" y="241.541344" transform="rotate(-0 38.592188 241.541344)">0.2</text>
     </g>
    </g>
    <g id="ytick_3">
     <g id="line2d_17">
      <g>
       <use xlink:href="#m37e35bbc6b" x="43.592188" y="187.054125" style="stroke: #000000; stroke-width: 2"/>
      </g>
     </g>
     <g id="line2d_18">
      <g>
       <use xlink:href="#ma7fbe67801" x="400.712188" y="187.054125" style="stroke: #000000; stroke-width: 2"/>
      </g>
     </g>
     <g id="text_10">
      <text style="font: 700 10px 'DejaVu Sans', 'Bitstream Vera Sans', 'Computer Modern Sans Serif', 'Lucida Grande', 'Verdana', 'Geneva', 'Lucid', 'Arial', 'Helvetica', 'Avant Garde', sans-serif; text-anchor: end" x="38.592188" y="190.853344" transform="rotate(-0 38.592188 190.853344)">0.4</text>
     </g>
    </g>
    <g id="ytick_4">
     <g id="line2d_19">
      <g>
       <use xlink:href="#m37e35bbc6b" x="43.592188" y="136.366125" style="stroke: #000000; stroke-width: 2"/>
      </g>
     </g>
     <g id="line2d_20">
      <g>
       <use xlink:href="#ma7fbe67801" x="400.712188" y="136.366125" style="stroke: #000000; stroke-width: 2"/>
      </g>
     </g>
     <g id="text_11">
      <text style="font: 700 10px 'DejaVu Sans', 'Bitstream Vera Sans', 'Computer Modern Sans Serif', 'Lucida Grande', 'Verdana', 'Geneva', 'Lucid', 'Arial', 'Helvetica', 'Avant Garde', sans-serif; text-anchor: end" x="38.592188" y="140.165344" transform="rotate(-0 38.592188 140.165344)">0.6</text>
     </g>
    </g>
    <g id="ytick_5">
     <g id="line2d_21">
      <g>
       <use xlink:href="#m37e35bbc6b" x="43.592188" y="85.678125" style="stroke: #000000; stroke-width: 2"/>
      </g>
     </g>
     <g id="line2d_22">
      <g>
       <use xlink:href="#ma7fbe67801" x="400.712188" y="85.678125" style="stroke: #000000; stroke-width: 2"/>
      </g>
     </g>
     <g id="text_12">
      <text style="font: 700 10px 'DejaVu Sans', 'Bitstream Vera Sans', 'Computer Modern Sans Serif', 'Lucida Grande', 'Verdana', 'Geneva', 'Lucid', 'Arial', 'Helvetica', 'Avant Garde', sans-serif; text-anchor: end" x="38.592188" y="89.477344" transform="rotate(-0 38.592188 89.477344)">0.8</text>
     </g>
    </g>
    <g id="ytick_6">
     <g id="line2d_23">
      <g>
       <use xlink:href="#m37e35bbc6b" x="43.592188" y="34.990125" style="stroke: #000000; stroke-width: 2"/>
      </g>
     </g>
     <g id="line2d_24">
      <g>
       <use xlink:href="#ma7fbe67801" x="400.712188" y="34.990125" style="stroke: #000000; stroke-width: 2"/>
      </g>
     </g>
     <g id="text_13">
      <text style="font: 700 10px 'DejaVu Sans', 'Bitstream Vera Sans', 'Computer Modern Sans Serif', 'Lucida Grande', 'Verdana', 'Geneva', 'Lucid', 'Arial', 'Helvetica', 'Avant Garde', sans-serif; text-anchor: end" x="38.592188" y="38.789344" transform="rotate(-0 38.592188 38.789344)">1.0</text>
     </g>
    </g>
    <g id="text_14">
     <text style="font: 700 10px 'DejaVu Sans', 'Bitstream Vera Sans', 'Computer Modern Sans Serif', 'Lucida Grande', 'Verdana', 'Geneva', 'Lucid', 'Arial', 'Helvetica', 'Avant Garde', sans-serif; text-anchor: middle" x="14.798438" y="155.374125" transform="rotate(-90 14.798438 155.374125)">true positive rate</text>
    </g>
   </g>
   <g id="line2d_25">
    <path d="M 60.597902 288.430125 
L 89.295045 288.430125 
L 89.295045 288.034125 
L 91.155045 288.034125 
L 91.155045 287.638125 
L 91.952188 287.638125 
L 91.952188 287.242125 
L 93.015045 287.242125 
L 93.015045 286.846125 
L 95.937902 286.846125 
L 95.937902 286.450125 
L 100.986473 286.450125 
L 100.986473 286.054125 
L 102.315045 286.054125 
L 102.315045 285.658125 
L 110.020759 285.658125 
L 110.020759 285.262125 
L 110.552188 285.262125 
L 110.552188 284.866125 
L 111.34933 284.866125 
L 111.34933 284.470125 
L 111.880759 284.470125 
L 111.880759 284.074125 
L 112.412188 284.074125 
L 112.412188 283.678125 
L 113.740759 283.678125 
L 113.740759 283.282125 
L 114.006473 283.282125 
L 114.006473 282.886125 
L 115.335045 282.886125 
L 115.335045 282.490125 
L 115.866473 282.490125 
L 115.866473 282.094125 
L 117.726473 282.094125 
L 117.726473 280.906125 
L 117.992188 280.906125 
L 117.992188 280.510125 
L 120.915045 280.510125 
L 120.915045 280.114125 
L 124.36933 280.114125 
L 124.36933 279.718125 
L 128.355045 279.718125 
L 128.355045 279.322125 
L 137.123616 279.322125 
L 137.123616 278.926125 
L 141.10933 278.926125 
L 141.10933 278.530125 
L 145.626473 278.530125 
L 145.626473 278.134125 
L 148.017902 278.134125 
L 148.017902 277.738125 
L 149.346473 277.738125 
L 149.346473 277.342125 
L 149.612188 277.342125 
L 149.612188 276.946125 
L 150.40933 276.946125 
L 150.40933 276.550125 
L 151.472188 276.550125 
L 151.472188 274.966125 
L 152.800759 274.966125 
L 152.800759 274.570125 
L 153.066473 274.570125 
L 153.066473 273.778125 
L 154.395045 273.778125 
L 154.395045 273.382125 
L 154.660759 273.382125 
L 154.660759 272.986125 
L 155.457902 272.986125 
L 155.457902 272.590125 
L 155.723616 272.590125 
L 155.723616 272.194125 
L 156.255045 272.194125 
L 156.255045 271.798125 
L 156.786473 271.798125 
L 156.786473 271.006125 
L 157.052188 271.006125 
L 157.052188 270.610125 
L 157.317902 270.610125 
L 157.317902 270.214125 
L 157.84933 270.214125 
L 157.84933 269.818125 
L 158.380759 269.818125 
L 158.380759 267.442125 
L 158.646473 267.442125 
L 158.646473 267.046125 
L 159.975045 267.046125 
L 159.975045 266.650125 
L 161.037902 266.650125 
L 161.037902 265.858125 
L 161.303616 265.858125 
L 161.303616 265.462125 
L 161.835045 265.462125 
L 161.835045 264.670125 
L 162.100759 264.670125 
L 162.100759 263.878125 
L 162.632187 263.878125 
L 162.632187 263.086125 
L 162.897902 263.086125 
L 162.897902 262.690125 
L 164.492188 262.690125 
L 164.492188 262.294125 
L 164.757902 262.294125 
L 164.757902 261.898125 
L 165.023616 261.898125 
L 165.023616 261.106125 
L 165.28933 261.106125 
L 165.28933 259.522125 
L 166.352187 259.522125 
L 166.352187 258.730125 
L 166.617902 258.730125 
L 166.617902 257.938125 
L 169.00933 257.938125 
L 169.00933 256.750125 
L 169.275045 256.750125 
L 169.275045 255.958125 
L 169.540759 255.958125 
L 169.540759 255.166125 
L 171.135045 255.166125 
L 171.135045 254.770125 
L 172.197902 254.770125 
L 172.197902 253.978125 
L 172.463616 253.978125 
L 172.463616 253.582125 
L 172.995045 253.582125 
L 172.995045 253.186125 
L 175.652187 253.186125 
L 175.652187 251.998125 
L 176.44933 251.998125 
L 176.44933 251.602125 
L 176.715045 251.602125 
L 176.715045 251.206125 
L 176.980759 251.206125 
L 176.980759 250.414125 
L 177.512188 250.414125 
L 177.512188 249.622125 
L 177.777902 249.622125 
L 177.777902 248.830125 
L 178.043616 248.830125 
L 178.043616 248.434125 
L 179.106473 248.434125 
L 179.106473 247.642125 
L 179.903616 247.642125 
L 179.903616 247.246125 
L 180.16933 247.246125 
L 180.16933 246.454125 
L 180.435045 246.454125 
L 180.435045 245.662125 
L 180.700759 245.662125 
L 180.700759 245.266125 
L 181.232188 245.266125 
L 181.232188 244.474125 
L 181.763616 244.474125 
L 181.763616 244.078125 
L 182.560759 244.078125 
L 182.560759 243.682125 
L 182.826473 243.682125 
L 182.826473 243.286125 
L 183.092187 243.286125 
L 183.092187 242.890125 
L 183.357902 242.890125 
L 183.357902 242.494125 
L 184.952187 242.494125 
L 184.952187 241.702125 
L 185.217902 241.702125 
L 185.217902 241.306125 
L 185.483616 241.306125 
L 185.483616 240.910125 
L 186.015045 240.910125 
L 186.015045 240.514125 
L 186.812187 240.514125 
L 186.812187 239.326125 
L 187.077902 239.326125 
L 187.077902 238.930125 
L 187.343616 238.930125 
L 187.343616 238.534125 
L 187.60933 238.534125 
L 187.60933 238.138125 
L 188.406473 238.138125 
L 188.406473 237.346125 
L 189.46933 237.346125 
L 189.46933 236.554125 
L 190.000759 236.554125 
L 190.000759 236.158125 
L 190.797902 236.158125 
L 190.797902 235.366125 
L 191.063616 235.366125 
L 191.063616 234.970125 
L 191.860759 234.970125 
L 191.860759 234.178125 
L 192.126473 234.178125 
L 192.126473 232.198125 
L 192.392188 232.198125 
L 192.392188 231.406125 
L 192.657902 231.406125 
L 192.657902 229.030125 
L 192.923616 229.030125 
L 192.923616 227.446125 
L 193.455045 227.446125 
L 193.455045 226.258125 
L 193.720759 226.258125 
L 193.720759 225.070125 
L 193.986473 225.070125 
L 193.986473 222.694125 
L 194.517902 222.694125 
L 194.517902 221.902125 
L 194.783616 221.902125 
L 194.783616 221.110125 
L 195.04933 221.110125 
L 195.04933 219.526125 
L 195.315045 219.526125 
L 195.315045 218.338125 
L 195.580759 218.338125 
L 195.580759 217.546125 
L 196.377902 217.546125 
L 196.377902 217.150125 
L 196.643616 217.150125 
L 196.643616 214.774125 
L 197.175045 214.774125 
L 197.175045 214.378125 
L 197.706473 214.378125 
L 197.706473 213.982125 
L 198.237902 213.982125 
L 198.237902 209.626125 
L 198.76933 209.626125 
L 198.76933 209.230125 
L 199.035045 209.230125 
L 199.035045 208.438125 
L 199.566473 208.438125 
L 199.566473 208.042125 
L 199.832188 208.042125 
L 199.832188 207.646125 
L 200.097902 207.646125 
L 200.097902 207.250125 
L 201.692188 207.250125 
L 201.692188 206.854125 
L 201.957902 206.854125 
L 201.957902 206.062125 
L 202.223616 206.062125 
L 202.223616 205.666125 
L 202.48933 205.666125 
L 202.48933 205.270125 
L 203.020759 205.270125 
L 203.020759 204.874125 
L 203.552188 204.874125 
L 203.552188 204.478125 
L 204.34933 204.478125 
L 204.34933 204.082125 
L 204.615045 204.082125 
L 204.615045 202.894125 
L 204.880759 202.894125 
L 204.880759 201.706125 
L 205.146473 201.706125 
L 205.146473 200.914125 
L 205.412188 200.914125 
L 205.412188 197.746125 
L 205.677902 197.746125 
L 205.677902 196.162125 
L 206.475045 196.162125 
L 206.475045 195.766125 
L 207.006473 195.766125 
L 207.006473 194.974125 
L 207.272188 194.974125 
L 207.272188 194.182125 
L 207.537902 194.182125 
L 207.537902 191.014125 
L 208.06933 191.014125 
L 208.06933 190.618125 
L 208.335045 190.618125 
L 208.335045 189.826125 
L 208.600759 189.826125 
L 208.600759 189.430125 
L 209.397902 189.430125 
L 209.397902 188.638125 
L 209.663616 188.638125 
L 209.663616 188.242125 
L 209.92933 188.242125 
L 209.92933 187.450125 
L 210.460759 187.450125 
L 210.460759 185.866125 
L 210.726473 185.866125 
L 210.726473 185.074125 
L 211.257902 185.074125 
L 211.257902 183.490125 
L 211.78933 183.490125 
L 211.78933 182.698125 
L 212.055045 182.698125 
L 212.055045 181.510125 
L 212.320759 181.510125 
L 212.320759 181.114125 
L 213.117902 181.114125 
L 213.117902 180.322125 
L 213.383616 180.322125 
L 213.383616 178.342125 
L 213.64933 178.342125 
L 213.64933 177.550125 
L 213.915045 177.550125 
L 213.915045 176.758125 
L 215.243616 176.758125 
L 215.243616 176.362125 
L 215.50933 176.362125 
L 215.50933 174.382125 
L 216.040759 174.382125 
L 216.040759 173.590125 
L 216.306473 173.590125 
L 216.306473 172.402125 
L 216.837902 172.402125 
L 216.837902 172.006125 
L 217.36933 172.006125 
L 217.36933 171.214125 
L 217.635045 171.214125 
L 217.635045 170.818125 
L 218.166473 170.818125 
L 218.166473 170.026125 
L 218.697902 170.026125 
L 218.697902 168.442125 
L 220.292188 168.442125 
L 220.292188 168.046125 
L 220.557902 168.046125 
L 220.557902 167.254125 
L 221.08933 167.254125 
L 221.08933 166.858125 
L 221.355045 166.858125 
L 221.355045 166.066125 
L 221.620759 166.066125 
L 221.620759 165.274125 
L 222.152187 165.274125 
L 222.152187 164.878125 
L 222.94933 164.878125 
L 222.94933 163.690125 
L 224.012188 163.690125 
L 224.012188 163.294125 
L 224.543616 163.294125 
L 224.543616 162.898125 
L 224.80933 162.898125 
L 224.80933 162.106125 
L 225.075045 162.106125 
L 225.075045 161.710125 
L 225.606473 161.710125 
L 225.606473 161.314125 
L 226.403616 161.314125 
L 226.403616 160.522125 
L 226.935045 160.522125 
L 226.935045 160.126125 
L 227.200759 160.126125 
L 227.200759 159.730125 
L 227.997902 159.730125 
L 227.997902 158.938125 
L 228.263616 158.938125 
L 228.263616 158.542125 
L 228.795045 158.542125 
L 228.795045 158.146125 
L 229.060759 158.146125 
L 229.060759 156.562125 
L 229.857902 156.562125 
L 229.857902 155.770125 
L 230.123616 155.770125 
L 230.123616 155.374125 
L 230.920759 155.374125 
L 230.920759 154.978125 
L 231.452188 154.978125 
L 231.452188 154.582125 
L 231.717902 154.582125 
L 231.717902 153.790125 
L 232.24933 153.790125 
L 232.24933 153.394125 
L 232.515045 153.394125 
L 232.515045 152.602125 
L 232.780759 152.602125 
L 232.780759 151.414125 
L 233.046473 151.414125 
L 233.046473 150.622125 
L 234.10933 150.622125 
L 234.10933 150.226125 
L 234.375045 150.226125 
L 234.375045 149.830125 
L 234.906473 149.830125 
L 234.906473 148.642125 
L 235.437902 148.642125 
L 235.437902 148.246125 
L 235.703616 148.246125 
L 235.703616 147.454125 
L 235.96933 147.454125 
L 235.96933 146.662125 
L 236.235045 146.662125 
L 236.235045 146.266125 
L 237.563616 146.266125 
L 237.563616 145.474125 
L 238.360759 145.474125 
L 238.360759 145.078125 
L 238.626473 145.078125 
L 238.626473 143.494125 
L 238.892187 143.494125 
L 238.892187 143.098125 
L 239.423616 143.098125 
L 239.423616 141.514125 
L 239.68933 141.514125 
L 239.68933 141.118125 
L 241.017902 141.118125 
L 241.017902 140.722125 
L 241.283616 140.722125 
L 241.283616 139.930125 
L 242.877902 139.930125 
L 242.877902 139.534125 
L 243.40933 139.534125 
L 243.40933 137.950125 
L 244.472188 137.950125 
L 244.472188 137.158125 
L 244.737902 137.158125 
L 244.737902 133.198125 
L 245.26933 133.198125 
L 245.26933 132.802125 
L 245.535045 132.802125 
L 245.535045 132.406125 
L 246.066473 132.406125 
L 246.066473 132.010125 
L 246.332188 132.010125 
L 246.332188 131.614125 
L 246.597902 131.614125 
L 246.597902 130.030125 
L 247.12933 130.030125 
L 247.12933 129.634125 
L 247.926473 129.634125 
L 247.926473 129.238125 
L 248.98933 129.238125 
L 248.98933 128.842125 
L 249.255045 128.842125 
L 249.255045 128.050125 
L 249.520759 128.050125 
L 249.520759 127.654125 
L 250.317902 127.654125 
L 250.317902 127.258125 
L 250.84933 127.258125 
L 250.84933 126.070125 
L 251.115045 126.070125 
L 251.115045 125.278125 
L 251.646473 125.278125 
L 251.646473 124.486125 
L 251.912188 124.486125 
L 251.912188 123.298125 
L 252.70933 123.298125 
L 252.70933 122.902125 
L 253.240759 122.902125 
L 253.240759 122.506125 
L 253.506473 122.506125 
L 253.506473 122.110125 
L 254.56933 122.110125 
L 254.56933 121.714125 
L 255.100759 121.714125 
L 255.100759 121.318125 
L 256.163616 121.318125 
L 256.163616 120.922125 
L 256.42933 120.922125 
L 256.42933 118.546125 
L 256.960759 118.546125 
L 256.960759 117.358125 
L 257.226473 117.358125 
L 257.226473 116.170125 
L 257.492188 116.170125 
L 257.492188 115.774125 
L 258.820759 115.774125 
L 258.820759 115.378125 
L 259.086473 115.378125 
L 259.086473 114.586125 
L 259.617902 114.586125 
L 259.617902 114.190125 
L 259.883616 114.190125 
L 259.883616 113.794125 
L 260.415045 113.794125 
L 260.415045 111.814125 
L 260.946473 111.814125 
L 260.946473 110.626125 
L 261.212187 110.626125 
L 261.212187 109.042125 
L 261.477902 109.042125 
L 261.477902 108.250125 
L 261.743616 108.250125 
L 261.743616 107.854125 
L 262.00933 107.854125 
L 262.00933 107.062125 
L 262.540759 107.062125 
L 262.540759 106.666125 
L 262.806473 106.666125 
L 262.806473 106.270125 
L 263.337902 106.270125 
L 263.337902 105.478125 
L 263.86933 105.478125 
L 263.86933 104.290125 
L 265.72933 104.290125 
L 265.72933 103.894125 
L 266.526473 103.894125 
L 266.526473 103.102125 
L 268.917902 103.102125 
L 268.917902 101.914125 
L 269.44933 101.914125 
L 269.44933 101.122125 
L 269.715045 101.122125 
L 269.715045 100.726125 
L 269.980759 100.726125 
L 269.980759 100.330125 
L 270.246473 100.330125 
L 270.246473 99.538125 
L 271.043616 99.538125 
L 271.043616 99.142125 
L 271.30933 99.142125 
L 271.30933 98.350125 
L 271.840759 98.350125 
L 271.840759 97.954125 
L 272.637902 97.954125 
L 272.637902 97.162125 
L 272.903616 97.162125 
L 272.903616 96.370125 
L 273.16933 96.370125 
L 273.16933 95.974125 
L 273.700759 95.974125 
L 273.700759 95.578125 
L 274.232188 95.578125 
L 274.232188 94.786125 
L 275.02933 94.786125 
L 275.02933 93.598125 
L 275.560759 93.598125 
L 275.560759 93.202125 
L 277.420759 93.202125 
L 277.420759 92.410125 
L 279.280759 92.410125 
L 279.280759 92.014125 
L 279.546473 92.014125 
L 279.546473 91.618125 
L 279.812187 91.618125 
L 279.812187 91.222125 
L 280.343616 91.222125 
L 280.343616 89.638125 
L 280.60933 89.638125 
L 280.60933 89.242125 
L 281.937902 89.242125 
L 281.937902 87.262125 
L 282.203616 87.262125 
L 282.203616 86.866125 
L 282.46933 86.866125 
L 282.46933 86.074125 
L 283.266473 86.074125 
L 283.266473 85.282125 
L 284.063616 85.282125 
L 284.063616 84.490125 
L 284.860759 84.490125 
L 284.860759 84.094125 
L 285.392187 84.094125 
L 285.392187 83.698125 
L 285.657902 83.698125 
L 285.657902 83.302125 
L 285.923616 83.302125 
L 285.923616 82.906125 
L 288.04933 82.906125 
L 288.04933 82.114125 
L 288.315045 82.114125 
L 288.315045 80.926125 
L 289.643616 80.926125 
L 289.643616 80.530125 
L 289.90933 80.530125 
L 289.90933 79.342125 
L 290.175045 79.342125 
L 290.175045 78.946125 
L 290.440759 78.946125 
L 290.440759 78.550125 
L 290.706473 78.550125 
L 290.706473 77.362125 
L 290.972188 77.362125 
L 290.972188 75.778125 
L 291.237902 75.778125 
L 291.237902 75.382125 
L 292.300759 75.382125 
L 292.300759 74.986125 
L 292.832188 74.986125 
L 292.832188 73.798125 
L 293.62933 73.798125 
L 293.62933 73.402125 
L 293.895045 73.402125 
L 293.895045 73.006125 
L 294.160759 73.006125 
L 294.160759 71.422125 
L 294.426473 71.422125 
L 294.426473 71.026125 
L 295.223616 71.026125 
L 295.223616 70.630125 
L 295.755045 70.630125 
L 295.755045 69.838125 
L 297.34933 69.838125 
L 297.34933 69.046125 
L 297.880759 69.046125 
L 297.880759 68.650125 
L 298.943616 68.650125 
L 298.943616 66.274125 
L 301.06933 66.274125 
L 301.06933 65.086125 
L 301.866473 65.086125 
L 301.866473 64.690125 
L 303.195045 64.690125 
L 303.195045 63.898125 
L 303.460759 63.898125 
L 303.460759 63.502125 
L 303.726473 63.502125 
L 303.726473 63.106125 
L 306.383616 63.106125 
L 306.383616 62.314125 
L 306.64933 62.314125 
L 306.64933 61.918125 
L 306.915045 61.918125 
L 306.915045 61.522125 
L 307.446473 61.522125 
L 307.446473 60.730125 
L 308.243616 60.730125 
L 308.243616 60.334125 
L 308.50933 60.334125 
L 308.50933 59.542125 
L 309.040759 59.542125 
L 309.040759 59.146125 
L 309.572187 59.146125 
L 309.572187 58.750125 
L 309.837902 58.750125 
L 309.837902 57.958125 
L 310.103616 57.958125 
L 310.103616 57.562125 
L 310.900759 57.562125 
L 310.900759 57.166125 
L 311.166473 57.166125 
L 311.166473 56.770125 
L 311.432187 56.770125 
L 311.432187 55.582125 
L 311.697902 55.582125 
L 311.697902 55.186125 
L 311.963616 55.186125 
L 311.963616 54.790125 
L 312.22933 54.790125 
L 312.22933 54.394125 
L 312.495045 54.394125 
L 312.495045 53.602125 
L 312.760759 53.602125 
L 312.760759 52.414125 
L 313.292187 52.414125 
L 313.292187 52.018125 
L 313.557902 52.018125 
L 313.557902 50.830125 
L 313.823616 50.830125 
L 313.823616 50.434125 
L 314.08933 50.434125 
L 314.08933 50.038125 
L 315.417902 50.038125 
L 315.417902 49.246125 
L 317.277902 49.246125 
L 317.277902 48.058125 
L 318.340759 48.058125 
L 318.340759 47.662125 
L 321.263616 47.662125 
L 321.263616 47.266125 
L 321.52933 47.266125 
L 321.52933 45.286125 
L 322.326473 45.286125 
L 322.326473 44.098125 
L 323.920759 44.098125 
L 323.920759 42.910125 
L 326.843616 42.910125 
L 326.843616 42.514125 
L 328.172188 42.514125 
L 328.172188 42.118125 
L 328.703616 42.118125 
L 328.703616 41.722125 
L 330.032187 41.722125 
L 330.032187 41.326125 
L 330.563616 41.326125 
L 330.563616 40.930125 
L 333.752187 40.930125 
L 333.752187 40.534125 
L 334.815045 40.534125 
L 334.815045 40.138125 
L 335.612187 40.138125 
L 335.612187 39.742125 
L 337.206473 39.742125 
L 337.206473 39.346125 
L 339.597902 39.346125 
L 339.597902 38.158125 
L 342.255045 38.158125 
L 342.255045 37.762125 
L 344.646473 37.762125 
L 344.646473 37.366125 
L 345.975045 37.366125 
L 345.975045 36.970125 
L 347.56933 36.970125 
L 347.56933 36.574125 
L 353.680759 36.574125 
L 353.680759 36.178125 
L 355.00933 36.178125 
L 355.00933 35.782125 
L 361.120759 35.782125 
L 361.120759 35.386125 
L 361.386473 35.386125 
L 361.386473 34.990125 
L 400.712187 34.990125 
L 400.712187 34.990125 
" clip-path="url(#p08d4266c70)" style="fill: none; stroke: #ff0000; stroke-width: 2; stroke-linecap: square"/>
   </g>
   <g id="line2d_26">
    <path d="M 60.597902 288.430125 
L 60.597902 286.054125 
L 61.12933 285.262125 
L 61.926473 285.262125 
L 61.926473 284.866125 
L 62.457902 284.470125 
L 62.457902 284.074125 
L 63.520759 284.074125 
L 63.520759 283.678125 
L 63.786473 283.282125 
L 63.786473 282.886125 
L 64.317902 282.886125 
L 64.317902 282.094125 
L 64.583616 282.094125 
L 64.84933 281.698125 
L 64.84933 281.302125 
L 65.115045 281.302125 
L 65.115045 280.906125 
L 65.912188 280.906125 
L 65.912188 278.530125 
L 66.177902 278.530125 
L 66.177902 278.134125 
L 66.70933 278.134125 
L 66.70933 276.946125 
L 67.772188 276.946125 
L 67.772188 276.550125 
L 68.037902 276.550125 
L 68.037902 276.154125 
L 68.303616 275.758125 
L 68.303616 274.966125 
L 69.100759 274.966125 
L 69.100759 274.570125 
L 69.632188 274.570125 
L 69.632188 271.402125 
L 70.163616 271.402125 
L 70.163616 270.214125 
L 70.695045 270.214125 
L 70.695045 269.026125 
L 70.960759 269.026125 
L 70.960759 267.442125 
L 71.226473 267.442125 
L 71.226473 255.958125 
L 71.757902 255.958125 
L 71.757902 255.562125 
L 72.28933 255.562125 
L 72.28933 253.186125 
L 72.555045 253.186125 
L 72.555045 251.602125 
L 72.820759 251.602125 
L 72.820759 251.206125 
L 73.086473 251.206125 
L 73.086473 250.810125 
L 73.352187 250.810125 
L 73.352187 250.414125 
L 73.617902 250.414125 
L 73.617902 249.622125 
L 73.883616 249.622125 
L 73.883616 248.830125 
L 74.14933 248.830125 
L 74.14933 248.434125 
L 74.415045 248.434125 
L 74.415045 248.038125 
L 74.680759 248.038125 
L 74.680759 247.642125 
L 75.477902 247.642125 
L 75.477902 247.246125 
L 76.00933 247.246125 
L 76.00933 246.850125 
L 76.275045 246.850125 
L 76.275045 244.870125 
L 77.337902 244.870125 
L 77.337902 244.078125 
L 78.400759 244.078125 
L 78.400759 242.890125 
L 78.666473 242.890125 
L 78.666473 242.098125 
L 79.197902 242.098125 
L 79.197902 241.702125 
L 79.995045 241.702125 
L 79.995045 240.514125 
L 80.260759 240.514125 
L 80.260759 240.118125 
L 80.526473 239.326125 
L 80.526473 236.950125 
L 80.792188 236.950125 
L 80.792188 236.554125 
L 81.057902 236.554125 
L 81.057902 236.158125 
L 81.323616 236.158125 
L 81.323616 235.366125 
L 81.58933 235.366125 
L 81.58933 234.970125 
L 82.652188 234.970125 
L 82.652188 234.574125 
L 83.183616 234.574125 
L 83.183616 234.178125 
L 83.44933 234.178125 
L 83.44933 233.782125 
L 83.980759 233.782125 
L 83.980759 233.386125 
L 84.246473 233.386125 
L 84.246473 229.426125 
L 84.512188 229.426125 
L 84.512188 227.842125 
L 84.777902 227.842125 
L 84.777902 227.446125 
L 85.043616 227.446125 
L 85.043616 225.070125 
L 85.30933 225.070125 
L 85.30933 224.674125 
L 85.575045 224.674125 
L 85.575045 223.882125 
L 85.840759 223.882125 
L 85.840759 223.486125 
L 86.372187 223.486125 
L 86.372187 222.694125 
L 86.903616 222.694125 
L 86.903616 221.902125 
L 87.16933 221.902125 
L 87.16933 220.318125 
L 87.435045 220.318125 
L 87.435045 217.546125 
L 87.700759 217.546125 
L 87.700759 215.962125 
L 88.497902 215.962125 
L 88.497902 215.170125 
L 89.02933 215.170125 
L 89.02933 214.774125 
L 89.295045 214.774125 
L 89.295045 213.586125 
L 89.826473 213.586125 
L 89.826473 213.190125 
L 90.357902 213.190125 
L 90.357902 211.606125 
L 90.623616 211.606125 
L 90.623616 209.626125 
L 91.155045 209.626125 
L 91.155045 208.834125 
L 91.686473 208.834125 
L 91.686473 208.042125 
L 93.280759 208.042125 
L 93.280759 207.250125 
L 93.812188 207.250125 
L 93.812188 206.854125 
L 95.140759 206.854125 
L 95.140759 206.458125 
L 95.937902 206.458125 
L 95.937902 205.666125 
L 96.46933 205.666125 
L 96.46933 205.270125 
L 97.266473 205.270125 
L 97.266473 204.874125 
L 98.32933 204.874125 
L 98.32933 204.478125 
L 98.860759 204.478125 
L 98.860759 204.082125 
L 99.126473 204.082125 
L 99.126473 203.686125 
L 100.18933 203.686125 
L 100.18933 203.290125 
L 100.455045 203.290125 
L 100.455045 202.894125 
L 100.986473 202.894125 
L 100.986473 202.498125 
L 102.846473 202.498125 
L 102.846473 202.102125 
L 103.90933 202.102125 
L 103.90933 201.706125 
L 104.706473 201.706125 
L 104.706473 200.518125 
L 104.972188 200.518125 
L 104.972188 199.726125 
L 106.035045 199.726125 
L 106.035045 199.330125 
L 107.097902 199.330125 
L 107.097902 198.934125 
L 108.160759 198.934125 
L 108.160759 198.142125 
L 108.692188 198.142125 
L 108.692188 197.746125 
L 109.223616 197.746125 
L 109.223616 197.350125 
L 109.48933 197.350125 
L 109.48933 196.558125 
L 110.020759 196.558125 
L 110.020759 194.578125 
L 110.286473 194.578125 
L 110.286473 194.182125 
L 110.552188 194.182125 
L 110.552188 193.390125 
L 111.34933 193.390125 
L 111.34933 192.598125 
L 111.615045 192.598125 
L 111.615045 192.202125 
L 111.880759 192.202125 
L 111.880759 191.806125 
L 112.412188 191.806125 
L 112.412188 191.410125 
L 112.943616 191.410125 
L 112.943616 189.826125 
L 113.20933 189.826125 
L 113.20933 189.034125 
L 113.475045 189.034125 
L 113.475045 188.638125 
L 113.740759 188.638125 
L 113.740759 188.242125 
L 114.006473 188.242125 
L 114.006473 187.450125 
L 114.272188 187.450125 
L 114.272188 186.262125 
L 114.537902 186.262125 
L 114.537902 185.866125 
L 115.335045 185.866125 
L 115.335045 185.470125 
L 116.397902 185.470125 
L 116.397902 184.678125 
L 117.195045 184.678125 
L 117.195045 183.886125 
L 117.726473 183.886125 
L 117.726473 183.490125 
L 118.523616 183.490125 
L 118.523616 182.302125 
L 119.852188 182.302125 
L 119.852188 181.510125 
L 120.383616 181.510125 
L 120.383616 180.718125 
L 120.64933 180.718125 
L 120.64933 178.342125 
L 121.446473 178.342125 
L 121.446473 177.946125 
L 121.977902 177.946125 
L 121.977902 177.154125 
L 123.040759 177.154125 
L 123.040759 175.570125 
L 123.306473 175.570125 
L 123.306473 174.778125 
L 123.572187 174.778125 
L 123.572187 173.590125 
L 123.837902 173.590125 
L 123.837902 172.798125 
L 124.36933 172.798125 
L 124.36933 172.402125 
L 124.900759 172.402125 
L 124.900759 172.006125 
L 125.166473 172.006125 
L 125.166473 171.214125 
L 125.697902 171.214125 
L 125.697902 170.818125 
L 125.963616 170.818125 
L 125.963616 170.026125 
L 126.22933 170.026125 
L 126.22933 169.630125 
L 126.495045 169.630125 
L 126.495045 169.234125 
L 127.557902 169.234125 
L 127.557902 168.838125 
L 127.823616 168.838125 
L 127.823616 168.442125 
L 128.08933 168.442125 
L 128.08933 167.650125 
L 128.355045 167.650125 
L 128.355045 166.858125 
L 128.620759 166.858125 
L 128.620759 166.462125 
L 129.152187 166.462125 
L 129.152187 165.670125 
L 129.417902 165.670125 
L 129.417902 164.878125 
L 129.683616 164.878125 
L 129.683616 164.086125 
L 130.215045 164.086125 
L 130.215045 163.690125 
L 130.480759 163.690125 
L 130.480759 162.898125 
L 131.543616 162.898125 
L 131.543616 162.106125 
L 132.075045 162.106125 
L 132.075045 161.710125 
L 135.795045 161.710125 
L 135.795045 160.522125 
L 136.857902 160.522125 
L 136.857902 159.334125 
L 137.655045 159.334125 
L 137.655045 158.938125 
L 139.515045 158.938125 
L 139.515045 157.354125 
L 140.046473 157.354125 
L 140.046473 156.958125 
L 144.032187 156.958125 
L 144.032187 156.562125 
L 145.095045 156.562125 
L 145.095045 156.166125 
L 145.626473 156.166125 
L 145.626473 154.978125 
L 147.486473 154.978125 
L 147.486473 154.582125 
L 148.54933 154.582125 
L 148.54933 154.186125 
L 149.612188 154.186125 
L 149.612188 153.790125 
L 150.143616 153.790125 
L 150.143616 153.394125 
L 150.40933 153.394125 
L 150.40933 152.602125 
L 150.675045 152.602125 
L 150.675045 152.206125 
L 151.472188 152.206125 
L 151.472188 151.810125 
L 153.066473 151.810125 
L 153.066473 151.414125 
L 153.597902 151.414125 
L 153.597902 150.226125 
L 153.863616 150.226125 
L 153.863616 149.830125 
L 154.395045 149.830125 
L 154.395045 149.434125 
L 155.723616 149.434125 
L 155.723616 149.038125 
L 158.912188 149.038125 
L 158.912188 148.246125 
L 161.303616 148.246125 
L 161.303616 147.850125 
L 163.42933 147.850125 
L 163.42933 146.662125 
L 164.757902 146.662125 
L 164.757902 145.870125 
L 165.820759 145.870125 
L 165.820759 145.474125 
L 166.352187 145.474125 
L 166.352187 145.078125 
L 167.946473 145.078125 
L 167.946473 144.682125 
L 169.275045 144.682125 
L 169.275045 144.286125 
L 172.995045 144.286125 
L 172.995045 143.890125 
L 177.246473 143.890125 
L 177.246473 143.098125 
L 177.512188 143.098125 
L 177.512188 142.702125 
L 178.043616 142.702125 
L 178.043616 142.306125 
L 179.637902 142.306125 
L 179.637902 141.910125 
L 181.763616 141.910125 
L 181.763616 141.514125 
L 182.826473 141.514125 
L 182.826473 141.118125 
L 183.623616 141.118125 
L 183.623616 140.722125 
L 187.343616 140.722125 
L 187.343616 140.326125 
L 189.46933 140.326125 
L 189.46933 139.930125 
L 193.18933 139.930125 
L 193.18933 139.534125 
L 193.986473 139.534125 
L 193.986473 139.138125 
L 199.300759 139.138125 
L 199.300759 138.346125 
L 205.146473 138.346125 
L 205.146473 137.950125 
L 205.677902 137.950125 
L 205.677902 137.554125 
L 206.20933 137.554125 
L 206.20933 137.158125 
L 206.475045 137.158125 
L 206.475045 136.762125 
L 214.712187 136.762125 
L 214.712187 136.366125 
L 215.243616 136.366125 
L 215.243616 135.970125 
L 217.103616 135.970125 
L 217.103616 135.574125 
L 222.683616 135.574125 
L 222.683616 135.178125 
L 227.732188 135.178125 
L 227.732188 134.782125 
L 229.857902 134.782125 
L 229.857902 134.386125 
L 230.38933 134.386125 
L 230.38933 133.990125 
L 230.920759 133.990125 
L 230.920759 133.594125 
L 234.10933 133.594125 
L 234.10933 133.198125 
L 239.955045 133.198125 
L 239.955045 132.802125 
L 247.926473 132.802125 
L 247.926473 132.406125 
L 249.786473 132.406125 
L 249.786473 132.010125 
L 251.380759 132.010125 
L 251.380759 131.614125 
L 251.646473 131.614125 
L 251.646473 131.218125 
L 263.86933 131.218125 
L 263.86933 130.822125 
L 274.497902 130.822125 
L 274.497902 130.426125 
L 282.203616 130.426125 
L 282.203616 130.030125 
L 400.712187 130.030125 
L 400.712187 34.990125 
L 400.712187 34.990125 
" clip-path="url(#p08d4266c70)" style="fill: none; stroke: #0000ff; stroke-width: 2; stroke-linecap: square"/>
   </g>
   <g id="line2d_27">
    <path d="M 60.597902 288.430125 
L 60.597902 278.926125 
L 60.863616 278.926125 
L 60.863616 278.134125 
L 61.12933 278.134125 
L 61.12933 276.550125 
L 61.395045 276.550125 
L 61.395045 276.154125 
L 61.926473 276.154125 
L 61.926473 275.362125 
L 62.192188 275.362125 
L 62.192188 274.174125 
L 62.98933 274.174125 
L 62.98933 272.590125 
L 63.520759 272.590125 
L 63.520759 270.610125 
L 64.052188 270.610125 
L 64.052188 270.214125 
L 64.317902 270.214125 
L 64.317902 268.234125 
L 64.583616 268.234125 
L 64.583616 263.878125 
L 64.84933 263.878125 
L 64.84933 260.314125 
L 65.115045 260.314125 
L 65.115045 259.126125 
L 65.380759 259.126125 
L 65.380759 258.334125 
L 65.646473 258.334125 
L 65.646473 257.938125 
L 65.912188 257.938125 
L 65.912188 256.750125 
L 66.443616 256.750125 
L 66.70933 256.354125 
L 66.70933 254.374125 
L 66.975045 254.374125 
L 66.975045 253.978125 
L 67.240759 253.978125 
L 67.240759 253.582125 
L 67.506473 253.186125 
L 67.506473 250.810125 
L 67.772188 250.810125 
L 67.772188 250.414125 
L 68.303616 250.414125 
L 68.303616 246.850125 
L 68.835045 246.850125 
L 68.835045 246.454125 
L 69.100759 246.454125 
L 69.100759 244.078125 
L 69.366473 244.078125 
L 69.366473 243.682125 
L 69.632188 243.682125 
L 69.632188 243.286125 
L 69.897902 243.286125 
L 69.897902 242.890125 
L 70.163616 242.890125 
L 70.163616 238.534125 
L 70.695045 238.534125 
L 70.695045 236.950125 
L 70.960759 236.950125 
L 70.960759 235.366125 
L 71.226473 235.366125 
L 71.492188 234.970125 
L 71.492188 234.574125 
L 71.757902 234.574125 
L 71.757902 230.614125 
L 72.023616 230.614125 
L 72.023616 230.218125 
L 72.28933 230.218125 
L 72.28933 229.822125 
L 72.820759 229.822125 
L 72.820759 226.258125 
L 73.086473 226.258125 
L 73.086473 225.862125 
L 73.352187 225.862125 
L 73.352187 225.070125 
L 73.617902 225.070125 
L 73.617902 223.486125 
L 74.415045 223.486125 
L 74.415045 223.090125 
L 74.680759 223.090125 
L 74.680759 222.298125 
L 74.946473 222.298125 
L 74.946473 221.506125 
L 75.212187 221.506125 
L 75.212187 220.714125 
L 75.743616 220.714125 
L 75.743616 219.526125 
L 76.00933 219.526125 
L 76.00933 218.338125 
L 76.540759 218.338125 
L 76.540759 217.546125 
L 76.806473 217.546125 
L 76.806473 215.566125 
L 77.337902 215.566125 
L 77.337902 214.774125 
L 77.86933 214.774125 
L 77.86933 214.378125 
L 78.135045 214.378125 
L 78.135045 212.794125 
L 78.400759 212.794125 
L 78.400759 212.002125 
L 78.666473 212.002125 
L 78.666473 211.606125 
L 78.932187 211.606125 
L 78.932187 210.022125 
L 79.197902 210.022125 
L 79.197902 208.834125 
L 79.463616 208.834125 
L 79.463616 206.458125 
L 79.72933 206.458125 
L 79.72933 205.666125 
L 79.995045 205.666125 
L 79.995045 205.270125 
L 81.057902 205.270125 
L 81.057902 204.478125 
L 81.323616 204.478125 
L 81.323616 203.686125 
L 81.58933 203.686125 
L 81.58933 203.290125 
L 81.855045 203.290125 
L 81.855045 202.102125 
L 82.120759 202.102125 
L 82.120759 200.122125 
L 82.386473 200.122125 
L 82.386473 198.142125 
L 83.183616 198.142125 
L 83.183616 197.350125 
L 83.44933 197.350125 
L 83.44933 194.974125 
L 83.715045 194.974125 
L 83.715045 194.578125 
L 83.980759 194.578125 
L 83.980759 192.598125 
L 84.246473 192.598125 
L 84.246473 191.806125 
L 84.512188 191.806125 
L 84.512188 191.410125 
L 84.777902 191.410125 
L 84.777902 191.014125 
L 85.575045 191.014125 
L 85.575045 189.826125 
L 86.637902 189.826125 
L 86.637902 189.430125 
L 87.435045 189.430125 
L 87.435045 189.034125 
L 87.700759 189.034125 
L 87.700759 188.638125 
L 88.763616 188.638125 
L 88.763616 188.242125 
L 89.560759 188.242125 
L 89.560759 185.866125 
L 90.623616 185.866125 
L 90.623616 184.678125 
L 91.155045 184.678125 
L 91.155045 183.886125 
L 91.420759 183.886125 
L 91.420759 183.490125 
L 91.686473 183.490125 
L 91.686473 183.094125 
L 92.217902 183.094125 
L 92.217902 182.698125 
L 92.483616 182.698125 
L 92.483616 182.302125 
L 93.280759 182.302125 
L 93.280759 181.906125 
L 93.812188 181.906125 
L 93.812188 181.114125 
L 94.343616 181.114125 
L 94.343616 179.926125 
L 94.875045 179.926125 
L 94.875045 179.530125 
L 95.140759 179.530125 
L 95.140759 179.134125 
L 95.937902 179.134125 
L 95.937902 178.342125 
L 96.46933 178.342125 
L 96.46933 177.946125 
L 97.532188 177.946125 
L 97.532188 177.154125 
L 98.063616 177.154125 
L 98.063616 176.362125 
L 98.32933 176.362125 
L 98.32933 173.590125 
L 99.126473 173.590125 
L 99.126473 172.006125 
L 99.392188 172.006125 
L 99.392188 171.214125 
L 99.923616 171.214125 
L 99.923616 169.630125 
L 100.18933 169.630125 
L 100.18933 167.254125 
L 100.455045 167.254125 
L 100.455045 165.670125 
L 100.720759 165.670125 
L 100.720759 165.274125 
L 100.986473 165.274125 
L 100.986473 164.878125 
L 101.252188 164.878125 
L 101.252188 163.294125 
L 101.517902 163.294125 
L 101.517902 161.710125 
L 101.783616 161.710125 
L 101.783616 161.314125 
L 102.580759 161.314125 
L 102.580759 160.126125 
L 103.112188 160.126125 
L 103.112188 158.542125 
L 103.90933 158.542125 
L 103.90933 158.146125 
L 104.175045 158.146125 
L 104.175045 157.750125 
L 104.440759 157.750125 
L 104.440759 157.354125 
L 104.972188 157.354125 
L 104.972188 156.958125 
L 105.237902 156.958125 
L 105.237902 155.770125 
L 105.76933 155.770125 
L 105.76933 155.374125 
L 106.035045 155.374125 
L 106.035045 154.978125 
L 106.300759 154.978125 
L 106.300759 154.582125 
L 107.097902 154.582125 
L 107.097902 154.186125 
L 107.363616 154.186125 
L 107.363616 152.998125 
L 108.160759 152.998125 
L 108.160759 152.602125 
L 108.426473 152.602125 
L 108.426473 152.206125 
L 109.755045 152.206125 
L 109.755045 151.810125 
L 110.020759 151.810125 
L 110.020759 151.018125 
L 110.286473 151.018125 
L 110.286473 150.622125 
L 110.552188 150.622125 
L 110.552188 150.226125 
L 111.34933 150.226125 
L 111.34933 149.830125 
L 111.880759 149.830125 
L 111.880759 149.434125 
L 112.412188 149.434125 
L 112.412188 149.038125 
L 112.677902 149.038125 
L 112.677902 148.642125 
L 113.740759 148.642125 
L 113.740759 148.246125 
L 114.272188 148.246125 
L 114.272188 147.058125 
L 117.992188 147.058125 
L 117.992188 146.662125 
L 118.257902 146.662125 
L 118.257902 146.266125 
L 118.523616 146.266125 
L 118.523616 145.474125 
L 119.852188 145.474125 
L 119.852188 145.078125 
L 120.383616 145.078125 
L 120.383616 144.682125 
L 125.697902 144.682125 
L 125.697902 143.890125 
L 126.760759 143.890125 
L 126.760759 143.494125 
L 127.026473 143.494125 
L 127.026473 142.702125 
L 129.683616 142.702125 
L 129.683616 142.306125 
L 130.480759 142.306125 
L 130.480759 141.910125 
L 131.277902 141.910125 
L 131.277902 141.514125 
L 133.66933 141.514125 
L 133.66933 141.118125 
L 133.935045 141.118125 
L 133.935045 140.722125 
L 134.200759 140.722125 
L 134.200759 140.326125 
L 136.326473 140.326125 
L 136.326473 139.534125 
L 136.857902 139.534125 
L 136.857902 139.138125 
L 137.123616 139.138125 
L 137.123616 138.742125 
L 140.312187 138.742125 
L 140.312187 137.950125 
L 140.577902 137.950125 
L 140.577902 137.554125 
L 141.375045 137.554125 
L 141.375045 137.158125 
L 141.640759 137.158125 
L 141.640759 136.366125 
L 142.172188 136.366125 
L 142.172188 135.970125 
L 142.96933 135.970125 
L 142.96933 135.574125 
L 143.235045 135.574125 
L 143.235045 135.178125 
L 143.766473 135.178125 
L 143.766473 134.782125 
L 144.563616 134.782125 
L 144.563616 133.198125 
L 146.423616 133.198125 
L 146.423616 132.802125 
L 146.68933 132.802125 
L 146.68933 132.010125 
L 147.220759 132.010125 
L 147.220759 130.822125 
L 147.486473 130.822125 
L 147.486473 130.030125 
L 147.752187 130.030125 
L 147.752187 129.238125 
L 148.017902 129.238125 
L 148.017902 128.842125 
L 148.283616 128.842125 
L 148.283616 128.446125 
L 149.346473 128.446125 
L 149.346473 128.050125 
L 149.612188 128.050125 
L 149.612188 127.654125 
L 149.877902 127.654125 
L 149.877902 126.070125 
L 150.675045 126.070125 
L 150.675045 123.298125 
L 151.472188 123.298125 
L 151.472188 122.902125 
L 151.737902 122.902125 
L 151.737902 122.506125 
L 152.003616 122.506125 
L 152.003616 122.110125 
L 152.535045 122.110125 
L 152.535045 121.318125 
L 153.597902 121.318125 
L 153.597902 120.922125 
L 154.395045 120.922125 
L 154.395045 120.526125 
L 154.660759 120.526125 
L 154.660759 120.130125 
L 154.926473 120.130125 
L 154.926473 119.734125 
L 155.192188 119.734125 
L 155.192188 118.942125 
L 155.457902 118.942125 
L 155.457902 117.754125 
L 155.723616 117.754125 
L 155.723616 117.358125 
L 155.98933 117.358125 
L 155.98933 116.566125 
L 156.520759 116.566125 
L 156.520759 113.002125 
L 157.84933 113.002125 
L 157.84933 111.022125 
L 158.115045 111.022125 
L 158.115045 110.626125 
L 158.380759 110.626125 
L 158.380759 110.230125 
L 158.912188 110.230125 
L 158.912188 109.042125 
L 159.177902 109.042125 
L 159.177902 108.646125 
L 159.70933 108.646125 
L 159.70933 107.854125 
L 159.975045 107.854125 
L 159.975045 107.062125 
L 160.240759 107.062125 
L 160.240759 106.666125 
L 161.037902 106.666125 
L 161.037902 106.270125 
L 161.56933 106.270125 
L 161.56933 105.478125 
L 162.632187 105.478125 
L 162.632187 104.686125 
L 162.897902 104.686125 
L 162.897902 104.290125 
L 163.695045 104.290125 
L 163.695045 103.498125 
L 164.226473 103.498125 
L 164.226473 103.102125 
L 165.28933 103.102125 
L 165.28933 102.706125 
L 166.617902 102.706125 
L 166.617902 101.914125 
L 166.883616 101.914125 
L 166.883616 101.122125 
L 167.415045 101.122125 
L 167.415045 99.934125 
L 167.680759 99.934125 
L 167.680759 99.538125 
L 167.946473 99.538125 
L 167.946473 98.746125 
L 169.806473 98.746125 
L 169.806473 98.350125 
L 170.86933 98.350125 
L 170.86933 97.954125 
L 171.135045 97.954125 
L 171.135045 97.558125 
L 171.932187 97.558125 
L 171.932187 97.162125 
L 172.197902 97.162125 
L 172.197902 96.766125 
L 174.057902 96.766125 
L 174.057902 96.370125 
L 174.58933 96.370125 
L 174.58933 95.974125 
L 174.855045 95.974125 
L 174.855045 95.578125 
L 175.652187 95.578125 
L 175.652187 95.182125 
L 175.917902 95.182125 
L 175.917902 94.390125 
L 176.980759 94.390125 
L 176.980759 93.598125 
L 177.246473 93.598125 
L 177.246473 93.202125 
L 178.043616 93.202125 
L 178.043616 92.806125 
L 178.840759 92.806125 
L 178.840759 92.014125 
L 179.372187 92.014125 
L 179.372187 91.618125 
L 180.16933 91.618125 
L 180.16933 91.222125 
L 180.435045 91.222125 
L 180.435045 90.826125 
L 180.966473 90.826125 
L 180.966473 90.430125 
L 181.232188 90.430125 
L 181.232188 90.034125 
L 181.497902 90.034125 
L 181.497902 89.242125 
L 181.763616 89.242125 
L 181.763616 88.846125 
L 182.560759 88.846125 
L 182.560759 88.450125 
L 182.826473 88.450125 
L 182.826473 87.658125 
L 183.357902 87.658125 
L 183.357902 87.262125 
L 183.623616 87.262125 
L 183.623616 86.866125 
L 186.546473 86.866125 
L 186.546473 86.074125 
L 188.140759 86.074125 
L 188.140759 85.282125 
L 188.937902 85.282125 
L 188.937902 84.886125 
L 191.595045 84.886125 
L 191.595045 84.094125 
L 192.392188 84.094125 
L 192.392188 83.302125 
L 194.252187 83.302125 
L 194.252187 82.906125 
L 194.783616 82.906125 
L 194.783616 82.510125 
L 196.643616 82.510125 
L 196.643616 82.114125 
L 200.097902 82.114125 
L 200.097902 81.718125 
L 200.363616 81.718125 
L 200.363616 81.322125 
L 200.895045 81.322125 
L 200.895045 80.926125 
L 201.426473 80.926125 
L 201.426473 80.134125 
L 201.692188 80.134125 
L 201.692188 79.738125 
L 203.020759 79.738125 
L 203.020759 79.342125 
L 204.34933 79.342125 
L 204.34933 78.946125 
L 204.880759 78.946125 
L 204.880759 78.550125 
L 205.677902 78.550125 
L 205.677902 78.154125 
L 205.943616 78.154125 
L 205.943616 76.966125 
L 208.06933 76.966125 
L 208.06933 76.570125 
L 210.195045 76.570125 
L 210.195045 76.174125 
L 210.460759 76.174125 
L 210.460759 74.986125 
L 213.117902 74.986125 
L 213.117902 74.590125 
L 215.243616 74.590125 
L 215.243616 74.194125 
L 215.50933 74.194125 
L 215.50933 73.006125 
L 216.837902 73.006125 
L 216.837902 72.214125 
L 217.900759 72.214125 
L 217.900759 71.818125 
L 218.166473 71.818125 
L 218.166473 71.422125 
L 218.432187 71.422125 
L 218.432187 70.630125 
L 219.495045 70.630125 
L 219.495045 69.838125 
L 220.292188 69.838125 
L 220.292188 69.442125 
L 220.557902 69.442125 
L 220.557902 68.650125 
L 221.355045 68.650125 
L 221.355045 68.254125 
L 221.620759 68.254125 
L 221.620759 67.462125 
L 222.94933 67.462125 
L 222.94933 66.670125 
L 223.746473 66.670125 
L 223.746473 65.878125 
L 224.012188 65.878125 
L 224.012188 65.482125 
L 225.340759 65.482125 
L 225.340759 65.086125 
L 226.66933 65.086125 
L 226.66933 64.690125 
L 228.263616 64.690125 
L 228.263616 64.294125 
L 228.52933 64.294125 
L 228.52933 63.898125 
L 230.38933 63.898125 
L 230.38933 63.106125 
L 230.655045 63.106125 
L 230.655045 62.710125 
L 231.186473 62.710125 
L 231.186473 62.314125 
L 231.452188 62.314125 
L 231.452188 61.918125 
L 231.717902 61.918125 
L 231.717902 60.730125 
L 232.24933 60.730125 
L 232.24933 60.334125 
L 232.515045 60.334125 
L 232.515045 59.938125 
L 233.046473 59.938125 
L 233.046473 59.542125 
L 237.297902 59.542125 
L 237.297902 58.750125 
L 237.563616 58.750125 
L 237.563616 58.354125 
L 238.626473 58.354125 
L 238.626473 57.958125 
L 238.892187 57.958125 
L 238.892187 57.562125 
L 243.143616 57.562125 
L 243.143616 56.770125 
L 243.940759 56.770125 
L 243.940759 56.374125 
L 244.472188 56.374125 
L 244.472188 55.978125 
L 246.332188 55.978125 
L 246.332188 55.582125 
L 247.660759 55.582125 
L 247.660759 55.186125 
L 247.926473 55.186125 
L 247.926473 53.998125 
L 248.192187 53.998125 
L 248.192187 53.602125 
L 248.457902 53.602125 
L 248.457902 53.206125 
L 248.98933 53.206125 
L 248.98933 52.810125 
L 249.786473 52.810125 
L 249.786473 52.414125 
L 250.052188 52.414125 
L 250.052188 52.018125 
L 253.772188 52.018125 
L 253.772188 51.622125 
L 255.632188 51.622125 
L 255.632188 51.226125 
L 257.492188 51.226125 
L 257.492188 50.830125 
L 258.023616 50.830125 
L 258.023616 50.038125 
L 258.28933 50.038125 
L 258.28933 49.642125 
L 258.555045 49.642125 
L 258.555045 49.246125 
L 259.086473 49.246125 
L 259.086473 48.850125 
L 260.415045 48.850125 
L 260.415045 48.454125 
L 261.212187 48.454125 
L 261.212187 48.058125 
L 262.00933 48.058125 
L 262.00933 47.662125 
L 262.540759 47.662125 
L 262.540759 47.266125 
L 263.337902 47.266125 
L 263.337902 46.078125 
L 266.526473 46.078125 
L 266.526473 45.682125 
L 267.323616 45.682125 
L 267.323616 44.890125 
L 275.560759 44.890125 
L 275.560759 44.494125 
L 278.217902 44.494125 
L 278.217902 44.098125 
L 278.483616 44.098125 
L 278.483616 43.702125 
L 289.643616 43.702125 
L 289.643616 43.306125 
L 292.832188 43.306125 
L 292.832188 42.910125 
L 293.62933 42.910125 
L 293.62933 42.514125 
L 294.692187 42.514125 
L 294.692187 42.118125 
L 300.537902 42.118125 
L 300.537902 41.722125 
L 301.06933 41.722125 
L 301.06933 41.326125 
L 301.600759 41.326125 
L 301.600759 40.930125 
L 305.852187 40.930125 
L 305.852187 40.534125 
L 307.446473 40.534125 
L 307.446473 40.138125 
L 308.50933 40.138125 
L 308.50933 39.742125 
L 312.760759 39.742125 
L 312.760759 39.346125 
L 314.620759 39.346125 
L 314.620759 38.950125 
L 316.215045 38.950125 
L 316.215045 38.554125 
L 316.480759 38.554125 
L 316.480759 38.158125 
L 318.606473 38.158125 
L 318.606473 37.762125 
L 321.263616 37.762125 
L 321.263616 37.366125 
L 324.983616 37.366125 
L 324.983616 36.970125 
L 327.375045 36.970125 
L 327.375045 36.574125 
L 329.500759 36.574125 
L 329.500759 36.178125 
L 338.003616 36.178125 
L 338.003616 35.782125 
L 339.066473 35.782125 
L 339.066473 35.386125 
L 339.597902 35.386125 
L 339.597902 34.990125 
L 400.712187 34.990125 
L 400.712187 34.990125 
" clip-path="url(#p08d4266c70)" style="fill: none; stroke: #008000; stroke-width: 2; stroke-linecap: square"/>
   </g>
   <g id="line2d_28">
    <path d="M 60.597902 288.430125 
L 400.712187 34.990125 
" clip-path="url(#p08d4266c70)" style="fill: none; stroke-dasharray: 7.4,3.2; stroke-dashoffset: 0; stroke: #000000; stroke-width: 2"/>
   </g>
   <g id="patch_3">
    <path d="M 43.592188 288.430125 
L 43.592188 22.318125 
" style="fill: none; stroke: #000000; stroke-width: 2; stroke-linejoin: miter; stroke-linecap: square"/>
   </g>
   <g id="patch_4">
    <path d="M 400.712188 288.430125 
L 400.712188 22.318125 
" style="fill: none; stroke: #000000; stroke-width: 2; stroke-linejoin: miter; stroke-linecap: square"/>
   </g>
   <g id="patch_5">
    <path d="M 43.592188 288.430125 
L 400.712187 288.430125 
" style="fill: none; stroke: #000000; stroke-width: 2; stroke-linejoin: miter; stroke-linecap: square"/>
   </g>
   <g id="patch_6">
    <path d="M 43.592188 22.318125 
L 400.712187 22.318125 
" style="fill: none; stroke: #000000; stroke-width: 2; stroke-linejoin: miter; stroke-linecap: square"/>
   </g>
   <g id="text_15">
    <text style="font: 700 12px 'DejaVu Sans', 'Bitstream Vera Sans', 'Computer Modern Sans Serif', 'Lucida Grande', 'Verdana', 'Geneva', 'Lucid', 'Arial', 'Helvetica', 'Avant Garde', sans-serif; text-anchor: middle" x="222.152188" y="16.318125" transform="rotate(-0 222.152188 16.318125)">Multi-class classification ROC for dist features</text>
   </g>
   <g id="legend_1">
    <g id="patch_7">
     <path d="M 134.954375 283.430125 
L 393.712188 283.430125 
Q 395.712188 283.430125 395.712188 281.430125 
L 395.712188 238.39575 
Q 395.712188 236.39575 393.712188 236.39575 
L 134.954375 236.39575 
Q 132.954375 236.39575 132.954375 238.39575 
L 132.954375 281.430125 
Q 132.954375 283.430125 134.954375 283.430125 
z
" style="fill: #ffffff; opacity: 0.8; stroke: #cccccc; stroke-linejoin: miter"/>
    </g>
    <g id="line2d_29">
     <path d="M 136.954375 244.494187 
L 146.954375 244.494187 
L 156.954375 244.494187 
" style="fill: none; stroke: #ff0000; stroke-width: 2; stroke-linecap: square"/>
    </g>
    <g id="text_16">
     <text style="font: 700 10px 'DejaVu Sans', 'Bitstream Vera Sans', 'Computer Modern Sans Serif', 'Lucida Grande', 'Verdana', 'Geneva', 'Lucid', 'Arial', 'Helvetica', 'Avant Garde', sans-serif; text-anchor: start" x="164.954375" y="247.994187" transform="rotate(-0 164.954375 247.994187)">ROC curve (area = 0.50) for class mc6</text>
    </g>
    <g id="line2d_30">
     <path d="M 136.954375 259.172312 
L 146.954375 259.172312 
L 156.954375 259.172312 
" style="fill: none; stroke: #0000ff; stroke-width: 2; stroke-linecap: square"/>
    </g>
    <g id="text_17">
     <text style="font: 700 10px 'DejaVu Sans', 'Bitstream Vera Sans', 'Computer Modern Sans Serif', 'Lucida Grande', 'Verdana', 'Geneva', 'Lucid', 'Arial', 'Helvetica', 'Avant Garde', sans-serif; text-anchor: start" x="164.954375" y="262.672312" transform="rotate(-0 164.954375 262.672312)">ROC curve (area = 0.54) for class mc6s</text>
    </g>
    <g id="line2d_31">
     <path d="M 136.954375 273.850437 
L 146.954375 273.850437 
L 156.954375 273.850437 
" style="fill: none; stroke: #008000; stroke-width: 2; stroke-linecap: square"/>
    </g>
    <g id="text_18">
     <text style="font: 700 10px 'DejaVu Sans', 'Bitstream Vera Sans', 'Computer Modern Sans Serif', 'Lucida Grande', 'Verdana', 'Geneva', 'Lucid', 'Arial', 'Helvetica', 'Avant Garde', sans-serif; text-anchor: start" x="164.954375" y="277.350437" transform="rotate(-0 164.954375 277.350437)">ROC curve (area = 0.79) for class mc6sa</text>
    </g>
   </g>
  </g>
 </g>
 <defs>
  <clipPath id="p08d4266c70">
   <rect x="43.592188" y="22.318125" width="357.12" height="266.112"/>
  </clipPath>
 </defs>
</svg>
