<?xml version="1.0" encoding="utf-8" standalone="no"?>
<!DOCTYPE svg PUBLIC "-//W3C//DTD SVG 1.1//EN"
  "http://www.w3.org/Graphics/SVG/1.1/DTD/svg11.dtd">
<svg xmlns:xlink="http://www.w3.org/1999/xlink" width="856.472187pt" height="280.474375pt" viewBox="0 0 856.472187 280.474375" xmlns="http://www.w3.org/2000/svg" version="1.1">
 <metadata>
  <rdf:RDF xmlns:dc="http://purl.org/dc/elements/1.1/" xmlns:cc="http://creativecommons.org/ns#" xmlns:rdf="http://www.w3.org/1999/02/22-rdf-syntax-ns#">
   <cc:Work>
    <dc:type rdf:resource="http://purl.org/dc/dcmitype/StillImage"/>
    <dc:date>2023-10-03T23:34:50.019868</dc:date>
    <dc:format>image/svg+xml</dc:format>
    <dc:creator>
     <cc:Agent>
      <dc:title>Matplotlib v3.7.3, https://matplotlib.org/</dc:title>
     </cc:Agent>
    </dc:creator>
   </cc:Work>
  </rdf:RDF>
 </metadata>
 <defs>
  <style type="text/css">*{stroke-linejoin: round; stroke-linecap: butt}</style>
 </defs>
 <g id="figure_1">
  <g id="patch_1">
   <path d="M -0 280.474375 
L 856.472187 280.474375 
L 856.472187 0 
L -0 0 
z
" style="fill: #ffffff"/>
  </g>
  <g id="axes_1">
   <g id="patch_2">
    <path d="M 43.592188 244.918125 
L 422.672187 244.918125 
L 422.672187 22.318125 
L 43.592188 22.318125 
z
" style="fill: #ffffff"/>
   </g>
   <g id="matplotlib.axis_1">
    <g id="xtick_1">
     <g id="line2d_1">
      <defs>
       <path id="m1dc8879158" d="M 0 0 
L 0 -7 
" style="stroke: #000000; stroke-width: 2"/>
      </defs>
      <g>
       <use xlink:href="#m1dc8879158" x="60.823097" y="244.918125" style="stroke: #000000; stroke-width: 2"/>
      </g>
     </g>
     <g id="line2d_2">
      <defs>
       <path id="med116821d7" d="M 0 0 
L 0 7 
" style="stroke: #000000; stroke-width: 2"/>
      </defs>
      <g>
       <use xlink:href="#med116821d7" x="60.823097" y="22.318125" style="stroke: #000000; stroke-width: 2"/>
      </g>
     </g>
     <g id="text_1">
      <text style="font: 700 10px 'DejaVu Sans', 'Bitstream Vera Sans', 'Computer Modern Sans Serif', 'Lucida Grande', 'Verdana', 'Geneva', 'Lucid', 'Arial', 'Helvetica', 'Avant Garde', sans-serif; text-anchor: middle" x="60.823097" y="257.516563" transform="rotate(-0 60.823097 257.516563)">0</text>
     </g>
    </g>
    <g id="xtick_2">
     <g id="line2d_3">
      <g>
       <use xlink:href="#m1dc8879158" x="131.153338" y="244.918125" style="stroke: #000000; stroke-width: 2"/>
      </g>
     </g>
     <g id="line2d_4">
      <g>
       <use xlink:href="#med116821d7" x="131.153338" y="22.318125" style="stroke: #000000; stroke-width: 2"/>
      </g>
     </g>
     <g id="text_2">
      <text style="font: 700 10px 'DejaVu Sans', 'Bitstream Vera Sans', 'Computer Modern Sans Serif', 'Lucida Grande', 'Verdana', 'Geneva', 'Lucid', 'Arial', 'Helvetica', 'Avant Garde', sans-serif; text-anchor: middle" x="131.153338" y="257.516563" transform="rotate(-0 131.153338 257.516563)">10</text>
     </g>
    </g>
    <g id="xtick_3">
     <g id="line2d_5">
      <g>
       <use xlink:href="#m1dc8879158" x="201.483579" y="244.918125" style="stroke: #000000; stroke-width: 2"/>
      </g>
     </g>
     <g id="line2d_6">
      <g>
       <use xlink:href="#med116821d7" x="201.483579" y="22.318125" style="stroke: #000000; stroke-width: 2"/>
      </g>
     </g>
     <g id="text_3">
      <text style="font: 700 10px 'DejaVu Sans', 'Bitstream Vera Sans', 'Computer Modern Sans Serif', 'Lucida Grande', 'Verdana', 'Geneva', 'Lucid', 'Arial', 'Helvetica', 'Avant Garde', sans-serif; text-anchor: middle" x="201.483579" y="257.516563" transform="rotate(-0 201.483579 257.516563)">20</text>
     </g>
    </g>
    <g id="xtick_4">
     <g id="line2d_7">
      <g>
       <use xlink:href="#m1dc8879158" x="271.81382" y="244.918125" style="stroke: #000000; stroke-width: 2"/>
      </g>
     </g>
     <g id="line2d_8">
      <g>
       <use xlink:href="#med116821d7" x="271.81382" y="22.318125" style="stroke: #000000; stroke-width: 2"/>
      </g>
     </g>
     <g id="text_4">
      <text style="font: 700 10px 'DejaVu Sans', 'Bitstream Vera Sans', 'Computer Modern Sans Serif', 'Lucida Grande', 'Verdana', 'Geneva', 'Lucid', 'Arial', 'Helvetica', 'Avant Garde', sans-serif; text-anchor: middle" x="271.81382" y="257.516563" transform="rotate(-0 271.81382 257.516563)">30</text>
     </g>
    </g>
    <g id="xtick_5">
     <g id="line2d_9">
      <g>
       <use xlink:href="#m1dc8879158" x="342.144061" y="244.918125" style="stroke: #000000; stroke-width: 2"/>
      </g>
     </g>
     <g id="line2d_10">
      <g>
       <use xlink:href="#med116821d7" x="342.144061" y="22.318125" style="stroke: #000000; stroke-width: 2"/>
      </g>
     </g>
     <g id="text_5">
      <text style="font: 700 10px 'DejaVu Sans', 'Bitstream Vera Sans', 'Computer Modern Sans Serif', 'Lucida Grande', 'Verdana', 'Geneva', 'Lucid', 'Arial', 'Helvetica', 'Avant Garde', sans-serif; text-anchor: middle" x="342.144061" y="257.516563" transform="rotate(-0 342.144061 257.516563)">40</text>
     </g>
    </g>
    <g id="xtick_6">
     <g id="line2d_11">
      <g>
       <use xlink:href="#m1dc8879158" x="412.474303" y="244.918125" style="stroke: #000000; stroke-width: 2"/>
      </g>
     </g>
     <g id="line2d_12">
      <g>
       <use xlink:href="#med116821d7" x="412.474303" y="22.318125" style="stroke: #000000; stroke-width: 2"/>
      </g>
     </g>
     <g id="text_6">
      <text style="font: 700 10px 'DejaVu Sans', 'Bitstream Vera Sans', 'Computer Modern Sans Serif', 'Lucida Grande', 'Verdana', 'Geneva', 'Lucid', 'Arial', 'Helvetica', 'Avant Garde', sans-serif; text-anchor: middle" x="412.474303" y="257.516563" transform="rotate(-0 412.474303 257.516563)">50</text>
     </g>
    </g>
    <g id="text_7">
     <text style="font: 700 10px 'DejaVu Sans', 'Bitstream Vera Sans', 'Computer Modern Sans Serif', 'Lucida Grande', 'Verdana', 'Geneva', 'Lucid', 'Arial', 'Helvetica', 'Avant Garde', sans-serif; text-anchor: middle" x="233.132187" y="271.194687" transform="rotate(-0 233.132187 271.194687)">epoch</text>
    </g>
   </g>
   <g id="matplotlib.axis_2">
    <g id="ytick_1">
     <g id="line2d_13">
      <defs>
       <path id="mdd815a1d8c" d="M 0 0 
L 7 0 
" style="stroke: #000000; stroke-width: 2"/>
      </defs>
      <g>
       <use xlink:href="#mdd815a1d8c" x="43.592188" y="234.823796" style="stroke: #000000; stroke-width: 2"/>
      </g>
     </g>
     <g id="line2d_14">
      <defs>
       <path id="m889a85a8f4" d="M 0 0 
L -7 0 
" style="stroke: #000000; stroke-width: 2"/>
      </defs>
      <g>
       <use xlink:href="#m889a85a8f4" x="422.672187" y="234.823796" style="stroke: #000000; stroke-width: 2"/>
      </g>
     </g>
     <g id="text_8">
      <text style="font: 700 10px 'DejaVu Sans', 'Bitstream Vera Sans', 'Computer Modern Sans Serif', 'Lucida Grande', 'Verdana', 'Geneva', 'Lucid', 'Arial', 'Helvetica', 'Avant Garde', sans-serif; text-anchor: end" x="38.592188" y="238.623015" transform="rotate(-0 38.592188 238.623015)">0.0</text>
     </g>
    </g>
    <g id="ytick_2">
     <g id="line2d_15">
      <g>
       <use xlink:href="#mdd815a1d8c" x="43.592188" y="189.415972" style="stroke: #000000; stroke-width: 2"/>
      </g>
     </g>
     <g id="line2d_16">
      <g>
       <use xlink:href="#m889a85a8f4" x="422.672187" y="189.415972" style="stroke: #000000; stroke-width: 2"/>
      </g>
     </g>
     <g id="text_9">
      <text style="font: 700 10px 'DejaVu Sans', 'Bitstream Vera Sans', 'Computer Modern Sans Serif', 'Lucida Grande', 'Verdana', 'Geneva', 'Lucid', 'Arial', 'Helvetica', 'Avant Garde', sans-serif; text-anchor: end" x="38.592188" y="193.215191" transform="rotate(-0 38.592188 193.215191)">0.2</text>
     </g>
    </g>
    <g id="ytick_3">
     <g id="line2d_17">
      <g>
       <use xlink:href="#mdd815a1d8c" x="43.592188" y="144.008148" style="stroke: #000000; stroke-width: 2"/>
      </g>
     </g>
     <g id="line2d_18">
      <g>
       <use xlink:href="#m889a85a8f4" x="422.672187" y="144.008148" style="stroke: #000000; stroke-width: 2"/>
      </g>
     </g>
     <g id="text_10">
      <text style="font: 700 10px 'DejaVu Sans', 'Bitstream Vera Sans', 'Computer Modern Sans Serif', 'Lucida Grande', 'Verdana', 'Geneva', 'Lucid', 'Arial', 'Helvetica', 'Avant Garde', sans-serif; text-anchor: end" x="38.592188" y="147.807367" transform="rotate(-0 38.592188 147.807367)">0.4</text>
     </g>
    </g>
    <g id="ytick_4">
     <g id="line2d_19">
      <g>
       <use xlink:href="#mdd815a1d8c" x="43.592188" y="98.600324" style="stroke: #000000; stroke-width: 2"/>
      </g>
     </g>
     <g id="line2d_20">
      <g>
       <use xlink:href="#m889a85a8f4" x="422.672187" y="98.600324" style="stroke: #000000; stroke-width: 2"/>
      </g>
     </g>
     <g id="text_11">
      <text style="font: 700 10px 'DejaVu Sans', 'Bitstream Vera Sans', 'Computer Modern Sans Serif', 'Lucida Grande', 'Verdana', 'Geneva', 'Lucid', 'Arial', 'Helvetica', 'Avant Garde', sans-serif; text-anchor: end" x="38.592188" y="102.399543" transform="rotate(-0 38.592188 102.399543)">0.6</text>
     </g>
    </g>
    <g id="ytick_5">
     <g id="line2d_21">
      <g>
       <use xlink:href="#mdd815a1d8c" x="43.592188" y="53.1925" style="stroke: #000000; stroke-width: 2"/>
      </g>
     </g>
     <g id="line2d_22">
      <g>
       <use xlink:href="#m889a85a8f4" x="422.672187" y="53.1925" style="stroke: #000000; stroke-width: 2"/>
      </g>
     </g>
     <g id="text_12">
      <text style="font: 700 10px 'DejaVu Sans', 'Bitstream Vera Sans', 'Computer Modern Sans Serif', 'Lucida Grande', 'Verdana', 'Geneva', 'Lucid', 'Arial', 'Helvetica', 'Avant Garde', sans-serif; text-anchor: end" x="38.592188" y="56.991719" transform="rotate(-0 38.592188 56.991719)">0.8</text>
     </g>
    </g>
    <g id="text_13">
     <text style="font: 700 10px 'DejaVu Sans', 'Bitstream Vera Sans', 'Computer Modern Sans Serif', 'Lucida Grande', 'Verdana', 'Geneva', 'Lucid', 'Arial', 'Helvetica', 'Avant Garde', sans-serif; text-anchor: middle" x="14.798438" y="133.618125" transform="rotate(-90 14.798438 133.618125)">loss</text>
    </g>
   </g>
   <g id="line2d_23">
    <path d="M 60.823097 32.436307 
L 67.856121 184.890274 
L 74.889145 230.945056 
L 81.922169 233.886588 
L 88.955193 234.181315 
L 95.988217 234.367362 
L 103.021241 234.213788 
L 110.054265 234.468873 
L 117.08729 234.565846 
L 124.120314 234.601018 
L 131.153338 234.594074 
L 138.186362 234.419757 
L 145.219386 234.636892 
L 152.25241 234.524601 
L 159.285434 234.678019 
L 166.318458 234.708424 
L 173.351482 234.643731 
L 180.384507 234.571078 
L 187.417531 234.666676 
L 194.450555 234.548413 
L 201.483579 234.49209 
L 208.516603 234.255744 
L 215.549627 234.617262 
L 222.582651 234.736277 
L 229.615675 234.719485 
L 236.6487 234.766311 
L 243.681724 234.755893 
L 250.714748 234.713236 
L 257.747772 234.594031 
L 264.780796 234.786871 
L 271.81382 234.771325 
L 278.846844 234.782121 
L 285.879868 234.784739 
L 292.912893 234.766543 
L 299.945917 234.733636 
L 306.978941 234.550047 
L 314.011965 234.206031 
L 321.044989 234.675814 
L 328.078013 234.766445 
L 335.111037 234.764502 
L 342.144061 234.782273 
L 349.177085 234.738227 
L 356.21011 234.718672 
L 363.243134 234.737586 
L 370.276158 234.799943 
L 377.309182 234.799459 
L 384.342206 234.794339 
L 391.37523 234.797712 
L 398.408254 234.783949 
L 405.441278 234.785696 
" clip-path="url(#p9473c6c8a7)" style="fill: none; stroke: #ff0000; stroke-width: 1.5; stroke-linecap: square"/>
   </g>
   <g id="line2d_24">
    <path d="M 60.823097 99.228302 
L 67.856121 198.06654 
L 74.889145 210.02522 
L 81.922169 207.285681 
L 88.955193 205.118117 
L 95.988217 206.656759 
L 103.021241 206.125921 
L 110.054265 204.920244 
L 117.08729 207.908371 
L 124.120314 207.658416 
L 131.153338 209.868102 
L 138.186362 205.761926 
L 145.219386 205.62312 
L 152.25241 205.285701 
L 159.285434 205.688109 
L 166.318458 205.239298 
L 173.351482 206.278095 
L 180.384507 197.980012 
L 187.417531 204.002932 
L 194.450555 208.636611 
L 201.483579 205.518993 
L 208.516603 198.842404 
L 215.549627 206.730703 
L 222.582651 209.32144 
L 229.615675 206.15864 
L 236.6487 207.665807 
L 243.681724 207.843318 
L 250.714748 207.112402 
L 257.747772 203.526227 
L 264.780796 205.077604 
L 271.81382 203.381523 
L 278.846844 201.142234 
L 285.879868 202.766098 
L 292.912893 200.948771 
L 299.945917 209.47544 
L 306.978941 194.737315 
L 314.011965 198.85648 
L 321.044989 206.159575 
L 328.078013 204.815283 
L 335.111037 208.451517 
L 342.144061 202.080092 
L 349.177085 208.831452 
L 356.21011 193.804593 
L 363.243134 199.423324 
L 370.276158 202.615938 
L 377.309182 205.178729 
L 384.342206 202.78322 
L 391.37523 203.697693 
L 398.408254 204.857256 
L 405.441278 201.710812 
" clip-path="url(#p9473c6c8a7)" style="fill: none; stroke: #0000ff; stroke-width: 1.5; stroke-linecap: square"/>
   </g>
   <g id="patch_3">
    <path d="M 43.592188 244.918125 
L 43.592188 22.318125 
" style="fill: none; stroke: #000000; stroke-width: 2; stroke-linejoin: miter; stroke-linecap: square"/>
   </g>
   <g id="patch_4">
    <path d="M 422.672187 244.918125 
L 422.672187 22.318125 
" style="fill: none; stroke: #000000; stroke-width: 2; stroke-linejoin: miter; stroke-linecap: square"/>
   </g>
   <g id="patch_5">
    <path d="M 43.592188 244.918125 
L 422.672187 244.918125 
" style="fill: none; stroke: #000000; stroke-width: 2; stroke-linejoin: miter; stroke-linecap: square"/>
   </g>
   <g id="patch_6">
    <path d="M 43.592188 22.318125 
L 422.672187 22.318125 
" style="fill: none; stroke: #000000; stroke-width: 2; stroke-linejoin: miter; stroke-linecap: square"/>
   </g>
   <g id="text_14">
    <text style="font: 700 12px 'DejaVu Sans', 'Bitstream Vera Sans', 'Computer Modern Sans Serif', 'Lucida Grande', 'Verdana', 'Geneva', 'Lucid', 'Arial', 'Helvetica', 'Avant Garde', sans-serif; text-anchor: middle" x="233.132187" y="16.318125" transform="rotate(-0 233.132187 16.318125)">dist</text>
   </g>
   <g id="legend_1">
    <g id="patch_7">
     <path d="M 301.762812 59.7525 
L 415.672187 59.7525 
Q 417.672187 59.7525 417.672187 57.7525 
L 417.672187 29.318125 
Q 417.672187 27.318125 415.672187 27.318125 
L 301.762812 27.318125 
Q 299.762812 27.318125 299.762812 29.318125 
L 299.762812 57.7525 
Q 299.762812 59.7525 301.762812 59.7525 
z
" style="fill: #ffffff; opacity: 0.8; stroke: #cccccc; stroke-linejoin: miter"/>
    </g>
    <g id="line2d_25">
     <path d="M 303.762812 35.416563 
L 313.762812 35.416563 
L 323.762812 35.416563 
" style="fill: none; stroke: #ff0000; stroke-width: 1.5; stroke-linecap: square"/>
    </g>
    <g id="text_15">
     <text style="font: 700 10px 'DejaVu Sans', 'Bitstream Vera Sans', 'Computer Modern Sans Serif', 'Lucida Grande', 'Verdana', 'Geneva', 'Lucid', 'Arial', 'Helvetica', 'Avant Garde', sans-serif; text-anchor: start" x="331.762812" y="38.916563" transform="rotate(-0 331.762812 38.916563)">training loss</text>
    </g>
    <g id="line2d_26">
     <path d="M 303.762812 50.172813 
L 313.762812 50.172813 
L 323.762812 50.172813 
" style="fill: none; stroke: #0000ff; stroke-width: 1.5; stroke-linecap: square"/>
    </g>
    <g id="text_16">
     <text style="font: 700 10px 'DejaVu Sans', 'Bitstream Vera Sans', 'Computer Modern Sans Serif', 'Lucida Grande', 'Verdana', 'Geneva', 'Lucid', 'Arial', 'Helvetica', 'Avant Garde', sans-serif; text-anchor: start" x="331.762812" y="53.672813" transform="rotate(-0 331.762812 53.672813)">validation loss</text>
    </g>
   </g>
  </g>
  <g id="axes_2">
   <g id="patch_8">
    <path d="M 470.192187 244.918125 
L 849.272187 244.918125 
L 849.272187 22.318125 
L 470.192187 22.318125 
z
" style="fill: #ffffff"/>
   </g>
   <g id="matplotlib.axis_3">
    <g id="xtick_7">
     <g id="line2d_27">
      <g>
       <use xlink:href="#m1dc8879158" x="487.423097" y="244.918125" style="stroke: #000000; stroke-width: 2"/>
      </g>
     </g>
     <g id="line2d_28">
      <g>
       <use xlink:href="#med116821d7" x="487.423097" y="22.318125" style="stroke: #000000; stroke-width: 2"/>
      </g>
     </g>
     <g id="text_17">
      <text style="font: 700 10px 'DejaVu Sans', 'Bitstream Vera Sans', 'Computer Modern Sans Serif', 'Lucida Grande', 'Verdana', 'Geneva', 'Lucid', 'Arial', 'Helvetica', 'Avant Garde', sans-serif; text-anchor: middle" x="487.423097" y="257.516563" transform="rotate(-0 487.423097 257.516563)">0</text>
     </g>
    </g>
    <g id="xtick_8">
     <g id="line2d_29">
      <g>
       <use xlink:href="#m1dc8879158" x="557.753338" y="244.918125" style="stroke: #000000; stroke-width: 2"/>
      </g>
     </g>
     <g id="line2d_30">
      <g>
       <use xlink:href="#med116821d7" x="557.753338" y="22.318125" style="stroke: #000000; stroke-width: 2"/>
      </g>
     </g>
     <g id="text_18">
      <text style="font: 700 10px 'DejaVu Sans', 'Bitstream Vera Sans', 'Computer Modern Sans Serif', 'Lucida Grande', 'Verdana', 'Geneva', 'Lucid', 'Arial', 'Helvetica', 'Avant Garde', sans-serif; text-anchor: middle" x="557.753338" y="257.516563" transform="rotate(-0 557.753338 257.516563)">10</text>
     </g>
    </g>
    <g id="xtick_9">
     <g id="line2d_31">
      <g>
       <use xlink:href="#m1dc8879158" x="628.083579" y="244.918125" style="stroke: #000000; stroke-width: 2"/>
      </g>
     </g>
     <g id="line2d_32">
      <g>
       <use xlink:href="#med116821d7" x="628.083579" y="22.318125" style="stroke: #000000; stroke-width: 2"/>
      </g>
     </g>
     <g id="text_19">
      <text style="font: 700 10px 'DejaVu Sans', 'Bitstream Vera Sans', 'Computer Modern Sans Serif', 'Lucida Grande', 'Verdana', 'Geneva', 'Lucid', 'Arial', 'Helvetica', 'Avant Garde', sans-serif; text-anchor: middle" x="628.083579" y="257.516563" transform="rotate(-0 628.083579 257.516563)">20</text>
     </g>
    </g>
    <g id="xtick_10">
     <g id="line2d_33">
      <g>
       <use xlink:href="#m1dc8879158" x="698.41382" y="244.918125" style="stroke: #000000; stroke-width: 2"/>
      </g>
     </g>
     <g id="line2d_34">
      <g>
       <use xlink:href="#med116821d7" x="698.41382" y="22.318125" style="stroke: #000000; stroke-width: 2"/>
      </g>
     </g>
     <g id="text_20">
      <text style="font: 700 10px 'DejaVu Sans', 'Bitstream Vera Sans', 'Computer Modern Sans Serif', 'Lucida Grande', 'Verdana', 'Geneva', 'Lucid', 'Arial', 'Helvetica', 'Avant Garde', sans-serif; text-anchor: middle" x="698.41382" y="257.516563" transform="rotate(-0 698.41382 257.516563)">30</text>
     </g>
    </g>
    <g id="xtick_11">
     <g id="line2d_35">
      <g>
       <use xlink:href="#m1dc8879158" x="768.744061" y="244.918125" style="stroke: #000000; stroke-width: 2"/>
      </g>
     </g>
     <g id="line2d_36">
      <g>
       <use xlink:href="#med116821d7" x="768.744061" y="22.318125" style="stroke: #000000; stroke-width: 2"/>
      </g>
     </g>
     <g id="text_21">
      <text style="font: 700 10px 'DejaVu Sans', 'Bitstream Vera Sans', 'Computer Modern Sans Serif', 'Lucida Grande', 'Verdana', 'Geneva', 'Lucid', 'Arial', 'Helvetica', 'Avant Garde', sans-serif; text-anchor: middle" x="768.744061" y="257.516563" transform="rotate(-0 768.744061 257.516563)">40</text>
     </g>
    </g>
    <g id="xtick_12">
     <g id="line2d_37">
      <g>
       <use xlink:href="#m1dc8879158" x="839.074303" y="244.918125" style="stroke: #000000; stroke-width: 2"/>
      </g>
     </g>
     <g id="line2d_38">
      <g>
       <use xlink:href="#med116821d7" x="839.074303" y="22.318125" style="stroke: #000000; stroke-width: 2"/>
      </g>
     </g>
     <g id="text_22">
      <text style="font: 700 10px 'DejaVu Sans', 'Bitstream Vera Sans', 'Computer Modern Sans Serif', 'Lucida Grande', 'Verdana', 'Geneva', 'Lucid', 'Arial', 'Helvetica', 'Avant Garde', sans-serif; text-anchor: middle" x="839.074303" y="257.516563" transform="rotate(-0 839.074303 257.516563)">50</text>
     </g>
    </g>
    <g id="text_23">
     <text style="font: 700 10px 'DejaVu Sans', 'Bitstream Vera Sans', 'Computer Modern Sans Serif', 'Lucida Grande', 'Verdana', 'Geneva', 'Lucid', 'Arial', 'Helvetica', 'Avant Garde', sans-serif; text-anchor: middle" x="659.732188" y="271.194687" transform="rotate(-0 659.732188 271.194687)">epoch</text>
    </g>
   </g>
   <g id="matplotlib.axis_4">
    <g id="ytick_6">
     <g id="line2d_39">
      <g>
       <use xlink:href="#mdd815a1d8c" x="470.192187" y="236.310395" style="stroke: #000000; stroke-width: 2"/>
      </g>
     </g>
     <g id="line2d_40">
      <g>
       <use xlink:href="#m889a85a8f4" x="849.272187" y="236.310395" style="stroke: #000000; stroke-width: 2"/>
      </g>
     </g>
     <g id="text_24">
      <text style="font: 700 10px 'DejaVu Sans', 'Bitstream Vera Sans', 'Computer Modern Sans Serif', 'Lucida Grande', 'Verdana', 'Geneva', 'Lucid', 'Arial', 'Helvetica', 'Avant Garde', sans-serif; text-anchor: end" x="465.192187" y="240.109613" transform="rotate(-0 465.192187 240.109613)">0.0</text>
     </g>
    </g>
    <g id="ytick_7">
     <g id="line2d_41">
      <g>
       <use xlink:href="#mdd815a1d8c" x="470.192187" y="196.794963" style="stroke: #000000; stroke-width: 2"/>
      </g>
     </g>
     <g id="line2d_42">
      <g>
       <use xlink:href="#m889a85a8f4" x="849.272187" y="196.794963" style="stroke: #000000; stroke-width: 2"/>
      </g>
     </g>
     <g id="text_25">
      <text style="font: 700 10px 'DejaVu Sans', 'Bitstream Vera Sans', 'Computer Modern Sans Serif', 'Lucida Grande', 'Verdana', 'Geneva', 'Lucid', 'Arial', 'Helvetica', 'Avant Garde', sans-serif; text-anchor: end" x="465.192187" y="200.594181" transform="rotate(-0 465.192187 200.594181)">0.2</text>
     </g>
    </g>
    <g id="ytick_8">
     <g id="line2d_43">
      <g>
       <use xlink:href="#mdd815a1d8c" x="470.192187" y="157.279531" style="stroke: #000000; stroke-width: 2"/>
      </g>
     </g>
     <g id="line2d_44">
      <g>
       <use xlink:href="#m889a85a8f4" x="849.272187" y="157.279531" style="stroke: #000000; stroke-width: 2"/>
      </g>
     </g>
     <g id="text_26">
      <text style="font: 700 10px 'DejaVu Sans', 'Bitstream Vera Sans', 'Computer Modern Sans Serif', 'Lucida Grande', 'Verdana', 'Geneva', 'Lucid', 'Arial', 'Helvetica', 'Avant Garde', sans-serif; text-anchor: end" x="465.192187" y="161.07875" transform="rotate(-0 465.192187 161.07875)">0.4</text>
     </g>
    </g>
    <g id="ytick_9">
     <g id="line2d_45">
      <g>
       <use xlink:href="#mdd815a1d8c" x="470.192187" y="117.764099" style="stroke: #000000; stroke-width: 2"/>
      </g>
     </g>
     <g id="line2d_46">
      <g>
       <use xlink:href="#m889a85a8f4" x="849.272187" y="117.764099" style="stroke: #000000; stroke-width: 2"/>
      </g>
     </g>
     <g id="text_27">
      <text style="font: 700 10px 'DejaVu Sans', 'Bitstream Vera Sans', 'Computer Modern Sans Serif', 'Lucida Grande', 'Verdana', 'Geneva', 'Lucid', 'Arial', 'Helvetica', 'Avant Garde', sans-serif; text-anchor: end" x="465.192187" y="121.563318" transform="rotate(-0 465.192187 121.563318)">0.6</text>
     </g>
    </g>
    <g id="ytick_10">
     <g id="line2d_47">
      <g>
       <use xlink:href="#mdd815a1d8c" x="470.192187" y="78.248667" style="stroke: #000000; stroke-width: 2"/>
      </g>
     </g>
     <g id="line2d_48">
      <g>
       <use xlink:href="#m889a85a8f4" x="849.272187" y="78.248667" style="stroke: #000000; stroke-width: 2"/>
      </g>
     </g>
     <g id="text_28">
      <text style="font: 700 10px 'DejaVu Sans', 'Bitstream Vera Sans', 'Computer Modern Sans Serif', 'Lucida Grande', 'Verdana', 'Geneva', 'Lucid', 'Arial', 'Helvetica', 'Avant Garde', sans-serif; text-anchor: end" x="465.192187" y="82.047886" transform="rotate(-0 465.192187 82.047886)">0.8</text>
     </g>
    </g>
    <g id="ytick_11">
     <g id="line2d_49">
      <g>
       <use xlink:href="#mdd815a1d8c" x="470.192187" y="38.733235" style="stroke: #000000; stroke-width: 2"/>
      </g>
     </g>
     <g id="line2d_50">
      <g>
       <use xlink:href="#m889a85a8f4" x="849.272187" y="38.733235" style="stroke: #000000; stroke-width: 2"/>
      </g>
     </g>
     <g id="text_29">
      <text style="font: 700 10px 'DejaVu Sans', 'Bitstream Vera Sans', 'Computer Modern Sans Serif', 'Lucida Grande', 'Verdana', 'Geneva', 'Lucid', 'Arial', 'Helvetica', 'Avant Garde', sans-serif; text-anchor: end" x="465.192187" y="42.532454" transform="rotate(-0 465.192187 42.532454)">1.0</text>
     </g>
    </g>
    <g id="text_30">
     <text style="font: 700 10px 'DejaVu Sans', 'Bitstream Vera Sans', 'Computer Modern Sans Serif', 'Lucida Grande', 'Verdana', 'Geneva', 'Lucid', 'Arial', 'Helvetica', 'Avant Garde', sans-serif; text-anchor: middle" x="441.398437" y="133.618125" transform="rotate(-90 441.398437 133.618125)">loss</text>
    </g>
   </g>
   <g id="line2d_51">
    <path d="M 487.423097 32.436307 
L 494.456121 99.731486 
L 501.489145 179.712936 
L 508.522169 208.683548 
L 515.555193 218.156478 
L 522.588217 221.452009 
L 529.621241 223.914174 
L 536.654265 225.894881 
L 543.68729 227.261323 
L 550.720314 228.372583 
L 557.753338 229.064699 
L 564.786362 229.824331 
L 571.819386 230.406527 
L 578.85241 230.900501 
L 585.885434 231.355445 
L 592.918458 231.933209 
L 599.951482 232.054064 
L 606.984507 232.479923 
L 614.017531 232.715445 
L 621.050555 232.953651 
L 628.083579 233.151948 
L 635.116603 233.339853 
L 642.149627 233.507803 
L 649.182651 233.642213 
L 656.215675 233.7416 
L 663.2487 233.848998 
L 670.281724 233.936929 
L 677.314748 234.046832 
L 684.347772 234.07143 
L 691.380796 234.154894 
L 698.41382 234.192766 
L 705.446844 234.286437 
L 712.479868 234.355371 
L 719.512893 234.406413 
L 726.545917 234.446811 
L 733.578941 234.464921 
L 740.611965 234.51654 
L 747.644989 234.55809 
L 754.678013 234.573917 
L 761.711037 234.595907 
L 768.744061 234.617325 
L 775.777085 234.664129 
L 782.81011 234.655787 
L 789.843134 234.708728 
L 796.876158 234.756546 
L 803.909182 234.756957 
L 810.942206 234.799943 
L 817.97523 234.770009 
L 825.008254 234.779155 
L 832.041278 234.793634 
" clip-path="url(#p7ef994c32f)" style="fill: none; stroke: #ff0000; stroke-width: 1.5; stroke-linecap: square"/>
   </g>
   <g id="line2d_52">
    <path d="M 487.423097 56.799121 
L 494.456121 150.319879 
L 501.489145 199.041466 
L 508.522169 209.553948 
L 515.555193 211.508458 
L 522.588217 214.456197 
L 529.621241 213.4322 
L 536.654265 213.121373 
L 543.68729 214.409107 
L 550.720314 213.424508 
L 557.753338 213.135554 
L 564.786362 212.656398 
L 571.819386 214.201084 
L 578.85241 211.606642 
L 585.885434 214.120149 
L 592.918458 212.89478 
L 599.951482 212.707059 
L 606.984507 214.103461 
L 614.017531 213.19092 
L 621.050555 215.803152 
L 628.083579 214.196655 
L 635.116603 214.636674 
L 642.149627 214.588729 
L 649.182651 213.84152 
L 656.215675 214.489601 
L 663.2487 214.515036 
L 670.281724 213.730866 
L 677.314748 213.780727 
L 684.347772 214.094847 
L 691.380796 214.960322 
L 698.41382 213.585722 
L 705.446844 213.376877 
L 712.479868 215.834207 
L 719.512893 216.426332 
L 726.545917 215.313759 
L 733.578941 215.150361 
L 740.611965 215.280054 
L 747.644989 214.304368 
L 754.678013 214.726559 
L 761.711037 212.807695 
L 768.744061 216.088409 
L 775.777085 211.209083 
L 782.81011 215.934769 
L 789.843134 215.257463 
L 796.876158 214.212535 
L 803.909182 214.673022 
L 810.942206 214.971172 
L 817.97523 216.100252 
L 825.008254 215.461889 
L 832.041278 217.150752 
" clip-path="url(#p7ef994c32f)" style="fill: none; stroke: #0000ff; stroke-width: 1.5; stroke-linecap: square"/>
   </g>
   <g id="patch_9">
    <path d="M 470.192187 244.918125 
L 470.192187 22.318125 
" style="fill: none; stroke: #000000; stroke-width: 2; stroke-linejoin: miter; stroke-linecap: square"/>
   </g>
   <g id="patch_10">
    <path d="M 849.272187 244.918125 
L 849.272187 22.318125 
" style="fill: none; stroke: #000000; stroke-width: 2; stroke-linejoin: miter; stroke-linecap: square"/>
   </g>
   <g id="patch_11">
    <path d="M 470.192187 244.918125 
L 849.272187 244.918125 
" style="fill: none; stroke: #000000; stroke-width: 2; stroke-linejoin: miter; stroke-linecap: square"/>
   </g>
   <g id="patch_12">
    <path d="M 470.192187 22.318125 
L 849.272187 22.318125 
" style="fill: none; stroke: #000000; stroke-width: 2; stroke-linejoin: miter; stroke-linecap: square"/>
   </g>
   <g id="text_31">
    <text style="font: 700 12px 'DejaVu Sans', 'Bitstream Vera Sans', 'Computer Modern Sans Serif', 'Lucida Grande', 'Verdana', 'Geneva', 'Lucid', 'Arial', 'Helvetica', 'Avant Garde', sans-serif; text-anchor: middle" x="659.732188" y="16.318125" transform="rotate(-0 659.732188 16.318125)">charge</text>
   </g>
   <g id="legend_2">
    <g id="patch_13">
     <path d="M 728.362813 59.7525 
L 842.272187 59.7525 
Q 844.272187 59.7525 844.272187 57.7525 
L 844.272187 29.318125 
Q 844.272187 27.318125 842.272187 27.318125 
L 728.362813 27.318125 
Q 726.362813 27.318125 726.362813 29.318125 
L 726.362813 57.7525 
Q 726.362813 59.7525 728.362813 59.7525 
z
" style="fill: #ffffff; opacity: 0.8; stroke: #cccccc; stroke-linejoin: miter"/>
    </g>
    <g id="line2d_53">
     <path d="M 730.362813 35.416563 
L 740.362813 35.416563 
L 750.362813 35.416563 
" style="fill: none; stroke: #ff0000; stroke-width: 1.5; stroke-linecap: square"/>
    </g>
    <g id="text_32">
     <text style="font: 700 10px 'DejaVu Sans', 'Bitstream Vera Sans', 'Computer Modern Sans Serif', 'Lucida Grande', 'Verdana', 'Geneva', 'Lucid', 'Arial', 'Helvetica', 'Avant Garde', sans-serif; text-anchor: start" x="758.362813" y="38.916563" transform="rotate(-0 758.362813 38.916563)">training loss</text>
    </g>
    <g id="line2d_54">
     <path d="M 730.362813 50.172813 
L 740.362813 50.172813 
L 750.362813 50.172813 
" style="fill: none; stroke: #0000ff; stroke-width: 1.5; stroke-linecap: square"/>
    </g>
    <g id="text_33">
     <text style="font: 700 10px 'DejaVu Sans', 'Bitstream Vera Sans', 'Computer Modern Sans Serif', 'Lucida Grande', 'Verdana', 'Geneva', 'Lucid', 'Arial', 'Helvetica', 'Avant Garde', sans-serif; text-anchor: start" x="758.362813" y="53.672813" transform="rotate(-0 758.362813 53.672813)">validation loss</text>
    </g>
   </g>
  </g>
 </g>
 <defs>
  <clipPath id="p9473c6c8a7">
   <rect x="43.592188" y="22.318125" width="379.08" height="222.6"/>
  </clipPath>
  <clipPath id="p7ef994c32f">
   <rect x="470.192187" y="22.318125" width="379.08" height="222.6"/>
  </clipPath>
 </defs>
</svg>
