<?xml version="1.0" encoding="utf-8" standalone="no"?>
<!DOCTYPE svg PUBLIC "-//W3C//DTD SVG 1.1//EN"
  "http://www.w3.org/Graphics/SVG/1.1/DTD/svg11.dtd">
<svg xmlns:xlink="http://www.w3.org/1999/xlink" width="416.769219pt" height="323.986375pt" viewBox="0 0 416.769219 323.986375" xmlns="http://www.w3.org/2000/svg" version="1.1">
 <metadata>
  <rdf:RDF xmlns:dc="http://purl.org/dc/elements/1.1/" xmlns:cc="http://creativecommons.org/ns#" xmlns:rdf="http://www.w3.org/1999/02/22-rdf-syntax-ns#">
   <cc:Work>
    <dc:type rdf:resource="http://purl.org/dc/dcmitype/StillImage"/>
    <dc:date>2023-10-03T23:34:52.236737</dc:date>
    <dc:format>image/svg+xml</dc:format>
    <dc:creator>
     <cc:Agent>
      <dc:title>Matplotlib v3.7.3, https://matplotlib.org/</dc:title>
     </cc:Agent>
    </dc:creator>
   </cc:Work>
  </rdf:RDF>
 </metadata>
 <defs>
  <style type="text/css">*{stroke-linejoin: round; stroke-linecap: butt}</style>
 </defs>
 <g id="figure_1">
  <g id="patch_1">
   <path d="M 0 323.986375 
L 416.769219 323.986375 
L 416.769219 0 
L 0 0 
z
" style="fill: #ffffff"/>
  </g>
  <g id="axes_1">
   <g id="patch_2">
    <path d="M 43.592188 288.430125 
L 400.712188 288.430125 
L 400.712188 22.318125 
L 43.592188 22.318125 
z
" style="fill: #ffffff"/>
   </g>
   <g id="matplotlib.axis_1">
    <g id="xtick_1">
     <g id="line2d_1">
      <defs>
       <path id="m98076cb637" d="M 0 0 
L 0 -7 
" style="stroke: #000000; stroke-width: 2"/>
      </defs>
      <g>
       <use xlink:href="#m98076cb637" x="60.597902" y="288.430125" style="stroke: #000000; stroke-width: 2"/>
      </g>
     </g>
     <g id="line2d_2">
      <defs>
       <path id="m1afee9caa2" d="M 0 0 
L 0 7 
" style="stroke: #000000; stroke-width: 2"/>
      </defs>
      <g>
       <use xlink:href="#m1afee9caa2" x="60.597902" y="22.318125" style="stroke: #000000; stroke-width: 2"/>
      </g>
     </g>
     <g id="text_1">
      <text style="font: 700 10px 'DejaVu Sans', 'Bitstream Vera Sans', 'Computer Modern Sans Serif', 'Lucida Grande', 'Verdana', 'Geneva', 'Lucid', 'Arial', 'Helvetica', 'Avant Garde', sans-serif; text-anchor: middle" x="60.597902" y="301.028562" transform="rotate(-0 60.597902 301.028562)">0.0</text>
     </g>
    </g>
    <g id="xtick_2">
     <g id="line2d_3">
      <g>
       <use xlink:href="#m98076cb637" x="128.620759" y="288.430125" style="stroke: #000000; stroke-width: 2"/>
      </g>
     </g>
     <g id="line2d_4">
      <g>
       <use xlink:href="#m1afee9caa2" x="128.620759" y="22.318125" style="stroke: #000000; stroke-width: 2"/>
      </g>
     </g>
     <g id="text_2">
      <text style="font: 700 10px 'DejaVu Sans', 'Bitstream Vera Sans', 'Computer Modern Sans Serif', 'Lucida Grande', 'Verdana', 'Geneva', 'Lucid', 'Arial', 'Helvetica', 'Avant Garde', sans-serif; text-anchor: middle" x="128.620759" y="301.028562" transform="rotate(-0 128.620759 301.028562)">0.2</text>
     </g>
    </g>
    <g id="xtick_3">
     <g id="line2d_5">
      <g>
       <use xlink:href="#m98076cb637" x="196.643616" y="288.430125" style="stroke: #000000; stroke-width: 2"/>
      </g>
     </g>
     <g id="line2d_6">
      <g>
       <use xlink:href="#m1afee9caa2" x="196.643616" y="22.318125" style="stroke: #000000; stroke-width: 2"/>
      </g>
     </g>
     <g id="text_3">
      <text style="font: 700 10px 'DejaVu Sans', 'Bitstream Vera Sans', 'Computer Modern Sans Serif', 'Lucida Grande', 'Verdana', 'Geneva', 'Lucid', 'Arial', 'Helvetica', 'Avant Garde', sans-serif; text-anchor: middle" x="196.643616" y="301.028562" transform="rotate(-0 196.643616 301.028562)">0.4</text>
     </g>
    </g>
    <g id="xtick_4">
     <g id="line2d_7">
      <g>
       <use xlink:href="#m98076cb637" x="264.666473" y="288.430125" style="stroke: #000000; stroke-width: 2"/>
      </g>
     </g>
     <g id="line2d_8">
      <g>
       <use xlink:href="#m1afee9caa2" x="264.666473" y="22.318125" style="stroke: #000000; stroke-width: 2"/>
      </g>
     </g>
     <g id="text_4">
      <text style="font: 700 10px 'DejaVu Sans', 'Bitstream Vera Sans', 'Computer Modern Sans Serif', 'Lucida Grande', 'Verdana', 'Geneva', 'Lucid', 'Arial', 'Helvetica', 'Avant Garde', sans-serif; text-anchor: middle" x="264.666473" y="301.028562" transform="rotate(-0 264.666473 301.028562)">0.6</text>
     </g>
    </g>
    <g id="xtick_5">
     <g id="line2d_9">
      <g>
       <use xlink:href="#m98076cb637" x="332.68933" y="288.430125" style="stroke: #000000; stroke-width: 2"/>
      </g>
     </g>
     <g id="line2d_10">
      <g>
       <use xlink:href="#m1afee9caa2" x="332.68933" y="22.318125" style="stroke: #000000; stroke-width: 2"/>
      </g>
     </g>
     <g id="text_5">
      <text style="font: 700 10px 'DejaVu Sans', 'Bitstream Vera Sans', 'Computer Modern Sans Serif', 'Lucida Grande', 'Verdana', 'Geneva', 'Lucid', 'Arial', 'Helvetica', 'Avant Garde', sans-serif; text-anchor: middle" x="332.68933" y="301.028562" transform="rotate(-0 332.68933 301.028562)">0.8</text>
     </g>
    </g>
    <g id="xtick_6">
     <g id="line2d_11">
      <g>
       <use xlink:href="#m98076cb637" x="400.712188" y="288.430125" style="stroke: #000000; stroke-width: 2"/>
      </g>
     </g>
     <g id="line2d_12">
      <g>
       <use xlink:href="#m1afee9caa2" x="400.712188" y="22.318125" style="stroke: #000000; stroke-width: 2"/>
      </g>
     </g>
     <g id="text_6">
      <text style="font: 700 10px 'DejaVu Sans', 'Bitstream Vera Sans', 'Computer Modern Sans Serif', 'Lucida Grande', 'Verdana', 'Geneva', 'Lucid', 'Arial', 'Helvetica', 'Avant Garde', sans-serif; text-anchor: middle" x="400.712188" y="301.028562" transform="rotate(-0 400.712188 301.028562)">1.0</text>
     </g>
    </g>
    <g id="text_7">
     <text style="font: 700 10px 'DejaVu Sans', 'Bitstream Vera Sans', 'Computer Modern Sans Serif', 'Lucida Grande', 'Verdana', 'Geneva', 'Lucid', 'Arial', 'Helvetica', 'Avant Garde', sans-serif; text-anchor: middle" x="222.152188" y="314.706687" transform="rotate(-0 222.152188 314.706687)">false positive rate</text>
    </g>
   </g>
   <g id="matplotlib.axis_2">
    <g id="ytick_1">
     <g id="line2d_13">
      <defs>
       <path id="meb73b26cd3" d="M 0 0 
L 7 0 
" style="stroke: #000000; stroke-width: 2"/>
      </defs>
      <g>
       <use xlink:href="#meb73b26cd3" x="43.592188" y="288.430125" style="stroke: #000000; stroke-width: 2"/>
      </g>
     </g>
     <g id="line2d_14">
      <defs>
       <path id="m68d293f240" d="M 0 0 
L -7 0 
" style="stroke: #000000; stroke-width: 2"/>
      </defs>
      <g>
       <use xlink:href="#m68d293f240" x="400.712188" y="288.430125" style="stroke: #000000; stroke-width: 2"/>
      </g>
     </g>
     <g id="text_8">
      <text style="font: 700 10px 'DejaVu Sans', 'Bitstream Vera Sans', 'Computer Modern Sans Serif', 'Lucida Grande', 'Verdana', 'Geneva', 'Lucid', 'Arial', 'Helvetica', 'Avant Garde', sans-serif; text-anchor: end" x="38.592188" y="292.229344" transform="rotate(-0 38.592188 292.229344)">0.0</text>
     </g>
    </g>
    <g id="ytick_2">
     <g id="line2d_15">
      <g>
       <use xlink:href="#meb73b26cd3" x="43.592188" y="237.742125" style="stroke: #000000; stroke-width: 2"/>
      </g>
     </g>
     <g id="line2d_16">
      <g>
       <use xlink:href="#m68d293f240" x="400.712188" y="237.742125" style="stroke: #000000; stroke-width: 2"/>
      </g>
     </g>
     <g id="text_9">
      <text style="font: 700 10px 'DejaVu Sans', 'Bitstream Vera Sans', 'Computer Modern Sans Serif', 'Lucida Grande', 'Verdana', 'Geneva', 'Lucid', 'Arial', 'Helvetica', 'Avant Garde', sans-serif; text-anchor: end" x="38.592188" y="241.541344" transform="rotate(-0 38.592188 241.541344)">0.2</text>
     </g>
    </g>
    <g id="ytick_3">
     <g id="line2d_17">
      <g>
       <use xlink:href="#meb73b26cd3" x="43.592188" y="187.054125" style="stroke: #000000; stroke-width: 2"/>
      </g>
     </g>
     <g id="line2d_18">
      <g>
       <use xlink:href="#m68d293f240" x="400.712188" y="187.054125" style="stroke: #000000; stroke-width: 2"/>
      </g>
     </g>
     <g id="text_10">
      <text style="font: 700 10px 'DejaVu Sans', 'Bitstream Vera Sans', 'Computer Modern Sans Serif', 'Lucida Grande', 'Verdana', 'Geneva', 'Lucid', 'Arial', 'Helvetica', 'Avant Garde', sans-serif; text-anchor: end" x="38.592188" y="190.853344" transform="rotate(-0 38.592188 190.853344)">0.4</text>
     </g>
    </g>
    <g id="ytick_4">
     <g id="line2d_19">
      <g>
       <use xlink:href="#meb73b26cd3" x="43.592188" y="136.366125" style="stroke: #000000; stroke-width: 2"/>
      </g>
     </g>
     <g id="line2d_20">
      <g>
       <use xlink:href="#m68d293f240" x="400.712188" y="136.366125" style="stroke: #000000; stroke-width: 2"/>
      </g>
     </g>
     <g id="text_11">
      <text style="font: 700 10px 'DejaVu Sans', 'Bitstream Vera Sans', 'Computer Modern Sans Serif', 'Lucida Grande', 'Verdana', 'Geneva', 'Lucid', 'Arial', 'Helvetica', 'Avant Garde', sans-serif; text-anchor: end" x="38.592188" y="140.165344" transform="rotate(-0 38.592188 140.165344)">0.6</text>
     </g>
    </g>
    <g id="ytick_5">
     <g id="line2d_21">
      <g>
       <use xlink:href="#meb73b26cd3" x="43.592188" y="85.678125" style="stroke: #000000; stroke-width: 2"/>
      </g>
     </g>
     <g id="line2d_22">
      <g>
       <use xlink:href="#m68d293f240" x="400.712188" y="85.678125" style="stroke: #000000; stroke-width: 2"/>
      </g>
     </g>
     <g id="text_12">
      <text style="font: 700 10px 'DejaVu Sans', 'Bitstream Vera Sans', 'Computer Modern Sans Serif', 'Lucida Grande', 'Verdana', 'Geneva', 'Lucid', 'Arial', 'Helvetica', 'Avant Garde', sans-serif; text-anchor: end" x="38.592188" y="89.477344" transform="rotate(-0 38.592188 89.477344)">0.8</text>
     </g>
    </g>
    <g id="ytick_6">
     <g id="line2d_23">
      <g>
       <use xlink:href="#meb73b26cd3" x="43.592188" y="34.990125" style="stroke: #000000; stroke-width: 2"/>
      </g>
     </g>
     <g id="line2d_24">
      <g>
       <use xlink:href="#m68d293f240" x="400.712188" y="34.990125" style="stroke: #000000; stroke-width: 2"/>
      </g>
     </g>
     <g id="text_13">
      <text style="font: 700 10px 'DejaVu Sans', 'Bitstream Vera Sans', 'Computer Modern Sans Serif', 'Lucida Grande', 'Verdana', 'Geneva', 'Lucid', 'Arial', 'Helvetica', 'Avant Garde', sans-serif; text-anchor: end" x="38.592188" y="38.789344" transform="rotate(-0 38.592188 38.789344)">1.0</text>
     </g>
    </g>
    <g id="text_14">
     <text style="font: 700 10px 'DejaVu Sans', 'Bitstream Vera Sans', 'Computer Modern Sans Serif', 'Lucida Grande', 'Verdana', 'Geneva', 'Lucid', 'Arial', 'Helvetica', 'Avant Garde', sans-serif; text-anchor: middle" x="14.798438" y="155.374125" transform="rotate(-90 14.798438 155.374125)">true positive rate</text>
    </g>
   </g>
   <g id="line2d_25">
    <path d="M 60.597902 288.430125 
L 60.597902 267.046125 
L 60.597902 250.414125 
L 60.597902 240.118125 
L 60.597902 233.386125 
L 60.597902 221.902125 
L 60.597902 215.566125 
L 60.597902 210.814125 
L 60.597902 208.834125 
L 60.597902 206.458125 
L 60.597902 204.874125 
L 60.597902 202.102125 
L 60.597902 200.518125 
L 60.597902 199.726125 
L 60.597902 197.350125 
L 60.597902 194.974125 
L 60.597902 193.390125 
L 60.597902 192.202125 
L 60.597902 191.410125 
L 60.597902 188.638125 
L 60.597902 185.470125 
L 60.597902 184.678125 
L 60.597902 184.282125 
L 60.597902 183.490125 
L 60.597902 181.510125 
L 60.597902 180.322125 
L 60.597902 179.926125 
L 60.597902 179.134125 
L 60.597902 177.154125 
L 60.597902 176.758125 
L 60.597902 175.966125 
L 60.597902 175.174125 
L 60.597902 173.986125 
L 60.597902 171.610125 
L 60.597902 170.818125 
L 60.597902 169.630125 
L 60.597902 169.234125 
L 60.597902 166.858125 
L 60.597902 166.462125 
L 60.597902 165.670125 
L 60.597902 165.274125 
L 60.597902 164.086125 
L 60.597902 152.206125 
L 60.597902 151.414125 
L 60.597902 141.910125 
L 60.597902 141.118125 
L 60.597902 126.466125 
L 60.597902 125.674125 
L 60.597902 103.102125 
L 60.597902 102.310125 
L 60.597902 36.178125 
L 61.660759 36.178125 
L 61.660759 35.782125 
L 61.926473 35.782125 
L 61.926473 34.990125 
L 400.712187 34.990125 
" clip-path="url(#p9854cf2d29)" style="fill: none; stroke: #ff0000; stroke-width: 2; stroke-linecap: square"/>
   </g>
   <g id="line2d_26">
    <path d="M 60.597902 288.430125 
L 60.597902 254.374125 
L 60.597902 243.286125 
L 60.597902 235.762125 
L 60.597902 230.218125 
L 60.597902 223.882125 
L 60.597902 222.298125 
L 60.597902 219.922125 
L 60.597902 218.338125 
L 60.597902 216.358125 
L 60.597902 212.002125 
L 60.597902 208.438125 
L 60.597902 206.062125 
L 60.597902 204.478125 
L 60.597902 201.310125 
L 60.597902 197.746125 
L 60.597902 194.974125 
L 60.597902 192.994125 
L 60.597902 190.222125 
L 60.597902 189.034125 
L 60.597902 187.450125 
L 60.597902 186.262125 
L 60.597902 185.470125 
L 60.597902 183.886125 
L 60.597902 182.698125 
L 60.597902 181.906125 
L 60.597902 179.926125 
L 60.597902 178.342125 
L 60.597902 176.758125 
L 60.597902 175.174125 
L 60.597902 174.778125 
L 60.597902 173.194125 
L 60.597902 172.402125 
L 60.597902 171.610125 
L 60.597902 169.630125 
L 60.597902 169.234125 
L 60.597902 167.650125 
L 60.597902 166.858125 
L 60.597902 166.066125 
L 60.597902 164.086125 
L 60.597902 162.898125 
L 60.597902 160.522125 
L 60.597902 158.542125 
L 60.597902 158.146125 
L 60.597902 157.354125 
L 60.597902 156.958125 
L 60.597902 154.978125 
L 60.597902 154.582125 
L 60.597902 152.602125 
L 60.597902 152.206125 
L 60.597902 151.018125 
L 60.597902 150.226125 
L 60.597902 148.642125 
L 60.597902 146.266125 
L 60.597902 144.682125 
L 60.597902 144.286125 
L 60.597902 142.702125 
L 60.597902 141.118125 
L 60.597902 138.742125 
L 60.597902 137.158125 
L 60.597902 136.366125 
L 60.597902 134.782125 
L 60.597902 133.990125 
L 60.597902 133.198125 
L 60.597902 130.822125 
L 60.597902 130.030125 
L 60.597902 128.446125 
L 60.597902 127.654125 
L 60.597902 126.466125 
L 60.597902 124.882125 
L 60.597902 124.090125 
L 60.597902 123.694125 
L 60.597902 122.902125 
L 60.597902 122.110125 
L 60.597902 121.318125 
L 60.597902 119.734125 
L 60.597902 118.150125 
L 60.597902 117.754125 
L 60.597902 116.962125 
L 60.597902 111.022125 
L 60.597902 109.438125 
L 60.597902 108.250125 
L 60.597902 107.458125 
L 60.597902 106.666125 
L 60.597902 105.874125 
L 60.597902 105.082125 
L 60.597902 104.290125 
L 60.597902 98.746125 
L 60.597902 97.954125 
L 60.597902 94.786125 
L 60.597902 93.994125 
L 60.597902 80.926125 
L 60.597902 80.134125 
L 60.597902 35.782125 
L 60.863616 35.782125 
L 60.863616 35.386125 
L 61.395045 35.386125 
L 61.395045 34.990125 
L 400.712187 34.990125 
" clip-path="url(#p9854cf2d29)" style="fill: none; stroke: #0000ff; stroke-width: 2; stroke-linecap: square"/>
   </g>
   <g id="line2d_27">
    <path d="M 60.597902 288.430125 
L 60.597902 262.294125 
L 60.597902 242.890125 
L 60.597902 232.594125 
L 60.597902 229.426125 
L 60.597902 223.486125 
L 60.597902 214.774125 
L 60.597902 208.438125 
L 60.597902 204.082125 
L 60.597902 201.706125 
L 60.597902 195.370125 
L 60.597902 191.806125 
L 60.597902 187.054125 
L 60.597902 185.470125 
L 60.597902 184.678125 
L 60.597902 183.490125 
L 60.597902 181.510125 
L 60.597902 178.342125 
L 60.597902 177.154125 
L 60.597902 176.758125 
L 60.597902 175.570125 
L 60.597902 174.778125 
L 60.597902 173.194125 
L 60.597902 171.610125 
L 60.597902 170.818125 
L 60.597902 169.630125 
L 60.597902 165.670125 
L 60.597902 165.274125 
L 60.597902 163.690125 
L 60.597902 162.898125 
L 60.597902 162.106125 
L 60.597902 160.918125 
L 60.597902 159.730125 
L 60.597902 158.146125 
L 60.597902 157.354125 
L 60.597902 156.166125 
L 60.597902 154.978125 
L 60.597902 154.186125 
L 60.597902 152.602125 
L 60.597902 151.810125 
L 60.597902 150.622125 
L 60.597902 149.830125 
L 60.597902 147.454125 
L 60.597902 146.662125 
L 60.597902 144.682125 
L 60.597902 143.494125 
L 60.597902 140.326125 
L 60.597902 139.534125 
L 60.597902 139.138125 
L 60.597902 138.346125 
L 60.597902 34.990125 
L 400.712187 34.990125 
" clip-path="url(#p9854cf2d29)" style="fill: none; stroke: #008000; stroke-width: 2; stroke-linecap: square"/>
   </g>
   <g id="line2d_28">
    <path d="M 60.597902 288.430125 
L 400.712187 34.990125 
" clip-path="url(#p9854cf2d29)" style="fill: none; stroke-dasharray: 7.4,3.2; stroke-dashoffset: 0; stroke: #000000; stroke-width: 2"/>
   </g>
   <g id="patch_3">
    <path d="M 43.592188 288.430125 
L 43.592188 22.318125 
" style="fill: none; stroke: #000000; stroke-width: 2; stroke-linejoin: miter; stroke-linecap: square"/>
   </g>
   <g id="patch_4">
    <path d="M 400.712188 288.430125 
L 400.712188 22.318125 
" style="fill: none; stroke: #000000; stroke-width: 2; stroke-linejoin: miter; stroke-linecap: square"/>
   </g>
   <g id="patch_5">
    <path d="M 43.592188 288.430125 
L 400.712187 288.430125 
" style="fill: none; stroke: #000000; stroke-width: 2; stroke-linejoin: miter; stroke-linecap: square"/>
   </g>
   <g id="patch_6">
    <path d="M 43.592188 22.318125 
L 400.712187 22.318125 
" style="fill: none; stroke: #000000; stroke-width: 2; stroke-linejoin: miter; stroke-linecap: square"/>
   </g>
   <g id="text_15">
    <text style="font: 700 12px 'DejaVu Sans', 'Bitstream Vera Sans', 'Computer Modern Sans Serif', 'Lucida Grande', 'Verdana', 'Geneva', 'Lucid', 'Arial', 'Helvetica', 'Avant Garde', sans-serif; text-anchor: middle" x="222.152188" y="16.318125" transform="rotate(-0 222.152188 16.318125)">Multi-class classification ROC for dist features</text>
   </g>
   <g id="legend_1">
    <g id="patch_7">
     <path d="M 134.954375 283.430125 
L 393.712188 283.430125 
Q 395.712188 283.430125 395.712188 281.430125 
L 395.712188 238.39575 
Q 395.712188 236.39575 393.712188 236.39575 
L 134.954375 236.39575 
Q 132.954375 236.39575 132.954375 238.39575 
L 132.954375 281.430125 
Q 132.954375 283.430125 134.954375 283.430125 
z
" style="fill: #ffffff; opacity: 0.8; stroke: #cccccc; stroke-linejoin: miter"/>
    </g>
    <g id="line2d_29">
     <path d="M 136.954375 244.494187 
L 146.954375 244.494187 
L 156.954375 244.494187 
" style="fill: none; stroke: #ff0000; stroke-width: 2; stroke-linecap: square"/>
    </g>
    <g id="text_16">
     <text style="font: 700 10px 'DejaVu Sans', 'Bitstream Vera Sans', 'Computer Modern Sans Serif', 'Lucida Grande', 'Verdana', 'Geneva', 'Lucid', 'Arial', 'Helvetica', 'Avant Garde', sans-serif; text-anchor: start" x="164.954375" y="247.994187" transform="rotate(-0 164.954375 247.994187)">ROC curve (area = 1.00) for class mc6</text>
    </g>
    <g id="line2d_30">
     <path d="M 136.954375 259.172312 
L 146.954375 259.172312 
L 156.954375 259.172312 
" style="fill: none; stroke: #0000ff; stroke-width: 2; stroke-linecap: square"/>
    </g>
    <g id="text_17">
     <text style="font: 700 10px 'DejaVu Sans', 'Bitstream Vera Sans', 'Computer Modern Sans Serif', 'Lucida Grande', 'Verdana', 'Geneva', 'Lucid', 'Arial', 'Helvetica', 'Avant Garde', sans-serif; text-anchor: start" x="164.954375" y="262.672312" transform="rotate(-0 164.954375 262.672312)">ROC curve (area = 1.00) for class mc6s</text>
    </g>
    <g id="line2d_31">
     <path d="M 136.954375 273.850437 
L 146.954375 273.850437 
L 156.954375 273.850437 
" style="fill: none; stroke: #008000; stroke-width: 2; stroke-linecap: square"/>
    </g>
    <g id="text_18">
     <text style="font: 700 10px 'DejaVu Sans', 'Bitstream Vera Sans', 'Computer Modern Sans Serif', 'Lucida Grande', 'Verdana', 'Geneva', 'Lucid', 'Arial', 'Helvetica', 'Avant Garde', sans-serif; text-anchor: start" x="164.954375" y="277.350437" transform="rotate(-0 164.954375 277.350437)">ROC curve (area = 1.00) for class mc6sa</text>
    </g>
   </g>
  </g>
 </g>
 <defs>
  <clipPath id="p9854cf2d29">
   <rect x="43.592188" y="22.318125" width="357.12" height="266.112"/>
  </clipPath>
 </defs>
</svg>
