<?xml version="1.0" encoding="utf-8" standalone="no"?>
<!DOCTYPE svg PUBLIC "-//W3C//DTD SVG 1.1//EN"
  "http://www.w3.org/Graphics/SVG/1.1/DTD/svg11.dtd">
<svg xmlns:xlink="http://www.w3.org/1999/xlink" width="416.769219pt" height="323.986375pt" viewBox="0 0 416.769219 323.986375" xmlns="http://www.w3.org/2000/svg" version="1.1">
 <metadata>
  <rdf:RDF xmlns:dc="http://purl.org/dc/elements/1.1/" xmlns:cc="http://creativecommons.org/ns#" xmlns:rdf="http://www.w3.org/1999/02/22-rdf-syntax-ns#">
   <cc:Work>
    <dc:type rdf:resource="http://purl.org/dc/dcmitype/StillImage"/>
    <dc:date>2023-10-03T23:34:52.936123</dc:date>
    <dc:format>image/svg+xml</dc:format>
    <dc:creator>
     <cc:Agent>
      <dc:title>Matplotlib v3.7.3, https://matplotlib.org/</dc:title>
     </cc:Agent>
    </dc:creator>
   </cc:Work>
  </rdf:RDF>
 </metadata>
 <defs>
  <style type="text/css">*{stroke-linejoin: round; stroke-linecap: butt}</style>
 </defs>
 <g id="figure_1">
  <g id="patch_1">
   <path d="M 0 323.986375 
L 416.769219 323.986375 
L 416.769219 0 
L 0 0 
z
" style="fill: #ffffff"/>
  </g>
  <g id="axes_1">
   <g id="patch_2">
    <path d="M 43.592188 288.430125 
L 400.712188 288.430125 
L 400.712188 22.318125 
L 43.592188 22.318125 
z
" style="fill: #ffffff"/>
   </g>
   <g id="matplotlib.axis_1">
    <g id="xtick_1">
     <g id="line2d_1">
      <defs>
       <path id="mba6bb08076" d="M 0 0 
L 0 -7 
" style="stroke: #000000; stroke-width: 2"/>
      </defs>
      <g>
       <use xlink:href="#mba6bb08076" x="60.597902" y="288.430125" style="stroke: #000000; stroke-width: 2"/>
      </g>
     </g>
     <g id="line2d_2">
      <defs>
       <path id="m5cf45509f9" d="M 0 0 
L 0 7 
" style="stroke: #000000; stroke-width: 2"/>
      </defs>
      <g>
       <use xlink:href="#m5cf45509f9" x="60.597902" y="22.318125" style="stroke: #000000; stroke-width: 2"/>
      </g>
     </g>
     <g id="text_1">
      <text style="font: 700 10px 'DejaVu Sans', 'Bitstream Vera Sans', 'Computer Modern Sans Serif', 'Lucida Grande', 'Verdana', 'Geneva', 'Lucid', 'Arial', 'Helvetica', 'Avant Garde', sans-serif; text-anchor: middle" x="60.597902" y="301.028562" transform="rotate(-0 60.597902 301.028562)">0.0</text>
     </g>
    </g>
    <g id="xtick_2">
     <g id="line2d_3">
      <g>
       <use xlink:href="#mba6bb08076" x="128.620759" y="288.430125" style="stroke: #000000; stroke-width: 2"/>
      </g>
     </g>
     <g id="line2d_4">
      <g>
       <use xlink:href="#m5cf45509f9" x="128.620759" y="22.318125" style="stroke: #000000; stroke-width: 2"/>
      </g>
     </g>
     <g id="text_2">
      <text style="font: 700 10px 'DejaVu Sans', 'Bitstream Vera Sans', 'Computer Modern Sans Serif', 'Lucida Grande', 'Verdana', 'Geneva', 'Lucid', 'Arial', 'Helvetica', 'Avant Garde', sans-serif; text-anchor: middle" x="128.620759" y="301.028562" transform="rotate(-0 128.620759 301.028562)">0.2</text>
     </g>
    </g>
    <g id="xtick_3">
     <g id="line2d_5">
      <g>
       <use xlink:href="#mba6bb08076" x="196.643616" y="288.430125" style="stroke: #000000; stroke-width: 2"/>
      </g>
     </g>
     <g id="line2d_6">
      <g>
       <use xlink:href="#m5cf45509f9" x="196.643616" y="22.318125" style="stroke: #000000; stroke-width: 2"/>
      </g>
     </g>
     <g id="text_3">
      <text style="font: 700 10px 'DejaVu Sans', 'Bitstream Vera Sans', 'Computer Modern Sans Serif', 'Lucida Grande', 'Verdana', 'Geneva', 'Lucid', 'Arial', 'Helvetica', 'Avant Garde', sans-serif; text-anchor: middle" x="196.643616" y="301.028562" transform="rotate(-0 196.643616 301.028562)">0.4</text>
     </g>
    </g>
    <g id="xtick_4">
     <g id="line2d_7">
      <g>
       <use xlink:href="#mba6bb08076" x="264.666473" y="288.430125" style="stroke: #000000; stroke-width: 2"/>
      </g>
     </g>
     <g id="line2d_8">
      <g>
       <use xlink:href="#m5cf45509f9" x="264.666473" y="22.318125" style="stroke: #000000; stroke-width: 2"/>
      </g>
     </g>
     <g id="text_4">
      <text style="font: 700 10px 'DejaVu Sans', 'Bitstream Vera Sans', 'Computer Modern Sans Serif', 'Lucida Grande', 'Verdana', 'Geneva', 'Lucid', 'Arial', 'Helvetica', 'Avant Garde', sans-serif; text-anchor: middle" x="264.666473" y="301.028562" transform="rotate(-0 264.666473 301.028562)">0.6</text>
     </g>
    </g>
    <g id="xtick_5">
     <g id="line2d_9">
      <g>
       <use xlink:href="#mba6bb08076" x="332.68933" y="288.430125" style="stroke: #000000; stroke-width: 2"/>
      </g>
     </g>
     <g id="line2d_10">
      <g>
       <use xlink:href="#m5cf45509f9" x="332.68933" y="22.318125" style="stroke: #000000; stroke-width: 2"/>
      </g>
     </g>
     <g id="text_5">
      <text style="font: 700 10px 'DejaVu Sans', 'Bitstream Vera Sans', 'Computer Modern Sans Serif', 'Lucida Grande', 'Verdana', 'Geneva', 'Lucid', 'Arial', 'Helvetica', 'Avant Garde', sans-serif; text-anchor: middle" x="332.68933" y="301.028562" transform="rotate(-0 332.68933 301.028562)">0.8</text>
     </g>
    </g>
    <g id="xtick_6">
     <g id="line2d_11">
      <g>
       <use xlink:href="#mba6bb08076" x="400.712188" y="288.430125" style="stroke: #000000; stroke-width: 2"/>
      </g>
     </g>
     <g id="line2d_12">
      <g>
       <use xlink:href="#m5cf45509f9" x="400.712188" y="22.318125" style="stroke: #000000; stroke-width: 2"/>
      </g>
     </g>
     <g id="text_6">
      <text style="font: 700 10px 'DejaVu Sans', 'Bitstream Vera Sans', 'Computer Modern Sans Serif', 'Lucida Grande', 'Verdana', 'Geneva', 'Lucid', 'Arial', 'Helvetica', 'Avant Garde', sans-serif; text-anchor: middle" x="400.712188" y="301.028562" transform="rotate(-0 400.712188 301.028562)">1.0</text>
     </g>
    </g>
    <g id="text_7">
     <text style="font: 700 10px 'DejaVu Sans', 'Bitstream Vera Sans', 'Computer Modern Sans Serif', 'Lucida Grande', 'Verdana', 'Geneva', 'Lucid', 'Arial', 'Helvetica', 'Avant Garde', sans-serif; text-anchor: middle" x="222.152188" y="314.706687" transform="rotate(-0 222.152188 314.706687)">false positive rate</text>
    </g>
   </g>
   <g id="matplotlib.axis_2">
    <g id="ytick_1">
     <g id="line2d_13">
      <defs>
       <path id="mcfe3e45adc" d="M 0 0 
L 7 0 
" style="stroke: #000000; stroke-width: 2"/>
      </defs>
      <g>
       <use xlink:href="#mcfe3e45adc" x="43.592188" y="288.430125" style="stroke: #000000; stroke-width: 2"/>
      </g>
     </g>
     <g id="line2d_14">
      <defs>
       <path id="mb6197401c0" d="M 0 0 
L -7 0 
" style="stroke: #000000; stroke-width: 2"/>
      </defs>
      <g>
       <use xlink:href="#mb6197401c0" x="400.712188" y="288.430125" style="stroke: #000000; stroke-width: 2"/>
      </g>
     </g>
     <g id="text_8">
      <text style="font: 700 10px 'DejaVu Sans', 'Bitstream Vera Sans', 'Computer Modern Sans Serif', 'Lucida Grande', 'Verdana', 'Geneva', 'Lucid', 'Arial', 'Helvetica', 'Avant Garde', sans-serif; text-anchor: end" x="38.592188" y="292.229344" transform="rotate(-0 38.592188 292.229344)">0.0</text>
     </g>
    </g>
    <g id="ytick_2">
     <g id="line2d_15">
      <g>
       <use xlink:href="#mcfe3e45adc" x="43.592188" y="237.742125" style="stroke: #000000; stroke-width: 2"/>
      </g>
     </g>
     <g id="line2d_16">
      <g>
       <use xlink:href="#mb6197401c0" x="400.712188" y="237.742125" style="stroke: #000000; stroke-width: 2"/>
      </g>
     </g>
     <g id="text_9">
      <text style="font: 700 10px 'DejaVu Sans', 'Bitstream Vera Sans', 'Computer Modern Sans Serif', 'Lucida Grande', 'Verdana', 'Geneva', 'Lucid', 'Arial', 'Helvetica', 'Avant Garde', sans-serif; text-anchor: end" x="38.592188" y="241.541344" transform="rotate(-0 38.592188 241.541344)">0.2</text>
     </g>
    </g>
    <g id="ytick_3">
     <g id="line2d_17">
      <g>
       <use xlink:href="#mcfe3e45adc" x="43.592188" y="187.054125" style="stroke: #000000; stroke-width: 2"/>
      </g>
     </g>
     <g id="line2d_18">
      <g>
       <use xlink:href="#mb6197401c0" x="400.712188" y="187.054125" style="stroke: #000000; stroke-width: 2"/>
      </g>
     </g>
     <g id="text_10">
      <text style="font: 700 10px 'DejaVu Sans', 'Bitstream Vera Sans', 'Computer Modern Sans Serif', 'Lucida Grande', 'Verdana', 'Geneva', 'Lucid', 'Arial', 'Helvetica', 'Avant Garde', sans-serif; text-anchor: end" x="38.592188" y="190.853344" transform="rotate(-0 38.592188 190.853344)">0.4</text>
     </g>
    </g>
    <g id="ytick_4">
     <g id="line2d_19">
      <g>
       <use xlink:href="#mcfe3e45adc" x="43.592188" y="136.366125" style="stroke: #000000; stroke-width: 2"/>
      </g>
     </g>
     <g id="line2d_20">
      <g>
       <use xlink:href="#mb6197401c0" x="400.712188" y="136.366125" style="stroke: #000000; stroke-width: 2"/>
      </g>
     </g>
     <g id="text_11">
      <text style="font: 700 10px 'DejaVu Sans', 'Bitstream Vera Sans', 'Computer Modern Sans Serif', 'Lucida Grande', 'Verdana', 'Geneva', 'Lucid', 'Arial', 'Helvetica', 'Avant Garde', sans-serif; text-anchor: end" x="38.592188" y="140.165344" transform="rotate(-0 38.592188 140.165344)">0.6</text>
     </g>
    </g>
    <g id="ytick_5">
     <g id="line2d_21">
      <g>
       <use xlink:href="#mcfe3e45adc" x="43.592188" y="85.678125" style="stroke: #000000; stroke-width: 2"/>
      </g>
     </g>
     <g id="line2d_22">
      <g>
       <use xlink:href="#mb6197401c0" x="400.712188" y="85.678125" style="stroke: #000000; stroke-width: 2"/>
      </g>
     </g>
     <g id="text_12">
      <text style="font: 700 10px 'DejaVu Sans', 'Bitstream Vera Sans', 'Computer Modern Sans Serif', 'Lucida Grande', 'Verdana', 'Geneva', 'Lucid', 'Arial', 'Helvetica', 'Avant Garde', sans-serif; text-anchor: end" x="38.592188" y="89.477344" transform="rotate(-0 38.592188 89.477344)">0.8</text>
     </g>
    </g>
    <g id="ytick_6">
     <g id="line2d_23">
      <g>
       <use xlink:href="#mcfe3e45adc" x="43.592188" y="34.990125" style="stroke: #000000; stroke-width: 2"/>
      </g>
     </g>
     <g id="line2d_24">
      <g>
       <use xlink:href="#mb6197401c0" x="400.712188" y="34.990125" style="stroke: #000000; stroke-width: 2"/>
      </g>
     </g>
     <g id="text_13">
      <text style="font: 700 10px 'DejaVu Sans', 'Bitstream Vera Sans', 'Computer Modern Sans Serif', 'Lucida Grande', 'Verdana', 'Geneva', 'Lucid', 'Arial', 'Helvetica', 'Avant Garde', sans-serif; text-anchor: end" x="38.592188" y="38.789344" transform="rotate(-0 38.592188 38.789344)">1.0</text>
     </g>
    </g>
    <g id="text_14">
     <text style="font: 700 10px 'DejaVu Sans', 'Bitstream Vera Sans', 'Computer Modern Sans Serif', 'Lucida Grande', 'Verdana', 'Geneva', 'Lucid', 'Arial', 'Helvetica', 'Avant Garde', sans-serif; text-anchor: middle" x="14.798438" y="155.374125" transform="rotate(-90 14.798438 155.374125)">true positive rate</text>
    </g>
   </g>
   <g id="line2d_25">
    <path d="M 60.597902 288.430125 
L 60.597902 130.426125 
L 60.863616 130.426125 
L 60.863616 86.074125 
L 61.12933 86.074125 
L 61.12933 65.482125 
L 61.395045 65.482125 
L 61.395045 64.294125 
L 61.660759 64.294125 
L 61.660759 63.898125 
L 61.926473 63.898125 
L 61.926473 61.126125 
L 62.192188 61.126125 
L 62.192188 57.958125 
L 62.723616 57.958125 
L 62.723616 56.770125 
L 63.255045 56.770125 
L 63.255045 56.374125 
L 63.520759 56.374125 
L 63.520759 54.394125 
L 63.786473 54.394125 
L 63.786473 53.206125 
L 64.583616 53.206125 
L 64.583616 52.018125 
L 64.84933 52.018125 
L 64.84933 51.622125 
L 65.380759 51.622125 
L 65.380759 50.830125 
L 65.646473 50.830125 
L 65.646473 50.038125 
L 65.912188 50.038125 
L 65.912188 49.246125 
L 66.70933 49.246125 
L 66.70933 48.850125 
L 66.975045 48.850125 
L 66.975045 48.058125 
L 67.240759 48.058125 
L 67.240759 47.266125 
L 67.772188 47.266125 
L 67.772188 46.870125 
L 68.56933 46.870125 
L 68.56933 46.474125 
L 68.835045 46.474125 
L 68.835045 46.078125 
L 69.632188 46.078125 
L 69.632188 45.682125 
L 70.163616 45.682125 
L 70.163616 44.890125 
L 70.695045 44.890125 
L 70.695045 44.494125 
L 71.757902 44.494125 
L 71.757902 44.098125 
L 72.555045 44.098125 
L 72.555045 43.702125 
L 74.415045 43.702125 
L 74.415045 43.306125 
L 75.477902 43.306125 
L 75.477902 42.910125 
L 76.540759 42.910125 
L 76.540759 42.514125 
L 81.58933 42.514125 
L 81.58933 42.118125 
L 83.44933 42.118125 
L 83.44933 41.722125 
L 83.980759 41.722125 
L 83.980759 41.326125 
L 95.672188 41.326125 
L 95.672188 40.930125 
L 99.657902 40.930125 
L 99.657902 40.534125 
L 101.783616 40.534125 
L 101.783616 40.138125 
L 105.503616 40.138125 
L 105.503616 39.742125 
L 123.040759 39.742125 
L 123.040759 39.346125 
L 123.306473 39.346125 
L 123.306473 38.950125 
L 141.906473 38.950125 
L 141.906473 38.554125 
L 150.675045 38.554125 
L 150.675045 38.158125 
L 152.26933 38.158125 
L 152.26933 37.762125 
L 153.863616 37.762125 
L 153.863616 37.366125 
L 164.226473 37.366125 
L 164.226473 36.970125 
L 190.000759 36.970125 
L 190.000759 36.574125 
L 194.517902 36.574125 
L 194.517902 36.178125 
L 211.257902 36.178125 
L 211.257902 35.782125 
L 249.255045 35.782125 
L 249.255045 35.386125 
L 253.240759 35.386125 
L 253.240759 34.990125 
L 400.712187 34.990125 
L 400.712187 34.990125 
" clip-path="url(#pace4e90ba9)" style="fill: none; stroke: #ff0000; stroke-width: 2; stroke-linecap: square"/>
   </g>
   <g id="line2d_26">
    <path d="M 60.597902 288.430125 
L 60.597902 249.226125 
L 60.863616 249.226125 
L 60.863616 217.150125 
L 61.12933 217.150125 
L 61.12933 215.566125 
L 61.395045 215.566125 
L 61.395045 208.042125 
L 61.660759 208.042125 
L 61.660759 204.478125 
L 62.192188 204.478125 
L 62.192188 194.974125 
L 62.457902 194.974125 
L 62.457902 194.182125 
L 62.723616 194.182125 
L 62.723616 192.202125 
L 62.98933 192.202125 
L 62.98933 187.846125 
L 63.255045 187.846125 
L 63.255045 186.262125 
L 63.520759 186.262125 
L 63.520759 181.510125 
L 63.786473 181.510125 
L 63.786473 176.362125 
L 64.052188 176.362125 
L 64.052188 174.382125 
L 64.317902 174.382125 
L 64.317902 172.798125 
L 64.583616 172.798125 
L 64.583616 162.106125 
L 64.84933 162.106125 
L 64.84933 159.730125 
L 65.115045 159.730125 
L 65.115045 151.810125 
L 65.380759 151.810125 
L 65.380759 150.226125 
L 65.646473 150.226125 
L 65.646473 149.830125 
L 67.240759 149.830125 
L 67.240759 149.038125 
L 67.506473 149.038125 
L 67.506473 147.058125 
L 67.772188 147.058125 
L 67.772188 146.266125 
L 68.037902 146.266125 
L 68.037902 145.870125 
L 68.303616 145.870125 
L 68.303616 143.494125 
L 68.56933 143.494125 
L 68.56933 132.802125 
L 68.835045 132.802125 
L 68.835045 130.030125 
L 69.100759 130.030125 
L 69.100759 129.238125 
L 69.366473 129.238125 
L 69.366473 128.446125 
L 69.632188 128.446125 
L 69.632188 113.398125 
L 70.163616 113.398125 
L 70.163616 112.210125 
L 70.42933 112.210125 
L 70.42933 109.834125 
L 70.695045 109.834125 
L 70.695045 107.458125 
L 70.960759 107.458125 
L 70.960759 106.666125 
L 71.226473 106.666125 
L 71.226473 106.270125 
L 71.492188 106.270125 
L 71.492188 102.310125 
L 71.757902 102.310125 
L 71.757902 100.330125 
L 72.023616 100.330125 
L 72.023616 97.558125 
L 72.28933 97.558125 
L 72.28933 95.578125 
L 72.555045 95.578125 
L 72.555045 93.994125 
L 73.086473 93.994125 
L 73.086473 92.014125 
L 73.617902 92.014125 
L 73.617902 90.826125 
L 73.883616 90.826125 
L 73.883616 88.054125 
L 74.415045 88.054125 
L 74.415045 87.262125 
L 74.680759 87.262125 
L 74.680759 85.282125 
L 74.946473 85.282125 
L 74.946473 83.698125 
L 75.477902 83.698125 
L 75.477902 82.510125 
L 75.743616 82.510125 
L 75.743616 78.154125 
L 76.00933 78.154125 
L 76.00933 73.402125 
L 76.275045 73.402125 
L 76.275045 71.818125 
L 76.540759 71.818125 
L 76.540759 69.838125 
L 76.806473 69.838125 
L 76.806473 67.858125 
L 77.072188 67.858125 
L 77.072188 67.462125 
L 77.603616 67.462125 
L 77.603616 65.482125 
L 77.86933 65.482125 
L 77.86933 62.710125 
L 78.135045 62.710125 
L 78.135045 62.314125 
L 78.400759 62.314125 
L 78.400759 61.126125 
L 78.666473 61.126125 
L 78.666473 60.730125 
L 78.932187 60.730125 
L 78.932187 59.542125 
L 79.463616 59.542125 
L 79.463616 59.146125 
L 80.260759 59.146125 
L 80.260759 58.750125 
L 80.526473 58.750125 
L 80.526473 58.354125 
L 80.792188 58.354125 
L 80.792188 57.958125 
L 81.323616 57.958125 
L 81.323616 57.562125 
L 81.58933 57.562125 
L 81.58933 57.166125 
L 81.855045 57.166125 
L 81.855045 55.186125 
L 82.120759 55.186125 
L 82.120759 54.394125 
L 82.386473 54.394125 
L 82.386473 53.998125 
L 82.652188 53.998125 
L 82.652188 53.602125 
L 82.917902 53.602125 
L 82.917902 52.810125 
L 83.44933 52.810125 
L 83.44933 52.414125 
L 83.715045 52.414125 
L 83.715045 51.622125 
L 83.980759 51.622125 
L 83.980759 51.226125 
L 84.512188 51.226125 
L 84.512188 50.830125 
L 85.043616 50.830125 
L 85.043616 50.434125 
L 85.30933 50.434125 
L 85.30933 50.038125 
L 86.106473 50.038125 
L 86.106473 49.246125 
L 86.372187 49.246125 
L 86.372187 48.454125 
L 86.903616 48.454125 
L 86.903616 47.266125 
L 87.435045 47.266125 
L 87.435045 46.870125 
L 87.700759 46.870125 
L 87.700759 46.078125 
L 88.497902 46.078125 
L 88.497902 45.682125 
L 89.02933 45.682125 
L 89.02933 44.890125 
L 90.357902 44.890125 
L 90.357902 44.098125 
L 90.623616 44.098125 
L 90.623616 43.702125 
L 90.88933 43.702125 
L 90.88933 43.306125 
L 91.952188 43.306125 
L 91.952188 42.514125 
L 93.812188 42.514125 
L 93.812188 42.118125 
L 94.077902 42.118125 
L 94.077902 41.722125 
L 95.937902 41.722125 
L 95.937902 41.326125 
L 96.46933 41.326125 
L 96.46933 40.534125 
L 98.595045 40.534125 
L 98.595045 40.138125 
L 99.657902 40.138125 
L 99.657902 39.742125 
L 99.923616 39.742125 
L 99.923616 39.346125 
L 102.580759 39.346125 
L 102.580759 38.950125 
L 102.846473 38.950125 
L 102.846473 38.554125 
L 103.90933 38.554125 
L 103.90933 38.158125 
L 104.440759 38.158125 
L 104.440759 37.762125 
L 104.972188 37.762125 
L 104.972188 37.366125 
L 106.035045 37.366125 
L 106.035045 36.970125 
L 111.615045 36.970125 
L 111.615045 36.574125 
L 118.257902 36.574125 
L 118.257902 36.178125 
L 128.08933 36.178125 
L 128.08933 35.782125 
L 133.403616 35.782125 
L 133.403616 35.386125 
L 210.195045 35.386125 
L 210.195045 34.990125 
L 400.712187 34.990125 
L 400.712187 34.990125 
" clip-path="url(#pace4e90ba9)" style="fill: none; stroke: #0000ff; stroke-width: 2; stroke-linecap: square"/>
   </g>
   <g id="line2d_27">
    <path d="M 60.597902 288.430125 
L 60.597902 94.786125 
L 60.863616 94.786125 
L 60.863616 82.510125 
L 61.12933 82.510125 
L 61.12933 73.798125 
L 61.395045 73.798125 
L 61.395045 69.838125 
L 61.660759 69.838125 
L 61.660759 68.650125 
L 61.926473 68.650125 
L 61.926473 67.462125 
L 62.723616 67.462125 
L 62.723616 65.482125 
L 62.98933 65.482125 
L 62.98933 65.086125 
L 63.255045 65.086125 
L 63.255045 64.294125 
L 63.520759 64.294125 
L 63.520759 62.710125 
L 63.786473 62.710125 
L 63.786473 61.918125 
L 64.317902 61.918125 
L 64.317902 61.522125 
L 64.583616 61.522125 
L 64.583616 60.730125 
L 65.115045 60.730125 
L 65.115045 60.334125 
L 66.70933 60.334125 
L 66.70933 59.938125 
L 66.975045 59.938125 
L 66.975045 59.542125 
L 67.772188 59.542125 
L 67.772188 58.750125 
L 68.56933 58.750125 
L 68.56933 57.958125 
L 68.835045 57.958125 
L 68.835045 57.562125 
L 69.366473 57.562125 
L 69.366473 56.770125 
L 69.632188 56.770125 
L 69.632188 56.374125 
L 70.42933 56.374125 
L 70.42933 55.978125 
L 71.757902 55.978125 
L 71.757902 55.186125 
L 72.555045 55.186125 
L 72.555045 54.790125 
L 73.352187 54.790125 
L 73.352187 53.602125 
L 73.617902 53.602125 
L 73.617902 53.206125 
L 73.883616 53.206125 
L 73.883616 52.810125 
L 74.415045 52.810125 
L 74.415045 52.414125 
L 75.212187 52.414125 
L 75.212187 52.018125 
L 77.603616 52.018125 
L 77.603616 51.622125 
L 78.400759 51.622125 
L 78.400759 50.830125 
L 86.903616 50.830125 
L 86.903616 50.434125 
L 88.497902 50.434125 
L 88.497902 50.038125 
L 90.623616 50.038125 
L 90.623616 49.642125 
L 91.686473 49.642125 
L 91.686473 49.246125 
L 92.483616 49.246125 
L 92.483616 48.850125 
L 96.735045 48.850125 
L 96.735045 48.454125 
L 98.063616 48.454125 
L 98.063616 48.058125 
L 98.32933 48.058125 
L 98.32933 47.662125 
L 98.595045 47.662125 
L 98.595045 46.870125 
L 101.252188 46.870125 
L 101.252188 46.474125 
L 102.315045 46.474125 
L 102.315045 46.078125 
L 106.566473 46.078125 
L 106.566473 45.682125 
L 108.692188 45.682125 
L 108.692188 45.286125 
L 110.020759 45.286125 
L 110.020759 44.890125 
L 110.286473 44.890125 
L 110.286473 44.494125 
L 115.06933 44.494125 
L 115.06933 44.098125 
L 120.64933 44.098125 
L 120.64933 43.702125 
L 131.80933 43.702125 
L 131.80933 43.306125 
L 133.935045 43.306125 
L 133.935045 42.514125 
L 135.52933 42.514125 
L 135.52933 41.722125 
L 136.060759 41.722125 
L 136.060759 41.326125 
L 136.326473 41.326125 
L 136.326473 40.930125 
L 136.857902 40.930125 
L 136.857902 40.534125 
L 138.717902 40.534125 
L 138.717902 40.138125 
L 144.297902 40.138125 
L 144.297902 39.742125 
L 146.157902 39.742125 
L 146.157902 39.346125 
L 148.54933 39.346125 
L 148.54933 38.950125 
L 158.912188 38.950125 
L 158.912188 38.554125 
L 159.70933 38.554125 
L 159.70933 38.158125 
L 171.135045 38.158125 
L 171.135045 37.762125 
L 177.777902 37.762125 
L 177.777902 37.366125 
L 180.16933 37.366125 
L 180.16933 36.970125 
L 196.377902 36.970125 
L 196.377902 36.574125 
L 200.363616 36.574125 
L 200.363616 36.178125 
L 205.943616 36.178125 
L 205.943616 35.782125 
L 225.075045 35.782125 
L 225.075045 35.386125 
L 309.572187 35.386125 
L 309.572187 34.990125 
L 400.712187 34.990125 
L 400.712187 34.990125 
" clip-path="url(#pace4e90ba9)" style="fill: none; stroke: #008000; stroke-width: 2; stroke-linecap: square"/>
   </g>
   <g id="line2d_28">
    <path d="M 60.597902 288.430125 
L 400.712187 34.990125 
" clip-path="url(#pace4e90ba9)" style="fill: none; stroke-dasharray: 7.4,3.2; stroke-dashoffset: 0; stroke: #000000; stroke-width: 2"/>
   </g>
   <g id="patch_3">
    <path d="M 43.592188 288.430125 
L 43.592188 22.318125 
" style="fill: none; stroke: #000000; stroke-width: 2; stroke-linejoin: miter; stroke-linecap: square"/>
   </g>
   <g id="patch_4">
    <path d="M 400.712188 288.430125 
L 400.712188 22.318125 
" style="fill: none; stroke: #000000; stroke-width: 2; stroke-linejoin: miter; stroke-linecap: square"/>
   </g>
   <g id="patch_5">
    <path d="M 43.592188 288.430125 
L 400.712187 288.430125 
" style="fill: none; stroke: #000000; stroke-width: 2; stroke-linejoin: miter; stroke-linecap: square"/>
   </g>
   <g id="patch_6">
    <path d="M 43.592188 22.318125 
L 400.712187 22.318125 
" style="fill: none; stroke: #000000; stroke-width: 2; stroke-linejoin: miter; stroke-linecap: square"/>
   </g>
   <g id="text_15">
    <text style="font: 700 12px 'DejaVu Sans', 'Bitstream Vera Sans', 'Computer Modern Sans Serif', 'Lucida Grande', 'Verdana', 'Geneva', 'Lucid', 'Arial', 'Helvetica', 'Avant Garde', sans-serif; text-anchor: middle" x="222.152188" y="16.318125" transform="rotate(-0 222.152188 16.318125)">Multi-class classification ROC for charge features</text>
   </g>
   <g id="legend_1">
    <g id="patch_7">
     <path d="M 134.954375 283.430125 
L 393.712188 283.430125 
Q 395.712188 283.430125 395.712188 281.430125 
L 395.712188 238.39575 
Q 395.712188 236.39575 393.712188 236.39575 
L 134.954375 236.39575 
Q 132.954375 236.39575 132.954375 238.39575 
L 132.954375 281.430125 
Q 132.954375 283.430125 134.954375 283.430125 
z
" style="fill: #ffffff; opacity: 0.8; stroke: #cccccc; stroke-linejoin: miter"/>
    </g>
    <g id="line2d_29">
     <path d="M 136.954375 244.494187 
L 146.954375 244.494187 
L 156.954375 244.494187 
" style="fill: none; stroke: #ff0000; stroke-width: 2; stroke-linecap: square"/>
    </g>
    <g id="text_16">
     <text style="font: 700 10px 'DejaVu Sans', 'Bitstream Vera Sans', 'Computer Modern Sans Serif', 'Lucida Grande', 'Verdana', 'Geneva', 'Lucid', 'Arial', 'Helvetica', 'Avant Garde', sans-serif; text-anchor: start" x="164.954375" y="247.994187" transform="rotate(-0 164.954375 247.994187)">ROC curve (area = 0.99) for class mc6</text>
    </g>
    <g id="line2d_30">
     <path d="M 136.954375 259.172312 
L 146.954375 259.172312 
L 156.954375 259.172312 
" style="fill: none; stroke: #0000ff; stroke-width: 2; stroke-linecap: square"/>
    </g>
    <g id="text_17">
     <text style="font: 700 10px 'DejaVu Sans', 'Bitstream Vera Sans', 'Computer Modern Sans Serif', 'Lucida Grande', 'Verdana', 'Geneva', 'Lucid', 'Arial', 'Helvetica', 'Avant Garde', sans-serif; text-anchor: start" x="164.954375" y="262.672312" transform="rotate(-0 164.954375 262.672312)">ROC curve (area = 0.98) for class mc6s</text>
    </g>
    <g id="line2d_31">
     <path d="M 136.954375 273.850437 
L 146.954375 273.850437 
L 156.954375 273.850437 
" style="fill: none; stroke: #008000; stroke-width: 2; stroke-linecap: square"/>
    </g>
    <g id="text_18">
     <text style="font: 700 10px 'DejaVu Sans', 'Bitstream Vera Sans', 'Computer Modern Sans Serif', 'Lucida Grande', 'Verdana', 'Geneva', 'Lucid', 'Arial', 'Helvetica', 'Avant Garde', sans-serif; text-anchor: start" x="164.954375" y="277.350437" transform="rotate(-0 164.954375 277.350437)">ROC curve (area = 0.98) for class mc6sa</text>
    </g>
   </g>
  </g>
 </g>
 <defs>
  <clipPath id="pace4e90ba9">
   <rect x="43.592188" y="22.318125" width="357.12" height="266.112"/>
  </clipPath>
 </defs>
</svg>
