<?xml version="1.0" encoding="UTF-8"?><svg id="a" xmlns="http://www.w3.org/2000/svg" width="175" height="175" viewBox="0 0 175 175"><polyline points="55.3537 75.0702 32.832 60.5773 32.832 122.2358" style="fill:none; stroke:#f4f4f4; stroke-linecap:round; stroke-linejoin:round; stroke-width:8px;"/><polyline points="142.0163 151.7444 142.0163 60.5773 87.5277 95.4606 55.3537 75.0702" style="fill:none; stroke:#f4f4f4; stroke-linecap:round; stroke-linejoin:round; stroke-width:8px;"/><line x1="11.5972" y1="18.2921" x2="87.657" y2="66.2476" style="fill:none; stroke:#f4f4f4; stroke-linecap:round; stroke-linejoin:round; stroke-width:8px;"/><polyline points="87.5277 95.4606 87.657 66.2476 162.3215 18.2921" style="fill:none; stroke:#f4f4f4; stroke-linecap:round; stroke-linejoin:round; stroke-width:8px;"/><polyline points="32.832 151.7444 11.5972 138.8748 11.5972 18.2921 34.6925 4.4707 87.5277 39.0267 140.1558 4.4707 162.3215 18.2921 163.2511 138.8748 142.0163 151.7444 119.4946 139.514 119.4946 74.9956" style="fill:none; stroke:#f4f4f4; stroke-linecap:round; stroke-linejoin:round; stroke-width:8px;"/><line x1="55.3537" y1="75.0702" x2="55.3537" y2="110.3897" style="fill:none; stroke:#f4f4f4; stroke-linecap:round; stroke-linejoin:round; stroke-width:8px;"/><polyline points="65.9759 171.2848 88.4736 158.9971 88.4736 130.018" style="fill:none; stroke:#f4f4f4; stroke-linecap:round; stroke-linejoin:round; stroke-width:8px;"/><polyline points="65.9759 142.2474 32.832 122.2358 55.3537 110.3897 88.4736 129.9396 65.9759 142.2474 65.9759 171.2848 32.832 151.7401" style="fill:none; stroke:#f4f4f4; stroke-linecap:round; stroke-linejoin:round; stroke-width:8px;"/></svg>